solid OpenSCAD_Model
  facet normal 1 -0 0
    outer loop
      vertex 15 0.881921 0.471396
      vertex 15 3.4641 3.33067e-015
      vertex 15 1.73205 3
    endloop
  endfacet
  facet normal 1 0 0
    outer loop
      vertex 15 0.995184 -0.0980167
      vertex 15 3.4641 3.33067e-015
      vertex 15 1 3.33067e-015
    endloop
  endfacet
  facet normal 1 0 0
    outer loop
      vertex 15 3.4641 3.33067e-015
      vertex 15 0.995184 0.0980167
      vertex 15 1 3.33067e-015
    endloop
  endfacet
  facet normal 1 0 0
    outer loop
      vertex 15 3.4641 3.33067e-015
      vertex 15 0.980784 0.19509
      vertex 15 0.995184 0.0980167
    endloop
  endfacet
  facet normal 1 0 0
    outer loop
      vertex 15 3.4641 3.33067e-015
      vertex 15 0.95694 0.290284
      vertex 15 0.980784 0.19509
    endloop
  endfacet
  facet normal 1 0 0
    outer loop
      vertex 15 3.4641 3.33067e-015
      vertex 15 0.923879 0.382683
      vertex 15 0.95694 0.290284
    endloop
  endfacet
  facet normal 1 0 0
    outer loop
      vertex 15 3.4641 3.33067e-015
      vertex 15 0.881921 0.471396
      vertex 15 0.923879 0.382683
    endloop
  endfacet
  facet normal 1 0 0
    outer loop
      vertex 15 1.73205 3
      vertex 15 0.83147 0.55557
      vertex 15 0.881921 0.471396
    endloop
  endfacet
  facet normal 1 0 0
    outer loop
      vertex 15 1.73205 3
      vertex 15 0.77301 0.634393
      vertex 15 0.83147 0.55557
    endloop
  endfacet
  facet normal 1 0 0
    outer loop
      vertex 15 1.73205 3
      vertex 15 0.707107 0.707107
      vertex 15 0.77301 0.634393
    endloop
  endfacet
  facet normal 1 0 0
    outer loop
      vertex 15 1.73205 3
      vertex 15 0.634393 0.77301
      vertex 15 0.707107 0.707107
    endloop
  endfacet
  facet normal 1 0 0
    outer loop
      vertex 15 1.73205 3
      vertex 15 0.55557 0.83147
      vertex 15 0.634393 0.77301
    endloop
  endfacet
  facet normal 1 0 0
    outer loop
      vertex 15 1.73205 3
      vertex 15 0.471396 0.881921
      vertex 15 0.55557 0.83147
    endloop
  endfacet
  facet normal 1 0 0
    outer loop
      vertex 15 1.73205 3
      vertex 15 0.382683 0.923879
      vertex 15 0.471396 0.881921
    endloop
  endfacet
  facet normal 1 0 0
    outer loop
      vertex 15 1.73205 3
      vertex 15 0.290284 0.95694
      vertex 15 0.382683 0.923879
    endloop
  endfacet
  facet normal 1 0 0
    outer loop
      vertex 15 1.73205 3
      vertex 15 0.19509 0.980784
      vertex 15 0.290284 0.95694
    endloop
  endfacet
  facet normal 1 0 0
    outer loop
      vertex 15 1.73205 3
      vertex 15 0.0980167 0.995184
      vertex 15 0.19509 0.980784
    endloop
  endfacet
  facet normal 1 0 0
    outer loop
      vertex 15 1.73205 3
      vertex 15 -3.33067e-015 1
      vertex 15 0.0980167 0.995184
    endloop
  endfacet
  facet normal 1 -0 0
    outer loop
      vertex 15 -1.73205 3
      vertex 15 -3.33067e-015 1
      vertex 15 1.73205 3
    endloop
  endfacet
  facet normal 1 0 0
    outer loop
      vertex 15 -3.33067e-015 1
      vertex 15 -1.73205 3
      vertex 15 -0.0980167 0.995184
    endloop
  endfacet
  facet normal 1 0 0
    outer loop
      vertex 15 -0.0980167 0.995184
      vertex 15 -1.73205 3
      vertex 15 -0.19509 0.980784
    endloop
  endfacet
  facet normal 1 0 0
    outer loop
      vertex 15 -0.19509 0.980784
      vertex 15 -1.73205 3
      vertex 15 -0.290284 0.95694
    endloop
  endfacet
  facet normal 1 0 0
    outer loop
      vertex 15 -0.290284 0.95694
      vertex 15 -1.73205 3
      vertex 15 -0.382683 0.923879
    endloop
  endfacet
  facet normal 1 0 0
    outer loop
      vertex 15 -0.382683 0.923879
      vertex 15 -1.73205 3
      vertex 15 -0.471396 0.881921
    endloop
  endfacet
  facet normal 1 0 0
    outer loop
      vertex 15 -0.471396 0.881921
      vertex 15 -1.73205 3
      vertex 15 -0.55557 0.83147
    endloop
  endfacet
  facet normal 1 0 0
    outer loop
      vertex 15 -0.55557 0.83147
      vertex 15 -1.73205 3
      vertex 15 -0.634393 0.77301
    endloop
  endfacet
  facet normal 1 0 0
    outer loop
      vertex 15 -0.980784 0.19509
      vertex 15 -3.4641 3.33067e-015
      vertex 15 -0.995184 0.0980167
    endloop
  endfacet
  facet normal 1 0 0
    outer loop
      vertex 15 -0.95694 0.290284
      vertex 15 -3.4641 3.33067e-015
      vertex 15 -0.980784 0.19509
    endloop
  endfacet
  facet normal 1 0 0
    outer loop
      vertex 15 -0.923879 0.382683
      vertex 15 -3.4641 3.33067e-015
      vertex 15 -0.95694 0.290284
    endloop
  endfacet
  facet normal 1 0 0
    outer loop
      vertex 15 -0.881921 0.471396
      vertex 15 -3.4641 3.33067e-015
      vertex 15 -0.923879 0.382683
    endloop
  endfacet
  facet normal 1 0 0
    outer loop
      vertex 15 -3.4641 3.33067e-015
      vertex 15 -0.881921 0.471396
      vertex 15 -1.73205 3
    endloop
  endfacet
  facet normal 1 0 0
    outer loop
      vertex 15 -0.83147 0.55557
      vertex 15 -1.73205 3
      vertex 15 -0.881921 0.471396
    endloop
  endfacet
  facet normal 1 0 0
    outer loop
      vertex 15 -0.77301 0.634393
      vertex 15 -1.73205 3
      vertex 15 -0.83147 0.55557
    endloop
  endfacet
  facet normal 1 0 0
    outer loop
      vertex 15 -0.707107 0.707107
      vertex 15 -1.73205 3
      vertex 15 -0.77301 0.634393
    endloop
  endfacet
  facet normal 1 0 0
    outer loop
      vertex 15 -0.634393 0.77301
      vertex 15 -1.73205 3
      vertex 15 -0.707107 0.707107
    endloop
  endfacet
  facet normal 1 0 0
    outer loop
      vertex 15 0.980784 -0.19509
      vertex 15 3.4641 3.33067e-015
      vertex 15 0.995184 -0.0980167
    endloop
  endfacet
  facet normal 1 0 0
    outer loop
      vertex 15 0.95694 -0.290284
      vertex 15 3.4641 3.33067e-015
      vertex 15 0.980784 -0.19509
    endloop
  endfacet
  facet normal 1 0 0
    outer loop
      vertex 15 0.923879 -0.382683
      vertex 15 3.4641 3.33067e-015
      vertex 15 0.95694 -0.290284
    endloop
  endfacet
  facet normal 1 0 0
    outer loop
      vertex 15 0.881921 -0.471396
      vertex 15 3.4641 3.33067e-015
      vertex 15 0.923879 -0.382683
    endloop
  endfacet
  facet normal 1 0 0
    outer loop
      vertex 15 3.4641 3.33067e-015
      vertex 15 0.881921 -0.471396
      vertex 15 1.73205 -3
    endloop
  endfacet
  facet normal 1 -0 0
    outer loop
      vertex 15 0.83147 -0.55557
      vertex 15 1.73205 -3
      vertex 15 0.881921 -0.471396
    endloop
  endfacet
  facet normal 1 -0 0
    outer loop
      vertex 15 0.77301 -0.634393
      vertex 15 1.73205 -3
      vertex 15 0.83147 -0.55557
    endloop
  endfacet
  facet normal 1 -0 0
    outer loop
      vertex 15 0.707107 -0.707107
      vertex 15 1.73205 -3
      vertex 15 0.77301 -0.634393
    endloop
  endfacet
  facet normal 1 -0 0
    outer loop
      vertex 15 0.634393 -0.77301
      vertex 15 1.73205 -3
      vertex 15 0.707107 -0.707107
    endloop
  endfacet
  facet normal 1 -0 0
    outer loop
      vertex 15 0.55557 -0.83147
      vertex 15 1.73205 -3
      vertex 15 0.634393 -0.77301
    endloop
  endfacet
  facet normal 1 -0 0
    outer loop
      vertex 15 0.471396 -0.881921
      vertex 15 1.73205 -3
      vertex 15 0.55557 -0.83147
    endloop
  endfacet
  facet normal 1 -0 0
    outer loop
      vertex 15 0.382683 -0.923879
      vertex 15 1.73205 -3
      vertex 15 0.471396 -0.881921
    endloop
  endfacet
  facet normal 1 -0 0
    outer loop
      vertex 15 0.290284 -0.95694
      vertex 15 1.73205 -3
      vertex 15 0.382683 -0.923879
    endloop
  endfacet
  facet normal 1 -0 0
    outer loop
      vertex 15 0.19509 -0.980784
      vertex 15 1.73205 -3
      vertex 15 0.290284 -0.95694
    endloop
  endfacet
  facet normal 1 -0 0
    outer loop
      vertex 15 0.0980167 -0.995184
      vertex 15 1.73205 -3
      vertex 15 0.19509 -0.980784
    endloop
  endfacet
  facet normal 1 -0 0
    outer loop
      vertex 15 -3.33067e-015 -1
      vertex 15 1.73205 -3
      vertex 15 0.0980167 -0.995184
    endloop
  endfacet
  facet normal 1 0 0
    outer loop
      vertex 15 -1.73205 -3
      vertex 15 -3.33067e-015 -1
      vertex 15 -0.0980167 -0.995184
    endloop
  endfacet
  facet normal 1 0 0
    outer loop
      vertex 15 -1.73205 -3
      vertex 15 -0.0980167 -0.995184
      vertex 15 -0.19509 -0.980784
    endloop
  endfacet
  facet normal 1 0 0
    outer loop
      vertex 15 -1.73205 -3
      vertex 15 -0.19509 -0.980784
      vertex 15 -0.290284 -0.95694
    endloop
  endfacet
  facet normal 1 0 0
    outer loop
      vertex 15 -1.73205 -3
      vertex 15 -0.290284 -0.95694
      vertex 15 -0.382683 -0.923879
    endloop
  endfacet
  facet normal 1 0 0
    outer loop
      vertex 15 -1.73205 -3
      vertex 15 -0.382683 -0.923879
      vertex 15 -0.471396 -0.881921
    endloop
  endfacet
  facet normal 1 0 0
    outer loop
      vertex 15 -1.73205 -3
      vertex 15 -0.471396 -0.881921
      vertex 15 -0.55557 -0.83147
    endloop
  endfacet
  facet normal 1 0 0
    outer loop
      vertex 15 -1.73205 -3
      vertex 15 -0.55557 -0.83147
      vertex 15 -0.634393 -0.77301
    endloop
  endfacet
  facet normal 1 0 0
    outer loop
      vertex 15 -1.73205 -3
      vertex 15 -0.634393 -0.77301
      vertex 15 -0.707107 -0.707107
    endloop
  endfacet
  facet normal 1 0 0
    outer loop
      vertex 15 -0.995184 0.0980167
      vertex 15 -3.4641 3.33067e-015
      vertex 15 -1 3.33067e-015
    endloop
  endfacet
  facet normal 1 0 0
    outer loop
      vertex 15 -1 3.33067e-015
      vertex 15 -3.4641 3.33067e-015
      vertex 15 -0.995184 -0.0980167
    endloop
  endfacet
  facet normal 1 0 0
    outer loop
      vertex 15 -3.33067e-015 -1
      vertex 15 -1.73205 -3
      vertex 15 1.73205 -3
    endloop
  endfacet
  facet normal 1 0 0
    outer loop
      vertex 15 -0.77301 -0.634393
      vertex 15 -1.73205 -3
      vertex 15 -0.707107 -0.707107
    endloop
  endfacet
  facet normal 1 0 0
    outer loop
      vertex 15 -0.83147 -0.55557
      vertex 15 -1.73205 -3
      vertex 15 -0.77301 -0.634393
    endloop
  endfacet
  facet normal 1 0 0
    outer loop
      vertex 15 -0.881921 -0.471396
      vertex 15 -1.73205 -3
      vertex 15 -0.83147 -0.55557
    endloop
  endfacet
  facet normal 1 0 0
    outer loop
      vertex 15 -3.4641 3.33067e-015
      vertex 15 -0.881921 -0.471396
      vertex 15 -0.923879 -0.382683
    endloop
  endfacet
  facet normal 1 0 0
    outer loop
      vertex 15 -3.4641 3.33067e-015
      vertex 15 -0.923879 -0.382683
      vertex 15 -0.95694 -0.290284
    endloop
  endfacet
  facet normal 1 0 0
    outer loop
      vertex 15 -3.4641 3.33067e-015
      vertex 15 -0.95694 -0.290284
      vertex 15 -0.980784 -0.19509
    endloop
  endfacet
  facet normal 1 0 0
    outer loop
      vertex 15 -0.995184 -0.0980167
      vertex 15 -3.4641 3.33067e-015
      vertex 15 -0.980784 -0.19509
    endloop
  endfacet
  facet normal 1 0 0
    outer loop
      vertex 15 -0.881921 -0.471396
      vertex 15 -3.4641 3.33067e-015
      vertex 15 -1.73205 -3
    endloop
  endfacet
  facet normal -1 0 0
    outer loop
      vertex -15 0.881921 -0.471396
      vertex -15 3.4641 -3.33067e-015
      vertex -15 1.73205 -3
    endloop
  endfacet
  facet normal -1 0 0
    outer loop
      vertex -15 0.995184 0.0980167
      vertex -15 3.4641 -3.33067e-015
      vertex -15 1 -3.33067e-015
    endloop
  endfacet
  facet normal -1 -0 0
    outer loop
      vertex -15 3.4641 -3.33067e-015
      vertex -15 0.995184 -0.0980167
      vertex -15 1 -3.33067e-015
    endloop
  endfacet
  facet normal -1 0 0
    outer loop
      vertex -15 3.4641 -3.33067e-015
      vertex -15 0.980784 -0.19509
      vertex -15 0.995184 -0.0980167
    endloop
  endfacet
  facet normal -1 0 0
    outer loop
      vertex -15 3.4641 -3.33067e-015
      vertex -15 0.95694 -0.290284
      vertex -15 0.980784 -0.19509
    endloop
  endfacet
  facet normal -1 0 0
    outer loop
      vertex -15 3.4641 -3.33067e-015
      vertex -15 0.923879 -0.382683
      vertex -15 0.95694 -0.290284
    endloop
  endfacet
  facet normal -1 0 0
    outer loop
      vertex -15 3.4641 -3.33067e-015
      vertex -15 0.881921 -0.471396
      vertex -15 0.923879 -0.382683
    endloop
  endfacet
  facet normal -1 0 0
    outer loop
      vertex -15 1.73205 -3
      vertex -15 0.83147 -0.55557
      vertex -15 0.881921 -0.471396
    endloop
  endfacet
  facet normal -1 0 0
    outer loop
      vertex -15 1.73205 -3
      vertex -15 0.77301 -0.634393
      vertex -15 0.83147 -0.55557
    endloop
  endfacet
  facet normal -1 0 0
    outer loop
      vertex -15 1.73205 -3
      vertex -15 0.707107 -0.707107
      vertex -15 0.77301 -0.634393
    endloop
  endfacet
  facet normal -1 0 0
    outer loop
      vertex -15 1.73205 -3
      vertex -15 0.634393 -0.77301
      vertex -15 0.707107 -0.707107
    endloop
  endfacet
  facet normal -1 0 0
    outer loop
      vertex -15 1.73205 -3
      vertex -15 0.55557 -0.83147
      vertex -15 0.634393 -0.77301
    endloop
  endfacet
  facet normal -1 0 0
    outer loop
      vertex -15 1.73205 -3
      vertex -15 0.471396 -0.881921
      vertex -15 0.55557 -0.83147
    endloop
  endfacet
  facet normal -1 0 0
    outer loop
      vertex -15 1.73205 -3
      vertex -15 0.382683 -0.923879
      vertex -15 0.471396 -0.881921
    endloop
  endfacet
  facet normal -1 0 0
    outer loop
      vertex -15 1.73205 -3
      vertex -15 0.290284 -0.95694
      vertex -15 0.382683 -0.923879
    endloop
  endfacet
  facet normal -1 0 0
    outer loop
      vertex -15 1.73205 -3
      vertex -15 0.19509 -0.980784
      vertex -15 0.290284 -0.95694
    endloop
  endfacet
  facet normal -1 0 0
    outer loop
      vertex -15 1.73205 -3
      vertex -15 0.0980167 -0.995184
      vertex -15 0.19509 -0.980784
    endloop
  endfacet
  facet normal -1 0 0
    outer loop
      vertex -15 1.73205 -3
      vertex -15 3.33067e-015 -1
      vertex -15 0.0980167 -0.995184
    endloop
  endfacet
  facet normal -1 0 0
    outer loop
      vertex -15 -1.73205 -3
      vertex -15 3.33067e-015 -1
      vertex -15 1.73205 -3
    endloop
  endfacet
  facet normal -1 -0 0
    outer loop
      vertex -15 3.33067e-015 -1
      vertex -15 -1.73205 -3
      vertex -15 -0.0980167 -0.995184
    endloop
  endfacet
  facet normal -1 -0 0
    outer loop
      vertex -15 -0.0980167 -0.995184
      vertex -15 -1.73205 -3
      vertex -15 -0.19509 -0.980784
    endloop
  endfacet
  facet normal -1 -0 0
    outer loop
      vertex -15 -0.19509 -0.980784
      vertex -15 -1.73205 -3
      vertex -15 -0.290284 -0.95694
    endloop
  endfacet
  facet normal -1 -0 0
    outer loop
      vertex -15 -0.290284 -0.95694
      vertex -15 -1.73205 -3
      vertex -15 -0.382683 -0.923879
    endloop
  endfacet
  facet normal -1 -0 0
    outer loop
      vertex -15 -0.382683 -0.923879
      vertex -15 -1.73205 -3
      vertex -15 -0.471396 -0.881921
    endloop
  endfacet
  facet normal -1 -0 0
    outer loop
      vertex -15 -0.471396 -0.881921
      vertex -15 -1.73205 -3
      vertex -15 -0.55557 -0.83147
    endloop
  endfacet
  facet normal -1 -0 0
    outer loop
      vertex -15 -0.55557 -0.83147
      vertex -15 -1.73205 -3
      vertex -15 -0.634393 -0.77301
    endloop
  endfacet
  facet normal -1 0 0
    outer loop
      vertex -15 -0.980784 -0.19509
      vertex -15 -3.4641 -3.33067e-015
      vertex -15 -0.995184 -0.0980167
    endloop
  endfacet
  facet normal -1 0 0
    outer loop
      vertex -15 -0.95694 -0.290284
      vertex -15 -3.4641 -3.33067e-015
      vertex -15 -0.980784 -0.19509
    endloop
  endfacet
  facet normal -1 0 0
    outer loop
      vertex -15 -0.923879 -0.382683
      vertex -15 -3.4641 -3.33067e-015
      vertex -15 -0.95694 -0.290284
    endloop
  endfacet
  facet normal -1 0 0
    outer loop
      vertex -15 -0.881921 -0.471396
      vertex -15 -3.4641 -3.33067e-015
      vertex -15 -0.923879 -0.382683
    endloop
  endfacet
  facet normal -1 0 0
    outer loop
      vertex -15 -3.4641 -3.33067e-015
      vertex -15 -0.881921 -0.471396
      vertex -15 -1.73205 -3
    endloop
  endfacet
  facet normal -1 -0 0
    outer loop
      vertex -15 -0.83147 -0.55557
      vertex -15 -1.73205 -3
      vertex -15 -0.881921 -0.471396
    endloop
  endfacet
  facet normal -1 -0 0
    outer loop
      vertex -15 -0.77301 -0.634393
      vertex -15 -1.73205 -3
      vertex -15 -0.83147 -0.55557
    endloop
  endfacet
  facet normal -1 -0 0
    outer loop
      vertex -15 -0.707107 -0.707107
      vertex -15 -1.73205 -3
      vertex -15 -0.77301 -0.634393
    endloop
  endfacet
  facet normal -1 -0 0
    outer loop
      vertex -15 -0.634393 -0.77301
      vertex -15 -1.73205 -3
      vertex -15 -0.707107 -0.707107
    endloop
  endfacet
  facet normal -1 0 0
    outer loop
      vertex -15 0.980784 0.19509
      vertex -15 3.4641 -3.33067e-015
      vertex -15 0.995184 0.0980167
    endloop
  endfacet
  facet normal -1 0 0
    outer loop
      vertex -15 0.95694 0.290284
      vertex -15 3.4641 -3.33067e-015
      vertex -15 0.980784 0.19509
    endloop
  endfacet
  facet normal -1 0 0
    outer loop
      vertex -15 0.923879 0.382683
      vertex -15 3.4641 -3.33067e-015
      vertex -15 0.95694 0.290284
    endloop
  endfacet
  facet normal -1 0 0
    outer loop
      vertex -15 0.881921 0.471396
      vertex -15 3.4641 -3.33067e-015
      vertex -15 0.923879 0.382683
    endloop
  endfacet
  facet normal -1 0 0
    outer loop
      vertex -15 3.4641 -3.33067e-015
      vertex -15 0.881921 0.471396
      vertex -15 1.73205 3
    endloop
  endfacet
  facet normal -1 0 0
    outer loop
      vertex -15 0.83147 0.55557
      vertex -15 1.73205 3
      vertex -15 0.881921 0.471396
    endloop
  endfacet
  facet normal -1 0 0
    outer loop
      vertex -15 0.77301 0.634393
      vertex -15 1.73205 3
      vertex -15 0.83147 0.55557
    endloop
  endfacet
  facet normal -1 0 0
    outer loop
      vertex -15 0.707107 0.707107
      vertex -15 1.73205 3
      vertex -15 0.77301 0.634393
    endloop
  endfacet
  facet normal -1 0 0
    outer loop
      vertex -15 0.634393 0.77301
      vertex -15 1.73205 3
      vertex -15 0.707107 0.707107
    endloop
  endfacet
  facet normal -1 0 0
    outer loop
      vertex -15 0.55557 0.83147
      vertex -15 1.73205 3
      vertex -15 0.634393 0.77301
    endloop
  endfacet
  facet normal -1 0 0
    outer loop
      vertex -15 0.471396 0.881921
      vertex -15 1.73205 3
      vertex -15 0.55557 0.83147
    endloop
  endfacet
  facet normal -1 0 0
    outer loop
      vertex -15 0.382683 0.923879
      vertex -15 1.73205 3
      vertex -15 0.471396 0.881921
    endloop
  endfacet
  facet normal -1 0 0
    outer loop
      vertex -15 0.290284 0.95694
      vertex -15 1.73205 3
      vertex -15 0.382683 0.923879
    endloop
  endfacet
  facet normal -1 0 0
    outer loop
      vertex -15 0.19509 0.980784
      vertex -15 1.73205 3
      vertex -15 0.290284 0.95694
    endloop
  endfacet
  facet normal -1 0 0
    outer loop
      vertex -15 0.0980167 0.995184
      vertex -15 1.73205 3
      vertex -15 0.19509 0.980784
    endloop
  endfacet
  facet normal -1 0 0
    outer loop
      vertex -15 3.33067e-015 1
      vertex -15 1.73205 3
      vertex -15 0.0980167 0.995184
    endloop
  endfacet
  facet normal -1 0 0
    outer loop
      vertex -15 -1.73205 3
      vertex -15 3.33067e-015 1
      vertex -15 -0.0980167 0.995184
    endloop
  endfacet
  facet normal -1 0 0
    outer loop
      vertex -15 -1.73205 3
      vertex -15 -0.0980167 0.995184
      vertex -15 -0.19509 0.980784
    endloop
  endfacet
  facet normal -1 0 0
    outer loop
      vertex -15 -1.73205 3
      vertex -15 -0.19509 0.980784
      vertex -15 -0.290284 0.95694
    endloop
  endfacet
  facet normal -1 0 0
    outer loop
      vertex -15 -1.73205 3
      vertex -15 -0.290284 0.95694
      vertex -15 -0.382683 0.923879
    endloop
  endfacet
  facet normal -1 0 0
    outer loop
      vertex -15 -1.73205 3
      vertex -15 -0.382683 0.923879
      vertex -15 -0.471396 0.881921
    endloop
  endfacet
  facet normal -1 0 0
    outer loop
      vertex -15 -1.73205 3
      vertex -15 -0.471396 0.881921
      vertex -15 -0.55557 0.83147
    endloop
  endfacet
  facet normal -1 0 0
    outer loop
      vertex -15 -1.73205 3
      vertex -15 -0.55557 0.83147
      vertex -15 -0.634393 0.77301
    endloop
  endfacet
  facet normal -1 0 0
    outer loop
      vertex -15 -1.73205 3
      vertex -15 -0.634393 0.77301
      vertex -15 -0.707107 0.707107
    endloop
  endfacet
  facet normal -1 0 0
    outer loop
      vertex -15 -0.995184 -0.0980167
      vertex -15 -3.4641 -3.33067e-015
      vertex -15 -1 -3.33067e-015
    endloop
  endfacet
  facet normal -1 0 0
    outer loop
      vertex -15 -1 -3.33067e-015
      vertex -15 -3.4641 -3.33067e-015
      vertex -15 -0.995184 0.0980167
    endloop
  endfacet
  facet normal -1 0 0
    outer loop
      vertex -15 3.33067e-015 1
      vertex -15 -1.73205 3
      vertex -15 1.73205 3
    endloop
  endfacet
  facet normal -1 0 0
    outer loop
      vertex -15 -0.77301 0.634393
      vertex -15 -1.73205 3
      vertex -15 -0.707107 0.707107
    endloop
  endfacet
  facet normal -1 0 0
    outer loop
      vertex -15 -0.83147 0.55557
      vertex -15 -1.73205 3
      vertex -15 -0.77301 0.634393
    endloop
  endfacet
  facet normal -1 0 0
    outer loop
      vertex -15 -0.881921 0.471396
      vertex -15 -1.73205 3
      vertex -15 -0.83147 0.55557
    endloop
  endfacet
  facet normal -1 0 0
    outer loop
      vertex -15 -3.4641 -3.33067e-015
      vertex -15 -0.881921 0.471396
      vertex -15 -0.923879 0.382683
    endloop
  endfacet
  facet normal -1 0 0
    outer loop
      vertex -15 -3.4641 -3.33067e-015
      vertex -15 -0.923879 0.382683
      vertex -15 -0.95694 0.290284
    endloop
  endfacet
  facet normal -1 0 0
    outer loop
      vertex -15 -3.4641 -3.33067e-015
      vertex -15 -0.95694 0.290284
      vertex -15 -0.980784 0.19509
    endloop
  endfacet
  facet normal -1 -0 0
    outer loop
      vertex -15 -0.995184 0.0980167
      vertex -15 -3.4641 -3.33067e-015
      vertex -15 -0.980784 0.19509
    endloop
  endfacet
  facet normal -1 -0 0
    outer loop
      vertex -15 -0.881921 0.471396
      vertex -15 -3.4641 -3.33067e-015
      vertex -15 -1.73205 3
    endloop
  endfacet
  facet normal 1.19651e-016 -0.866025 -0.5
    outer loop
      vertex -15 -1.73205 -3
      vertex 15 -3.4641 3.33067e-015
      vertex -15 -3.4641 -3.33067e-015
    endloop
  endfacet
  facet normal 0 -0.866025 -0.5
    outer loop
      vertex 15 -3.4641 3.33067e-015
      vertex -15 -1.73205 -3
      vertex 15 -1.73205 -3
    endloop
  endfacet
  facet normal 0 0.866025 0.5
    outer loop
      vertex 15 3.4641 3.33067e-015
      vertex -15 1.73205 3
      vertex 15 1.73205 3
    endloop
  endfacet
  facet normal -1.19651e-016 0.866025 0.5
    outer loop
      vertex -15 1.73205 3
      vertex 15 3.4641 3.33067e-015
      vertex -15 3.4641 -3.33067e-015
    endloop
  endfacet
  facet normal -0 0 1
    outer loop
      vertex -15 1.73205 3
      vertex 15 -1.73205 3
      vertex 15 1.73205 3
    endloop
  endfacet
  facet normal 0 0 1
    outer loop
      vertex 15 -1.73205 3
      vertex -15 1.73205 3
      vertex -15 -1.73205 3
    endloop
  endfacet
  facet normal 0 0 -1
    outer loop
      vertex -15 -1.73205 -3
      vertex 15 1.73205 -3
      vertex 15 -1.73205 -3
    endloop
  endfacet
  facet normal -0 0 -1
    outer loop
      vertex 15 1.73205 -3
      vertex -15 -1.73205 -3
      vertex -15 1.73205 -3
    endloop
  endfacet
  facet normal 1.19651e-016 0.866025 -0.5
    outer loop
      vertex 15 1.73205 -3
      vertex -15 3.4641 -3.33067e-015
      vertex 15 3.4641 3.33067e-015
    endloop
  endfacet
  facet normal 0 0.866025 -0.5
    outer loop
      vertex -15 3.4641 -3.33067e-015
      vertex 15 1.73205 -3
      vertex -15 1.73205 -3
    endloop
  endfacet
  facet normal 0 -0.866025 0.5
    outer loop
      vertex -15 -1.73205 3
      vertex 15 -3.4641 3.33067e-015
      vertex 15 -1.73205 3
    endloop
  endfacet
  facet normal -1.11022e-016 -0.866025 0.5
    outer loop
      vertex 15 -3.4641 3.33067e-015
      vertex -15 -1.73205 3
      vertex -15 -3.4641 -3.33067e-015
    endloop
  endfacet
  facet normal 0 -0.998795 -0.0490758
    outer loop
      vertex -15 0.995184 0.0980167
      vertex 15 1 3.33067e-015
      vertex 15 0.995184 0.0980167
    endloop
  endfacet
  facet normal 1.0897e-017 -0.998795 -0.0490758
    outer loop
      vertex 15 1 3.33067e-015
      vertex -15 0.995184 0.0980167
      vertex -15 1 -3.33067e-015
    endloop
  endfacet
  facet normal 0 0.998795 -0.0490758
    outer loop
      vertex 15 -1 3.33067e-015
      vertex -15 -0.995184 0.0980167
      vertex 15 -0.995184 0.0980167
    endloop
  endfacet
  facet normal 1.09008e-017 0.998795 -0.0490758
    outer loop
      vertex -15 -0.995184 0.0980167
      vertex 15 -1 3.33067e-015
      vertex -15 -1 -3.33067e-015
    endloop
  endfacet
  facet normal -1.0897e-017 -0.0490758 -0.998795
    outer loop
      vertex -15 3.33067e-015 1
      vertex 15 0.0980167 0.995184
      vertex 15 -3.33067e-015 1
    endloop
  endfacet
  facet normal -0 -0.0490758 -0.998795
    outer loop
      vertex 15 0.0980167 0.995184
      vertex -15 3.33067e-015 1
      vertex -15 0.0980167 0.995184
    endloop
  endfacet
  facet normal 0 -0.740953 -0.671557
    outer loop
      vertex -15 0.77301 0.634393
      vertex 15 0.707107 0.707107
      vertex -15 0.707107 0.707107
    endloop
  endfacet
  facet normal 0 -0.740953 -0.671557
    outer loop
      vertex 15 0.707107 0.707107
      vertex -15 0.77301 0.634393
      vertex 15 0.77301 0.634393
    endloop
  endfacet
  facet normal 0 0.671557 -0.740953
    outer loop
      vertex -15 -0.707107 0.707107
      vertex 15 -0.634393 0.77301
      vertex 15 -0.707107 0.707107
    endloop
  endfacet
  facet normal 0 0.671557 -0.740953
    outer loop
      vertex 15 -0.634393 0.77301
      vertex -15 -0.707107 0.707107
      vertex -15 -0.634393 0.77301
    endloop
  endfacet
  facet normal 0 0.336892 -0.941543
    outer loop
      vertex -15 -0.382683 0.923879
      vertex 15 -0.290284 0.95694
      vertex 15 -0.382683 0.923879
    endloop
  endfacet
  facet normal 0 0.336892 -0.941543
    outer loop
      vertex 15 -0.290284 0.95694
      vertex -15 -0.382683 0.923879
      vertex -15 -0.290284 0.95694
    endloop
  endfacet
  facet normal 0 -0.903992 -0.42755
    outer loop
      vertex -15 0.923879 0.382683
      vertex 15 0.881921 0.471396
      vertex -15 0.881921 0.471396
    endloop
  endfacet
  facet normal 0 -0.903992 -0.42755
    outer loop
      vertex 15 0.881921 0.471396
      vertex -15 0.923879 0.382683
      vertex 15 0.923879 0.382683
    endloop
  endfacet
  facet normal 0 -0.857729 -0.514101
    outer loop
      vertex -15 0.881921 0.471396
      vertex 15 0.83147 0.55557
      vertex -15 0.83147 0.55557
    endloop
  endfacet
  facet normal 0 -0.857729 -0.514101
    outer loop
      vertex 15 0.83147 0.55557
      vertex -15 0.881921 0.471396
      vertex 15 0.881921 0.471396
    endloop
  endfacet
  facet normal 0 -0.42755 -0.903992
    outer loop
      vertex -15 0.382683 0.923879
      vertex 15 0.471396 0.881921
      vertex 15 0.382683 0.923879
    endloop
  endfacet
  facet normal -0 -0.42755 -0.903992
    outer loop
      vertex 15 0.471396 0.881921
      vertex -15 0.382683 0.923879
      vertex -15 0.471396 0.881921
    endloop
  endfacet
  facet normal 0 -0.5957 -0.803207
    outer loop
      vertex -15 0.55557 0.83147
      vertex 15 0.634393 0.77301
      vertex 15 0.55557 0.83147
    endloop
  endfacet
  facet normal -0 -0.5957 -0.803207
    outer loop
      vertex 15 0.634393 0.77301
      vertex -15 0.55557 0.83147
      vertex -15 0.634393 0.77301
    endloop
  endfacet
  facet normal 0 0.903992 -0.42755
    outer loop
      vertex 15 -0.923879 0.382683
      vertex -15 -0.881921 0.471396
      vertex 15 -0.881921 0.471396
    endloop
  endfacet
  facet normal 0 0.903992 -0.42755
    outer loop
      vertex -15 -0.881921 0.471396
      vertex 15 -0.923879 0.382683
      vertex -15 -0.923879 0.382683
    endloop
  endfacet
  facet normal 0 0.146731 -0.989176
    outer loop
      vertex -15 -0.19509 0.980784
      vertex 15 -0.0980167 0.995184
      vertex 15 -0.19509 0.980784
    endloop
  endfacet
  facet normal 0 0.146731 -0.989176
    outer loop
      vertex 15 -0.0980167 0.995184
      vertex -15 -0.19509 0.980784
      vertex -15 -0.0980167 0.995184
    endloop
  endfacet
  facet normal 0 -0.970031 -0.242979
    outer loop
      vertex -15 0.980784 0.19509
      vertex 15 0.95694 0.290284
      vertex -15 0.95694 0.290284
    endloop
  endfacet
  facet normal 0 -0.970031 -0.242979
    outer loop
      vertex 15 0.95694 0.290284
      vertex -15 0.980784 0.19509
      vertex 15 0.980784 0.19509
    endloop
  endfacet
  facet normal 0 -0.989176 -0.146731
    outer loop
      vertex -15 0.995184 0.0980167
      vertex 15 0.980784 0.19509
      vertex -15 0.980784 0.19509
    endloop
  endfacet
  facet normal 0 -0.989176 -0.146731
    outer loop
      vertex 15 0.980784 0.19509
      vertex -15 0.995184 0.0980167
      vertex 15 0.995184 0.0980167
    endloop
  endfacet
  facet normal 0 -0.941543 -0.336892
    outer loop
      vertex -15 0.95694 0.290284
      vertex 15 0.923879 0.382683
      vertex -15 0.923879 0.382683
    endloop
  endfacet
  facet normal 0 -0.941543 -0.336892
    outer loop
      vertex 15 0.923879 0.382683
      vertex -15 0.95694 0.290284
      vertex 15 0.95694 0.290284
    endloop
  endfacet
  facet normal 0 -0.803207 -0.5957
    outer loop
      vertex -15 0.83147 0.55557
      vertex 15 0.77301 0.634393
      vertex -15 0.77301 0.634393
    endloop
  endfacet
  facet normal 0 -0.803207 -0.5957
    outer loop
      vertex 15 0.77301 0.634393
      vertex -15 0.83147 0.55557
      vertex 15 0.83147 0.55557
    endloop
  endfacet
  facet normal 0 -0.242979 -0.970031
    outer loop
      vertex -15 0.19509 0.980784
      vertex 15 0.290284 0.95694
      vertex 15 0.19509 0.980784
    endloop
  endfacet
  facet normal -0 -0.242979 -0.970031
    outer loop
      vertex 15 0.290284 0.95694
      vertex -15 0.19509 0.980784
      vertex -15 0.290284 0.95694
    endloop
  endfacet
  facet normal 0 -0.336892 -0.941543
    outer loop
      vertex -15 0.290284 0.95694
      vertex 15 0.382683 0.923879
      vertex 15 0.290284 0.95694
    endloop
  endfacet
  facet normal -0 -0.336892 -0.941543
    outer loop
      vertex 15 0.382683 0.923879
      vertex -15 0.290284 0.95694
      vertex -15 0.382683 0.923879
    endloop
  endfacet
  facet normal 0 -0.146731 -0.989176
    outer loop
      vertex -15 0.0980167 0.995184
      vertex 15 0.19509 0.980784
      vertex 15 0.0980167 0.995184
    endloop
  endfacet
  facet normal -0 -0.146731 -0.989176
    outer loop
      vertex 15 0.19509 0.980784
      vertex -15 0.0980167 0.995184
      vertex -15 0.19509 0.980784
    endloop
  endfacet
  facet normal 0 -0.514101 -0.857729
    outer loop
      vertex -15 0.471396 0.881921
      vertex 15 0.55557 0.83147
      vertex 15 0.471396 0.881921
    endloop
  endfacet
  facet normal -0 -0.514101 -0.857729
    outer loop
      vertex 15 0.55557 0.83147
      vertex -15 0.471396 0.881921
      vertex -15 0.55557 0.83147
    endloop
  endfacet
  facet normal 0 -0.671557 -0.740953
    outer loop
      vertex -15 0.634393 0.77301
      vertex 15 0.707107 0.707107
      vertex 15 0.634393 0.77301
    endloop
  endfacet
  facet normal -0 -0.671557 -0.740953
    outer loop
      vertex 15 0.707107 0.707107
      vertex -15 0.634393 0.77301
      vertex -15 0.707107 0.707107
    endloop
  endfacet
  facet normal 0 0.970031 -0.242979
    outer loop
      vertex 15 -0.980784 0.19509
      vertex -15 -0.95694 0.290284
      vertex 15 -0.95694 0.290284
    endloop
  endfacet
  facet normal 0 0.970031 -0.242979
    outer loop
      vertex -15 -0.95694 0.290284
      vertex 15 -0.980784 0.19509
      vertex -15 -0.980784 0.19509
    endloop
  endfacet
  facet normal 0 0.803207 -0.5957
    outer loop
      vertex 15 -0.83147 0.55557
      vertex -15 -0.77301 0.634393
      vertex 15 -0.77301 0.634393
    endloop
  endfacet
  facet normal 0 0.803207 -0.5957
    outer loop
      vertex -15 -0.77301 0.634393
      vertex 15 -0.83147 0.55557
      vertex -15 -0.83147 0.55557
    endloop
  endfacet
  facet normal 0 0.740953 -0.671557
    outer loop
      vertex 15 -0.77301 0.634393
      vertex -15 -0.707107 0.707107
      vertex 15 -0.707107 0.707107
    endloop
  endfacet
  facet normal 0 0.740953 -0.671557
    outer loop
      vertex -15 -0.707107 0.707107
      vertex 15 -0.77301 0.634393
      vertex -15 -0.77301 0.634393
    endloop
  endfacet
  facet normal 0 0.857729 -0.514101
    outer loop
      vertex 15 -0.881921 0.471396
      vertex -15 -0.83147 0.55557
      vertex 15 -0.83147 0.55557
    endloop
  endfacet
  facet normal 0 0.857729 -0.514101
    outer loop
      vertex -15 -0.83147 0.55557
      vertex 15 -0.881921 0.471396
      vertex -15 -0.881921 0.471396
    endloop
  endfacet
  facet normal 0 0.941543 -0.336892
    outer loop
      vertex 15 -0.95694 0.290284
      vertex -15 -0.923879 0.382683
      vertex 15 -0.923879 0.382683
    endloop
  endfacet
  facet normal 0 0.941543 -0.336892
    outer loop
      vertex -15 -0.923879 0.382683
      vertex 15 -0.95694 0.290284
      vertex -15 -0.95694 0.290284
    endloop
  endfacet
  facet normal 0 0.989176 -0.146731
    outer loop
      vertex 15 -0.995184 0.0980167
      vertex -15 -0.980784 0.19509
      vertex 15 -0.980784 0.19509
    endloop
  endfacet
  facet normal 0 0.989176 -0.146731
    outer loop
      vertex -15 -0.980784 0.19509
      vertex 15 -0.995184 0.0980167
      vertex -15 -0.995184 0.0980167
    endloop
  endfacet
  facet normal 0 0.514101 -0.857729
    outer loop
      vertex -15 -0.55557 0.83147
      vertex 15 -0.471396 0.881921
      vertex 15 -0.55557 0.83147
    endloop
  endfacet
  facet normal 0 0.514101 -0.857729
    outer loop
      vertex 15 -0.471396 0.881921
      vertex -15 -0.55557 0.83147
      vertex -15 -0.471396 0.881921
    endloop
  endfacet
  facet normal 0 0.42755 -0.903992
    outer loop
      vertex -15 -0.471396 0.881921
      vertex 15 -0.382683 0.923879
      vertex 15 -0.471396 0.881921
    endloop
  endfacet
  facet normal 0 0.42755 -0.903992
    outer loop
      vertex 15 -0.382683 0.923879
      vertex -15 -0.471396 0.881921
      vertex -15 -0.382683 0.923879
    endloop
  endfacet
  facet normal 0 0.5957 -0.803207
    outer loop
      vertex -15 -0.634393 0.77301
      vertex 15 -0.55557 0.83147
      vertex 15 -0.634393 0.77301
    endloop
  endfacet
  facet normal 0 0.5957 -0.803207
    outer loop
      vertex 15 -0.55557 0.83147
      vertex -15 -0.634393 0.77301
      vertex -15 -0.55557 0.83147
    endloop
  endfacet
  facet normal 0 0.242979 -0.970031
    outer loop
      vertex -15 -0.290284 0.95694
      vertex 15 -0.19509 0.980784
      vertex 15 -0.290284 0.95694
    endloop
  endfacet
  facet normal 0 0.242979 -0.970031
    outer loop
      vertex 15 -0.19509 0.980784
      vertex -15 -0.290284 0.95694
      vertex -15 -0.19509 0.980784
    endloop
  endfacet
  facet normal 0 0.0490758 -0.998795
    outer loop
      vertex -15 -0.0980167 0.995184
      vertex 15 -3.33067e-015 1
      vertex 15 -0.0980167 0.995184
    endloop
  endfacet
  facet normal 1.0897e-017 0.0490758 -0.998795
    outer loop
      vertex 15 -3.33067e-015 1
      vertex -15 -0.0980167 0.995184
      vertex -15 3.33067e-015 1
    endloop
  endfacet
  facet normal -1.09008e-017 -0.998795 0.0490758
    outer loop
      vertex -15 0.995184 -0.0980167
      vertex 15 1 3.33067e-015
      vertex -15 1 -3.33067e-015
    endloop
  endfacet
  facet normal 0 -0.998795 0.0490758
    outer loop
      vertex 15 1 3.33067e-015
      vertex -15 0.995184 -0.0980167
      vertex 15 0.995184 -0.0980167
    endloop
  endfacet
  facet normal 0 -0.0490758 0.998795
    outer loop
      vertex -15 0.0980167 -0.995184
      vertex 15 -3.33067e-015 -1
      vertex 15 0.0980167 -0.995184
    endloop
  endfacet
  facet normal -1.0897e-017 -0.0490758 0.998795
    outer loop
      vertex 15 -3.33067e-015 -1
      vertex -15 0.0980167 -0.995184
      vertex -15 3.33067e-015 -1
    endloop
  endfacet
  facet normal 0 -0.242979 0.970031
    outer loop
      vertex -15 0.290284 -0.95694
      vertex 15 0.19509 -0.980784
      vertex 15 0.290284 -0.95694
    endloop
  endfacet
  facet normal 0 -0.242979 0.970031
    outer loop
      vertex 15 0.19509 -0.980784
      vertex -15 0.290284 -0.95694
      vertex -15 0.19509 -0.980784
    endloop
  endfacet
  facet normal 0 -0.5957 0.803207
    outer loop
      vertex -15 0.634393 -0.77301
      vertex 15 0.55557 -0.83147
      vertex 15 0.634393 -0.77301
    endloop
  endfacet
  facet normal 0 -0.5957 0.803207
    outer loop
      vertex 15 0.55557 -0.83147
      vertex -15 0.634393 -0.77301
      vertex -15 0.55557 -0.83147
    endloop
  endfacet
  facet normal 0 -0.42755 0.903992
    outer loop
      vertex -15 0.471396 -0.881921
      vertex 15 0.382683 -0.923879
      vertex 15 0.471396 -0.881921
    endloop
  endfacet
  facet normal 0 -0.42755 0.903992
    outer loop
      vertex 15 0.382683 -0.923879
      vertex -15 0.471396 -0.881921
      vertex -15 0.382683 -0.923879
    endloop
  endfacet
  facet normal 0 -0.740953 0.671557
    outer loop
      vertex -15 0.707107 -0.707107
      vertex 15 0.77301 -0.634393
      vertex -15 0.77301 -0.634393
    endloop
  endfacet
  facet normal 0 -0.740953 0.671557
    outer loop
      vertex 15 0.77301 -0.634393
      vertex -15 0.707107 -0.707107
      vertex 15 0.707107 -0.707107
    endloop
  endfacet
  facet normal 0 -0.941543 0.336892
    outer loop
      vertex -15 0.923879 -0.382683
      vertex 15 0.95694 -0.290284
      vertex -15 0.95694 -0.290284
    endloop
  endfacet
  facet normal 0 -0.941543 0.336892
    outer loop
      vertex 15 0.95694 -0.290284
      vertex -15 0.923879 -0.382683
      vertex 15 0.923879 -0.382683
    endloop
  endfacet
  facet normal 0 -0.857729 0.514101
    outer loop
      vertex -15 0.83147 -0.55557
      vertex 15 0.881921 -0.471396
      vertex -15 0.881921 -0.471396
    endloop
  endfacet
  facet normal 0 -0.857729 0.514101
    outer loop
      vertex 15 0.881921 -0.471396
      vertex -15 0.83147 -0.55557
      vertex 15 0.83147 -0.55557
    endloop
  endfacet
  facet normal -0 0.671557 0.740953
    outer loop
      vertex -15 -0.634393 -0.77301
      vertex 15 -0.707107 -0.707107
      vertex 15 -0.634393 -0.77301
    endloop
  endfacet
  facet normal 0 0.671557 0.740953
    outer loop
      vertex 15 -0.707107 -0.707107
      vertex -15 -0.634393 -0.77301
      vertex -15 -0.707107 -0.707107
    endloop
  endfacet
  facet normal -0 0.514101 0.857729
    outer loop
      vertex -15 -0.471396 -0.881921
      vertex 15 -0.55557 -0.83147
      vertex 15 -0.471396 -0.881921
    endloop
  endfacet
  facet normal 0 0.514101 0.857729
    outer loop
      vertex 15 -0.55557 -0.83147
      vertex -15 -0.471396 -0.881921
      vertex -15 -0.55557 -0.83147
    endloop
  endfacet
  facet normal -0 0.336892 0.941543
    outer loop
      vertex -15 -0.290284 -0.95694
      vertex 15 -0.382683 -0.923879
      vertex 15 -0.290284 -0.95694
    endloop
  endfacet
  facet normal 0 0.336892 0.941543
    outer loop
      vertex 15 -0.382683 -0.923879
      vertex -15 -0.290284 -0.95694
      vertex -15 -0.382683 -0.923879
    endloop
  endfacet
  facet normal -0 0.146731 0.989176
    outer loop
      vertex -15 -0.0980167 -0.995184
      vertex 15 -0.19509 -0.980784
      vertex 15 -0.0980167 -0.995184
    endloop
  endfacet
  facet normal 0 0.146731 0.989176
    outer loop
      vertex 15 -0.19509 -0.980784
      vertex -15 -0.0980167 -0.995184
      vertex -15 -0.19509 -0.980784
    endloop
  endfacet
  facet normal 0 0.803207 0.5957
    outer loop
      vertex 15 -0.77301 -0.634393
      vertex -15 -0.83147 -0.55557
      vertex 15 -0.83147 -0.55557
    endloop
  endfacet
  facet normal 0 0.803207 0.5957
    outer loop
      vertex -15 -0.83147 -0.55557
      vertex 15 -0.77301 -0.634393
      vertex -15 -0.77301 -0.634393
    endloop
  endfacet
  facet normal 0 0.903992 0.42755
    outer loop
      vertex 15 -0.881921 -0.471396
      vertex -15 -0.923879 -0.382683
      vertex 15 -0.923879 -0.382683
    endloop
  endfacet
  facet normal 0 0.903992 0.42755
    outer loop
      vertex -15 -0.923879 -0.382683
      vertex 15 -0.881921 -0.471396
      vertex -15 -0.881921 -0.471396
    endloop
  endfacet
  facet normal 0 0.857729 0.514101
    outer loop
      vertex 15 -0.83147 -0.55557
      vertex -15 -0.881921 -0.471396
      vertex 15 -0.881921 -0.471396
    endloop
  endfacet
  facet normal 0 0.857729 0.514101
    outer loop
      vertex -15 -0.881921 -0.471396
      vertex 15 -0.83147 -0.55557
      vertex -15 -0.83147 -0.55557
    endloop
  endfacet
  facet normal 0 0.970031 0.242979
    outer loop
      vertex 15 -0.95694 -0.290284
      vertex -15 -0.980784 -0.19509
      vertex 15 -0.980784 -0.19509
    endloop
  endfacet
  facet normal 0 0.970031 0.242979
    outer loop
      vertex -15 -0.980784 -0.19509
      vertex 15 -0.95694 -0.290284
      vertex -15 -0.95694 -0.290284
    endloop
  endfacet
  facet normal 0 0.941543 0.336892
    outer loop
      vertex 15 -0.923879 -0.382683
      vertex -15 -0.95694 -0.290284
      vertex 15 -0.95694 -0.290284
    endloop
  endfacet
  facet normal 0 0.941543 0.336892
    outer loop
      vertex -15 -0.95694 -0.290284
      vertex 15 -0.923879 -0.382683
      vertex -15 -0.923879 -0.382683
    endloop
  endfacet
  facet normal -1.09008e-017 0.998795 0.0490758
    outer loop
      vertex 15 -0.995184 -0.0980167
      vertex -15 -1 -3.33067e-015
      vertex 15 -1 3.33067e-015
    endloop
  endfacet
  facet normal 0 0.998795 0.0490758
    outer loop
      vertex -15 -1 -3.33067e-015
      vertex 15 -0.995184 -0.0980167
      vertex -15 -0.995184 -0.0980167
    endloop
  endfacet
  facet normal 0 -0.146731 0.989176
    outer loop
      vertex -15 0.19509 -0.980784
      vertex 15 0.0980167 -0.995184
      vertex 15 0.19509 -0.980784
    endloop
  endfacet
  facet normal 0 -0.146731 0.989176
    outer loop
      vertex 15 0.0980167 -0.995184
      vertex -15 0.19509 -0.980784
      vertex -15 0.0980167 -0.995184
    endloop
  endfacet
  facet normal 0 -0.336892 0.941543
    outer loop
      vertex -15 0.382683 -0.923879
      vertex 15 0.290284 -0.95694
      vertex 15 0.382683 -0.923879
    endloop
  endfacet
  facet normal 0 -0.336892 0.941543
    outer loop
      vertex 15 0.290284 -0.95694
      vertex -15 0.382683 -0.923879
      vertex -15 0.290284 -0.95694
    endloop
  endfacet
  facet normal 0 -0.671557 0.740953
    outer loop
      vertex -15 0.707107 -0.707107
      vertex 15 0.634393 -0.77301
      vertex 15 0.707107 -0.707107
    endloop
  endfacet
  facet normal 0 -0.671557 0.740953
    outer loop
      vertex 15 0.634393 -0.77301
      vertex -15 0.707107 -0.707107
      vertex -15 0.634393 -0.77301
    endloop
  endfacet
  facet normal 0 -0.514101 0.857729
    outer loop
      vertex -15 0.55557 -0.83147
      vertex 15 0.471396 -0.881921
      vertex 15 0.55557 -0.83147
    endloop
  endfacet
  facet normal 0 -0.514101 0.857729
    outer loop
      vertex 15 0.471396 -0.881921
      vertex -15 0.55557 -0.83147
      vertex -15 0.471396 -0.881921
    endloop
  endfacet
  facet normal 0 -0.803207 0.5957
    outer loop
      vertex -15 0.77301 -0.634393
      vertex 15 0.83147 -0.55557
      vertex -15 0.83147 -0.55557
    endloop
  endfacet
  facet normal 0 -0.803207 0.5957
    outer loop
      vertex 15 0.83147 -0.55557
      vertex -15 0.77301 -0.634393
      vertex 15 0.77301 -0.634393
    endloop
  endfacet
  facet normal 0 -0.903992 0.42755
    outer loop
      vertex -15 0.881921 -0.471396
      vertex 15 0.923879 -0.382683
      vertex -15 0.923879 -0.382683
    endloop
  endfacet
  facet normal 0 -0.903992 0.42755
    outer loop
      vertex 15 0.923879 -0.382683
      vertex -15 0.881921 -0.471396
      vertex 15 0.881921 -0.471396
    endloop
  endfacet
  facet normal 0 -0.989176 0.146731
    outer loop
      vertex -15 0.980784 -0.19509
      vertex 15 0.995184 -0.0980167
      vertex -15 0.995184 -0.0980167
    endloop
  endfacet
  facet normal 0 -0.989176 0.146731
    outer loop
      vertex 15 0.995184 -0.0980167
      vertex -15 0.980784 -0.19509
      vertex 15 0.980784 -0.19509
    endloop
  endfacet
  facet normal 0 -0.970031 0.242979
    outer loop
      vertex -15 0.95694 -0.290284
      vertex 15 0.980784 -0.19509
      vertex -15 0.980784 -0.19509
    endloop
  endfacet
  facet normal 0 -0.970031 0.242979
    outer loop
      vertex 15 0.980784 -0.19509
      vertex -15 0.95694 -0.290284
      vertex 15 0.95694 -0.290284
    endloop
  endfacet
  facet normal -0 0.5957 0.803207
    outer loop
      vertex -15 -0.55557 -0.83147
      vertex 15 -0.634393 -0.77301
      vertex 15 -0.55557 -0.83147
    endloop
  endfacet
  facet normal 0 0.5957 0.803207
    outer loop
      vertex 15 -0.634393 -0.77301
      vertex -15 -0.55557 -0.83147
      vertex -15 -0.634393 -0.77301
    endloop
  endfacet
  facet normal -0 0.42755 0.903992
    outer loop
      vertex -15 -0.382683 -0.923879
      vertex 15 -0.471396 -0.881921
      vertex 15 -0.382683 -0.923879
    endloop
  endfacet
  facet normal 0 0.42755 0.903992
    outer loop
      vertex 15 -0.471396 -0.881921
      vertex -15 -0.382683 -0.923879
      vertex -15 -0.471396 -0.881921
    endloop
  endfacet
  facet normal -0 0.242979 0.970031
    outer loop
      vertex -15 -0.19509 -0.980784
      vertex 15 -0.290284 -0.95694
      vertex 15 -0.19509 -0.980784
    endloop
  endfacet
  facet normal 0 0.242979 0.970031
    outer loop
      vertex 15 -0.290284 -0.95694
      vertex -15 -0.19509 -0.980784
      vertex -15 -0.290284 -0.95694
    endloop
  endfacet
  facet normal 1.0897e-017 0.0490758 0.998795
    outer loop
      vertex -15 3.33067e-015 -1
      vertex 15 -0.0980167 -0.995184
      vertex 15 -3.33067e-015 -1
    endloop
  endfacet
  facet normal 0 0.0490758 0.998795
    outer loop
      vertex 15 -0.0980167 -0.995184
      vertex -15 3.33067e-015 -1
      vertex -15 -0.0980167 -0.995184
    endloop
  endfacet
  facet normal 0 0.740953 0.671557
    outer loop
      vertex 15 -0.707107 -0.707107
      vertex -15 -0.77301 -0.634393
      vertex 15 -0.77301 -0.634393
    endloop
  endfacet
  facet normal 0 0.740953 0.671557
    outer loop
      vertex -15 -0.77301 -0.634393
      vertex 15 -0.707107 -0.707107
      vertex -15 -0.707107 -0.707107
    endloop
  endfacet
  facet normal 0 0.989176 0.146731
    outer loop
      vertex 15 -0.980784 -0.19509
      vertex -15 -0.995184 -0.0980167
      vertex 15 -0.995184 -0.0980167
    endloop
  endfacet
  facet normal 0 0.989176 0.146731
    outer loop
      vertex -15 -0.995184 -0.0980167
      vertex 15 -0.980784 -0.19509
      vertex -15 -0.980784 -0.19509
    endloop
  endfacet
endsolid OpenSCAD_Model
