solid OpenSCAD_Model
  facet normal -0.9952 -0.0978576 0
    outer loop
      vertex -68.65 40 0
      vertex -68.6759 40.2634 6
      vertex -68.6759 40.2634 0
    endloop
  endfacet
  facet normal -0.9952 -0.0978576 0
    outer loop
      vertex -68.6759 40.2634 6
      vertex -68.65 40 0
      vertex -68.65 40 6
    endloop
  endfacet
  facet normal 0.9952 -0.0978576 0
    outer loop
      vertex -71.35 40 6
      vertex -71.3241 40.2634 0
      vertex -71.3241 40.2634 6
    endloop
  endfacet
  facet normal 0.9952 -0.0978576 0
    outer loop
      vertex -71.3241 40.2634 0
      vertex -71.35 40 6
      vertex -71.35 40 0
    endloop
  endfacet
  facet normal -0.0978576 -0.9952 0
    outer loop
      vertex -70 41.35 0
      vertex -69.7366 41.3241 6
      vertex -70 41.35 6
    endloop
  endfacet
  facet normal -0.0978576 -0.9952 -0
    outer loop
      vertex -69.7366 41.3241 6
      vertex -70 41.35 0
      vertex -69.7366 41.3241 0
    endloop
  endfacet
  facet normal 0.0978576 0.9952 -0
    outer loop
      vertex -70 38.65 0
      vertex -70.2634 38.6759 6
      vertex -70 38.65 6
    endloop
  endfacet
  facet normal 0.0978576 0.9952 0
    outer loop
      vertex -70.2634 38.6759 6
      vertex -70 38.65 0
      vertex -70.2634 38.6759 0
    endloop
  endfacet
  facet normal 0.773031 0.634369 0
    outer loop
      vertex -70.9546 39.0454 6
      vertex -71.1225 39.25 0
      vertex -71.1225 39.25 6
    endloop
  endfacet
  facet normal 0.773031 0.634369 0
    outer loop
      vertex -71.1225 39.25 0
      vertex -70.9546 39.0454 6
      vertex -70.9546 39.0454 0
    endloop
  endfacet
  facet normal -0.773031 -0.634369 0
    outer loop
      vertex -68.8775 40.75 0
      vertex -69.0454 40.9546 6
      vertex -69.0454 40.9546 0
    endloop
  endfacet
  facet normal -0.773031 -0.634369 0
    outer loop
      vertex -69.0454 40.9546 6
      vertex -68.8775 40.75 0
      vertex -68.8775 40.75 6
    endloop
  endfacet
  facet normal -0.956843 -0.290605 0
    outer loop
      vertex -68.6759 40.2634 0
      vertex -68.7528 40.5166 6
      vertex -68.7528 40.5166 0
    endloop
  endfacet
  facet normal -0.956843 -0.290605 0
    outer loop
      vertex -68.7528 40.5166 6
      vertex -68.6759 40.2634 0
      vertex -68.6759 40.2634 6
    endloop
  endfacet
  facet normal 0.634369 -0.773031 0
    outer loop
      vertex -70.9546 40.9546 0
      vertex -70.75 41.1225 6
      vertex -70.9546 40.9546 6
    endloop
  endfacet
  facet normal 0.634369 -0.773031 0
    outer loop
      vertex -70.75 41.1225 6
      vertex -70.9546 40.9546 0
      vertex -70.75 41.1225 0
    endloop
  endfacet
  facet normal 0.290605 -0.956843 0
    outer loop
      vertex -70.5166 41.2472 0
      vertex -70.2634 41.3241 6
      vertex -70.5166 41.2472 6
    endloop
  endfacet
  facet normal 0.290605 -0.956843 0
    outer loop
      vertex -70.2634 41.3241 6
      vertex -70.5166 41.2472 0
      vertex -70.2634 41.3241 0
    endloop
  endfacet
  facet normal -0.634369 0.773031 0
    outer loop
      vertex -69.0454 39.0454 0
      vertex -69.25 38.8775 6
      vertex -69.0454 39.0454 6
    endloop
  endfacet
  facet normal -0.634369 0.773031 0
    outer loop
      vertex -69.25 38.8775 6
      vertex -69.0454 39.0454 0
      vertex -69.25 38.8775 0
    endloop
  endfacet
  facet normal -0.882007 -0.471235 0
    outer loop
      vertex -68.7528 40.5166 0
      vertex -68.8775 40.75 6
      vertex -68.8775 40.75 0
    endloop
  endfacet
  facet normal -0.882007 -0.471235 0
    outer loop
      vertex -68.8775 40.75 6
      vertex -68.7528 40.5166 0
      vertex -68.7528 40.5166 6
    endloop
  endfacet
  facet normal -0.471235 -0.882007 0
    outer loop
      vertex -69.4834 41.2472 0
      vertex -69.25 41.1225 6
      vertex -69.4834 41.2472 6
    endloop
  endfacet
  facet normal -0.471235 -0.882007 -0
    outer loop
      vertex -69.25 41.1225 6
      vertex -69.4834 41.2472 0
      vertex -69.25 41.1225 0
    endloop
  endfacet
  facet normal -0.290605 -0.956843 0
    outer loop
      vertex -69.7366 41.3241 0
      vertex -69.4834 41.2472 6
      vertex -69.7366 41.3241 6
    endloop
  endfacet
  facet normal -0.290605 -0.956843 -0
    outer loop
      vertex -69.4834 41.2472 6
      vertex -69.7366 41.3241 0
      vertex -69.4834 41.2472 0
    endloop
  endfacet
  facet normal -0.634369 -0.773031 0
    outer loop
      vertex -69.25 41.1225 0
      vertex -69.0454 40.9546 6
      vertex -69.25 41.1225 6
    endloop
  endfacet
  facet normal -0.634369 -0.773031 -0
    outer loop
      vertex -69.0454 40.9546 6
      vertex -69.25 41.1225 0
      vertex -69.0454 40.9546 0
    endloop
  endfacet
  facet normal 0.882007 -0.471235 0
    outer loop
      vertex -71.2472 40.5166 6
      vertex -71.1225 40.75 0
      vertex -71.1225 40.75 6
    endloop
  endfacet
  facet normal 0.882007 -0.471235 0
    outer loop
      vertex -71.1225 40.75 0
      vertex -71.2472 40.5166 6
      vertex -71.2472 40.5166 0
    endloop
  endfacet
  facet normal 0.773031 -0.634369 0
    outer loop
      vertex -71.1225 40.75 6
      vertex -70.9546 40.9546 0
      vertex -70.9546 40.9546 6
    endloop
  endfacet
  facet normal 0.773031 -0.634369 0
    outer loop
      vertex -70.9546 40.9546 0
      vertex -71.1225 40.75 6
      vertex -71.1225 40.75 0
    endloop
  endfacet
  facet normal 0.956843 -0.290605 0
    outer loop
      vertex -71.3241 40.2634 6
      vertex -71.2472 40.5166 0
      vertex -71.2472 40.5166 6
    endloop
  endfacet
  facet normal 0.956843 -0.290605 0
    outer loop
      vertex -71.2472 40.5166 0
      vertex -71.3241 40.2634 6
      vertex -71.3241 40.2634 0
    endloop
  endfacet
  facet normal 0.471235 -0.882007 0
    outer loop
      vertex -70.75 41.1225 0
      vertex -70.5166 41.2472 6
      vertex -70.75 41.1225 6
    endloop
  endfacet
  facet normal 0.471235 -0.882007 0
    outer loop
      vertex -70.5166 41.2472 6
      vertex -70.75 41.1225 0
      vertex -70.5166 41.2472 0
    endloop
  endfacet
  facet normal 0.0978576 -0.9952 0
    outer loop
      vertex -70.2634 41.3241 0
      vertex -70 41.35 6
      vertex -70.2634 41.3241 6
    endloop
  endfacet
  facet normal 0.0978576 -0.9952 0
    outer loop
      vertex -70 41.35 6
      vertex -70.2634 41.3241 0
      vertex -70 41.35 0
    endloop
  endfacet
  facet normal -0.0978576 0.9952 0
    outer loop
      vertex -69.7366 38.6759 0
      vertex -70 38.65 6
      vertex -69.7366 38.6759 6
    endloop
  endfacet
  facet normal -0.0978576 0.9952 0
    outer loop
      vertex -70 38.65 6
      vertex -69.7366 38.6759 0
      vertex -70 38.65 0
    endloop
  endfacet
  facet normal -0.471235 0.882007 0
    outer loop
      vertex -69.25 38.8775 0
      vertex -69.4834 38.7528 6
      vertex -69.25 38.8775 6
    endloop
  endfacet
  facet normal -0.471235 0.882007 0
    outer loop
      vertex -69.4834 38.7528 6
      vertex -69.25 38.8775 0
      vertex -69.4834 38.7528 0
    endloop
  endfacet
  facet normal 0.634369 0.773031 -0
    outer loop
      vertex -70.75 38.8775 0
      vertex -70.9546 39.0454 6
      vertex -70.75 38.8775 6
    endloop
  endfacet
  facet normal 0.634369 0.773031 0
    outer loop
      vertex -70.9546 39.0454 6
      vertex -70.75 38.8775 0
      vertex -70.9546 39.0454 0
    endloop
  endfacet
  facet normal 0.290605 0.956843 -0
    outer loop
      vertex -70.2634 38.6759 0
      vertex -70.5166 38.7528 6
      vertex -70.2634 38.6759 6
    endloop
  endfacet
  facet normal 0.290605 0.956843 0
    outer loop
      vertex -70.5166 38.7528 6
      vertex -70.2634 38.6759 0
      vertex -70.5166 38.7528 0
    endloop
  endfacet
  facet normal 0.882007 0.471235 0
    outer loop
      vertex -71.1225 39.25 6
      vertex -71.2472 39.4834 0
      vertex -71.2472 39.4834 6
    endloop
  endfacet
  facet normal 0.882007 0.471235 0
    outer loop
      vertex -71.2472 39.4834 0
      vertex -71.1225 39.25 6
      vertex -71.1225 39.25 0
    endloop
  endfacet
  facet normal 0.9952 0.0978576 0
    outer loop
      vertex -71.3241 39.7366 6
      vertex -71.35 40 0
      vertex -71.35 40 6
    endloop
  endfacet
  facet normal 0.9952 0.0978576 0
    outer loop
      vertex -71.35 40 0
      vertex -71.3241 39.7366 6
      vertex -71.3241 39.7366 0
    endloop
  endfacet
  facet normal -0.290605 0.956843 0
    outer loop
      vertex -69.4834 38.7528 0
      vertex -69.7366 38.6759 6
      vertex -69.4834 38.7528 6
    endloop
  endfacet
  facet normal -0.290605 0.956843 0
    outer loop
      vertex -69.7366 38.6759 6
      vertex -69.4834 38.7528 0
      vertex -69.7366 38.6759 0
    endloop
  endfacet
  facet normal -0.882007 0.471235 0
    outer loop
      vertex -68.8775 39.25 0
      vertex -68.7528 39.4834 6
      vertex -68.7528 39.4834 0
    endloop
  endfacet
  facet normal -0.882007 0.471235 0
    outer loop
      vertex -68.7528 39.4834 6
      vertex -68.8775 39.25 0
      vertex -68.8775 39.25 6
    endloop
  endfacet
  facet normal -0.773031 0.634369 0
    outer loop
      vertex -69.0454 39.0454 0
      vertex -68.8775 39.25 6
      vertex -68.8775 39.25 0
    endloop
  endfacet
  facet normal -0.773031 0.634369 0
    outer loop
      vertex -68.8775 39.25 6
      vertex -69.0454 39.0454 0
      vertex -69.0454 39.0454 6
    endloop
  endfacet
  facet normal -0.956843 0.290605 0
    outer loop
      vertex -68.7528 39.4834 0
      vertex -68.6759 39.7366 6
      vertex -68.6759 39.7366 0
    endloop
  endfacet
  facet normal -0.956843 0.290605 0
    outer loop
      vertex -68.6759 39.7366 6
      vertex -68.7528 39.4834 0
      vertex -68.7528 39.4834 6
    endloop
  endfacet
  facet normal 0.471235 0.882007 -0
    outer loop
      vertex -70.5166 38.7528 0
      vertex -70.75 38.8775 6
      vertex -70.5166 38.7528 6
    endloop
  endfacet
  facet normal 0.471235 0.882007 0
    outer loop
      vertex -70.75 38.8775 6
      vertex -70.5166 38.7528 0
      vertex -70.75 38.8775 0
    endloop
  endfacet
  facet normal 0.956843 0.290605 0
    outer loop
      vertex -71.2472 39.4834 6
      vertex -71.3241 39.7366 0
      vertex -71.3241 39.7366 6
    endloop
  endfacet
  facet normal 0.956843 0.290605 0
    outer loop
      vertex -71.3241 39.7366 0
      vertex -71.2472 39.4834 6
      vertex -71.2472 39.4834 0
    endloop
  endfacet
  facet normal -0.9952 0.0978576 0
    outer loop
      vertex -68.6759 39.7366 0
      vertex -68.65 40 6
      vertex -68.65 40 0
    endloop
  endfacet
  facet normal -0.9952 0.0978576 0
    outer loop
      vertex -68.65 40 6
      vertex -68.6759 39.7366 0
      vertex -68.6759 39.7366 6
    endloop
  endfacet
  facet normal 1 -0 0
    outer loop
      vertex -72.6414 37.3586 40
      vertex -72.6414 42.6414 6
      vertex -72.6414 42.6414 40
    endloop
  endfacet
  facet normal 1 0 0
    outer loop
      vertex -72.6414 42.6414 6
      vertex -72.6414 37.3586 40
      vertex -72.6414 37.3586 6
    endloop
  endfacet
  facet normal 0 -1 0
    outer loop
      vertex -72.6414 42.6414 6
      vertex -67.3586 42.6414 40
      vertex -72.6414 42.6414 40
    endloop
  endfacet
  facet normal 0 -1 -0
    outer loop
      vertex -67.3586 42.6414 40
      vertex -72.6414 42.6414 6
      vertex -67.3586 42.6414 6
    endloop
  endfacet
  facet normal 0 0 1
    outer loop
      vertex -67.3586 42.6414 6
      vertex -68.65 40 6
      vertex -67.3586 37.3586 6
    endloop
  endfacet
  facet normal 0 0 1
    outer loop
      vertex -67.3586 42.6414 6
      vertex -68.6759 40.2634 6
      vertex -68.65 40 6
    endloop
  endfacet
  facet normal 0 0 1
    outer loop
      vertex -67.3586 42.6414 6
      vertex -68.7528 40.5166 6
      vertex -68.6759 40.2634 6
    endloop
  endfacet
  facet normal 0 0 1
    outer loop
      vertex -67.3586 42.6414 6
      vertex -68.8775 40.75 6
      vertex -68.7528 40.5166 6
    endloop
  endfacet
  facet normal 0 0 1
    outer loop
      vertex -67.3586 42.6414 6
      vertex -69.0454 40.9546 6
      vertex -68.8775 40.75 6
    endloop
  endfacet
  facet normal 0 0 1
    outer loop
      vertex -67.3586 42.6414 6
      vertex -69.25 41.1225 6
      vertex -69.0454 40.9546 6
    endloop
  endfacet
  facet normal 0 0 1
    outer loop
      vertex -67.3586 42.6414 6
      vertex -69.4834 41.2472 6
      vertex -69.25 41.1225 6
    endloop
  endfacet
  facet normal 0 0 1
    outer loop
      vertex -67.3586 42.6414 6
      vertex -69.7366 41.3241 6
      vertex -69.4834 41.2472 6
    endloop
  endfacet
  facet normal 0 0 1
    outer loop
      vertex -67.3586 42.6414 6
      vertex -70 41.35 6
      vertex -69.7366 41.3241 6
    endloop
  endfacet
  facet normal -0 0 1
    outer loop
      vertex -72.6414 42.6414 6
      vertex -70 41.35 6
      vertex -67.3586 42.6414 6
    endloop
  endfacet
  facet normal 0 0 1
    outer loop
      vertex -70 41.35 6
      vertex -72.6414 42.6414 6
      vertex -70.2634 41.3241 6
    endloop
  endfacet
  facet normal 0 0 1
    outer loop
      vertex -71.3241 40.2634 6
      vertex -72.6414 42.6414 6
      vertex -71.35 40 6
    endloop
  endfacet
  facet normal 0 0 1
    outer loop
      vertex -71.2472 40.5166 6
      vertex -72.6414 42.6414 6
      vertex -71.3241 40.2634 6
    endloop
  endfacet
  facet normal 0 0 1
    outer loop
      vertex -71.1225 40.75 6
      vertex -72.6414 42.6414 6
      vertex -71.2472 40.5166 6
    endloop
  endfacet
  facet normal 0 0 1
    outer loop
      vertex -70.9546 40.9546 6
      vertex -72.6414 42.6414 6
      vertex -71.1225 40.75 6
    endloop
  endfacet
  facet normal 0 0 1
    outer loop
      vertex -70.75 41.1225 6
      vertex -72.6414 42.6414 6
      vertex -70.9546 40.9546 6
    endloop
  endfacet
  facet normal 0 0 1
    outer loop
      vertex -70.5166 41.2472 6
      vertex -72.6414 42.6414 6
      vertex -70.75 41.1225 6
    endloop
  endfacet
  facet normal 0 0 1
    outer loop
      vertex -70.2634 41.3241 6
      vertex -72.6414 42.6414 6
      vertex -70.5166 41.2472 6
    endloop
  endfacet
  facet normal -0 0 1
    outer loop
      vertex -68.6759 39.7366 6
      vertex -67.3586 37.3586 6
      vertex -68.65 40 6
    endloop
  endfacet
  facet normal -0 0 1
    outer loop
      vertex -68.7528 39.4834 6
      vertex -67.3586 37.3586 6
      vertex -68.6759 39.7366 6
    endloop
  endfacet
  facet normal -0 0 1
    outer loop
      vertex -68.8775 39.25 6
      vertex -67.3586 37.3586 6
      vertex -68.7528 39.4834 6
    endloop
  endfacet
  facet normal -0 0 1
    outer loop
      vertex -69.0454 39.0454 6
      vertex -67.3586 37.3586 6
      vertex -68.8775 39.25 6
    endloop
  endfacet
  facet normal -0 0 1
    outer loop
      vertex -69.25 38.8775 6
      vertex -67.3586 37.3586 6
      vertex -69.0454 39.0454 6
    endloop
  endfacet
  facet normal -0 0 1
    outer loop
      vertex -69.4834 38.7528 6
      vertex -67.3586 37.3586 6
      vertex -69.25 38.8775 6
    endloop
  endfacet
  facet normal -0 0 1
    outer loop
      vertex -69.7366 38.6759 6
      vertex -67.3586 37.3586 6
      vertex -69.4834 38.7528 6
    endloop
  endfacet
  facet normal -0 0 1
    outer loop
      vertex -70 38.65 6
      vertex -67.3586 37.3586 6
      vertex -69.7366 38.6759 6
    endloop
  endfacet
  facet normal 0 0 1
    outer loop
      vertex -72.6414 37.3586 6
      vertex -70 38.65 6
      vertex -70.2634 38.6759 6
    endloop
  endfacet
  facet normal 0 0 1
    outer loop
      vertex -72.6414 37.3586 6
      vertex -70.2634 38.6759 6
      vertex -70.5166 38.7528 6
    endloop
  endfacet
  facet normal 0 0 1
    outer loop
      vertex -72.6414 37.3586 6
      vertex -71.35 40 6
      vertex -72.6414 42.6414 6
    endloop
  endfacet
  facet normal 0 0 1
    outer loop
      vertex -71.35 40 6
      vertex -72.6414 37.3586 6
      vertex -71.3241 39.7366 6
    endloop
  endfacet
  facet normal 0 0 1
    outer loop
      vertex -70 38.65 6
      vertex -72.6414 37.3586 6
      vertex -67.3586 37.3586 6
    endloop
  endfacet
  facet normal 0 0 1
    outer loop
      vertex -70.75 38.8775 6
      vertex -72.6414 37.3586 6
      vertex -70.5166 38.7528 6
    endloop
  endfacet
  facet normal 0 0 1
    outer loop
      vertex -70.9546 39.0454 6
      vertex -72.6414 37.3586 6
      vertex -70.75 38.8775 6
    endloop
  endfacet
  facet normal 0 0 1
    outer loop
      vertex -71.1225 39.25 6
      vertex -72.6414 37.3586 6
      vertex -70.9546 39.0454 6
    endloop
  endfacet
  facet normal 0 0 1
    outer loop
      vertex -71.2472 39.4834 6
      vertex -72.6414 37.3586 6
      vertex -71.1225 39.25 6
    endloop
  endfacet
  facet normal 0 0 1
    outer loop
      vertex -71.3241 39.7366 6
      vertex -72.6414 37.3586 6
      vertex -71.2472 39.4834 6
    endloop
  endfacet
  facet normal -1 0 0
    outer loop
      vertex -67.3586 37.3586 6
      vertex -67.3586 42.6414 40
      vertex -67.3586 42.6414 6
    endloop
  endfacet
  facet normal -1 -0 0
    outer loop
      vertex -67.3586 42.6414 40
      vertex -67.3586 37.3586 6
      vertex -67.3586 37.3586 40
    endloop
  endfacet
  facet normal 0 1 -0
    outer loop
      vertex -67.3586 37.3586 6
      vertex -72.6414 37.3586 40
      vertex -67.3586 37.3586 40
    endloop
  endfacet
  facet normal 0 1 0
    outer loop
      vertex -72.6414 37.3586 40
      vertex -67.3586 37.3586 6
      vertex -72.6414 37.3586 6
    endloop
  endfacet
  facet normal -0.9952 -0.0978576 0
    outer loop
      vertex 71.35 40 0
      vertex 71.3241 40.2634 6
      vertex 71.3241 40.2634 0
    endloop
  endfacet
  facet normal -0.9952 -0.0978576 0
    outer loop
      vertex 71.3241 40.2634 6
      vertex 71.35 40 0
      vertex 71.35 40 6
    endloop
  endfacet
  facet normal 0.9952 -0.0978576 0
    outer loop
      vertex 68.65 40 6
      vertex 68.6759 40.2634 0
      vertex 68.6759 40.2634 6
    endloop
  endfacet
  facet normal 0.9952 -0.0978576 0
    outer loop
      vertex 68.6759 40.2634 0
      vertex 68.65 40 6
      vertex 68.65 40 0
    endloop
  endfacet
  facet normal -0.0978576 -0.9952 0
    outer loop
      vertex 70 41.35 0
      vertex 70.2634 41.3241 6
      vertex 70 41.35 6
    endloop
  endfacet
  facet normal -0.0978576 -0.9952 -0
    outer loop
      vertex 70.2634 41.3241 6
      vertex 70 41.35 0
      vertex 70.2634 41.3241 0
    endloop
  endfacet
  facet normal -0.773031 -0.634369 0
    outer loop
      vertex 71.1225 40.75 0
      vertex 70.9546 40.9546 6
      vertex 70.9546 40.9546 0
    endloop
  endfacet
  facet normal -0.773031 -0.634369 0
    outer loop
      vertex 70.9546 40.9546 6
      vertex 71.1225 40.75 0
      vertex 71.1225 40.75 6
    endloop
  endfacet
  facet normal -0.956843 -0.290605 0
    outer loop
      vertex 71.3241 40.2634 0
      vertex 71.2472 40.5166 6
      vertex 71.2472 40.5166 0
    endloop
  endfacet
  facet normal -0.956843 -0.290605 0
    outer loop
      vertex 71.2472 40.5166 6
      vertex 71.3241 40.2634 0
      vertex 71.3241 40.2634 6
    endloop
  endfacet
  facet normal 0.634369 -0.773031 0
    outer loop
      vertex 69.0454 40.9546 0
      vertex 69.25 41.1225 6
      vertex 69.0454 40.9546 6
    endloop
  endfacet
  facet normal 0.634369 -0.773031 0
    outer loop
      vertex 69.25 41.1225 6
      vertex 69.0454 40.9546 0
      vertex 69.25 41.1225 0
    endloop
  endfacet
  facet normal 0.290605 -0.956843 0
    outer loop
      vertex 69.4834 41.2472 0
      vertex 69.7366 41.3241 6
      vertex 69.4834 41.2472 6
    endloop
  endfacet
  facet normal 0.290605 -0.956843 0
    outer loop
      vertex 69.7366 41.3241 6
      vertex 69.4834 41.2472 0
      vertex 69.7366 41.3241 0
    endloop
  endfacet
  facet normal -0.773031 0.634369 0
    outer loop
      vertex 70.9546 39.0454 0
      vertex 71.1225 39.25 6
      vertex 71.1225 39.25 0
    endloop
  endfacet
  facet normal -0.773031 0.634369 0
    outer loop
      vertex 71.1225 39.25 6
      vertex 70.9546 39.0454 0
      vertex 70.9546 39.0454 6
    endloop
  endfacet
  facet normal -0.882007 -0.471235 0
    outer loop
      vertex 71.2472 40.5166 0
      vertex 71.1225 40.75 6
      vertex 71.1225 40.75 0
    endloop
  endfacet
  facet normal -0.882007 -0.471235 0
    outer loop
      vertex 71.1225 40.75 6
      vertex 71.2472 40.5166 0
      vertex 71.2472 40.5166 6
    endloop
  endfacet
  facet normal -0.471235 -0.882007 0
    outer loop
      vertex 70.5166 41.2472 0
      vertex 70.75 41.1225 6
      vertex 70.5166 41.2472 6
    endloop
  endfacet
  facet normal -0.471235 -0.882007 -0
    outer loop
      vertex 70.75 41.1225 6
      vertex 70.5166 41.2472 0
      vertex 70.75 41.1225 0
    endloop
  endfacet
  facet normal -0.290605 -0.956843 0
    outer loop
      vertex 70.2634 41.3241 0
      vertex 70.5166 41.2472 6
      vertex 70.2634 41.3241 6
    endloop
  endfacet
  facet normal -0.290605 -0.956843 -0
    outer loop
      vertex 70.5166 41.2472 6
      vertex 70.2634 41.3241 0
      vertex 70.5166 41.2472 0
    endloop
  endfacet
  facet normal -0.634369 -0.773031 0
    outer loop
      vertex 70.75 41.1225 0
      vertex 70.9546 40.9546 6
      vertex 70.75 41.1225 6
    endloop
  endfacet
  facet normal -0.634369 -0.773031 -0
    outer loop
      vertex 70.9546 40.9546 6
      vertex 70.75 41.1225 0
      vertex 70.9546 40.9546 0
    endloop
  endfacet
  facet normal 0.882007 -0.471235 0
    outer loop
      vertex 68.7528 40.5166 6
      vertex 68.8775 40.75 0
      vertex 68.8775 40.75 6
    endloop
  endfacet
  facet normal 0.882007 -0.471235 0
    outer loop
      vertex 68.8775 40.75 0
      vertex 68.7528 40.5166 6
      vertex 68.7528 40.5166 0
    endloop
  endfacet
  facet normal 0.773031 -0.634369 0
    outer loop
      vertex 68.8775 40.75 6
      vertex 69.0454 40.9546 0
      vertex 69.0454 40.9546 6
    endloop
  endfacet
  facet normal 0.773031 -0.634369 0
    outer loop
      vertex 69.0454 40.9546 0
      vertex 68.8775 40.75 6
      vertex 68.8775 40.75 0
    endloop
  endfacet
  facet normal 0.956843 -0.290605 0
    outer loop
      vertex 68.6759 40.2634 6
      vertex 68.7528 40.5166 0
      vertex 68.7528 40.5166 6
    endloop
  endfacet
  facet normal 0.956843 -0.290605 0
    outer loop
      vertex 68.7528 40.5166 0
      vertex 68.6759 40.2634 6
      vertex 68.6759 40.2634 0
    endloop
  endfacet
  facet normal 0.471235 -0.882007 0
    outer loop
      vertex 69.25 41.1225 0
      vertex 69.4834 41.2472 6
      vertex 69.25 41.1225 6
    endloop
  endfacet
  facet normal 0.471235 -0.882007 0
    outer loop
      vertex 69.4834 41.2472 6
      vertex 69.25 41.1225 0
      vertex 69.4834 41.2472 0
    endloop
  endfacet
  facet normal 0.0978576 -0.9952 0
    outer loop
      vertex 69.7366 41.3241 0
      vertex 70 41.35 6
      vertex 69.7366 41.3241 6
    endloop
  endfacet
  facet normal 0.0978576 -0.9952 0
    outer loop
      vertex 70 41.35 6
      vertex 69.7366 41.3241 0
      vertex 70 41.35 0
    endloop
  endfacet
  facet normal -0.0978576 0.9952 0
    outer loop
      vertex 70.2634 38.6759 0
      vertex 70 38.65 6
      vertex 70.2634 38.6759 6
    endloop
  endfacet
  facet normal -0.0978576 0.9952 0
    outer loop
      vertex 70 38.65 6
      vertex 70.2634 38.6759 0
      vertex 70 38.65 0
    endloop
  endfacet
  facet normal -0.471235 0.882007 0
    outer loop
      vertex 70.75 38.8775 0
      vertex 70.5166 38.7528 6
      vertex 70.75 38.8775 6
    endloop
  endfacet
  facet normal -0.471235 0.882007 0
    outer loop
      vertex 70.5166 38.7528 6
      vertex 70.75 38.8775 0
      vertex 70.5166 38.7528 0
    endloop
  endfacet
  facet normal 0.634369 0.773031 -0
    outer loop
      vertex 69.25 38.8775 0
      vertex 69.0454 39.0454 6
      vertex 69.25 38.8775 6
    endloop
  endfacet
  facet normal 0.634369 0.773031 0
    outer loop
      vertex 69.0454 39.0454 6
      vertex 69.25 38.8775 0
      vertex 69.0454 39.0454 0
    endloop
  endfacet
  facet normal 0.290605 0.956843 -0
    outer loop
      vertex 69.7366 38.6759 0
      vertex 69.4834 38.7528 6
      vertex 69.7366 38.6759 6
    endloop
  endfacet
  facet normal 0.290605 0.956843 0
    outer loop
      vertex 69.4834 38.7528 6
      vertex 69.7366 38.6759 0
      vertex 69.4834 38.7528 0
    endloop
  endfacet
  facet normal 0.882007 0.471235 0
    outer loop
      vertex 68.8775 39.25 6
      vertex 68.7528 39.4834 0
      vertex 68.7528 39.4834 6
    endloop
  endfacet
  facet normal 0.882007 0.471235 0
    outer loop
      vertex 68.7528 39.4834 0
      vertex 68.8775 39.25 6
      vertex 68.8775 39.25 0
    endloop
  endfacet
  facet normal 0.773031 0.634369 0
    outer loop
      vertex 69.0454 39.0454 6
      vertex 68.8775 39.25 0
      vertex 68.8775 39.25 6
    endloop
  endfacet
  facet normal 0.773031 0.634369 0
    outer loop
      vertex 68.8775 39.25 0
      vertex 69.0454 39.0454 6
      vertex 69.0454 39.0454 0
    endloop
  endfacet
  facet normal 0.9952 0.0978576 0
    outer loop
      vertex 68.6759 39.7366 6
      vertex 68.65 40 0
      vertex 68.65 40 6
    endloop
  endfacet
  facet normal 0.9952 0.0978576 0
    outer loop
      vertex 68.65 40 0
      vertex 68.6759 39.7366 6
      vertex 68.6759 39.7366 0
    endloop
  endfacet
  facet normal -0.290605 0.956843 0
    outer loop
      vertex 70.5166 38.7528 0
      vertex 70.2634 38.6759 6
      vertex 70.5166 38.7528 6
    endloop
  endfacet
  facet normal -0.290605 0.956843 0
    outer loop
      vertex 70.2634 38.6759 6
      vertex 70.5166 38.7528 0
      vertex 70.2634 38.6759 0
    endloop
  endfacet
  facet normal -0.634369 0.773031 0
    outer loop
      vertex 70.9546 39.0454 0
      vertex 70.75 38.8775 6
      vertex 70.9546 39.0454 6
    endloop
  endfacet
  facet normal -0.634369 0.773031 0
    outer loop
      vertex 70.75 38.8775 6
      vertex 70.9546 39.0454 0
      vertex 70.75 38.8775 0
    endloop
  endfacet
  facet normal -0.882007 0.471235 0
    outer loop
      vertex 71.1225 39.25 0
      vertex 71.2472 39.4834 6
      vertex 71.2472 39.4834 0
    endloop
  endfacet
  facet normal -0.882007 0.471235 0
    outer loop
      vertex 71.2472 39.4834 6
      vertex 71.1225 39.25 0
      vertex 71.1225 39.25 6
    endloop
  endfacet
  facet normal -0.956843 0.290605 0
    outer loop
      vertex 71.2472 39.4834 0
      vertex 71.3241 39.7366 6
      vertex 71.3241 39.7366 0
    endloop
  endfacet
  facet normal -0.956843 0.290605 0
    outer loop
      vertex 71.3241 39.7366 6
      vertex 71.2472 39.4834 0
      vertex 71.2472 39.4834 6
    endloop
  endfacet
  facet normal 0.471235 0.882007 -0
    outer loop
      vertex 69.4834 38.7528 0
      vertex 69.25 38.8775 6
      vertex 69.4834 38.7528 6
    endloop
  endfacet
  facet normal 0.471235 0.882007 0
    outer loop
      vertex 69.25 38.8775 6
      vertex 69.4834 38.7528 0
      vertex 69.25 38.8775 0
    endloop
  endfacet
  facet normal 0.0978576 0.9952 -0
    outer loop
      vertex 70 38.65 0
      vertex 69.7366 38.6759 6
      vertex 70 38.65 6
    endloop
  endfacet
  facet normal 0.0978576 0.9952 0
    outer loop
      vertex 69.7366 38.6759 6
      vertex 70 38.65 0
      vertex 69.7366 38.6759 0
    endloop
  endfacet
  facet normal 0.956843 0.290605 0
    outer loop
      vertex 68.7528 39.4834 6
      vertex 68.6759 39.7366 0
      vertex 68.6759 39.7366 6
    endloop
  endfacet
  facet normal 0.956843 0.290605 0
    outer loop
      vertex 68.6759 39.7366 0
      vertex 68.7528 39.4834 6
      vertex 68.7528 39.4834 0
    endloop
  endfacet
  facet normal -0.9952 0.0978576 0
    outer loop
      vertex 71.3241 39.7366 0
      vertex 71.35 40 6
      vertex 71.35 40 0
    endloop
  endfacet
  facet normal -0.9952 0.0978576 0
    outer loop
      vertex 71.35 40 6
      vertex 71.3241 39.7366 0
      vertex 71.3241 39.7366 6
    endloop
  endfacet
  facet normal 1 -0 0
    outer loop
      vertex 67.3586 37.3586 40
      vertex 67.3586 42.6414 6
      vertex 67.3586 42.6414 40
    endloop
  endfacet
  facet normal 1 0 0
    outer loop
      vertex 67.3586 42.6414 6
      vertex 67.3586 37.3586 40
      vertex 67.3586 37.3586 6
    endloop
  endfacet
  facet normal 0 -1 0
    outer loop
      vertex 67.3586 42.6414 6
      vertex 72.6414 42.6414 40
      vertex 67.3586 42.6414 40
    endloop
  endfacet
  facet normal 0 -1 -0
    outer loop
      vertex 72.6414 42.6414 40
      vertex 67.3586 42.6414 6
      vertex 72.6414 42.6414 6
    endloop
  endfacet
  facet normal 0 1 -0
    outer loop
      vertex 72.6414 37.3586 6
      vertex 67.3586 37.3586 40
      vertex 72.6414 37.3586 40
    endloop
  endfacet
  facet normal 0 1 0
    outer loop
      vertex 67.3586 37.3586 40
      vertex 72.6414 37.3586 6
      vertex 67.3586 37.3586 6
    endloop
  endfacet
  facet normal 0 0 1
    outer loop
      vertex 72.6414 42.6414 6
      vertex 71.35 40 6
      vertex 72.6414 37.3586 6
    endloop
  endfacet
  facet normal 0 0 1
    outer loop
      vertex 72.6414 42.6414 6
      vertex 71.3241 40.2634 6
      vertex 71.35 40 6
    endloop
  endfacet
  facet normal 0 0 1
    outer loop
      vertex 72.6414 42.6414 6
      vertex 71.2472 40.5166 6
      vertex 71.3241 40.2634 6
    endloop
  endfacet
  facet normal 0 0 1
    outer loop
      vertex 72.6414 42.6414 6
      vertex 71.1225 40.75 6
      vertex 71.2472 40.5166 6
    endloop
  endfacet
  facet normal 0 0 1
    outer loop
      vertex 72.6414 42.6414 6
      vertex 70.9546 40.9546 6
      vertex 71.1225 40.75 6
    endloop
  endfacet
  facet normal 0 0 1
    outer loop
      vertex 72.6414 42.6414 6
      vertex 70.75 41.1225 6
      vertex 70.9546 40.9546 6
    endloop
  endfacet
  facet normal 0 0 1
    outer loop
      vertex 72.6414 42.6414 6
      vertex 70.5166 41.2472 6
      vertex 70.75 41.1225 6
    endloop
  endfacet
  facet normal 0 0 1
    outer loop
      vertex 72.6414 42.6414 6
      vertex 70.2634 41.3241 6
      vertex 70.5166 41.2472 6
    endloop
  endfacet
  facet normal 0 0 1
    outer loop
      vertex 72.6414 42.6414 6
      vertex 70 41.35 6
      vertex 70.2634 41.3241 6
    endloop
  endfacet
  facet normal -0 0 1
    outer loop
      vertex 67.3586 42.6414 6
      vertex 70 41.35 6
      vertex 72.6414 42.6414 6
    endloop
  endfacet
  facet normal 0 0 1
    outer loop
      vertex 70 41.35 6
      vertex 67.3586 42.6414 6
      vertex 69.7366 41.3241 6
    endloop
  endfacet
  facet normal 0 0 1
    outer loop
      vertex 68.6759 40.2634 6
      vertex 67.3586 42.6414 6
      vertex 68.65 40 6
    endloop
  endfacet
  facet normal 0 0 1
    outer loop
      vertex 68.7528 40.5166 6
      vertex 67.3586 42.6414 6
      vertex 68.6759 40.2634 6
    endloop
  endfacet
  facet normal 0 0 1
    outer loop
      vertex 68.8775 40.75 6
      vertex 67.3586 42.6414 6
      vertex 68.7528 40.5166 6
    endloop
  endfacet
  facet normal 0 0 1
    outer loop
      vertex 69.0454 40.9546 6
      vertex 67.3586 42.6414 6
      vertex 68.8775 40.75 6
    endloop
  endfacet
  facet normal 0 0 1
    outer loop
      vertex 69.25 41.1225 6
      vertex 67.3586 42.6414 6
      vertex 69.0454 40.9546 6
    endloop
  endfacet
  facet normal 0 0 1
    outer loop
      vertex 69.4834 41.2472 6
      vertex 67.3586 42.6414 6
      vertex 69.25 41.1225 6
    endloop
  endfacet
  facet normal 0 0 1
    outer loop
      vertex 69.7366 41.3241 6
      vertex 67.3586 42.6414 6
      vertex 69.4834 41.2472 6
    endloop
  endfacet
  facet normal -0 0 1
    outer loop
      vertex 71.3241 39.7366 6
      vertex 72.6414 37.3586 6
      vertex 71.35 40 6
    endloop
  endfacet
  facet normal -0 0 1
    outer loop
      vertex 71.2472 39.4834 6
      vertex 72.6414 37.3586 6
      vertex 71.3241 39.7366 6
    endloop
  endfacet
  facet normal -0 0 1
    outer loop
      vertex 71.1225 39.25 6
      vertex 72.6414 37.3586 6
      vertex 71.2472 39.4834 6
    endloop
  endfacet
  facet normal -0 0 1
    outer loop
      vertex 70.9546 39.0454 6
      vertex 72.6414 37.3586 6
      vertex 71.1225 39.25 6
    endloop
  endfacet
  facet normal -0 0 1
    outer loop
      vertex 70.75 38.8775 6
      vertex 72.6414 37.3586 6
      vertex 70.9546 39.0454 6
    endloop
  endfacet
  facet normal -0 0 1
    outer loop
      vertex 70.5166 38.7528 6
      vertex 72.6414 37.3586 6
      vertex 70.75 38.8775 6
    endloop
  endfacet
  facet normal -0 0 1
    outer loop
      vertex 70.2634 38.6759 6
      vertex 72.6414 37.3586 6
      vertex 70.5166 38.7528 6
    endloop
  endfacet
  facet normal -0 0 1
    outer loop
      vertex 70 38.65 6
      vertex 72.6414 37.3586 6
      vertex 70.2634 38.6759 6
    endloop
  endfacet
  facet normal 0 0 1
    outer loop
      vertex 67.3586 37.3586 6
      vertex 70 38.65 6
      vertex 69.7366 38.6759 6
    endloop
  endfacet
  facet normal 0 0 1
    outer loop
      vertex 67.3586 37.3586 6
      vertex 69.7366 38.6759 6
      vertex 69.4834 38.7528 6
    endloop
  endfacet
  facet normal 0 0 1
    outer loop
      vertex 67.3586 37.3586 6
      vertex 68.65 40 6
      vertex 67.3586 42.6414 6
    endloop
  endfacet
  facet normal 0 0 1
    outer loop
      vertex 68.65 40 6
      vertex 67.3586 37.3586 6
      vertex 68.6759 39.7366 6
    endloop
  endfacet
  facet normal 0 0 1
    outer loop
      vertex 70 38.65 6
      vertex 67.3586 37.3586 6
      vertex 72.6414 37.3586 6
    endloop
  endfacet
  facet normal 0 0 1
    outer loop
      vertex 69.25 38.8775 6
      vertex 67.3586 37.3586 6
      vertex 69.4834 38.7528 6
    endloop
  endfacet
  facet normal 0 0 1
    outer loop
      vertex 69.0454 39.0454 6
      vertex 67.3586 37.3586 6
      vertex 69.25 38.8775 6
    endloop
  endfacet
  facet normal 0 0 1
    outer loop
      vertex 68.8775 39.25 6
      vertex 67.3586 37.3586 6
      vertex 69.0454 39.0454 6
    endloop
  endfacet
  facet normal 0 0 1
    outer loop
      vertex 68.7528 39.4834 6
      vertex 67.3586 37.3586 6
      vertex 68.8775 39.25 6
    endloop
  endfacet
  facet normal 0 0 1
    outer loop
      vertex 68.6759 39.7366 6
      vertex 67.3586 37.3586 6
      vertex 68.7528 39.4834 6
    endloop
  endfacet
  facet normal -1 0 0
    outer loop
      vertex 72.6414 37.3586 6
      vertex 72.6414 42.6414 40
      vertex 72.6414 42.6414 6
    endloop
  endfacet
  facet normal -1 -0 0
    outer loop
      vertex 72.6414 42.6414 40
      vertex 72.6414 37.3586 6
      vertex 72.6414 37.3586 40
    endloop
  endfacet
  facet normal -0.634369 -0.773031 0
    outer loop
      vertex 33.25 86.1225 0
      vertex 33.4546 85.9546 6
      vertex 33.25 86.1225 6
    endloop
  endfacet
  facet normal -0.634369 -0.773031 -0
    outer loop
      vertex 33.4546 85.9546 6
      vertex 33.25 86.1225 0
      vertex 33.4546 85.9546 0
    endloop
  endfacet
  facet normal 0.290605 0.956843 -0
    outer loop
      vertex 32.2366 83.6759 0
      vertex 31.9834 83.7528 6
      vertex 32.2366 83.6759 6
    endloop
  endfacet
  facet normal 0.290605 0.956843 0
    outer loop
      vertex 31.9834 83.7528 6
      vertex 32.2366 83.6759 0
      vertex 31.9834 83.7528 0
    endloop
  endfacet
  facet normal -0.956843 -0.290605 0
    outer loop
      vertex 33.8241 85.2634 0
      vertex 33.7472 85.5166 6
      vertex 33.7472 85.5166 0
    endloop
  endfacet
  facet normal -0.956843 -0.290605 0
    outer loop
      vertex 33.7472 85.5166 6
      vertex 33.8241 85.2634 0
      vertex 33.8241 85.2634 6
    endloop
  endfacet
  facet normal 0.290605 -0.956843 0
    outer loop
      vertex 31.9834 86.2472 0
      vertex 32.2366 86.3241 6
      vertex 31.9834 86.2472 6
    endloop
  endfacet
  facet normal 0.290605 -0.956843 0
    outer loop
      vertex 32.2366 86.3241 6
      vertex 31.9834 86.2472 0
      vertex 32.2366 86.3241 0
    endloop
  endfacet
  facet normal 0.882007 -0.471235 0
    outer loop
      vertex 31.2528 85.5166 6
      vertex 31.3775 85.75 0
      vertex 31.3775 85.75 6
    endloop
  endfacet
  facet normal 0.882007 -0.471235 0
    outer loop
      vertex 31.3775 85.75 0
      vertex 31.2528 85.5166 6
      vertex 31.2528 85.5166 0
    endloop
  endfacet
  facet normal 0.882007 0.471235 0
    outer loop
      vertex 31.3775 84.25 6
      vertex 31.2528 84.4834 0
      vertex 31.2528 84.4834 6
    endloop
  endfacet
  facet normal 0.882007 0.471235 0
    outer loop
      vertex 31.2528 84.4834 0
      vertex 31.3775 84.25 6
      vertex 31.3775 84.25 0
    endloop
  endfacet
  facet normal -0.882007 -0.471235 0
    outer loop
      vertex 33.7472 85.5166 0
      vertex 33.6225 85.75 6
      vertex 33.6225 85.75 0
    endloop
  endfacet
  facet normal -0.882007 -0.471235 0
    outer loop
      vertex 33.6225 85.75 6
      vertex 33.7472 85.5166 0
      vertex 33.7472 85.5166 6
    endloop
  endfacet
  facet normal -0.773031 -0.634369 0
    outer loop
      vertex 33.6225 85.75 0
      vertex 33.4546 85.9546 6
      vertex 33.4546 85.9546 0
    endloop
  endfacet
  facet normal -0.773031 -0.634369 0
    outer loop
      vertex 33.4546 85.9546 6
      vertex 33.6225 85.75 0
      vertex 33.6225 85.75 6
    endloop
  endfacet
  facet normal -0.471235 -0.882007 0
    outer loop
      vertex 33.0166 86.2472 0
      vertex 33.25 86.1225 6
      vertex 33.0166 86.2472 6
    endloop
  endfacet
  facet normal -0.471235 -0.882007 -0
    outer loop
      vertex 33.25 86.1225 6
      vertex 33.0166 86.2472 0
      vertex 33.25 86.1225 0
    endloop
  endfacet
  facet normal -0.0978576 -0.9952 0
    outer loop
      vertex 32.5 86.35 0
      vertex 32.7634 86.3241 6
      vertex 32.5 86.35 6
    endloop
  endfacet
  facet normal -0.0978576 -0.9952 -0
    outer loop
      vertex 32.7634 86.3241 6
      vertex 32.5 86.35 0
      vertex 32.7634 86.3241 0
    endloop
  endfacet
  facet normal -0.290605 -0.956843 0
    outer loop
      vertex 32.7634 86.3241 0
      vertex 33.0166 86.2472 6
      vertex 32.7634 86.3241 6
    endloop
  endfacet
  facet normal -0.290605 -0.956843 -0
    outer loop
      vertex 33.0166 86.2472 6
      vertex 32.7634 86.3241 0
      vertex 33.0166 86.2472 0
    endloop
  endfacet
  facet normal 0.9952 -0.0978576 0
    outer loop
      vertex 31.15 85 6
      vertex 31.1759 85.2634 0
      vertex 31.1759 85.2634 6
    endloop
  endfacet
  facet normal 0.9952 -0.0978576 0
    outer loop
      vertex 31.1759 85.2634 0
      vertex 31.15 85 6
      vertex 31.15 85 0
    endloop
  endfacet
  facet normal 0.773031 -0.634369 0
    outer loop
      vertex 31.3775 85.75 6
      vertex 31.5454 85.9546 0
      vertex 31.5454 85.9546 6
    endloop
  endfacet
  facet normal 0.773031 -0.634369 0
    outer loop
      vertex 31.5454 85.9546 0
      vertex 31.3775 85.75 6
      vertex 31.3775 85.75 0
    endloop
  endfacet
  facet normal 0.471235 -0.882007 0
    outer loop
      vertex 31.75 86.1225 0
      vertex 31.9834 86.2472 6
      vertex 31.75 86.1225 6
    endloop
  endfacet
  facet normal 0.471235 -0.882007 0
    outer loop
      vertex 31.9834 86.2472 6
      vertex 31.75 86.1225 0
      vertex 31.9834 86.2472 0
    endloop
  endfacet
  facet normal 0.0978576 -0.9952 0
    outer loop
      vertex 32.2366 86.3241 0
      vertex 32.5 86.35 6
      vertex 32.2366 86.3241 6
    endloop
  endfacet
  facet normal 0.0978576 -0.9952 0
    outer loop
      vertex 32.5 86.35 6
      vertex 32.2366 86.3241 0
      vertex 32.5 86.35 0
    endloop
  endfacet
  facet normal 0.634369 -0.773031 0
    outer loop
      vertex 31.5454 85.9546 0
      vertex 31.75 86.1225 6
      vertex 31.5454 85.9546 6
    endloop
  endfacet
  facet normal 0.634369 -0.773031 0
    outer loop
      vertex 31.75 86.1225 6
      vertex 31.5454 85.9546 0
      vertex 31.75 86.1225 0
    endloop
  endfacet
  facet normal -0.9952 -0.0978576 0
    outer loop
      vertex 33.85 85 0
      vertex 33.8241 85.2634 6
      vertex 33.8241 85.2634 0
    endloop
  endfacet
  facet normal -0.9952 -0.0978576 0
    outer loop
      vertex 33.8241 85.2634 6
      vertex 33.85 85 0
      vertex 33.85 85 6
    endloop
  endfacet
  facet normal -0.0978576 0.9952 0
    outer loop
      vertex 32.7634 83.6759 0
      vertex 32.5 83.65 6
      vertex 32.7634 83.6759 6
    endloop
  endfacet
  facet normal -0.0978576 0.9952 0
    outer loop
      vertex 32.5 83.65 6
      vertex 32.7634 83.6759 0
      vertex 32.5 83.65 0
    endloop
  endfacet
  facet normal -0.290605 0.956843 0
    outer loop
      vertex 33.0166 83.7528 0
      vertex 32.7634 83.6759 6
      vertex 33.0166 83.7528 6
    endloop
  endfacet
  facet normal -0.290605 0.956843 0
    outer loop
      vertex 32.7634 83.6759 6
      vertex 33.0166 83.7528 0
      vertex 32.7634 83.6759 0
    endloop
  endfacet
  facet normal -0.471235 0.882007 0
    outer loop
      vertex 33.25 83.8775 0
      vertex 33.0166 83.7528 6
      vertex 33.25 83.8775 6
    endloop
  endfacet
  facet normal -0.471235 0.882007 0
    outer loop
      vertex 33.0166 83.7528 6
      vertex 33.25 83.8775 0
      vertex 33.0166 83.7528 0
    endloop
  endfacet
  facet normal -0.773031 0.634369 0
    outer loop
      vertex 33.4546 84.0454 0
      vertex 33.6225 84.25 6
      vertex 33.6225 84.25 0
    endloop
  endfacet
  facet normal -0.773031 0.634369 0
    outer loop
      vertex 33.6225 84.25 6
      vertex 33.4546 84.0454 0
      vertex 33.4546 84.0454 6
    endloop
  endfacet
  facet normal 0.0978576 0.9952 -0
    outer loop
      vertex 32.5 83.65 0
      vertex 32.2366 83.6759 6
      vertex 32.5 83.65 6
    endloop
  endfacet
  facet normal 0.0978576 0.9952 0
    outer loop
      vertex 32.2366 83.6759 6
      vertex 32.5 83.65 0
      vertex 32.2366 83.6759 0
    endloop
  endfacet
  facet normal 0.471235 0.882007 -0
    outer loop
      vertex 31.9834 83.7528 0
      vertex 31.75 83.8775 6
      vertex 31.9834 83.7528 6
    endloop
  endfacet
  facet normal 0.471235 0.882007 0
    outer loop
      vertex 31.75 83.8775 6
      vertex 31.9834 83.7528 0
      vertex 31.75 83.8775 0
    endloop
  endfacet
  facet normal 0.634369 0.773031 -0
    outer loop
      vertex 31.75 83.8775 0
      vertex 31.5454 84.0454 6
      vertex 31.75 83.8775 6
    endloop
  endfacet
  facet normal 0.634369 0.773031 0
    outer loop
      vertex 31.5454 84.0454 6
      vertex 31.75 83.8775 0
      vertex 31.5454 84.0454 0
    endloop
  endfacet
  facet normal 0.9952 0.0978576 0
    outer loop
      vertex 31.1759 84.7366 6
      vertex 31.15 85 0
      vertex 31.15 85 6
    endloop
  endfacet
  facet normal 0.9952 0.0978576 0
    outer loop
      vertex 31.15 85 0
      vertex 31.1759 84.7366 6
      vertex 31.1759 84.7366 0
    endloop
  endfacet
  facet normal 0.956843 -0.290605 0
    outer loop
      vertex 31.1759 85.2634 6
      vertex 31.2528 85.5166 0
      vertex 31.2528 85.5166 6
    endloop
  endfacet
  facet normal 0.956843 -0.290605 0
    outer loop
      vertex 31.2528 85.5166 0
      vertex 31.1759 85.2634 6
      vertex 31.1759 85.2634 0
    endloop
  endfacet
  facet normal -0.9952 0.0978576 0
    outer loop
      vertex 33.8241 84.7366 0
      vertex 33.85 85 6
      vertex 33.85 85 0
    endloop
  endfacet
  facet normal -0.9952 0.0978576 0
    outer loop
      vertex 33.85 85 6
      vertex 33.8241 84.7366 0
      vertex 33.8241 84.7366 6
    endloop
  endfacet
  facet normal -0.956843 0.290605 0
    outer loop
      vertex 33.7472 84.4834 0
      vertex 33.8241 84.7366 6
      vertex 33.8241 84.7366 0
    endloop
  endfacet
  facet normal -0.956843 0.290605 0
    outer loop
      vertex 33.8241 84.7366 6
      vertex 33.7472 84.4834 0
      vertex 33.7472 84.4834 6
    endloop
  endfacet
  facet normal -0.634369 0.773031 0
    outer loop
      vertex 33.4546 84.0454 0
      vertex 33.25 83.8775 6
      vertex 33.4546 84.0454 6
    endloop
  endfacet
  facet normal -0.634369 0.773031 0
    outer loop
      vertex 33.25 83.8775 6
      vertex 33.4546 84.0454 0
      vertex 33.25 83.8775 0
    endloop
  endfacet
  facet normal -0.882007 0.471235 0
    outer loop
      vertex 33.6225 84.25 0
      vertex 33.7472 84.4834 6
      vertex 33.7472 84.4834 0
    endloop
  endfacet
  facet normal -0.882007 0.471235 0
    outer loop
      vertex 33.7472 84.4834 6
      vertex 33.6225 84.25 0
      vertex 33.6225 84.25 6
    endloop
  endfacet
  facet normal 0.956843 0.290605 0
    outer loop
      vertex 31.2528 84.4834 6
      vertex 31.1759 84.7366 0
      vertex 31.1759 84.7366 6
    endloop
  endfacet
  facet normal 0.956843 0.290605 0
    outer loop
      vertex 31.1759 84.7366 0
      vertex 31.2528 84.4834 6
      vertex 31.2528 84.4834 0
    endloop
  endfacet
  facet normal 0.773031 0.634369 0
    outer loop
      vertex 31.5454 84.0454 6
      vertex 31.3775 84.25 0
      vertex 31.3775 84.25 6
    endloop
  endfacet
  facet normal 0.773031 0.634369 0
    outer loop
      vertex 31.3775 84.25 0
      vertex 31.5454 84.0454 6
      vertex 31.5454 84.0454 0
    endloop
  endfacet
  facet normal 1 -0 0
    outer loop
      vertex 29.8586 82.3586 40
      vertex 29.8586 87.6414 6
      vertex 29.8586 87.6414 40
    endloop
  endfacet
  facet normal 1 0 0
    outer loop
      vertex 29.8586 87.6414 6
      vertex 29.8586 82.3586 40
      vertex 29.8586 82.3586 6
    endloop
  endfacet
  facet normal 0 -1 0
    outer loop
      vertex 29.8586 87.6414 6
      vertex 35.1414 87.6414 40
      vertex 29.8586 87.6414 40
    endloop
  endfacet
  facet normal 0 -1 -0
    outer loop
      vertex 35.1414 87.6414 40
      vertex 29.8586 87.6414 6
      vertex 35.1414 87.6414 6
    endloop
  endfacet
  facet normal 0 1 -0
    outer loop
      vertex 35.1414 82.3586 6
      vertex 29.8586 82.3586 40
      vertex 35.1414 82.3586 40
    endloop
  endfacet
  facet normal 0 1 0
    outer loop
      vertex 29.8586 82.3586 40
      vertex 35.1414 82.3586 6
      vertex 29.8586 82.3586 6
    endloop
  endfacet
  facet normal 0 0 1
    outer loop
      vertex 35.1414 87.6414 6
      vertex 33.85 85 6
      vertex 35.1414 82.3586 6
    endloop
  endfacet
  facet normal 0 0 1
    outer loop
      vertex 35.1414 87.6414 6
      vertex 33.8241 85.2634 6
      vertex 33.85 85 6
    endloop
  endfacet
  facet normal 0 0 1
    outer loop
      vertex 35.1414 87.6414 6
      vertex 33.7472 85.5166 6
      vertex 33.8241 85.2634 6
    endloop
  endfacet
  facet normal 0 0 1
    outer loop
      vertex 35.1414 87.6414 6
      vertex 33.6225 85.75 6
      vertex 33.7472 85.5166 6
    endloop
  endfacet
  facet normal 0 0 1
    outer loop
      vertex 35.1414 87.6414 6
      vertex 33.4546 85.9546 6
      vertex 33.6225 85.75 6
    endloop
  endfacet
  facet normal 0 0 1
    outer loop
      vertex 35.1414 87.6414 6
      vertex 33.25 86.1225 6
      vertex 33.4546 85.9546 6
    endloop
  endfacet
  facet normal 0 0 1
    outer loop
      vertex 35.1414 87.6414 6
      vertex 33.0166 86.2472 6
      vertex 33.25 86.1225 6
    endloop
  endfacet
  facet normal 0 0 1
    outer loop
      vertex 35.1414 87.6414 6
      vertex 32.7634 86.3241 6
      vertex 33.0166 86.2472 6
    endloop
  endfacet
  facet normal 0 0 1
    outer loop
      vertex 35.1414 87.6414 6
      vertex 32.5 86.35 6
      vertex 32.7634 86.3241 6
    endloop
  endfacet
  facet normal -0 0 1
    outer loop
      vertex 29.8586 87.6414 6
      vertex 32.5 86.35 6
      vertex 35.1414 87.6414 6
    endloop
  endfacet
  facet normal 0 0 1
    outer loop
      vertex 32.5 86.35 6
      vertex 29.8586 87.6414 6
      vertex 32.2366 86.3241 6
    endloop
  endfacet
  facet normal 0 0 1
    outer loop
      vertex 31.1759 85.2634 6
      vertex 29.8586 87.6414 6
      vertex 31.15 85 6
    endloop
  endfacet
  facet normal 0 0 1
    outer loop
      vertex 31.2528 85.5166 6
      vertex 29.8586 87.6414 6
      vertex 31.1759 85.2634 6
    endloop
  endfacet
  facet normal 0 0 1
    outer loop
      vertex 31.3775 85.75 6
      vertex 29.8586 87.6414 6
      vertex 31.2528 85.5166 6
    endloop
  endfacet
  facet normal 0 0 1
    outer loop
      vertex 31.5454 85.9546 6
      vertex 29.8586 87.6414 6
      vertex 31.3775 85.75 6
    endloop
  endfacet
  facet normal 0 0 1
    outer loop
      vertex 31.75 86.1225 6
      vertex 29.8586 87.6414 6
      vertex 31.5454 85.9546 6
    endloop
  endfacet
  facet normal 0 0 1
    outer loop
      vertex 31.9834 86.2472 6
      vertex 29.8586 87.6414 6
      vertex 31.75 86.1225 6
    endloop
  endfacet
  facet normal 0 0 1
    outer loop
      vertex 32.2366 86.3241 6
      vertex 29.8586 87.6414 6
      vertex 31.9834 86.2472 6
    endloop
  endfacet
  facet normal -0 0 1
    outer loop
      vertex 33.8241 84.7366 6
      vertex 35.1414 82.3586 6
      vertex 33.85 85 6
    endloop
  endfacet
  facet normal -0 0 1
    outer loop
      vertex 33.7472 84.4834 6
      vertex 35.1414 82.3586 6
      vertex 33.8241 84.7366 6
    endloop
  endfacet
  facet normal -0 0 1
    outer loop
      vertex 33.6225 84.25 6
      vertex 35.1414 82.3586 6
      vertex 33.7472 84.4834 6
    endloop
  endfacet
  facet normal -0 0 1
    outer loop
      vertex 33.4546 84.0454 6
      vertex 35.1414 82.3586 6
      vertex 33.6225 84.25 6
    endloop
  endfacet
  facet normal -0 0 1
    outer loop
      vertex 33.25 83.8775 6
      vertex 35.1414 82.3586 6
      vertex 33.4546 84.0454 6
    endloop
  endfacet
  facet normal -0 0 1
    outer loop
      vertex 33.0166 83.7528 6
      vertex 35.1414 82.3586 6
      vertex 33.25 83.8775 6
    endloop
  endfacet
  facet normal -0 0 1
    outer loop
      vertex 32.7634 83.6759 6
      vertex 35.1414 82.3586 6
      vertex 33.0166 83.7528 6
    endloop
  endfacet
  facet normal -0 0 1
    outer loop
      vertex 32.5 83.65 6
      vertex 35.1414 82.3586 6
      vertex 32.7634 83.6759 6
    endloop
  endfacet
  facet normal 0 0 1
    outer loop
      vertex 29.8586 82.3586 6
      vertex 32.5 83.65 6
      vertex 32.2366 83.6759 6
    endloop
  endfacet
  facet normal 0 0 1
    outer loop
      vertex 29.8586 82.3586 6
      vertex 32.2366 83.6759 6
      vertex 31.9834 83.7528 6
    endloop
  endfacet
  facet normal 0 0 1
    outer loop
      vertex 29.8586 82.3586 6
      vertex 31.15 85 6
      vertex 29.8586 87.6414 6
    endloop
  endfacet
  facet normal 0 0 1
    outer loop
      vertex 31.15 85 6
      vertex 29.8586 82.3586 6
      vertex 31.1759 84.7366 6
    endloop
  endfacet
  facet normal 0 0 1
    outer loop
      vertex 32.5 83.65 6
      vertex 29.8586 82.3586 6
      vertex 35.1414 82.3586 6
    endloop
  endfacet
  facet normal 0 0 1
    outer loop
      vertex 31.75 83.8775 6
      vertex 29.8586 82.3586 6
      vertex 31.9834 83.7528 6
    endloop
  endfacet
  facet normal 0 0 1
    outer loop
      vertex 31.5454 84.0454 6
      vertex 29.8586 82.3586 6
      vertex 31.75 83.8775 6
    endloop
  endfacet
  facet normal 0 0 1
    outer loop
      vertex 31.3775 84.25 6
      vertex 29.8586 82.3586 6
      vertex 31.5454 84.0454 6
    endloop
  endfacet
  facet normal 0 0 1
    outer loop
      vertex 31.2528 84.4834 6
      vertex 29.8586 82.3586 6
      vertex 31.3775 84.25 6
    endloop
  endfacet
  facet normal 0 0 1
    outer loop
      vertex 31.1759 84.7366 6
      vertex 29.8586 82.3586 6
      vertex 31.2528 84.4834 6
    endloop
  endfacet
  facet normal -1 0 0
    outer loop
      vertex 35.1414 82.3586 6
      vertex 35.1414 87.6414 40
      vertex 35.1414 87.6414 6
    endloop
  endfacet
  facet normal -1 -0 0
    outer loop
      vertex 35.1414 87.6414 40
      vertex 35.1414 82.3586 6
      vertex 35.1414 82.3586 40
    endloop
  endfacet
  facet normal -0.9952 -0.0978576 0
    outer loop
      vertex -31.15 85 0
      vertex -31.1759 85.2634 6
      vertex -31.1759 85.2634 0
    endloop
  endfacet
  facet normal -0.9952 -0.0978576 0
    outer loop
      vertex -31.1759 85.2634 6
      vertex -31.15 85 0
      vertex -31.15 85 6
    endloop
  endfacet
  facet normal 0.9952 -0.0978576 0
    outer loop
      vertex -33.85 85 6
      vertex -33.8241 85.2634 0
      vertex -33.8241 85.2634 6
    endloop
  endfacet
  facet normal 0.9952 -0.0978576 0
    outer loop
      vertex -33.8241 85.2634 0
      vertex -33.85 85 6
      vertex -33.85 85 0
    endloop
  endfacet
  facet normal -0.0978576 -0.9952 0
    outer loop
      vertex -32.5 86.35 0
      vertex -32.2366 86.3241 6
      vertex -32.5 86.35 6
    endloop
  endfacet
  facet normal -0.0978576 -0.9952 -0
    outer loop
      vertex -32.2366 86.3241 6
      vertex -32.5 86.35 0
      vertex -32.2366 86.3241 0
    endloop
  endfacet
  facet normal 0.0978576 0.9952 -0
    outer loop
      vertex -32.5 83.65 0
      vertex -32.7634 83.6759 6
      vertex -32.5 83.65 6
    endloop
  endfacet
  facet normal 0.0978576 0.9952 0
    outer loop
      vertex -32.7634 83.6759 6
      vertex -32.5 83.65 0
      vertex -32.7634 83.6759 0
    endloop
  endfacet
  facet normal -0.773031 -0.634369 0
    outer loop
      vertex -31.3775 85.75 0
      vertex -31.5454 85.9546 6
      vertex -31.5454 85.9546 0
    endloop
  endfacet
  facet normal -0.773031 -0.634369 0
    outer loop
      vertex -31.5454 85.9546 6
      vertex -31.3775 85.75 0
      vertex -31.3775 85.75 6
    endloop
  endfacet
  facet normal -0.956843 -0.290605 0
    outer loop
      vertex -31.1759 85.2634 0
      vertex -31.2528 85.5166 6
      vertex -31.2528 85.5166 0
    endloop
  endfacet
  facet normal -0.956843 -0.290605 0
    outer loop
      vertex -31.2528 85.5166 6
      vertex -31.1759 85.2634 0
      vertex -31.1759 85.2634 6
    endloop
  endfacet
  facet normal 0.634369 -0.773031 0
    outer loop
      vertex -33.4546 85.9546 0
      vertex -33.25 86.1225 6
      vertex -33.4546 85.9546 6
    endloop
  endfacet
  facet normal 0.634369 -0.773031 0
    outer loop
      vertex -33.25 86.1225 6
      vertex -33.4546 85.9546 0
      vertex -33.25 86.1225 0
    endloop
  endfacet
  facet normal 0.290605 -0.956843 0
    outer loop
      vertex -33.0166 86.2472 0
      vertex -32.7634 86.3241 6
      vertex -33.0166 86.2472 6
    endloop
  endfacet
  facet normal 0.290605 -0.956843 0
    outer loop
      vertex -32.7634 86.3241 6
      vertex -33.0166 86.2472 0
      vertex -32.7634 86.3241 0
    endloop
  endfacet
  facet normal -0.634369 0.773031 0
    outer loop
      vertex -31.5454 84.0454 0
      vertex -31.75 83.8775 6
      vertex -31.5454 84.0454 6
    endloop
  endfacet
  facet normal -0.634369 0.773031 0
    outer loop
      vertex -31.75 83.8775 6
      vertex -31.5454 84.0454 0
      vertex -31.75 83.8775 0
    endloop
  endfacet
  facet normal -0.773031 0.634369 0
    outer loop
      vertex -31.5454 84.0454 0
      vertex -31.3775 84.25 6
      vertex -31.3775 84.25 0
    endloop
  endfacet
  facet normal -0.773031 0.634369 0
    outer loop
      vertex -31.3775 84.25 6
      vertex -31.5454 84.0454 0
      vertex -31.5454 84.0454 6
    endloop
  endfacet
  facet normal 0.773031 0.634369 0
    outer loop
      vertex -33.4546 84.0454 6
      vertex -33.6225 84.25 0
      vertex -33.6225 84.25 6
    endloop
  endfacet
  facet normal 0.773031 0.634369 0
    outer loop
      vertex -33.6225 84.25 0
      vertex -33.4546 84.0454 6
      vertex -33.4546 84.0454 0
    endloop
  endfacet
  facet normal -0.882007 -0.471235 0
    outer loop
      vertex -31.2528 85.5166 0
      vertex -31.3775 85.75 6
      vertex -31.3775 85.75 0
    endloop
  endfacet
  facet normal -0.882007 -0.471235 0
    outer loop
      vertex -31.3775 85.75 6
      vertex -31.2528 85.5166 0
      vertex -31.2528 85.5166 6
    endloop
  endfacet
  facet normal -0.471235 -0.882007 0
    outer loop
      vertex -31.9834 86.2472 0
      vertex -31.75 86.1225 6
      vertex -31.9834 86.2472 6
    endloop
  endfacet
  facet normal -0.471235 -0.882007 -0
    outer loop
      vertex -31.75 86.1225 6
      vertex -31.9834 86.2472 0
      vertex -31.75 86.1225 0
    endloop
  endfacet
  facet normal -0.290605 -0.956843 0
    outer loop
      vertex -32.2366 86.3241 0
      vertex -31.9834 86.2472 6
      vertex -32.2366 86.3241 6
    endloop
  endfacet
  facet normal -0.290605 -0.956843 -0
    outer loop
      vertex -31.9834 86.2472 6
      vertex -32.2366 86.3241 0
      vertex -31.9834 86.2472 0
    endloop
  endfacet
  facet normal -0.634369 -0.773031 0
    outer loop
      vertex -31.75 86.1225 0
      vertex -31.5454 85.9546 6
      vertex -31.75 86.1225 6
    endloop
  endfacet
  facet normal -0.634369 -0.773031 -0
    outer loop
      vertex -31.5454 85.9546 6
      vertex -31.75 86.1225 0
      vertex -31.5454 85.9546 0
    endloop
  endfacet
  facet normal 0.882007 -0.471235 0
    outer loop
      vertex -33.7472 85.5166 6
      vertex -33.6225 85.75 0
      vertex -33.6225 85.75 6
    endloop
  endfacet
  facet normal 0.882007 -0.471235 0
    outer loop
      vertex -33.6225 85.75 0
      vertex -33.7472 85.5166 6
      vertex -33.7472 85.5166 0
    endloop
  endfacet
  facet normal 0.773031 -0.634369 0
    outer loop
      vertex -33.6225 85.75 6
      vertex -33.4546 85.9546 0
      vertex -33.4546 85.9546 6
    endloop
  endfacet
  facet normal 0.773031 -0.634369 0
    outer loop
      vertex -33.4546 85.9546 0
      vertex -33.6225 85.75 6
      vertex -33.6225 85.75 0
    endloop
  endfacet
  facet normal 0.956843 -0.290605 0
    outer loop
      vertex -33.8241 85.2634 6
      vertex -33.7472 85.5166 0
      vertex -33.7472 85.5166 6
    endloop
  endfacet
  facet normal 0.956843 -0.290605 0
    outer loop
      vertex -33.7472 85.5166 0
      vertex -33.8241 85.2634 6
      vertex -33.8241 85.2634 0
    endloop
  endfacet
  facet normal 0.471235 -0.882007 0
    outer loop
      vertex -33.25 86.1225 0
      vertex -33.0166 86.2472 6
      vertex -33.25 86.1225 6
    endloop
  endfacet
  facet normal 0.471235 -0.882007 0
    outer loop
      vertex -33.0166 86.2472 6
      vertex -33.25 86.1225 0
      vertex -33.0166 86.2472 0
    endloop
  endfacet
  facet normal 0.0978576 -0.9952 0
    outer loop
      vertex -32.7634 86.3241 0
      vertex -32.5 86.35 6
      vertex -32.7634 86.3241 6
    endloop
  endfacet
  facet normal 0.0978576 -0.9952 0
    outer loop
      vertex -32.5 86.35 6
      vertex -32.7634 86.3241 0
      vertex -32.5 86.35 0
    endloop
  endfacet
  facet normal -0.0978576 0.9952 0
    outer loop
      vertex -32.2366 83.6759 0
      vertex -32.5 83.65 6
      vertex -32.2366 83.6759 6
    endloop
  endfacet
  facet normal -0.0978576 0.9952 0
    outer loop
      vertex -32.5 83.65 6
      vertex -32.2366 83.6759 0
      vertex -32.5 83.65 0
    endloop
  endfacet
  facet normal -0.471235 0.882007 0
    outer loop
      vertex -31.75 83.8775 0
      vertex -31.9834 83.7528 6
      vertex -31.75 83.8775 6
    endloop
  endfacet
  facet normal -0.471235 0.882007 0
    outer loop
      vertex -31.9834 83.7528 6
      vertex -31.75 83.8775 0
      vertex -31.9834 83.7528 0
    endloop
  endfacet
  facet normal -0.9952 0.0978576 0
    outer loop
      vertex -31.1759 84.7366 0
      vertex -31.15 85 6
      vertex -31.15 85 0
    endloop
  endfacet
  facet normal -0.9952 0.0978576 0
    outer loop
      vertex -31.15 85 6
      vertex -31.1759 84.7366 0
      vertex -31.1759 84.7366 6
    endloop
  endfacet
  facet normal 0.634369 0.773031 -0
    outer loop
      vertex -33.25 83.8775 0
      vertex -33.4546 84.0454 6
      vertex -33.25 83.8775 6
    endloop
  endfacet
  facet normal 0.634369 0.773031 0
    outer loop
      vertex -33.4546 84.0454 6
      vertex -33.25 83.8775 0
      vertex -33.4546 84.0454 0
    endloop
  endfacet
  facet normal 0.290605 0.956843 -0
    outer loop
      vertex -32.7634 83.6759 0
      vertex -33.0166 83.7528 6
      vertex -32.7634 83.6759 6
    endloop
  endfacet
  facet normal 0.290605 0.956843 0
    outer loop
      vertex -33.0166 83.7528 6
      vertex -32.7634 83.6759 0
      vertex -33.0166 83.7528 0
    endloop
  endfacet
  facet normal 0.9952 0.0978576 0
    outer loop
      vertex -33.8241 84.7366 6
      vertex -33.85 85 0
      vertex -33.85 85 6
    endloop
  endfacet
  facet normal 0.9952 0.0978576 0
    outer loop
      vertex -33.85 85 0
      vertex -33.8241 84.7366 6
      vertex -33.8241 84.7366 0
    endloop
  endfacet
  facet normal 0.882007 0.471235 0
    outer loop
      vertex -33.6225 84.25 6
      vertex -33.7472 84.4834 0
      vertex -33.7472 84.4834 6
    endloop
  endfacet
  facet normal 0.882007 0.471235 0
    outer loop
      vertex -33.7472 84.4834 0
      vertex -33.6225 84.25 6
      vertex -33.6225 84.25 0
    endloop
  endfacet
  facet normal -0.290605 0.956843 0
    outer loop
      vertex -31.9834 83.7528 0
      vertex -32.2366 83.6759 6
      vertex -31.9834 83.7528 6
    endloop
  endfacet
  facet normal -0.290605 0.956843 0
    outer loop
      vertex -32.2366 83.6759 6
      vertex -31.9834 83.7528 0
      vertex -32.2366 83.6759 0
    endloop
  endfacet
  facet normal -0.882007 0.471235 0
    outer loop
      vertex -31.3775 84.25 0
      vertex -31.2528 84.4834 6
      vertex -31.2528 84.4834 0
    endloop
  endfacet
  facet normal -0.882007 0.471235 0
    outer loop
      vertex -31.2528 84.4834 6
      vertex -31.3775 84.25 0
      vertex -31.3775 84.25 6
    endloop
  endfacet
  facet normal -0.956843 0.290605 0
    outer loop
      vertex -31.2528 84.4834 0
      vertex -31.1759 84.7366 6
      vertex -31.1759 84.7366 0
    endloop
  endfacet
  facet normal -0.956843 0.290605 0
    outer loop
      vertex -31.1759 84.7366 6
      vertex -31.2528 84.4834 0
      vertex -31.2528 84.4834 6
    endloop
  endfacet
  facet normal 0.471235 0.882007 -0
    outer loop
      vertex -33.0166 83.7528 0
      vertex -33.25 83.8775 6
      vertex -33.0166 83.7528 6
    endloop
  endfacet
  facet normal 0.471235 0.882007 0
    outer loop
      vertex -33.25 83.8775 6
      vertex -33.0166 83.7528 0
      vertex -33.25 83.8775 0
    endloop
  endfacet
  facet normal 0.956843 0.290605 0
    outer loop
      vertex -33.7472 84.4834 6
      vertex -33.8241 84.7366 0
      vertex -33.8241 84.7366 6
    endloop
  endfacet
  facet normal 0.956843 0.290605 0
    outer loop
      vertex -33.8241 84.7366 0
      vertex -33.7472 84.4834 6
      vertex -33.7472 84.4834 0
    endloop
  endfacet
  facet normal 1 -0 0
    outer loop
      vertex -35.1414 82.3586 40
      vertex -35.1414 87.6414 6
      vertex -35.1414 87.6414 40
    endloop
  endfacet
  facet normal 1 0 0
    outer loop
      vertex -35.1414 87.6414 6
      vertex -35.1414 82.3586 40
      vertex -35.1414 82.3586 6
    endloop
  endfacet
  facet normal 0 -1 0
    outer loop
      vertex -35.1414 87.6414 6
      vertex -29.8586 87.6414 40
      vertex -35.1414 87.6414 40
    endloop
  endfacet
  facet normal 0 -1 -0
    outer loop
      vertex -29.8586 87.6414 40
      vertex -35.1414 87.6414 6
      vertex -29.8586 87.6414 6
    endloop
  endfacet
  facet normal 0 0 1
    outer loop
      vertex -29.8586 87.6414 6
      vertex -31.15 85 6
      vertex -29.8586 82.3586 6
    endloop
  endfacet
  facet normal 0 0 1
    outer loop
      vertex -29.8586 87.6414 6
      vertex -31.1759 85.2634 6
      vertex -31.15 85 6
    endloop
  endfacet
  facet normal 0 0 1
    outer loop
      vertex -29.8586 87.6414 6
      vertex -31.2528 85.5166 6
      vertex -31.1759 85.2634 6
    endloop
  endfacet
  facet normal 0 0 1
    outer loop
      vertex -29.8586 87.6414 6
      vertex -31.3775 85.75 6
      vertex -31.2528 85.5166 6
    endloop
  endfacet
  facet normal 0 0 1
    outer loop
      vertex -29.8586 87.6414 6
      vertex -31.5454 85.9546 6
      vertex -31.3775 85.75 6
    endloop
  endfacet
  facet normal 0 0 1
    outer loop
      vertex -29.8586 87.6414 6
      vertex -31.75 86.1225 6
      vertex -31.5454 85.9546 6
    endloop
  endfacet
  facet normal 0 0 1
    outer loop
      vertex -29.8586 87.6414 6
      vertex -31.9834 86.2472 6
      vertex -31.75 86.1225 6
    endloop
  endfacet
  facet normal 0 0 1
    outer loop
      vertex -29.8586 87.6414 6
      vertex -32.2366 86.3241 6
      vertex -31.9834 86.2472 6
    endloop
  endfacet
  facet normal 0 0 1
    outer loop
      vertex -29.8586 87.6414 6
      vertex -32.5 86.35 6
      vertex -32.2366 86.3241 6
    endloop
  endfacet
  facet normal -0 0 1
    outer loop
      vertex -35.1414 87.6414 6
      vertex -32.5 86.35 6
      vertex -29.8586 87.6414 6
    endloop
  endfacet
  facet normal 0 0 1
    outer loop
      vertex -32.5 86.35 6
      vertex -35.1414 87.6414 6
      vertex -32.7634 86.3241 6
    endloop
  endfacet
  facet normal 0 0 1
    outer loop
      vertex -33.8241 85.2634 6
      vertex -35.1414 87.6414 6
      vertex -33.85 85 6
    endloop
  endfacet
  facet normal 0 0 1
    outer loop
      vertex -33.7472 85.5166 6
      vertex -35.1414 87.6414 6
      vertex -33.8241 85.2634 6
    endloop
  endfacet
  facet normal 0 0 1
    outer loop
      vertex -33.6225 85.75 6
      vertex -35.1414 87.6414 6
      vertex -33.7472 85.5166 6
    endloop
  endfacet
  facet normal 0 0 1
    outer loop
      vertex -33.4546 85.9546 6
      vertex -35.1414 87.6414 6
      vertex -33.6225 85.75 6
    endloop
  endfacet
  facet normal 0 0 1
    outer loop
      vertex -33.25 86.1225 6
      vertex -35.1414 87.6414 6
      vertex -33.4546 85.9546 6
    endloop
  endfacet
  facet normal 0 0 1
    outer loop
      vertex -33.0166 86.2472 6
      vertex -35.1414 87.6414 6
      vertex -33.25 86.1225 6
    endloop
  endfacet
  facet normal 0 0 1
    outer loop
      vertex -32.7634 86.3241 6
      vertex -35.1414 87.6414 6
      vertex -33.0166 86.2472 6
    endloop
  endfacet
  facet normal -0 0 1
    outer loop
      vertex -31.1759 84.7366 6
      vertex -29.8586 82.3586 6
      vertex -31.15 85 6
    endloop
  endfacet
  facet normal -0 0 1
    outer loop
      vertex -31.2528 84.4834 6
      vertex -29.8586 82.3586 6
      vertex -31.1759 84.7366 6
    endloop
  endfacet
  facet normal -0 0 1
    outer loop
      vertex -31.3775 84.25 6
      vertex -29.8586 82.3586 6
      vertex -31.2528 84.4834 6
    endloop
  endfacet
  facet normal -0 0 1
    outer loop
      vertex -31.5454 84.0454 6
      vertex -29.8586 82.3586 6
      vertex -31.3775 84.25 6
    endloop
  endfacet
  facet normal -0 0 1
    outer loop
      vertex -31.75 83.8775 6
      vertex -29.8586 82.3586 6
      vertex -31.5454 84.0454 6
    endloop
  endfacet
  facet normal -0 0 1
    outer loop
      vertex -31.9834 83.7528 6
      vertex -29.8586 82.3586 6
      vertex -31.75 83.8775 6
    endloop
  endfacet
  facet normal -0 0 1
    outer loop
      vertex -32.2366 83.6759 6
      vertex -29.8586 82.3586 6
      vertex -31.9834 83.7528 6
    endloop
  endfacet
  facet normal -0 0 1
    outer loop
      vertex -32.5 83.65 6
      vertex -29.8586 82.3586 6
      vertex -32.2366 83.6759 6
    endloop
  endfacet
  facet normal 0 0 1
    outer loop
      vertex -35.1414 82.3586 6
      vertex -32.5 83.65 6
      vertex -32.7634 83.6759 6
    endloop
  endfacet
  facet normal 0 0 1
    outer loop
      vertex -35.1414 82.3586 6
      vertex -32.7634 83.6759 6
      vertex -33.0166 83.7528 6
    endloop
  endfacet
  facet normal 0 0 1
    outer loop
      vertex -35.1414 82.3586 6
      vertex -33.85 85 6
      vertex -35.1414 87.6414 6
    endloop
  endfacet
  facet normal 0 0 1
    outer loop
      vertex -33.85 85 6
      vertex -35.1414 82.3586 6
      vertex -33.8241 84.7366 6
    endloop
  endfacet
  facet normal 0 0 1
    outer loop
      vertex -32.5 83.65 6
      vertex -35.1414 82.3586 6
      vertex -29.8586 82.3586 6
    endloop
  endfacet
  facet normal 0 0 1
    outer loop
      vertex -33.25 83.8775 6
      vertex -35.1414 82.3586 6
      vertex -33.0166 83.7528 6
    endloop
  endfacet
  facet normal 0 0 1
    outer loop
      vertex -33.4546 84.0454 6
      vertex -35.1414 82.3586 6
      vertex -33.25 83.8775 6
    endloop
  endfacet
  facet normal 0 0 1
    outer loop
      vertex -33.6225 84.25 6
      vertex -35.1414 82.3586 6
      vertex -33.4546 84.0454 6
    endloop
  endfacet
  facet normal 0 0 1
    outer loop
      vertex -33.7472 84.4834 6
      vertex -35.1414 82.3586 6
      vertex -33.6225 84.25 6
    endloop
  endfacet
  facet normal 0 0 1
    outer loop
      vertex -33.8241 84.7366 6
      vertex -35.1414 82.3586 6
      vertex -33.7472 84.4834 6
    endloop
  endfacet
  facet normal -1 0 0
    outer loop
      vertex -29.8586 82.3586 6
      vertex -29.8586 87.6414 40
      vertex -29.8586 87.6414 6
    endloop
  endfacet
  facet normal -1 -0 0
    outer loop
      vertex -29.8586 87.6414 40
      vertex -29.8586 82.3586 6
      vertex -29.8586 82.3586 40
    endloop
  endfacet
  facet normal 0 1 -0
    outer loop
      vertex -29.8586 82.3586 6
      vertex -35.1414 82.3586 40
      vertex -29.8586 82.3586 40
    endloop
  endfacet
  facet normal 0 1 0
    outer loop
      vertex -35.1414 82.3586 40
      vertex -29.8586 82.3586 6
      vertex -35.1414 82.3586 6
    endloop
  endfacet
  facet normal 0 0 -1
    outer loop
      vertex -65 0 0
      vertex -68.65 40 0
      vertex -65 80 0
    endloop
  endfacet
  facet normal 0 0 -1
    outer loop
      vertex -65 0 0
      vertex -68.6759 39.7366 0
      vertex -68.65 40 0
    endloop
  endfacet
  facet normal 0 0 -1
    outer loop
      vertex -65 0 0
      vertex -68.7528 39.4834 0
      vertex -68.6759 39.7366 0
    endloop
  endfacet
  facet normal 0 0 -1
    outer loop
      vertex -65 0 0
      vertex -68.8775 39.25 0
      vertex -68.7528 39.4834 0
    endloop
  endfacet
  facet normal 0 0 -1
    outer loop
      vertex -65 0 0
      vertex -69.0454 39.0454 0
      vertex -68.8775 39.25 0
    endloop
  endfacet
  facet normal 0 0 -1
    outer loop
      vertex -65 0 0
      vertex -69.25 38.8775 0
      vertex -69.0454 39.0454 0
    endloop
  endfacet
  facet normal 0 0 -1
    outer loop
      vertex -65 0 0
      vertex -69.4834 38.7528 0
      vertex -69.25 38.8775 0
    endloop
  endfacet
  facet normal 0 0 -1
    outer loop
      vertex -65 0 0
      vertex -69.7366 38.6759 0
      vertex -69.4834 38.7528 0
    endloop
  endfacet
  facet normal 0 0 -1
    outer loop
      vertex -65 0 0
      vertex -70 38.65 0
      vertex -69.7366 38.6759 0
    endloop
  endfacet
  facet normal 0 0 -1
    outer loop
      vertex -75 0 0
      vertex -70 38.65 0
      vertex -65 0 0
    endloop
  endfacet
  facet normal -0 0 -1
    outer loop
      vertex -70 38.65 0
      vertex -75 0 0
      vertex -70.2634 38.6759 0
    endloop
  endfacet
  facet normal -0 0 -1
    outer loop
      vertex -70.2634 38.6759 0
      vertex -75 0 0
      vertex -70.5166 38.7528 0
    endloop
  endfacet
  facet normal -0 0 -1
    outer loop
      vertex -70.5166 38.7528 0
      vertex -75 0 0
      vertex -70.75 38.8775 0
    endloop
  endfacet
  facet normal -0 0 -1
    outer loop
      vertex -70.75 38.8775 0
      vertex -75 0 0
      vertex -70.9546 39.0454 0
    endloop
  endfacet
  facet normal -0 0 -1
    outer loop
      vertex -70.9546 39.0454 0
      vertex -75 0 0
      vertex -71.1225 39.25 0
    endloop
  endfacet
  facet normal -0 0 -1
    outer loop
      vertex -71.1225 39.25 0
      vertex -75 0 0
      vertex -71.2472 39.4834 0
    endloop
  endfacet
  facet normal -0 0 -1
    outer loop
      vertex -71.3241 39.7366 0
      vertex -75 0 0
      vertex -71.35 40 0
    endloop
  endfacet
  facet normal -0 0 -1
    outer loop
      vertex -71.2472 39.4834 0
      vertex -75 0 0
      vertex -71.3241 39.7366 0
    endloop
  endfacet
  facet normal 0 0 -1
    outer loop
      vertex 65 80 0
      vertex 33.8241 84.7366 0
      vertex 33.85 85 0
    endloop
  endfacet
  facet normal 0 0 -1
    outer loop
      vertex 65 80 0
      vertex 33.7472 84.4834 0
      vertex 33.8241 84.7366 0
    endloop
  endfacet
  facet normal 0 0 -1
    outer loop
      vertex 65 80 0
      vertex 33.6225 84.25 0
      vertex 33.7472 84.4834 0
    endloop
  endfacet
  facet normal 0 0 -1
    outer loop
      vertex 65 80 0
      vertex 33.4546 84.0454 0
      vertex 33.6225 84.25 0
    endloop
  endfacet
  facet normal 0 0 -1
    outer loop
      vertex 65 80 0
      vertex 33.25 83.8775 0
      vertex 33.4546 84.0454 0
    endloop
  endfacet
  facet normal 0 0 -1
    outer loop
      vertex 65 80 0
      vertex 33.0166 83.7528 0
      vertex 33.25 83.8775 0
    endloop
  endfacet
  facet normal 0 0 -1
    outer loop
      vertex 65 80 0
      vertex 32.7634 83.6759 0
      vertex 33.0166 83.7528 0
    endloop
  endfacet
  facet normal 0 0 -1
    outer loop
      vertex 65 80 0
      vertex 32.5 83.65 0
      vertex 32.7634 83.6759 0
    endloop
  endfacet
  facet normal 0 0 -1
    outer loop
      vertex -32.5 83.65 0
      vertex 32.5 83.65 0
      vertex 65 80 0
    endloop
  endfacet
  facet normal 0 0 -1
    outer loop
      vertex 31.1759 84.7366 0
      vertex -31.15 85 0
      vertex 31.15 85 0
    endloop
  endfacet
  facet normal 0 0 -1
    outer loop
      vertex -31.1759 84.7366 0
      vertex 31.1759 84.7366 0
      vertex 31.2528 84.4834 0
    endloop
  endfacet
  facet normal 0 0 -1
    outer loop
      vertex -31.2528 84.4834 0
      vertex 31.2528 84.4834 0
      vertex 31.3775 84.25 0
    endloop
  endfacet
  facet normal 0 0 -1
    outer loop
      vertex -31.3775 84.25 0
      vertex 31.3775 84.25 0
      vertex 31.5454 84.0454 0
    endloop
  endfacet
  facet normal 0 0 -1
    outer loop
      vertex -31.5454 84.0454 0
      vertex 31.5454 84.0454 0
      vertex 31.75 83.8775 0
    endloop
  endfacet
  facet normal 0 0 -1
    outer loop
      vertex -31.75 83.8775 0
      vertex 31.75 83.8775 0
      vertex 31.9834 83.7528 0
    endloop
  endfacet
  facet normal 0 0 -1
    outer loop
      vertex -31.9834 83.7528 0
      vertex 31.9834 83.7528 0
      vertex 32.2366 83.6759 0
    endloop
  endfacet
  facet normal 0 0 -1
    outer loop
      vertex 32.5 83.65 0
      vertex -32.5 83.65 0
      vertex 32.2366 83.6759 0
    endloop
  endfacet
  facet normal 0 0 -1
    outer loop
      vertex 31.1759 84.7366 0
      vertex -31.1759 84.7366 0
      vertex -31.15 85 0
    endloop
  endfacet
  facet normal 0 0 -1
    outer loop
      vertex 31.2528 84.4834 0
      vertex -31.2528 84.4834 0
      vertex -31.1759 84.7366 0
    endloop
  endfacet
  facet normal 0 0 -1
    outer loop
      vertex 31.3775 84.25 0
      vertex -31.3775 84.25 0
      vertex -31.2528 84.4834 0
    endloop
  endfacet
  facet normal 0 0 -1
    outer loop
      vertex 31.5454 84.0454 0
      vertex -31.5454 84.0454 0
      vertex -31.3775 84.25 0
    endloop
  endfacet
  facet normal 0 0 -1
    outer loop
      vertex 31.75 83.8775 0
      vertex -31.75 83.8775 0
      vertex -31.5454 84.0454 0
    endloop
  endfacet
  facet normal 0 0 -1
    outer loop
      vertex 31.9834 83.7528 0
      vertex -31.9834 83.7528 0
      vertex -31.75 83.8775 0
    endloop
  endfacet
  facet normal 0 0 -1
    outer loop
      vertex 32.2366 83.6759 0
      vertex -32.2366 83.6759 0
      vertex -31.9834 83.7528 0
    endloop
  endfacet
  facet normal -0 0 -1
    outer loop
      vertex 32.2366 83.6759 0
      vertex -32.5 83.65 0
      vertex -32.2366 83.6759 0
    endloop
  endfacet
  facet normal -0 0 -1
    outer loop
      vertex -33.8241 84.7366 0
      vertex -65 80 0
      vertex -33.85 85 0
    endloop
  endfacet
  facet normal -0 0 -1
    outer loop
      vertex -33.7472 84.4834 0
      vertex -65 80 0
      vertex -33.8241 84.7366 0
    endloop
  endfacet
  facet normal -0 0 -1
    outer loop
      vertex -33.6225 84.25 0
      vertex -65 80 0
      vertex -33.7472 84.4834 0
    endloop
  endfacet
  facet normal -0 0 -1
    outer loop
      vertex -33.4546 84.0454 0
      vertex -65 80 0
      vertex -33.6225 84.25 0
    endloop
  endfacet
  facet normal -0 0 -1
    outer loop
      vertex -33.25 83.8775 0
      vertex -65 80 0
      vertex -33.4546 84.0454 0
    endloop
  endfacet
  facet normal -0 0 -1
    outer loop
      vertex -33.0166 83.7528 0
      vertex -65 80 0
      vertex -33.25 83.8775 0
    endloop
  endfacet
  facet normal -0 0 -1
    outer loop
      vertex -32.7634 83.6759 0
      vertex -65 80 0
      vertex -33.0166 83.7528 0
    endloop
  endfacet
  facet normal -0 0 -1
    outer loop
      vertex -32.5 83.65 0
      vertex -65 80 0
      vertex -32.7634 83.6759 0
    endloop
  endfacet
  facet normal 0 0 -1
    outer loop
      vertex -65 80 0
      vertex -32.5 83.65 0
      vertex 65 80 0
    endloop
  endfacet
  facet normal 0 0 -1
    outer loop
      vertex 75 0 0
      vertex 71.35 40 0
      vertex 75 90 0
    endloop
  endfacet
  facet normal 0 0 -1
    outer loop
      vertex 75 0 0
      vertex 71.3241 39.7366 0
      vertex 71.35 40 0
    endloop
  endfacet
  facet normal 0 0 -1
    outer loop
      vertex 75 0 0
      vertex 71.2472 39.4834 0
      vertex 71.3241 39.7366 0
    endloop
  endfacet
  facet normal 0 0 -1
    outer loop
      vertex 75 0 0
      vertex 71.1225 39.25 0
      vertex 71.2472 39.4834 0
    endloop
  endfacet
  facet normal 0 0 -1
    outer loop
      vertex 75 0 0
      vertex 70.9546 39.0454 0
      vertex 71.1225 39.25 0
    endloop
  endfacet
  facet normal 0 0 -1
    outer loop
      vertex 75 0 0
      vertex 70.75 38.8775 0
      vertex 70.9546 39.0454 0
    endloop
  endfacet
  facet normal 0 0 -1
    outer loop
      vertex 75 0 0
      vertex 70.5166 38.7528 0
      vertex 70.75 38.8775 0
    endloop
  endfacet
  facet normal 0 0 -1
    outer loop
      vertex 75 0 0
      vertex 70.2634 38.6759 0
      vertex 70.5166 38.7528 0
    endloop
  endfacet
  facet normal 0 0 -1
    outer loop
      vertex 75 0 0
      vertex 70 38.65 0
      vertex 70.2634 38.6759 0
    endloop
  endfacet
  facet normal 0 0 -1
    outer loop
      vertex 65 0 0
      vertex 70 38.65 0
      vertex 75 0 0
    endloop
  endfacet
  facet normal -0 0 -1
    outer loop
      vertex 70 38.65 0
      vertex 65 0 0
      vertex 69.7366 38.6759 0
    endloop
  endfacet
  facet normal -0 0 -1
    outer loop
      vertex 69.7366 38.6759 0
      vertex 65 0 0
      vertex 69.4834 38.7528 0
    endloop
  endfacet
  facet normal -0 0 -1
    outer loop
      vertex 69.4834 38.7528 0
      vertex 65 0 0
      vertex 69.25 38.8775 0
    endloop
  endfacet
  facet normal -0 0 -1
    outer loop
      vertex 69.25 38.8775 0
      vertex 65 0 0
      vertex 69.0454 39.0454 0
    endloop
  endfacet
  facet normal -0 0 -1
    outer loop
      vertex 69.0454 39.0454 0
      vertex 65 0 0
      vertex 68.8775 39.25 0
    endloop
  endfacet
  facet normal -0 0 -1
    outer loop
      vertex 68.8775 39.25 0
      vertex 65 0 0
      vertex 68.7528 39.4834 0
    endloop
  endfacet
  facet normal -0 0 -1
    outer loop
      vertex 68.6759 39.7366 0
      vertex 65 0 0
      vertex 68.65 40 0
    endloop
  endfacet
  facet normal -0 0 -1
    outer loop
      vertex 68.7528 39.4834 0
      vertex 65 0 0
      vertex 68.6759 39.7366 0
    endloop
  endfacet
  facet normal 0 0 -1
    outer loop
      vertex 71.3241 40.2634 0
      vertex 75 90 0
      vertex 71.35 40 0
    endloop
  endfacet
  facet normal 0 0 -1
    outer loop
      vertex 71.2472 40.5166 0
      vertex 75 90 0
      vertex 71.3241 40.2634 0
    endloop
  endfacet
  facet normal 0 0 -1
    outer loop
      vertex 71.1225 40.75 0
      vertex 75 90 0
      vertex 71.2472 40.5166 0
    endloop
  endfacet
  facet normal 0 0 -1
    outer loop
      vertex 70.9546 40.9546 0
      vertex 75 90 0
      vertex 71.1225 40.75 0
    endloop
  endfacet
  facet normal 0 0 -1
    outer loop
      vertex 65 80 0
      vertex 70.9546 40.9546 0
      vertex 70.75 41.1225 0
    endloop
  endfacet
  facet normal 0 0 -1
    outer loop
      vertex 65 80 0
      vertex 70.75 41.1225 0
      vertex 70.5166 41.2472 0
    endloop
  endfacet
  facet normal 0 0 -1
    outer loop
      vertex 65 80 0
      vertex 70.5166 41.2472 0
      vertex 70.2634 41.3241 0
    endloop
  endfacet
  facet normal 0 0 -1
    outer loop
      vertex 65 80 0
      vertex 70.2634 41.3241 0
      vertex 70 41.35 0
    endloop
  endfacet
  facet normal 0 0 -1
    outer loop
      vertex 65 80 0
      vertex 70 41.35 0
      vertex 69.7366 41.3241 0
    endloop
  endfacet
  facet normal 0 0 -1
    outer loop
      vertex 65 80 0
      vertex 69.7366 41.3241 0
      vertex 69.4834 41.2472 0
    endloop
  endfacet
  facet normal 0 0 -1
    outer loop
      vertex 65 80 0
      vertex 69.4834 41.2472 0
      vertex 69.25 41.1225 0
    endloop
  endfacet
  facet normal 0 0 -1
    outer loop
      vertex 65 80 0
      vertex 69.25 41.1225 0
      vertex 69.0454 40.9546 0
    endloop
  endfacet
  facet normal 0 0 -1
    outer loop
      vertex 65 80 0
      vertex 69.0454 40.9546 0
      vertex 68.8775 40.75 0
    endloop
  endfacet
  facet normal 0 0 -1
    outer loop
      vertex 65 80 0
      vertex 68.8775 40.75 0
      vertex 68.7528 40.5166 0
    endloop
  endfacet
  facet normal 0 0 -1
    outer loop
      vertex 65 80 0
      vertex 68.7528 40.5166 0
      vertex 68.6759 40.2634 0
    endloop
  endfacet
  facet normal 0 0 -1
    outer loop
      vertex 65 80 0
      vertex 68.65 40 0
      vertex 65 0 0
    endloop
  endfacet
  facet normal 0 0 -1
    outer loop
      vertex 65 80 0
      vertex 68.6759 40.2634 0
      vertex 68.65 40 0
    endloop
  endfacet
  facet normal 0 0 -1
    outer loop
      vertex 70.9546 40.9546 0
      vertex 65 80 0
      vertex 75 90 0
    endloop
  endfacet
  facet normal 0 0 -1
    outer loop
      vertex 33.8241 85.2634 0
      vertex 65 80 0
      vertex 33.85 85 0
    endloop
  endfacet
  facet normal 0 0 -1
    outer loop
      vertex 33.7472 85.5166 0
      vertex 65 80 0
      vertex 33.8241 85.2634 0
    endloop
  endfacet
  facet normal 0 0 -1
    outer loop
      vertex 33.6225 85.75 0
      vertex 65 80 0
      vertex 33.7472 85.5166 0
    endloop
  endfacet
  facet normal 0 0 -1
    outer loop
      vertex 33.4546 85.9546 0
      vertex 65 80 0
      vertex 33.6225 85.75 0
    endloop
  endfacet
  facet normal 0 0 -1
    outer loop
      vertex 65 80 0
      vertex 33.4546 85.9546 0
      vertex 75 90 0
    endloop
  endfacet
  facet normal 0 0 -1
    outer loop
      vertex 33.25 86.1225 0
      vertex 75 90 0
      vertex 33.4546 85.9546 0
    endloop
  endfacet
  facet normal 0 0 -1
    outer loop
      vertex 33.0166 86.2472 0
      vertex 75 90 0
      vertex 33.25 86.1225 0
    endloop
  endfacet
  facet normal 0 0 -1
    outer loop
      vertex 32.7634 86.3241 0
      vertex 75 90 0
      vertex 33.0166 86.2472 0
    endloop
  endfacet
  facet normal 0 0 -1
    outer loop
      vertex 32.5 86.35 0
      vertex 75 90 0
      vertex 32.7634 86.3241 0
    endloop
  endfacet
  facet normal 0 0 -1
    outer loop
      vertex -31.15 85 0
      vertex 31.1759 85.2634 0
      vertex 31.15 85 0
    endloop
  endfacet
  facet normal 0 0 -1
    outer loop
      vertex -31.1759 85.2634 0
      vertex 31.1759 85.2634 0
      vertex -31.15 85 0
    endloop
  endfacet
  facet normal 0 0 -1
    outer loop
      vertex 31.1759 85.2634 0
      vertex -31.1759 85.2634 0
      vertex 31.2528 85.5166 0
    endloop
  endfacet
  facet normal 0 0 -1
    outer loop
      vertex -31.2528 85.5166 0
      vertex 31.2528 85.5166 0
      vertex -31.1759 85.2634 0
    endloop
  endfacet
  facet normal 0 0 -1
    outer loop
      vertex 31.2528 85.5166 0
      vertex -31.2528 85.5166 0
      vertex 31.3775 85.75 0
    endloop
  endfacet
  facet normal 0 0 -1
    outer loop
      vertex -31.3775 85.75 0
      vertex 31.3775 85.75 0
      vertex -31.2528 85.5166 0
    endloop
  endfacet
  facet normal 0 0 -1
    outer loop
      vertex 31.3775 85.75 0
      vertex -31.3775 85.75 0
      vertex 31.5454 85.9546 0
    endloop
  endfacet
  facet normal 0 0 -1
    outer loop
      vertex -31.5454 85.9546 0
      vertex 31.5454 85.9546 0
      vertex -31.3775 85.75 0
    endloop
  endfacet
  facet normal 0 0 -1
    outer loop
      vertex 31.5454 85.9546 0
      vertex -31.5454 85.9546 0
      vertex 31.75 86.1225 0
    endloop
  endfacet
  facet normal 0 0 -1
    outer loop
      vertex -31.75 86.1225 0
      vertex 31.75 86.1225 0
      vertex -31.5454 85.9546 0
    endloop
  endfacet
  facet normal 0 0 -1
    outer loop
      vertex 31.75 86.1225 0
      vertex -31.75 86.1225 0
      vertex 31.9834 86.2472 0
    endloop
  endfacet
  facet normal 0 0 -1
    outer loop
      vertex -31.9834 86.2472 0
      vertex 31.9834 86.2472 0
      vertex -31.75 86.1225 0
    endloop
  endfacet
  facet normal 0 0 -1
    outer loop
      vertex 31.9834 86.2472 0
      vertex -31.9834 86.2472 0
      vertex 32.2366 86.3241 0
    endloop
  endfacet
  facet normal 0 0 -1
    outer loop
      vertex -32.2366 86.3241 0
      vertex 32.2366 86.3241 0
      vertex -31.9834 86.2472 0
    endloop
  endfacet
  facet normal 0 0 -1
    outer loop
      vertex 32.2366 86.3241 0
      vertex -32.2366 86.3241 0
      vertex 32.5 86.35 0
    endloop
  endfacet
  facet normal 0 0 -1
    outer loop
      vertex -32.5 86.35 0
      vertex 32.5 86.35 0
      vertex -32.2366 86.3241 0
    endloop
  endfacet
  facet normal 0 0 -1
    outer loop
      vertex 32.5 86.35 0
      vertex -32.5 86.35 0
      vertex 75 90 0
    endloop
  endfacet
  facet normal 0 0 -1
    outer loop
      vertex -65 80 0
      vertex -33.8241 85.2634 0
      vertex -33.85 85 0
    endloop
  endfacet
  facet normal 0 0 -1
    outer loop
      vertex -65 80 0
      vertex -33.7472 85.5166 0
      vertex -33.8241 85.2634 0
    endloop
  endfacet
  facet normal 0 0 -1
    outer loop
      vertex -65 80 0
      vertex -33.6225 85.75 0
      vertex -33.7472 85.5166 0
    endloop
  endfacet
  facet normal 0 0 -1
    outer loop
      vertex -65 80 0
      vertex -33.4546 85.9546 0
      vertex -33.6225 85.75 0
    endloop
  endfacet
  facet normal 0 0 -1
    outer loop
      vertex -75 90 0
      vertex -33.4546 85.9546 0
      vertex -65 80 0
    endloop
  endfacet
  facet normal 0 0 -1
    outer loop
      vertex -33.4546 85.9546 0
      vertex -75 90 0
      vertex -33.25 86.1225 0
    endloop
  endfacet
  facet normal 0 0 -1
    outer loop
      vertex -33.25 86.1225 0
      vertex -75 90 0
      vertex -33.0166 86.2472 0
    endloop
  endfacet
  facet normal 0 0 -1
    outer loop
      vertex -68.6759 40.2634 0
      vertex -65 80 0
      vertex -68.65 40 0
    endloop
  endfacet
  facet normal 0 0 -1
    outer loop
      vertex -68.7528 40.5166 0
      vertex -65 80 0
      vertex -68.6759 40.2634 0
    endloop
  endfacet
  facet normal 0 0 -1
    outer loop
      vertex -68.8775 40.75 0
      vertex -65 80 0
      vertex -68.7528 40.5166 0
    endloop
  endfacet
  facet normal 0 0 -1
    outer loop
      vertex -69.0454 40.9546 0
      vertex -65 80 0
      vertex -68.8775 40.75 0
    endloop
  endfacet
  facet normal 0 0 -1
    outer loop
      vertex -69.25 41.1225 0
      vertex -65 80 0
      vertex -69.0454 40.9546 0
    endloop
  endfacet
  facet normal 0 0 -1
    outer loop
      vertex -69.4834 41.2472 0
      vertex -65 80 0
      vertex -69.25 41.1225 0
    endloop
  endfacet
  facet normal 0 0 -1
    outer loop
      vertex -69.7366 41.3241 0
      vertex -65 80 0
      vertex -69.4834 41.2472 0
    endloop
  endfacet
  facet normal 0 0 -1
    outer loop
      vertex -70 41.35 0
      vertex -65 80 0
      vertex -69.7366 41.3241 0
    endloop
  endfacet
  facet normal 0 0 -1
    outer loop
      vertex -70.2634 41.3241 0
      vertex -65 80 0
      vertex -70 41.35 0
    endloop
  endfacet
  facet normal 0 0 -1
    outer loop
      vertex -70.5166 41.2472 0
      vertex -65 80 0
      vertex -70.2634 41.3241 0
    endloop
  endfacet
  facet normal 0 0 -1
    outer loop
      vertex -70.75 41.1225 0
      vertex -65 80 0
      vertex -70.5166 41.2472 0
    endloop
  endfacet
  facet normal 0 0 -1
    outer loop
      vertex -70.9546 40.9546 0
      vertex -65 80 0
      vertex -70.75 41.1225 0
    endloop
  endfacet
  facet normal 0 0 -1
    outer loop
      vertex -75 90 0
      vertex -70.9546 40.9546 0
      vertex -71.1225 40.75 0
    endloop
  endfacet
  facet normal 0 0 -1
    outer loop
      vertex -75 90 0
      vertex -71.1225 40.75 0
      vertex -71.2472 40.5166 0
    endloop
  endfacet
  facet normal 0 0 -1
    outer loop
      vertex -75 90 0
      vertex -71.2472 40.5166 0
      vertex -71.3241 40.2634 0
    endloop
  endfacet
  facet normal 0 0 -1
    outer loop
      vertex -32.5 86.35 0
      vertex -75 90 0
      vertex 75 90 0
    endloop
  endfacet
  facet normal 0 0 -1
    outer loop
      vertex -32.7634 86.3241 0
      vertex -75 90 0
      vertex -32.5 86.35 0
    endloop
  endfacet
  facet normal 0 0 -1
    outer loop
      vertex -33.0166 86.2472 0
      vertex -75 90 0
      vertex -32.7634 86.3241 0
    endloop
  endfacet
  facet normal 0 0 -1
    outer loop
      vertex -70.9546 40.9546 0
      vertex -75 90 0
      vertex -65 80 0
    endloop
  endfacet
  facet normal 0 0 -1
    outer loop
      vertex -71.35 40 0
      vertex -75 90 0
      vertex -71.3241 40.2634 0
    endloop
  endfacet
  facet normal 0 0 -1
    outer loop
      vertex -75 90 0
      vertex -71.35 40 0
      vertex -75 0 0
    endloop
  endfacet
  facet normal 0 0 1
    outer loop
      vertex 75 90 40
      vertex 72.6414 42.6414 40
      vertex 75 0 40
    endloop
  endfacet
  facet normal -0 0 1
    outer loop
      vertex 65 80 40
      vertex 72.6414 42.6414 40
      vertex 75 90 40
    endloop
  endfacet
  facet normal 0 0 1
    outer loop
      vertex 67.3586 42.6414 40
      vertex 65 80 40
      vertex 67.3586 37.3586 40
    endloop
  endfacet
  facet normal 0 0 1
    outer loop
      vertex 72.6414 42.6414 40
      vertex 65 80 40
      vertex 67.3586 42.6414 40
    endloop
  endfacet
  facet normal 0 0 1
    outer loop
      vertex 75 90 40
      vertex 35.1414 87.6414 40
      vertex 65 80 40
    endloop
  endfacet
  facet normal 0 0 1
    outer loop
      vertex 75 90 40
      vertex 29.8586 87.6414 40
      vertex 35.1414 87.6414 40
    endloop
  endfacet
  facet normal 0 0 1
    outer loop
      vertex 29.8586 87.6414 40
      vertex -29.8586 87.6414 40
      vertex 29.8586 82.3586 40
    endloop
  endfacet
  facet normal 0 0 1
    outer loop
      vertex 75 90 40
      vertex -29.8586 87.6414 40
      vertex 29.8586 87.6414 40
    endloop
  endfacet
  facet normal -0 0 1
    outer loop
      vertex -75 90 40
      vertex -29.8586 87.6414 40
      vertex 75 90 40
    endloop
  endfacet
  facet normal 0 0 1
    outer loop
      vertex -35.1414 87.6414 40
      vertex -65 80 40
      vertex -35.1414 82.3586 40
    endloop
  endfacet
  facet normal 0 0 1
    outer loop
      vertex -65 80 40
      vertex -67.3586 42.6414 40
      vertex -65 0 40
    endloop
  endfacet
  facet normal 0 0 1
    outer loop
      vertex -65 80 40
      vertex -72.6414 42.6414 40
      vertex -67.3586 42.6414 40
    endloop
  endfacet
  facet normal 0 0 1
    outer loop
      vertex -75 0 40
      vertex -72.6414 42.6414 40
      vertex -75 90 40
    endloop
  endfacet
  facet normal 0 0 1
    outer loop
      vertex -65 80 40
      vertex -75 90 40
      vertex -72.6414 42.6414 40
    endloop
  endfacet
  facet normal 0 0 1
    outer loop
      vertex -35.1414 87.6414 40
      vertex -75 90 40
      vertex -65 80 40
    endloop
  endfacet
  facet normal 0 0 1
    outer loop
      vertex -29.8586 87.6414 40
      vertex -75 90 40
      vertex -35.1414 87.6414 40
    endloop
  endfacet
  facet normal -0 0 1
    outer loop
      vertex 72.6414 37.3586 40
      vertex 75 0 40
      vertex 72.6414 42.6414 40
    endloop
  endfacet
  facet normal -0 0 1
    outer loop
      vertex 67.3586 37.3586 40
      vertex 75 0 40
      vertex 72.6414 37.3586 40
    endloop
  endfacet
  facet normal 0 0 1
    outer loop
      vertex 67.3586 37.3586 40
      vertex 65 0 40
      vertex 75 0 40
    endloop
  endfacet
  facet normal 0 0 1
    outer loop
      vertex 65 0 40
      vertex 67.3586 37.3586 40
      vertex 65 80 40
    endloop
  endfacet
  facet normal -0 0 1
    outer loop
      vertex 35.1414 82.3586 40
      vertex 65 80 40
      vertex 35.1414 87.6414 40
    endloop
  endfacet
  facet normal -0 0 1
    outer loop
      vertex 29.8586 82.3586 40
      vertex 65 80 40
      vertex 35.1414 82.3586 40
    endloop
  endfacet
  facet normal 0 0 1
    outer loop
      vertex -29.8586 82.3586 40
      vertex 29.8586 82.3586 40
      vertex -29.8586 87.6414 40
    endloop
  endfacet
  facet normal -0 0 1
    outer loop
      vertex -29.8586 82.3586 40
      vertex 65 80 40
      vertex 29.8586 82.3586 40
    endloop
  endfacet
  facet normal 0 0 1
    outer loop
      vertex -65 80 40
      vertex -29.8586 82.3586 40
      vertex -35.1414 82.3586 40
    endloop
  endfacet
  facet normal 0 0 1
    outer loop
      vertex -29.8586 82.3586 40
      vertex -65 80 40
      vertex 65 80 40
    endloop
  endfacet
  facet normal -0 0 1
    outer loop
      vertex -67.3586 37.3586 40
      vertex -65 0 40
      vertex -67.3586 42.6414 40
    endloop
  endfacet
  facet normal -0 0 1
    outer loop
      vertex -72.6414 37.3586 40
      vertex -65 0 40
      vertex -67.3586 37.3586 40
    endloop
  endfacet
  facet normal 0 0 1
    outer loop
      vertex -72.6414 37.3586 40
      vertex -75 0 40
      vertex -65 0 40
    endloop
  endfacet
  facet normal 0 0 1
    outer loop
      vertex -72.6414 42.6414 40
      vertex -75 0 40
      vertex -72.6414 37.3586 40
    endloop
  endfacet
  facet normal 0 -1 0
    outer loop
      vertex -65 80 0
      vertex 65 80 40
      vertex -65 80 40
    endloop
  endfacet
  facet normal 0 -1 -0
    outer loop
      vertex 65 80 40
      vertex -65 80 0
      vertex 65 80 0
    endloop
  endfacet
  facet normal -1 0 0
    outer loop
      vertex 65 0 0
      vertex 65 80 40
      vertex 65 80 0
    endloop
  endfacet
  facet normal -1 -0 0
    outer loop
      vertex 65 80 40
      vertex 65 0 0
      vertex 65 0 40
    endloop
  endfacet
  facet normal 0 -1 0
    outer loop
      vertex 65 0 0
      vertex 75 0 40
      vertex 65 0 40
    endloop
  endfacet
  facet normal 0 -1 -0
    outer loop
      vertex 75 0 40
      vertex 65 0 0
      vertex 75 0 0
    endloop
  endfacet
  facet normal 1 -0 0
    outer loop
      vertex 75 0 40
      vertex 75 90 0
      vertex 75 90 40
    endloop
  endfacet
  facet normal 1 0 0
    outer loop
      vertex 75 90 0
      vertex 75 0 40
      vertex 75 0 0
    endloop
  endfacet
  facet normal 0 1 -0
    outer loop
      vertex 75 90 0
      vertex -75 90 40
      vertex 75 90 40
    endloop
  endfacet
  facet normal 0 1 0
    outer loop
      vertex -75 90 40
      vertex 75 90 0
      vertex -75 90 0
    endloop
  endfacet
  facet normal -1 0 0
    outer loop
      vertex -75 0 0
      vertex -75 90 40
      vertex -75 90 0
    endloop
  endfacet
  facet normal -1 -0 0
    outer loop
      vertex -75 90 40
      vertex -75 0 0
      vertex -75 0 40
    endloop
  endfacet
  facet normal 0 -1 0
    outer loop
      vertex -75 0 0
      vertex -65 0 40
      vertex -75 0 40
    endloop
  endfacet
  facet normal 0 -1 -0
    outer loop
      vertex -65 0 40
      vertex -75 0 0
      vertex -65 0 0
    endloop
  endfacet
  facet normal 1 -0 0
    outer loop
      vertex -65 0 40
      vertex -65 80 0
      vertex -65 80 40
    endloop
  endfacet
  facet normal 1 0 0
    outer loop
      vertex -65 80 0
      vertex -65 0 40
      vertex -65 0 0
    endloop
  endfacet
endsolid OpenSCAD_Model
