solid OpenSCAD_Model
  facet normal 0.595708 0.803201 -0
    outer loop
      vertex 2.53757 3.09204 -4.5
      vertex 2.22228 3.32588 4.5
      vertex 2.53757 3.09204 4.5
    endloop
  endfacet
  facet normal 0.595708 0.803201 0
    outer loop
      vertex 2.22228 3.32588 4.5
      vertex 2.53757 3.09204 -4.5
      vertex 2.22228 3.32588 -4.5
    endloop
  endfacet
  facet normal 0.998796 -0.049065 0
    outer loop
      vertex 3.98074 -0.392068 4.5
      vertex 4 0 -4.5
      vertex 4 0 4.5
    endloop
  endfacet
  facet normal 0.998796 -0.049065 0
    outer loop
      vertex 4 0 -4.5
      vertex 3.98074 -0.392068 4.5
      vertex 3.98074 -0.392068 -4.5
    endloop
  endfacet
  facet normal -0.336887 0.941545 0
    outer loop
      vertex -1.16114 3.82776 -4.5
      vertex -1.53073 3.69552 4.5
      vertex -1.16114 3.82776 4.5
    endloop
  endfacet
  facet normal -0.336887 0.941545 0
    outer loop
      vertex -1.53073 3.69552 4.5
      vertex -1.16114 3.82776 -4.5
      vertex -1.53073 3.69552 -4.5
    endloop
  endfacet
  facet normal -0.903986 0.427563 0
    outer loop
      vertex -3.69552 1.53073 -4.5
      vertex -3.52768 1.88559 4.5
      vertex -3.52768 1.88559 -4.5
    endloop
  endfacet
  facet normal -0.903986 0.427563 0
    outer loop
      vertex -3.52768 1.88559 4.5
      vertex -3.69552 1.53073 -4.5
      vertex -3.69552 1.53073 4.5
    endloop
  endfacet
  facet normal -0.903986 -0.427563 0
    outer loop
      vertex -3.52768 -1.88559 -4.5
      vertex -3.69552 -1.53073 4.5
      vertex -3.69552 -1.53073 -4.5
    endloop
  endfacet
  facet normal -0.903986 -0.427563 0
    outer loop
      vertex -3.69552 -1.53073 4.5
      vertex -3.52768 -1.88559 -4.5
      vertex -3.52768 -1.88559 4.5
    endloop
  endfacet
  facet normal 0.970031 0.24298 0
    outer loop
      vertex 3.92314 0.780361 4.5
      vertex 3.82776 1.16114 -4.5
      vertex 3.82776 1.16114 4.5
    endloop
  endfacet
  facet normal 0.970031 0.24298 0
    outer loop
      vertex 3.82776 1.16114 -4.5
      vertex 3.92314 0.780361 4.5
      vertex 3.92314 0.780361 -4.5
    endloop
  endfacet
  facet normal 0.941545 0.336887 0
    outer loop
      vertex 3.82776 1.16114 4.5
      vertex 3.69552 1.53073 -4.5
      vertex 3.69552 1.53073 4.5
    endloop
  endfacet
  facet normal 0.941545 0.336887 0
    outer loop
      vertex 3.69552 1.53073 -4.5
      vertex 3.82776 1.16114 4.5
      vertex 3.82776 1.16114 -4.5
    endloop
  endfacet
  facet normal 0.740964 0.671545 0
    outer loop
      vertex 3.09204 2.53757 4.5
      vertex 2.82843 2.82843 -4.5
      vertex 2.82843 2.82843 4.5
    endloop
  endfacet
  facet normal 0.740964 0.671545 0
    outer loop
      vertex 2.82843 2.82843 -4.5
      vertex 3.09204 2.53757 4.5
      vertex 3.09204 2.53757 -4.5
    endloop
  endfacet
  facet normal 0.514095 0.857733 -0
    outer loop
      vertex 2.22228 3.32588 -4.5
      vertex 1.88559 3.52768 4.5
      vertex 2.22228 3.32588 4.5
    endloop
  endfacet
  facet normal 0.514095 0.857733 0
    outer loop
      vertex 1.88559 3.52768 4.5
      vertex 2.22228 3.32588 -4.5
      vertex 1.88559 3.52768 -4.5
    endloop
  endfacet
  facet normal -0.595708 0.803201 0
    outer loop
      vertex -2.22228 3.32588 -4.5
      vertex -2.53757 3.09204 4.5
      vertex -2.22228 3.32588 4.5
    endloop
  endfacet
  facet normal -0.595708 0.803201 0
    outer loop
      vertex -2.53757 3.09204 4.5
      vertex -2.22228 3.32588 -4.5
      vertex -2.53757 3.09204 -4.5
    endloop
  endfacet
  facet normal 0.857733 -0.514095 0
    outer loop
      vertex 3.32588 -2.22228 4.5
      vertex 3.52768 -1.88559 -4.5
      vertex 3.52768 -1.88559 4.5
    endloop
  endfacet
  facet normal 0.857733 -0.514095 0
    outer loop
      vertex 3.52768 -1.88559 -4.5
      vertex 3.32588 -2.22228 4.5
      vertex 3.32588 -2.22228 -4.5
    endloop
  endfacet
  facet normal 0.336887 -0.941545 0
    outer loop
      vertex 1.16114 -3.82776 -4.5
      vertex 1.53073 -3.69552 4.5
      vertex 1.16114 -3.82776 4.5
    endloop
  endfacet
  facet normal 0.336887 -0.941545 0
    outer loop
      vertex 1.53073 -3.69552 4.5
      vertex 1.16114 -3.82776 -4.5
      vertex 1.53073 -3.69552 -4.5
    endloop
  endfacet
  facet normal 0.740964 -0.671545 0
    outer loop
      vertex 2.82843 -2.82843 4.5
      vertex 3.09204 -2.53757 -4.5
      vertex 3.09204 -2.53757 4.5
    endloop
  endfacet
  facet normal 0.740964 -0.671545 0
    outer loop
      vertex 3.09204 -2.53757 -4.5
      vertex 2.82843 -2.82843 4.5
      vertex 2.82843 -2.82843 -4.5
    endloop
  endfacet
  facet normal -0.049065 -0.998796 0
    outer loop
      vertex -0.392068 -3.98074 -4.5
      vertex 0 -4 4.5
      vertex -0.392068 -3.98074 4.5
    endloop
  endfacet
  facet normal -0.049065 -0.998796 -0
    outer loop
      vertex 0 -4 4.5
      vertex -0.392068 -3.98074 -4.5
      vertex 0 -4 -4.5
    endloop
  endfacet
  facet normal -0.514095 -0.857733 0
    outer loop
      vertex -2.22228 -3.32588 -4.5
      vertex -1.88559 -3.52768 4.5
      vertex -2.22228 -3.32588 4.5
    endloop
  endfacet
  facet normal -0.514095 -0.857733 -0
    outer loop
      vertex -1.88559 -3.52768 4.5
      vertex -2.22228 -3.32588 -4.5
      vertex -1.88559 -3.52768 -4.5
    endloop
  endfacet
  facet normal -0.595708 -0.803201 0
    outer loop
      vertex -2.53757 -3.09204 -4.5
      vertex -2.22228 -3.32588 4.5
      vertex -2.53757 -3.09204 4.5
    endloop
  endfacet
  facet normal -0.595708 -0.803201 -0
    outer loop
      vertex -2.22228 -3.32588 4.5
      vertex -2.53757 -3.09204 -4.5
      vertex -2.22228 -3.32588 -4.5
    endloop
  endfacet
  facet normal -0.740964 -0.671545 0
    outer loop
      vertex -2.82843 -2.82843 -4.5
      vertex -3.09204 -2.53757 4.5
      vertex -3.09204 -2.53757 -4.5
    endloop
  endfacet
  facet normal -0.740964 -0.671545 0
    outer loop
      vertex -3.09204 -2.53757 4.5
      vertex -2.82843 -2.82843 -4.5
      vertex -2.82843 -2.82843 4.5
    endloop
  endfacet
  facet normal 0.989176 0.146736 0
    outer loop
      vertex 3.98074 0.392068 4.5
      vertex 3.92314 0.780361 -4.5
      vertex 3.92314 0.780361 4.5
    endloop
  endfacet
  facet normal 0.989176 0.146736 0
    outer loop
      vertex 3.92314 0.780361 -4.5
      vertex 3.98074 0.392068 4.5
      vertex 3.98074 0.392068 -4.5
    endloop
  endfacet
  facet normal 0.903986 0.427563 0
    outer loop
      vertex 3.69552 1.53073 4.5
      vertex 3.52768 1.88559 -4.5
      vertex 3.52768 1.88559 4.5
    endloop
  endfacet
  facet normal 0.903986 0.427563 0
    outer loop
      vertex 3.52768 1.88559 -4.5
      vertex 3.69552 1.53073 4.5
      vertex 3.69552 1.53073 -4.5
    endloop
  endfacet
  facet normal 0.857733 0.514095 0
    outer loop
      vertex 3.52768 1.88559 4.5
      vertex 3.32588 2.22228 -4.5
      vertex 3.32588 2.22228 4.5
    endloop
  endfacet
  facet normal 0.857733 0.514095 0
    outer loop
      vertex 3.32588 2.22228 -4.5
      vertex 3.52768 1.88559 4.5
      vertex 3.52768 1.88559 -4.5
    endloop
  endfacet
  facet normal 0.803201 0.595708 0
    outer loop
      vertex 3.32588 2.22228 4.5
      vertex 3.09204 2.53757 -4.5
      vertex 3.09204 2.53757 4.5
    endloop
  endfacet
  facet normal 0.803201 0.595708 0
    outer loop
      vertex 3.09204 2.53757 -4.5
      vertex 3.32588 2.22228 4.5
      vertex 3.32588 2.22228 -4.5
    endloop
  endfacet
  facet normal 0.671545 0.740964 -0
    outer loop
      vertex 2.82843 2.82843 -4.5
      vertex 2.53757 3.09204 4.5
      vertex 2.82843 2.82843 4.5
    endloop
  endfacet
  facet normal 0.671545 0.740964 0
    outer loop
      vertex 2.53757 3.09204 4.5
      vertex 2.82843 2.82843 -4.5
      vertex 2.53757 3.09204 -4.5
    endloop
  endfacet
  facet normal 0.049065 0.998796 -0
    outer loop
      vertex 0.392068 3.98074 -4.5
      vertex 0 4 4.5
      vertex 0.392068 3.98074 4.5
    endloop
  endfacet
  facet normal 0.049065 0.998796 0
    outer loop
      vertex 0 4 4.5
      vertex 0.392068 3.98074 -4.5
      vertex 0 4 -4.5
    endloop
  endfacet
  facet normal 0.427563 0.903986 -0
    outer loop
      vertex 1.88559 3.52768 -4.5
      vertex 1.53073 3.69552 4.5
      vertex 1.88559 3.52768 4.5
    endloop
  endfacet
  facet normal 0.427563 0.903986 0
    outer loop
      vertex 1.53073 3.69552 4.5
      vertex 1.88559 3.52768 -4.5
      vertex 1.53073 3.69552 -4.5
    endloop
  endfacet
  facet normal 0.336887 0.941545 -0
    outer loop
      vertex 1.53073 3.69552 -4.5
      vertex 1.16114 3.82776 4.5
      vertex 1.53073 3.69552 4.5
    endloop
  endfacet
  facet normal 0.336887 0.941545 0
    outer loop
      vertex 1.16114 3.82776 4.5
      vertex 1.53073 3.69552 -4.5
      vertex 1.16114 3.82776 -4.5
    endloop
  endfacet
  facet normal 0.24298 0.970031 -0
    outer loop
      vertex 1.16114 3.82776 -4.5
      vertex 0.780361 3.92314 4.5
      vertex 1.16114 3.82776 4.5
    endloop
  endfacet
  facet normal 0.24298 0.970031 0
    outer loop
      vertex 0.780361 3.92314 4.5
      vertex 1.16114 3.82776 -4.5
      vertex 0.780361 3.92314 -4.5
    endloop
  endfacet
  facet normal 0.146736 0.989176 -0
    outer loop
      vertex 0.780361 3.92314 -4.5
      vertex 0.392068 3.98074 4.5
      vertex 0.780361 3.92314 4.5
    endloop
  endfacet
  facet normal 0.146736 0.989176 0
    outer loop
      vertex 0.392068 3.98074 4.5
      vertex 0.780361 3.92314 -4.5
      vertex 0.392068 3.98074 -4.5
    endloop
  endfacet
  facet normal -0.998796 0.049065 0
    outer loop
      vertex -4 0 -4.5
      vertex -3.98074 0.392068 4.5
      vertex -3.98074 0.392068 -4.5
    endloop
  endfacet
  facet normal -0.998796 0.049065 0
    outer loop
      vertex -3.98074 0.392068 4.5
      vertex -4 0 -4.5
      vertex -4 0 4.5
    endloop
  endfacet
  facet normal -0.941545 0.336887 0
    outer loop
      vertex -3.82776 1.16114 -4.5
      vertex -3.69552 1.53073 4.5
      vertex -3.69552 1.53073 -4.5
    endloop
  endfacet
  facet normal -0.941545 0.336887 0
    outer loop
      vertex -3.69552 1.53073 4.5
      vertex -3.82776 1.16114 -4.5
      vertex -3.82776 1.16114 4.5
    endloop
  endfacet
  facet normal -0.970031 0.24298 0
    outer loop
      vertex -3.92314 0.780361 -4.5
      vertex -3.82776 1.16114 4.5
      vertex -3.82776 1.16114 -4.5
    endloop
  endfacet
  facet normal -0.970031 0.24298 0
    outer loop
      vertex -3.82776 1.16114 4.5
      vertex -3.92314 0.780361 -4.5
      vertex -3.92314 0.780361 4.5
    endloop
  endfacet
  facet normal -0.989176 0.146736 0
    outer loop
      vertex -3.98074 0.392068 -4.5
      vertex -3.92314 0.780361 4.5
      vertex -3.92314 0.780361 -4.5
    endloop
  endfacet
  facet normal -0.989176 0.146736 0
    outer loop
      vertex -3.92314 0.780361 4.5
      vertex -3.98074 0.392068 -4.5
      vertex -3.98074 0.392068 4.5
    endloop
  endfacet
  facet normal -0.740964 0.671545 0
    outer loop
      vertex -3.09204 2.53757 -4.5
      vertex -2.82843 2.82843 4.5
      vertex -2.82843 2.82843 -4.5
    endloop
  endfacet
  facet normal -0.740964 0.671545 0
    outer loop
      vertex -2.82843 2.82843 4.5
      vertex -3.09204 2.53757 -4.5
      vertex -3.09204 2.53757 4.5
    endloop
  endfacet
  facet normal -0.803201 0.595708 0
    outer loop
      vertex -3.32588 2.22228 -4.5
      vertex -3.09204 2.53757 4.5
      vertex -3.09204 2.53757 -4.5
    endloop
  endfacet
  facet normal -0.803201 0.595708 0
    outer loop
      vertex -3.09204 2.53757 4.5
      vertex -3.32588 2.22228 -4.5
      vertex -3.32588 2.22228 4.5
    endloop
  endfacet
  facet normal -0.049065 0.998796 0
    outer loop
      vertex 0 4 -4.5
      vertex -0.392068 3.98074 4.5
      vertex 0 4 4.5
    endloop
  endfacet
  facet normal -0.049065 0.998796 0
    outer loop
      vertex -0.392068 3.98074 4.5
      vertex 0 4 -4.5
      vertex -0.392068 3.98074 -4.5
    endloop
  endfacet
  facet normal -0.146736 0.989176 0
    outer loop
      vertex -0.392068 3.98074 -4.5
      vertex -0.780361 3.92314 4.5
      vertex -0.392068 3.98074 4.5
    endloop
  endfacet
  facet normal -0.146736 0.989176 0
    outer loop
      vertex -0.780361 3.92314 4.5
      vertex -0.392068 3.98074 -4.5
      vertex -0.780361 3.92314 -4.5
    endloop
  endfacet
  facet normal -0.427563 0.903986 0
    outer loop
      vertex -1.53073 3.69552 -4.5
      vertex -1.88559 3.52768 4.5
      vertex -1.53073 3.69552 4.5
    endloop
  endfacet
  facet normal -0.427563 0.903986 0
    outer loop
      vertex -1.88559 3.52768 4.5
      vertex -1.53073 3.69552 -4.5
      vertex -1.88559 3.52768 -4.5
    endloop
  endfacet
  facet normal -0.514095 0.857733 0
    outer loop
      vertex -1.88559 3.52768 -4.5
      vertex -2.22228 3.32588 4.5
      vertex -1.88559 3.52768 4.5
    endloop
  endfacet
  facet normal -0.514095 0.857733 0
    outer loop
      vertex -2.22228 3.32588 4.5
      vertex -1.88559 3.52768 -4.5
      vertex -2.22228 3.32588 -4.5
    endloop
  endfacet
  facet normal -0.671545 0.740964 0
    outer loop
      vertex -2.53757 3.09204 -4.5
      vertex -2.82843 2.82843 4.5
      vertex -2.53757 3.09204 4.5
    endloop
  endfacet
  facet normal -0.671545 0.740964 0
    outer loop
      vertex -2.82843 2.82843 4.5
      vertex -2.53757 3.09204 -4.5
      vertex -2.82843 2.82843 -4.5
    endloop
  endfacet
  facet normal 0.998796 0.049065 0
    outer loop
      vertex 4 0 4.5
      vertex 3.98074 0.392068 -4.5
      vertex 3.98074 0.392068 4.5
    endloop
  endfacet
  facet normal 0.998796 0.049065 0
    outer loop
      vertex 3.98074 0.392068 -4.5
      vertex 4 0 4.5
      vertex 4 0 -4.5
    endloop
  endfacet
  facet normal 0.989176 -0.146736 0
    outer loop
      vertex 3.92314 -0.780361 4.5
      vertex 3.98074 -0.392068 -4.5
      vertex 3.98074 -0.392068 4.5
    endloop
  endfacet
  facet normal 0.989176 -0.146736 0
    outer loop
      vertex 3.98074 -0.392068 -4.5
      vertex 3.92314 -0.780361 4.5
      vertex 3.92314 -0.780361 -4.5
    endloop
  endfacet
  facet normal 0.049065 -0.998796 0
    outer loop
      vertex 0 -4 -4.5
      vertex 0.392068 -3.98074 4.5
      vertex 0 -4 4.5
    endloop
  endfacet
  facet normal 0.049065 -0.998796 0
    outer loop
      vertex 0.392068 -3.98074 4.5
      vertex 0 -4 -4.5
      vertex 0.392068 -3.98074 -4.5
    endloop
  endfacet
  facet normal 0.803201 -0.595708 0
    outer loop
      vertex 3.09204 -2.53757 4.5
      vertex 3.32588 -2.22228 -4.5
      vertex 3.32588 -2.22228 4.5
    endloop
  endfacet
  facet normal 0.803201 -0.595708 0
    outer loop
      vertex 3.32588 -2.22228 -4.5
      vertex 3.09204 -2.53757 4.5
      vertex 3.09204 -2.53757 -4.5
    endloop
  endfacet
  facet normal 0.514095 -0.857733 0
    outer loop
      vertex 1.88559 -3.52768 -4.5
      vertex 2.22228 -3.32588 4.5
      vertex 1.88559 -3.52768 4.5
    endloop
  endfacet
  facet normal 0.514095 -0.857733 0
    outer loop
      vertex 2.22228 -3.32588 4.5
      vertex 1.88559 -3.52768 -4.5
      vertex 2.22228 -3.32588 -4.5
    endloop
  endfacet
  facet normal 0.671545 -0.740964 0
    outer loop
      vertex 2.53757 -3.09204 -4.5
      vertex 2.82843 -2.82843 4.5
      vertex 2.53757 -3.09204 4.5
    endloop
  endfacet
  facet normal 0.671545 -0.740964 0
    outer loop
      vertex 2.82843 -2.82843 4.5
      vertex 2.53757 -3.09204 -4.5
      vertex 2.82843 -2.82843 -4.5
    endloop
  endfacet
  facet normal 0.595708 -0.803201 0
    outer loop
      vertex 2.22228 -3.32588 -4.5
      vertex 2.53757 -3.09204 4.5
      vertex 2.22228 -3.32588 4.5
    endloop
  endfacet
  facet normal 0.595708 -0.803201 0
    outer loop
      vertex 2.53757 -3.09204 4.5
      vertex 2.22228 -3.32588 -4.5
      vertex 2.53757 -3.09204 -4.5
    endloop
  endfacet
  facet normal -0.24298 -0.970031 0
    outer loop
      vertex -1.16114 -3.82776 -4.5
      vertex -0.780361 -3.92314 4.5
      vertex -1.16114 -3.82776 4.5
    endloop
  endfacet
  facet normal -0.24298 -0.970031 -0
    outer loop
      vertex -0.780361 -3.92314 4.5
      vertex -1.16114 -3.82776 -4.5
      vertex -0.780361 -3.92314 -4.5
    endloop
  endfacet
  facet normal -0.336887 -0.941545 0
    outer loop
      vertex -1.53073 -3.69552 -4.5
      vertex -1.16114 -3.82776 4.5
      vertex -1.53073 -3.69552 4.5
    endloop
  endfacet
  facet normal -0.336887 -0.941545 -0
    outer loop
      vertex -1.16114 -3.82776 4.5
      vertex -1.53073 -3.69552 -4.5
      vertex -1.16114 -3.82776 -4.5
    endloop
  endfacet
  facet normal -0.146736 -0.989176 0
    outer loop
      vertex -0.780361 -3.92314 -4.5
      vertex -0.392068 -3.98074 4.5
      vertex -0.780361 -3.92314 4.5
    endloop
  endfacet
  facet normal -0.146736 -0.989176 -0
    outer loop
      vertex -0.392068 -3.98074 4.5
      vertex -0.780361 -3.92314 -4.5
      vertex -0.392068 -3.98074 -4.5
    endloop
  endfacet
  facet normal -0.427563 -0.903986 0
    outer loop
      vertex -1.88559 -3.52768 -4.5
      vertex -1.53073 -3.69552 4.5
      vertex -1.88559 -3.52768 4.5
    endloop
  endfacet
  facet normal -0.427563 -0.903986 -0
    outer loop
      vertex -1.53073 -3.69552 4.5
      vertex -1.88559 -3.52768 -4.5
      vertex -1.53073 -3.69552 -4.5
    endloop
  endfacet
  facet normal -0.671545 -0.740964 0
    outer loop
      vertex -2.82843 -2.82843 -4.5
      vertex -2.53757 -3.09204 4.5
      vertex -2.82843 -2.82843 4.5
    endloop
  endfacet
  facet normal -0.671545 -0.740964 -0
    outer loop
      vertex -2.53757 -3.09204 4.5
      vertex -2.82843 -2.82843 -4.5
      vertex -2.53757 -3.09204 -4.5
    endloop
  endfacet
  facet normal -0.970031 -0.24298 0
    outer loop
      vertex -3.82776 -1.16114 -4.5
      vertex -3.92314 -0.780361 4.5
      vertex -3.92314 -0.780361 -4.5
    endloop
  endfacet
  facet normal -0.970031 -0.24298 0
    outer loop
      vertex -3.92314 -0.780361 4.5
      vertex -3.82776 -1.16114 -4.5
      vertex -3.82776 -1.16114 4.5
    endloop
  endfacet
  facet normal -0.998796 -0.049065 0
    outer loop
      vertex -3.98074 -0.392068 -4.5
      vertex -4 0 4.5
      vertex -4 0 -4.5
    endloop
  endfacet
  facet normal -0.998796 -0.049065 0
    outer loop
      vertex -4 0 4.5
      vertex -3.98074 -0.392068 -4.5
      vertex -3.98074 -0.392068 4.5
    endloop
  endfacet
  facet normal 0 0 -1
    outer loop
      vertex 1.75 0 -4.5
      vertex 4 0 -4.5
      vertex 3.98074 -0.392068 -4.5
    endloop
  endfacet
  facet normal 0 0 -1
    outer loop
      vertex 1.74157 -0.17153 -4.5
      vertex 3.98074 -0.392068 -4.5
      vertex 3.92314 -0.780361 -4.5
    endloop
  endfacet
  facet normal 0 0 -1
    outer loop
      vertex 4 0 -4.5
      vertex 1.75 0 -4.5
      vertex 3.98074 0.392068 -4.5
    endloop
  endfacet
  facet normal 0 0 -1
    outer loop
      vertex 1.71637 -0.341408 -4.5
      vertex 3.92314 -0.780361 -4.5
      vertex 3.82776 -1.16114 -4.5
    endloop
  endfacet
  facet normal 0 0 -1
    outer loop
      vertex 1.74157 0.17153 -4.5
      vertex 3.98074 0.392068 -4.5
      vertex 1.75 0 -4.5
    endloop
  endfacet
  facet normal 0 0 -1
    outer loop
      vertex 1.67465 -0.507998 -4.5
      vertex 3.82776 -1.16114 -4.5
      vertex 3.69552 -1.53073 -4.5
    endloop
  endfacet
  facet normal -0 0 -1
    outer loop
      vertex 3.98074 0.392068 -4.5
      vertex 1.74157 0.17153 -4.5
      vertex 3.92314 0.780361 -4.5
    endloop
  endfacet
  facet normal 0 0 -1
    outer loop
      vertex 1.61679 -0.669696 -4.5
      vertex 3.69552 -1.53073 -4.5
      vertex 3.52768 -1.88559 -4.5
    endloop
  endfacet
  facet normal 0 0 -1
    outer loop
      vertex 1.71637 0.341408 -4.5
      vertex 3.92314 0.780361 -4.5
      vertex 1.74157 0.17153 -4.5
    endloop
  endfacet
  facet normal 0 0 -1
    outer loop
      vertex 1.54336 -0.824944 -4.5
      vertex 3.52768 -1.88559 -4.5
      vertex 3.32588 -2.22228 -4.5
    endloop
  endfacet
  facet normal -0 0 -1
    outer loop
      vertex 3.92314 0.780361 -4.5
      vertex 1.71637 0.341408 -4.5
      vertex 3.82776 1.16114 -4.5
    endloop
  endfacet
  facet normal 0 0 -1
    outer loop
      vertex 1.45507 -0.972247 -4.5
      vertex 3.32588 -2.22228 -4.5
      vertex 3.09204 -2.53757 -4.5
    endloop
  endfacet
  facet normal 0 0 -1
    outer loop
      vertex 1.67465 0.507998 -4.5
      vertex 3.82776 1.16114 -4.5
      vertex 1.71637 0.341408 -4.5
    endloop
  endfacet
  facet normal 0 0 -1
    outer loop
      vertex 1.35277 -1.11019 -4.5
      vertex 3.09204 -2.53757 -4.5
      vertex 2.82843 -2.82843 -4.5
    endloop
  endfacet
  facet normal -0 0 -1
    outer loop
      vertex 3.82776 1.16114 -4.5
      vertex 1.67465 0.507998 -4.5
      vertex 3.69552 1.53073 -4.5
    endloop
  endfacet
  facet normal 0 0 -1
    outer loop
      vertex 1.23744 -1.23744 -4.5
      vertex 2.82843 -2.82843 -4.5
      vertex 2.53757 -3.09204 -4.5
    endloop
  endfacet
  facet normal 0 0 -1
    outer loop
      vertex 1.61679 0.669696 -4.5
      vertex 3.69552 1.53073 -4.5
      vertex 1.67465 0.507998 -4.5
    endloop
  endfacet
  facet normal 0 0 -1
    outer loop
      vertex 1.11019 -1.35277 -4.5
      vertex 2.53757 -3.09204 -4.5
      vertex 2.22228 -3.32588 -4.5
    endloop
  endfacet
  facet normal -0 0 -1
    outer loop
      vertex 3.69552 1.53073 -4.5
      vertex 1.61679 0.669696 -4.5
      vertex 3.52768 1.88559 -4.5
    endloop
  endfacet
  facet normal 0 0 -1
    outer loop
      vertex 0.972247 -1.45507 -4.5
      vertex 2.22228 -3.32588 -4.5
      vertex 1.88559 -3.52768 -4.5
    endloop
  endfacet
  facet normal 0 0 -1
    outer loop
      vertex 1.54336 0.824944 -4.5
      vertex 3.52768 1.88559 -4.5
      vertex 1.61679 0.669696 -4.5
    endloop
  endfacet
  facet normal -0 0 -1
    outer loop
      vertex 3.52768 1.88559 -4.5
      vertex 1.54336 0.824944 -4.5
      vertex 3.32588 2.22228 -4.5
    endloop
  endfacet
  facet normal 0 0 -1
    outer loop
      vertex 3.98074 -0.392068 -4.5
      vertex 1.74157 -0.17153 -4.5
      vertex 1.75 0 -4.5
    endloop
  endfacet
  facet normal 0 0 -1
    outer loop
      vertex 3.92314 -0.780361 -4.5
      vertex 1.71637 -0.341408 -4.5
      vertex 1.74157 -0.17153 -4.5
    endloop
  endfacet
  facet normal 0 0 -1
    outer loop
      vertex 3.82776 -1.16114 -4.5
      vertex 1.67465 -0.507998 -4.5
      vertex 1.71637 -0.341408 -4.5
    endloop
  endfacet
  facet normal 0 0 -1
    outer loop
      vertex 3.69552 -1.53073 -4.5
      vertex 1.61679 -0.669696 -4.5
      vertex 1.67465 -0.507998 -4.5
    endloop
  endfacet
  facet normal 0 0 -1
    outer loop
      vertex 3.52768 -1.88559 -4.5
      vertex 1.54336 -0.824944 -4.5
      vertex 1.61679 -0.669696 -4.5
    endloop
  endfacet
  facet normal 0 0 -1
    outer loop
      vertex 0.824944 -1.54336 -4.5
      vertex 1.88559 -3.52768 -4.5
      vertex 1.53073 -3.69552 -4.5
    endloop
  endfacet
  facet normal 0 0 -1
    outer loop
      vertex 3.32588 -2.22228 -4.5
      vertex 1.45507 -0.972247 -4.5
      vertex 1.54336 -0.824944 -4.5
    endloop
  endfacet
  facet normal 0 0 -1
    outer loop
      vertex 3.09204 -2.53757 -4.5
      vertex 1.35277 -1.11019 -4.5
      vertex 1.45507 -0.972247 -4.5
    endloop
  endfacet
  facet normal 0 0 -1
    outer loop
      vertex 2.82843 -2.82843 -4.5
      vertex 1.23744 -1.23744 -4.5
      vertex 1.35277 -1.11019 -4.5
    endloop
  endfacet
  facet normal 0 0 -1
    outer loop
      vertex 0.669696 -1.61679 -4.5
      vertex 1.53073 -3.69552 -4.5
      vertex 1.16114 -3.82776 -4.5
    endloop
  endfacet
  facet normal 0 0 -1
    outer loop
      vertex 2.53757 -3.09204 -4.5
      vertex 1.11019 -1.35277 -4.5
      vertex 1.23744 -1.23744 -4.5
    endloop
  endfacet
  facet normal 0 0 -1
    outer loop
      vertex 2.22228 -3.32588 -4.5
      vertex 0.972247 -1.45507 -4.5
      vertex 1.11019 -1.35277 -4.5
    endloop
  endfacet
  facet normal 0 0 -1
    outer loop
      vertex 1.88559 -3.52768 -4.5
      vertex 0.824944 -1.54336 -4.5
      vertex 0.972247 -1.45507 -4.5
    endloop
  endfacet
  facet normal 0 0 -1
    outer loop
      vertex 0.507998 -1.67465 -4.5
      vertex 1.16114 -3.82776 -4.5
      vertex 0.780361 -3.92314 -4.5
    endloop
  endfacet
  facet normal 0 0 -1
    outer loop
      vertex 1.53073 -3.69552 -4.5
      vertex 0.669696 -1.61679 -4.5
      vertex 0.824944 -1.54336 -4.5
    endloop
  endfacet
  facet normal 0 0 -1
    outer loop
      vertex 1.16114 -3.82776 -4.5
      vertex 0.507998 -1.67465 -4.5
      vertex 0.669696 -1.61679 -4.5
    endloop
  endfacet
  facet normal 0 0 -1
    outer loop
      vertex 0.341408 -1.71637 -4.5
      vertex 0.780361 -3.92314 -4.5
      vertex 0.392068 -3.98074 -4.5
    endloop
  endfacet
  facet normal 0 0 -1
    outer loop
      vertex 0.780361 -3.92314 -4.5
      vertex 0.341408 -1.71637 -4.5
      vertex 0.507998 -1.67465 -4.5
    endloop
  endfacet
  facet normal 0 0 -1
    outer loop
      vertex 0.392068 -3.98074 -4.5
      vertex 0.17153 -1.74157 -4.5
      vertex 0.341408 -1.71637 -4.5
    endloop
  endfacet
  facet normal 0 0 -1
    outer loop
      vertex 0 -4 -4.5
      vertex 0.17153 -1.74157 -4.5
      vertex 0.392068 -3.98074 -4.5
    endloop
  endfacet
  facet normal 0 0 -1
    outer loop
      vertex 0 -4 -4.5
      vertex 0 -1.75 -4.5
      vertex 0.17153 -1.74157 -4.5
    endloop
  endfacet
  facet normal 0 0 -1
    outer loop
      vertex 0 -4 -4.5
      vertex -0.17153 -1.74157 -4.5
      vertex 0 -1.75 -4.5
    endloop
  endfacet
  facet normal 0 0 -1
    outer loop
      vertex -0.392068 -3.98074 -4.5
      vertex -0.17153 -1.74157 -4.5
      vertex 0 -4 -4.5
    endloop
  endfacet
  facet normal -0 0 -1
    outer loop
      vertex -0.17153 -1.74157 -4.5
      vertex -0.392068 -3.98074 -4.5
      vertex -0.341408 -1.71637 -4.5
    endloop
  endfacet
  facet normal 0 0 -1
    outer loop
      vertex -0.780361 -3.92314 -4.5
      vertex -0.341408 -1.71637 -4.5
      vertex -0.392068 -3.98074 -4.5
    endloop
  endfacet
  facet normal -0 0 -1
    outer loop
      vertex -0.341408 -1.71637 -4.5
      vertex -0.780361 -3.92314 -4.5
      vertex -0.507998 -1.67465 -4.5
    endloop
  endfacet
  facet normal 0 0 -1
    outer loop
      vertex -1.16114 -3.82776 -4.5
      vertex -0.507998 -1.67465 -4.5
      vertex -0.780361 -3.92314 -4.5
    endloop
  endfacet
  facet normal -0 0 -1
    outer loop
      vertex -0.507998 -1.67465 -4.5
      vertex -1.16114 -3.82776 -4.5
      vertex -0.669696 -1.61679 -4.5
    endloop
  endfacet
  facet normal 0 0 -1
    outer loop
      vertex -1.53073 -3.69552 -4.5
      vertex -0.669696 -1.61679 -4.5
      vertex -1.16114 -3.82776 -4.5
    endloop
  endfacet
  facet normal -0 0 -1
    outer loop
      vertex -0.669696 -1.61679 -4.5
      vertex -1.53073 -3.69552 -4.5
      vertex -0.824944 -1.54336 -4.5
    endloop
  endfacet
  facet normal 0 0 -1
    outer loop
      vertex -1.88559 -3.52768 -4.5
      vertex -0.824944 -1.54336 -4.5
      vertex -1.53073 -3.69552 -4.5
    endloop
  endfacet
  facet normal -0 0 -1
    outer loop
      vertex -0.824944 -1.54336 -4.5
      vertex -1.88559 -3.52768 -4.5
      vertex -0.972247 -1.45507 -4.5
    endloop
  endfacet
  facet normal 0 0 -1
    outer loop
      vertex -2.22228 -3.32588 -4.5
      vertex -0.972247 -1.45507 -4.5
      vertex -1.88559 -3.52768 -4.5
    endloop
  endfacet
  facet normal -0 0 -1
    outer loop
      vertex -0.972247 -1.45507 -4.5
      vertex -2.22228 -3.32588 -4.5
      vertex -1.11019 -1.35277 -4.5
    endloop
  endfacet
  facet normal 0 0 -1
    outer loop
      vertex -2.53757 -3.09204 -4.5
      vertex -1.11019 -1.35277 -4.5
      vertex -2.22228 -3.32588 -4.5
    endloop
  endfacet
  facet normal -0 0 -1
    outer loop
      vertex -1.11019 -1.35277 -4.5
      vertex -2.53757 -3.09204 -4.5
      vertex -1.23744 -1.23744 -4.5
    endloop
  endfacet
  facet normal 0 0 -1
    outer loop
      vertex -2.82843 -2.82843 -4.5
      vertex -1.23744 -1.23744 -4.5
      vertex -2.53757 -3.09204 -4.5
    endloop
  endfacet
  facet normal -0 0 -1
    outer loop
      vertex -1.23744 -1.23744 -4.5
      vertex -2.82843 -2.82843 -4.5
      vertex -1.35277 -1.11019 -4.5
    endloop
  endfacet
  facet normal 0 0 -1
    outer loop
      vertex -3.09204 -2.53757 -4.5
      vertex -1.35277 -1.11019 -4.5
      vertex -2.82843 -2.82843 -4.5
    endloop
  endfacet
  facet normal -0 0 -1
    outer loop
      vertex -1.35277 -1.11019 -4.5
      vertex -3.09204 -2.53757 -4.5
      vertex -1.45507 -0.972247 -4.5
    endloop
  endfacet
  facet normal -0 0 -1
    outer loop
      vertex -1.45507 -0.972247 -4.5
      vertex -3.32588 -2.22228 -4.5
      vertex -1.54336 -0.824944 -4.5
    endloop
  endfacet
  facet normal 0 0 -1
    outer loop
      vertex -3.32588 -2.22228 -4.5
      vertex -1.45507 -0.972247 -4.5
      vertex -3.09204 -2.53757 -4.5
    endloop
  endfacet
  facet normal 0 0 -1
    outer loop
      vertex 1.45507 0.972247 -4.5
      vertex 3.32588 2.22228 -4.5
      vertex 1.54336 0.824944 -4.5
    endloop
  endfacet
  facet normal -0 0 -1
    outer loop
      vertex 3.32588 2.22228 -4.5
      vertex 1.45507 0.972247 -4.5
      vertex 3.09204 2.53757 -4.5
    endloop
  endfacet
  facet normal 0 0 -1
    outer loop
      vertex 1.35277 1.11019 -4.5
      vertex 3.09204 2.53757 -4.5
      vertex 1.45507 0.972247 -4.5
    endloop
  endfacet
  facet normal -0 0 -1
    outer loop
      vertex 3.09204 2.53757 -4.5
      vertex 1.35277 1.11019 -4.5
      vertex 2.82843 2.82843 -4.5
    endloop
  endfacet
  facet normal 0 0 -1
    outer loop
      vertex 1.23744 1.23744 -4.5
      vertex 2.82843 2.82843 -4.5
      vertex 1.35277 1.11019 -4.5
    endloop
  endfacet
  facet normal -0 0 -1
    outer loop
      vertex 2.82843 2.82843 -4.5
      vertex 1.23744 1.23744 -4.5
      vertex 2.53757 3.09204 -4.5
    endloop
  endfacet
  facet normal 0 0 -1
    outer loop
      vertex 1.11019 1.35277 -4.5
      vertex 2.53757 3.09204 -4.5
      vertex 1.23744 1.23744 -4.5
    endloop
  endfacet
  facet normal -0 0 -1
    outer loop
      vertex 2.53757 3.09204 -4.5
      vertex 1.11019 1.35277 -4.5
      vertex 2.22228 3.32588 -4.5
    endloop
  endfacet
  facet normal 0 0 -1
    outer loop
      vertex 0.972247 1.45507 -4.5
      vertex 2.22228 3.32588 -4.5
      vertex 1.11019 1.35277 -4.5
    endloop
  endfacet
  facet normal -0 0 -1
    outer loop
      vertex 2.22228 3.32588 -4.5
      vertex 0.972247 1.45507 -4.5
      vertex 1.88559 3.52768 -4.5
    endloop
  endfacet
  facet normal 0 0 -1
    outer loop
      vertex 0.824944 1.54336 -4.5
      vertex 1.88559 3.52768 -4.5
      vertex 0.972247 1.45507 -4.5
    endloop
  endfacet
  facet normal -0 0 -1
    outer loop
      vertex 1.88559 3.52768 -4.5
      vertex 0.824944 1.54336 -4.5
      vertex 1.53073 3.69552 -4.5
    endloop
  endfacet
  facet normal 0 0 -1
    outer loop
      vertex 0.669696 1.61679 -4.5
      vertex 1.53073 3.69552 -4.5
      vertex 0.824944 1.54336 -4.5
    endloop
  endfacet
  facet normal -0 0 -1
    outer loop
      vertex 1.53073 3.69552 -4.5
      vertex 0.669696 1.61679 -4.5
      vertex 1.16114 3.82776 -4.5
    endloop
  endfacet
  facet normal 0 0 -1
    outer loop
      vertex 0.507998 1.67465 -4.5
      vertex 1.16114 3.82776 -4.5
      vertex 0.669696 1.61679 -4.5
    endloop
  endfacet
  facet normal -0 0 -1
    outer loop
      vertex 1.16114 3.82776 -4.5
      vertex 0.507998 1.67465 -4.5
      vertex 0.780361 3.92314 -4.5
    endloop
  endfacet
  facet normal 0 0 -1
    outer loop
      vertex 0.341408 1.71637 -4.5
      vertex 0.780361 3.92314 -4.5
      vertex 0.507998 1.67465 -4.5
    endloop
  endfacet
  facet normal -0 0 -1
    outer loop
      vertex 0.780361 3.92314 -4.5
      vertex 0.341408 1.71637 -4.5
      vertex 0.392068 3.98074 -4.5
    endloop
  endfacet
  facet normal 0 0 -1
    outer loop
      vertex 0.17153 1.74157 -4.5
      vertex 0.392068 3.98074 -4.5
      vertex 0.341408 1.71637 -4.5
    endloop
  endfacet
  facet normal 0 0 -1
    outer loop
      vertex 0 1.75 -4.5
      vertex 0.392068 3.98074 -4.5
      vertex 0.17153 1.74157 -4.5
    endloop
  endfacet
  facet normal 0 0 -1
    outer loop
      vertex 0 1.75 -4.5
      vertex 0 4 -4.5
      vertex 0.392068 3.98074 -4.5
    endloop
  endfacet
  facet normal 0 0 -1
    outer loop
      vertex -0.17153 1.74157 -4.5
      vertex 0 4 -4.5
      vertex 0 1.75 -4.5
    endloop
  endfacet
  facet normal 0 0 -1
    outer loop
      vertex -0.392068 3.98074 -4.5
      vertex -0.17153 1.74157 -4.5
      vertex -0.341408 1.71637 -4.5
    endloop
  endfacet
  facet normal 0 0 -1
    outer loop
      vertex -0.17153 1.74157 -4.5
      vertex -0.392068 3.98074 -4.5
      vertex 0 4 -4.5
    endloop
  endfacet
  facet normal 0 0 -1
    outer loop
      vertex -0.780361 3.92314 -4.5
      vertex -0.341408 1.71637 -4.5
      vertex -0.507998 1.67465 -4.5
    endloop
  endfacet
  facet normal 0 0 -1
    outer loop
      vertex -1.16114 3.82776 -4.5
      vertex -0.507998 1.67465 -4.5
      vertex -0.669696 1.61679 -4.5
    endloop
  endfacet
  facet normal 0 0 -1
    outer loop
      vertex -0.341408 1.71637 -4.5
      vertex -0.780361 3.92314 -4.5
      vertex -0.392068 3.98074 -4.5
    endloop
  endfacet
  facet normal 0 0 -1
    outer loop
      vertex -1.53073 3.69552 -4.5
      vertex -0.669696 1.61679 -4.5
      vertex -0.824944 1.54336 -4.5
    endloop
  endfacet
  facet normal 0 0 -1
    outer loop
      vertex -1.88559 3.52768 -4.5
      vertex -0.824944 1.54336 -4.5
      vertex -0.972247 1.45507 -4.5
    endloop
  endfacet
  facet normal 0 0 -1
    outer loop
      vertex -2.22228 3.32588 -4.5
      vertex -0.972247 1.45507 -4.5
      vertex -1.11019 1.35277 -4.5
    endloop
  endfacet
  facet normal 0 0 -1
    outer loop
      vertex -0.507998 1.67465 -4.5
      vertex -1.16114 3.82776 -4.5
      vertex -0.780361 3.92314 -4.5
    endloop
  endfacet
  facet normal 0 0 -1
    outer loop
      vertex -2.53757 3.09204 -4.5
      vertex -1.11019 1.35277 -4.5
      vertex -1.23744 1.23744 -4.5
    endloop
  endfacet
  facet normal 0 0 -1
    outer loop
      vertex -2.82843 2.82843 -4.5
      vertex -1.23744 1.23744 -4.5
      vertex -1.35277 1.11019 -4.5
    endloop
  endfacet
  facet normal 0 0 -1
    outer loop
      vertex -3.09204 2.53757 -4.5
      vertex -1.35277 1.11019 -4.5
      vertex -1.45507 0.972247 -4.5
    endloop
  endfacet
  facet normal 0 0 -1
    outer loop
      vertex -0.669696 1.61679 -4.5
      vertex -1.53073 3.69552 -4.5
      vertex -1.16114 3.82776 -4.5
    endloop
  endfacet
  facet normal 0 0 -1
    outer loop
      vertex -3.32588 2.22228 -4.5
      vertex -1.45507 0.972247 -4.5
      vertex -1.54336 0.824944 -4.5
    endloop
  endfacet
  facet normal 0 0 -1
    outer loop
      vertex -3.52768 1.88559 -4.5
      vertex -1.54336 0.824944 -4.5
      vertex -1.61679 0.669696 -4.5
    endloop
  endfacet
  facet normal 0 0 -1
    outer loop
      vertex -3.69552 1.53073 -4.5
      vertex -1.61679 0.669696 -4.5
      vertex -1.67465 0.507998 -4.5
    endloop
  endfacet
  facet normal 0 0 -1
    outer loop
      vertex -3.82776 1.16114 -4.5
      vertex -1.67465 0.507998 -4.5
      vertex -1.71637 0.341408 -4.5
    endloop
  endfacet
  facet normal 0 0 -1
    outer loop
      vertex -3.92314 0.780361 -4.5
      vertex -1.71637 0.341408 -4.5
      vertex -1.74157 0.17153 -4.5
    endloop
  endfacet
  facet normal 0 0 -1
    outer loop
      vertex -0.824944 1.54336 -4.5
      vertex -1.88559 3.52768 -4.5
      vertex -1.53073 3.69552 -4.5
    endloop
  endfacet
  facet normal 0 0 -1
    outer loop
      vertex -3.98074 0.392068 -4.5
      vertex -1.74157 0.17153 -4.5
      vertex -1.75 0 -4.5
    endloop
  endfacet
  facet normal 0 0 -1
    outer loop
      vertex -3.52768 -1.88559 -4.5
      vertex -1.54336 -0.824944 -4.5
      vertex -3.32588 -2.22228 -4.5
    endloop
  endfacet
  facet normal -0 0 -1
    outer loop
      vertex -1.54336 -0.824944 -4.5
      vertex -3.52768 -1.88559 -4.5
      vertex -1.61679 -0.669696 -4.5
    endloop
  endfacet
  facet normal 0 0 -1
    outer loop
      vertex -0.972247 1.45507 -4.5
      vertex -2.22228 3.32588 -4.5
      vertex -1.88559 3.52768 -4.5
    endloop
  endfacet
  facet normal 0 0 -1
    outer loop
      vertex -3.69552 -1.53073 -4.5
      vertex -1.61679 -0.669696 -4.5
      vertex -3.52768 -1.88559 -4.5
    endloop
  endfacet
  facet normal 0 0 -1
    outer loop
      vertex -1.11019 1.35277 -4.5
      vertex -2.53757 3.09204 -4.5
      vertex -2.22228 3.32588 -4.5
    endloop
  endfacet
  facet normal -0 0 -1
    outer loop
      vertex -1.61679 -0.669696 -4.5
      vertex -3.69552 -1.53073 -4.5
      vertex -1.67465 -0.507998 -4.5
    endloop
  endfacet
  facet normal 0 0 -1
    outer loop
      vertex -1.23744 1.23744 -4.5
      vertex -2.82843 2.82843 -4.5
      vertex -2.53757 3.09204 -4.5
    endloop
  endfacet
  facet normal 0 0 -1
    outer loop
      vertex -3.82776 -1.16114 -4.5
      vertex -1.67465 -0.507998 -4.5
      vertex -3.69552 -1.53073 -4.5
    endloop
  endfacet
  facet normal 0 0 -1
    outer loop
      vertex -1.35277 1.11019 -4.5
      vertex -3.09204 2.53757 -4.5
      vertex -2.82843 2.82843 -4.5
    endloop
  endfacet
  facet normal -0 0 -1
    outer loop
      vertex -1.67465 -0.507998 -4.5
      vertex -3.82776 -1.16114 -4.5
      vertex -1.71637 -0.341408 -4.5
    endloop
  endfacet
  facet normal 0 0 -1
    outer loop
      vertex -1.45507 0.972247 -4.5
      vertex -3.32588 2.22228 -4.5
      vertex -3.09204 2.53757 -4.5
    endloop
  endfacet
  facet normal 0 0 -1
    outer loop
      vertex -3.92314 -0.780361 -4.5
      vertex -1.71637 -0.341408 -4.5
      vertex -3.82776 -1.16114 -4.5
    endloop
  endfacet
  facet normal 0 0 -1
    outer loop
      vertex -1.54336 0.824944 -4.5
      vertex -3.52768 1.88559 -4.5
      vertex -3.32588 2.22228 -4.5
    endloop
  endfacet
  facet normal -0 0 -1
    outer loop
      vertex -1.71637 -0.341408 -4.5
      vertex -3.92314 -0.780361 -4.5
      vertex -1.74157 -0.17153 -4.5
    endloop
  endfacet
  facet normal 0 0 -1
    outer loop
      vertex -1.61679 0.669696 -4.5
      vertex -3.69552 1.53073 -4.5
      vertex -3.52768 1.88559 -4.5
    endloop
  endfacet
  facet normal 0 0 -1
    outer loop
      vertex -3.98074 -0.392068 -4.5
      vertex -1.74157 -0.17153 -4.5
      vertex -3.92314 -0.780361 -4.5
    endloop
  endfacet
  facet normal 0 0 -1
    outer loop
      vertex -1.67465 0.507998 -4.5
      vertex -3.82776 1.16114 -4.5
      vertex -3.69552 1.53073 -4.5
    endloop
  endfacet
  facet normal -0 0 -1
    outer loop
      vertex -1.74157 -0.17153 -4.5
      vertex -3.98074 -0.392068 -4.5
      vertex -1.75 0 -4.5
    endloop
  endfacet
  facet normal 0 0 -1
    outer loop
      vertex -1.71637 0.341408 -4.5
      vertex -3.92314 0.780361 -4.5
      vertex -3.82776 1.16114 -4.5
    endloop
  endfacet
  facet normal 0 0 -1
    outer loop
      vertex -4 0 -4.5
      vertex -1.75 0 -4.5
      vertex -3.98074 -0.392068 -4.5
    endloop
  endfacet
  facet normal 0 0 -1
    outer loop
      vertex -1.74157 0.17153 -4.5
      vertex -3.98074 0.392068 -4.5
      vertex -3.92314 0.780361 -4.5
    endloop
  endfacet
  facet normal 0 0 -1
    outer loop
      vertex -1.75 0 -4.5
      vertex -4 0 -4.5
      vertex -3.98074 0.392068 -4.5
    endloop
  endfacet
  facet normal -0.857733 -0.514095 0
    outer loop
      vertex -3.32588 -2.22228 -4.5
      vertex -3.52768 -1.88559 4.5
      vertex -3.52768 -1.88559 -4.5
    endloop
  endfacet
  facet normal -0.857733 -0.514095 0
    outer loop
      vertex -3.52768 -1.88559 4.5
      vertex -3.32588 -2.22228 -4.5
      vertex -3.32588 -2.22228 4.5
    endloop
  endfacet
  facet normal -0.803201 -0.595708 0
    outer loop
      vertex -3.09204 -2.53757 -4.5
      vertex -3.32588 -2.22228 4.5
      vertex -3.32588 -2.22228 -4.5
    endloop
  endfacet
  facet normal -0.803201 -0.595708 0
    outer loop
      vertex -3.32588 -2.22228 4.5
      vertex -3.09204 -2.53757 -4.5
      vertex -3.09204 -2.53757 4.5
    endloop
  endfacet
  facet normal 0 0 1
    outer loop
      vertex 1.75 0 4.5
      vertex 4 0 4.5
      vertex 3.98074 0.392068 4.5
    endloop
  endfacet
  facet normal 0 0 1
    outer loop
      vertex 1.74157 0.17153 4.5
      vertex 3.98074 0.392068 4.5
      vertex 3.92314 0.780361 4.5
    endloop
  endfacet
  facet normal 0 0 1
    outer loop
      vertex 4 0 4.5
      vertex 1.75 0 4.5
      vertex 3.98074 -0.392068 4.5
    endloop
  endfacet
  facet normal 0 0 1
    outer loop
      vertex 1.71637 0.341408 4.5
      vertex 3.92314 0.780361 4.5
      vertex 3.82776 1.16114 4.5
    endloop
  endfacet
  facet normal -0 0 1
    outer loop
      vertex 1.74157 -0.17153 4.5
      vertex 3.98074 -0.392068 4.5
      vertex 1.75 0 4.5
    endloop
  endfacet
  facet normal 0 0 1
    outer loop
      vertex 1.67465 0.507998 4.5
      vertex 3.82776 1.16114 4.5
      vertex 3.69552 1.53073 4.5
    endloop
  endfacet
  facet normal 0 0 1
    outer loop
      vertex 3.98074 -0.392068 4.5
      vertex 1.74157 -0.17153 4.5
      vertex 3.92314 -0.780361 4.5
    endloop
  endfacet
  facet normal 0 0 1
    outer loop
      vertex 1.61679 0.669696 4.5
      vertex 3.69552 1.53073 4.5
      vertex 3.52768 1.88559 4.5
    endloop
  endfacet
  facet normal -0 0 1
    outer loop
      vertex 1.71637 -0.341408 4.5
      vertex 3.92314 -0.780361 4.5
      vertex 1.74157 -0.17153 4.5
    endloop
  endfacet
  facet normal 0 0 1
    outer loop
      vertex 1.54336 0.824944 4.5
      vertex 3.52768 1.88559 4.5
      vertex 3.32588 2.22228 4.5
    endloop
  endfacet
  facet normal 0 0 1
    outer loop
      vertex 3.92314 -0.780361 4.5
      vertex 1.71637 -0.341408 4.5
      vertex 3.82776 -1.16114 4.5
    endloop
  endfacet
  facet normal 0 0 1
    outer loop
      vertex 1.45507 0.972247 4.5
      vertex 3.32588 2.22228 4.5
      vertex 3.09204 2.53757 4.5
    endloop
  endfacet
  facet normal -0 0 1
    outer loop
      vertex 1.67465 -0.507998 4.5
      vertex 3.82776 -1.16114 4.5
      vertex 1.71637 -0.341408 4.5
    endloop
  endfacet
  facet normal 0 0 1
    outer loop
      vertex 1.35277 1.11019 4.5
      vertex 3.09204 2.53757 4.5
      vertex 2.82843 2.82843 4.5
    endloop
  endfacet
  facet normal 0 0 1
    outer loop
      vertex 3.82776 -1.16114 4.5
      vertex 1.67465 -0.507998 4.5
      vertex 3.69552 -1.53073 4.5
    endloop
  endfacet
  facet normal 0 0 1
    outer loop
      vertex 1.23744 1.23744 4.5
      vertex 2.82843 2.82843 4.5
      vertex 2.53757 3.09204 4.5
    endloop
  endfacet
  facet normal -0 0 1
    outer loop
      vertex 1.61679 -0.669696 4.5
      vertex 3.69552 -1.53073 4.5
      vertex 1.67465 -0.507998 4.5
    endloop
  endfacet
  facet normal 0 0 1
    outer loop
      vertex 1.11019 1.35277 4.5
      vertex 2.53757 3.09204 4.5
      vertex 2.22228 3.32588 4.5
    endloop
  endfacet
  facet normal 0 0 1
    outer loop
      vertex 3.69552 -1.53073 4.5
      vertex 1.61679 -0.669696 4.5
      vertex 3.52768 -1.88559 4.5
    endloop
  endfacet
  facet normal 0 0 1
    outer loop
      vertex 0.972247 1.45507 4.5
      vertex 2.22228 3.32588 4.5
      vertex 1.88559 3.52768 4.5
    endloop
  endfacet
  facet normal -0 0 1
    outer loop
      vertex 1.54336 -0.824944 4.5
      vertex 3.52768 -1.88559 4.5
      vertex 1.61679 -0.669696 4.5
    endloop
  endfacet
  facet normal 0 0 1
    outer loop
      vertex 3.52768 -1.88559 4.5
      vertex 1.54336 -0.824944 4.5
      vertex 3.32588 -2.22228 4.5
    endloop
  endfacet
  facet normal 0 0 1
    outer loop
      vertex 3.98074 0.392068 4.5
      vertex 1.74157 0.17153 4.5
      vertex 1.75 0 4.5
    endloop
  endfacet
  facet normal 0 0 1
    outer loop
      vertex 3.92314 0.780361 4.5
      vertex 1.71637 0.341408 4.5
      vertex 1.74157 0.17153 4.5
    endloop
  endfacet
  facet normal 0 0 1
    outer loop
      vertex 3.82776 1.16114 4.5
      vertex 1.67465 0.507998 4.5
      vertex 1.71637 0.341408 4.5
    endloop
  endfacet
  facet normal 0 0 1
    outer loop
      vertex 3.69552 1.53073 4.5
      vertex 1.61679 0.669696 4.5
      vertex 1.67465 0.507998 4.5
    endloop
  endfacet
  facet normal 0 0 1
    outer loop
      vertex 3.52768 1.88559 4.5
      vertex 1.54336 0.824944 4.5
      vertex 1.61679 0.669696 4.5
    endloop
  endfacet
  facet normal 0 0 1
    outer loop
      vertex 0.824944 1.54336 4.5
      vertex 1.88559 3.52768 4.5
      vertex 1.53073 3.69552 4.5
    endloop
  endfacet
  facet normal 0 0 1
    outer loop
      vertex 3.32588 2.22228 4.5
      vertex 1.45507 0.972247 4.5
      vertex 1.54336 0.824944 4.5
    endloop
  endfacet
  facet normal 0 0 1
    outer loop
      vertex 3.09204 2.53757 4.5
      vertex 1.35277 1.11019 4.5
      vertex 1.45507 0.972247 4.5
    endloop
  endfacet
  facet normal 0 0 1
    outer loop
      vertex 2.82843 2.82843 4.5
      vertex 1.23744 1.23744 4.5
      vertex 1.35277 1.11019 4.5
    endloop
  endfacet
  facet normal 0 0 1
    outer loop
      vertex 0.669696 1.61679 4.5
      vertex 1.53073 3.69552 4.5
      vertex 1.16114 3.82776 4.5
    endloop
  endfacet
  facet normal 0 0 1
    outer loop
      vertex 2.53757 3.09204 4.5
      vertex 1.11019 1.35277 4.5
      vertex 1.23744 1.23744 4.5
    endloop
  endfacet
  facet normal 0 0 1
    outer loop
      vertex 2.22228 3.32588 4.5
      vertex 0.972247 1.45507 4.5
      vertex 1.11019 1.35277 4.5
    endloop
  endfacet
  facet normal 0 0 1
    outer loop
      vertex 1.88559 3.52768 4.5
      vertex 0.824944 1.54336 4.5
      vertex 0.972247 1.45507 4.5
    endloop
  endfacet
  facet normal 0 0 1
    outer loop
      vertex 0.507998 1.67465 4.5
      vertex 1.16114 3.82776 4.5
      vertex 0.780361 3.92314 4.5
    endloop
  endfacet
  facet normal 0 0 1
    outer loop
      vertex 1.53073 3.69552 4.5
      vertex 0.669696 1.61679 4.5
      vertex 0.824944 1.54336 4.5
    endloop
  endfacet
  facet normal 0 0 1
    outer loop
      vertex 1.16114 3.82776 4.5
      vertex 0.507998 1.67465 4.5
      vertex 0.669696 1.61679 4.5
    endloop
  endfacet
  facet normal 0 0 1
    outer loop
      vertex 0.341408 1.71637 4.5
      vertex 0.780361 3.92314 4.5
      vertex 0.392068 3.98074 4.5
    endloop
  endfacet
  facet normal 0 0 1
    outer loop
      vertex 0.780361 3.92314 4.5
      vertex 0.341408 1.71637 4.5
      vertex 0.507998 1.67465 4.5
    endloop
  endfacet
  facet normal 0 0 1
    outer loop
      vertex 0.392068 3.98074 4.5
      vertex 0.17153 1.74157 4.5
      vertex 0.341408 1.71637 4.5
    endloop
  endfacet
  facet normal 0 0 1
    outer loop
      vertex 0 4 4.5
      vertex 0.17153 1.74157 4.5
      vertex 0.392068 3.98074 4.5
    endloop
  endfacet
  facet normal 0 0 1
    outer loop
      vertex 0 4 4.5
      vertex 0 1.75 4.5
      vertex 0.17153 1.74157 4.5
    endloop
  endfacet
  facet normal 0 0 1
    outer loop
      vertex 0 4 4.5
      vertex -0.17153 1.74157 4.5
      vertex 0 1.75 4.5
    endloop
  endfacet
  facet normal -0 0 1
    outer loop
      vertex -0.392068 3.98074 4.5
      vertex -0.17153 1.74157 4.5
      vertex 0 4 4.5
    endloop
  endfacet
  facet normal 0 0 1
    outer loop
      vertex -0.17153 1.74157 4.5
      vertex -0.392068 3.98074 4.5
      vertex -0.341408 1.71637 4.5
    endloop
  endfacet
  facet normal -0 0 1
    outer loop
      vertex -0.780361 3.92314 4.5
      vertex -0.341408 1.71637 4.5
      vertex -0.392068 3.98074 4.5
    endloop
  endfacet
  facet normal 0 0 1
    outer loop
      vertex -0.341408 1.71637 4.5
      vertex -0.780361 3.92314 4.5
      vertex -0.507998 1.67465 4.5
    endloop
  endfacet
  facet normal -0 0 1
    outer loop
      vertex -1.16114 3.82776 4.5
      vertex -0.507998 1.67465 4.5
      vertex -0.780361 3.92314 4.5
    endloop
  endfacet
  facet normal 0 0 1
    outer loop
      vertex -0.507998 1.67465 4.5
      vertex -1.16114 3.82776 4.5
      vertex -0.669696 1.61679 4.5
    endloop
  endfacet
  facet normal -0 0 1
    outer loop
      vertex -1.53073 3.69552 4.5
      vertex -0.669696 1.61679 4.5
      vertex -1.16114 3.82776 4.5
    endloop
  endfacet
  facet normal 0 0 1
    outer loop
      vertex -0.669696 1.61679 4.5
      vertex -1.53073 3.69552 4.5
      vertex -0.824944 1.54336 4.5
    endloop
  endfacet
  facet normal -0 0 1
    outer loop
      vertex -1.88559 3.52768 4.5
      vertex -0.824944 1.54336 4.5
      vertex -1.53073 3.69552 4.5
    endloop
  endfacet
  facet normal 0 0 1
    outer loop
      vertex -0.824944 1.54336 4.5
      vertex -1.88559 3.52768 4.5
      vertex -0.972247 1.45507 4.5
    endloop
  endfacet
  facet normal -0 0 1
    outer loop
      vertex -2.22228 3.32588 4.5
      vertex -0.972247 1.45507 4.5
      vertex -1.88559 3.52768 4.5
    endloop
  endfacet
  facet normal 0 0 1
    outer loop
      vertex -0.972247 1.45507 4.5
      vertex -2.22228 3.32588 4.5
      vertex -1.11019 1.35277 4.5
    endloop
  endfacet
  facet normal -0 0 1
    outer loop
      vertex -2.53757 3.09204 4.5
      vertex -1.11019 1.35277 4.5
      vertex -2.22228 3.32588 4.5
    endloop
  endfacet
  facet normal 0 0 1
    outer loop
      vertex -1.11019 1.35277 4.5
      vertex -2.53757 3.09204 4.5
      vertex -1.23744 1.23744 4.5
    endloop
  endfacet
  facet normal -0 0 1
    outer loop
      vertex -2.82843 2.82843 4.5
      vertex -1.23744 1.23744 4.5
      vertex -2.53757 3.09204 4.5
    endloop
  endfacet
  facet normal 0 0 1
    outer loop
      vertex -1.23744 1.23744 4.5
      vertex -2.82843 2.82843 4.5
      vertex -1.35277 1.11019 4.5
    endloop
  endfacet
  facet normal -0 0 1
    outer loop
      vertex -3.09204 2.53757 4.5
      vertex -1.35277 1.11019 4.5
      vertex -2.82843 2.82843 4.5
    endloop
  endfacet
  facet normal 0 0 1
    outer loop
      vertex -1.35277 1.11019 4.5
      vertex -3.09204 2.53757 4.5
      vertex -1.45507 0.972247 4.5
    endloop
  endfacet
  facet normal 0 0 1
    outer loop
      vertex -1.45507 0.972247 4.5
      vertex -3.32588 2.22228 4.5
      vertex -1.54336 0.824944 4.5
    endloop
  endfacet
  facet normal -0 0 1
    outer loop
      vertex -3.32588 2.22228 4.5
      vertex -1.45507 0.972247 4.5
      vertex -3.09204 2.53757 4.5
    endloop
  endfacet
  facet normal -0 0 1
    outer loop
      vertex 1.45507 -0.972247 4.5
      vertex 3.32588 -2.22228 4.5
      vertex 1.54336 -0.824944 4.5
    endloop
  endfacet
  facet normal 0 0 1
    outer loop
      vertex 3.32588 -2.22228 4.5
      vertex 1.45507 -0.972247 4.5
      vertex 3.09204 -2.53757 4.5
    endloop
  endfacet
  facet normal -0 0 1
    outer loop
      vertex 1.35277 -1.11019 4.5
      vertex 3.09204 -2.53757 4.5
      vertex 1.45507 -0.972247 4.5
    endloop
  endfacet
  facet normal 0 0 1
    outer loop
      vertex 3.09204 -2.53757 4.5
      vertex 1.35277 -1.11019 4.5
      vertex 2.82843 -2.82843 4.5
    endloop
  endfacet
  facet normal -0 0 1
    outer loop
      vertex 1.23744 -1.23744 4.5
      vertex 2.82843 -2.82843 4.5
      vertex 1.35277 -1.11019 4.5
    endloop
  endfacet
  facet normal 0 0 1
    outer loop
      vertex 2.82843 -2.82843 4.5
      vertex 1.23744 -1.23744 4.5
      vertex 2.53757 -3.09204 4.5
    endloop
  endfacet
  facet normal -0 0 1
    outer loop
      vertex 1.11019 -1.35277 4.5
      vertex 2.53757 -3.09204 4.5
      vertex 1.23744 -1.23744 4.5
    endloop
  endfacet
  facet normal 0 0 1
    outer loop
      vertex 2.53757 -3.09204 4.5
      vertex 1.11019 -1.35277 4.5
      vertex 2.22228 -3.32588 4.5
    endloop
  endfacet
  facet normal -0 0 1
    outer loop
      vertex 0.972247 -1.45507 4.5
      vertex 2.22228 -3.32588 4.5
      vertex 1.11019 -1.35277 4.5
    endloop
  endfacet
  facet normal 0 0 1
    outer loop
      vertex 2.22228 -3.32588 4.5
      vertex 0.972247 -1.45507 4.5
      vertex 1.88559 -3.52768 4.5
    endloop
  endfacet
  facet normal -0 0 1
    outer loop
      vertex 0.824944 -1.54336 4.5
      vertex 1.88559 -3.52768 4.5
      vertex 0.972247 -1.45507 4.5
    endloop
  endfacet
  facet normal 0 0 1
    outer loop
      vertex 1.88559 -3.52768 4.5
      vertex 0.824944 -1.54336 4.5
      vertex 1.53073 -3.69552 4.5
    endloop
  endfacet
  facet normal -0 0 1
    outer loop
      vertex 0.669696 -1.61679 4.5
      vertex 1.53073 -3.69552 4.5
      vertex 0.824944 -1.54336 4.5
    endloop
  endfacet
  facet normal 0 0 1
    outer loop
      vertex 1.53073 -3.69552 4.5
      vertex 0.669696 -1.61679 4.5
      vertex 1.16114 -3.82776 4.5
    endloop
  endfacet
  facet normal -0 0 1
    outer loop
      vertex 0.507998 -1.67465 4.5
      vertex 1.16114 -3.82776 4.5
      vertex 0.669696 -1.61679 4.5
    endloop
  endfacet
  facet normal 0 0 1
    outer loop
      vertex 1.16114 -3.82776 4.5
      vertex 0.507998 -1.67465 4.5
      vertex 0.780361 -3.92314 4.5
    endloop
  endfacet
  facet normal -0 0 1
    outer loop
      vertex 0.341408 -1.71637 4.5
      vertex 0.780361 -3.92314 4.5
      vertex 0.507998 -1.67465 4.5
    endloop
  endfacet
  facet normal 0 0 1
    outer loop
      vertex 0.780361 -3.92314 4.5
      vertex 0.341408 -1.71637 4.5
      vertex 0.392068 -3.98074 4.5
    endloop
  endfacet
  facet normal -0 0 1
    outer loop
      vertex 0.17153 -1.74157 4.5
      vertex 0.392068 -3.98074 4.5
      vertex 0.341408 -1.71637 4.5
    endloop
  endfacet
  facet normal -0 0 1
    outer loop
      vertex 0 -1.75 4.5
      vertex 0.392068 -3.98074 4.5
      vertex 0.17153 -1.74157 4.5
    endloop
  endfacet
  facet normal 0 0 1
    outer loop
      vertex 0 -1.75 4.5
      vertex 0 -4 4.5
      vertex 0.392068 -3.98074 4.5
    endloop
  endfacet
  facet normal 0 0 1
    outer loop
      vertex -0.17153 -1.74157 4.5
      vertex 0 -4 4.5
      vertex 0 -1.75 4.5
    endloop
  endfacet
  facet normal 0 0 1
    outer loop
      vertex -0.392068 -3.98074 4.5
      vertex -0.17153 -1.74157 4.5
      vertex -0.341408 -1.71637 4.5
    endloop
  endfacet
  facet normal 0 0 1
    outer loop
      vertex -0.17153 -1.74157 4.5
      vertex -0.392068 -3.98074 4.5
      vertex 0 -4 4.5
    endloop
  endfacet
  facet normal 0 0 1
    outer loop
      vertex -0.780361 -3.92314 4.5
      vertex -0.341408 -1.71637 4.5
      vertex -0.507998 -1.67465 4.5
    endloop
  endfacet
  facet normal 0 0 1
    outer loop
      vertex -1.16114 -3.82776 4.5
      vertex -0.507998 -1.67465 4.5
      vertex -0.669696 -1.61679 4.5
    endloop
  endfacet
  facet normal 0 0 1
    outer loop
      vertex -0.341408 -1.71637 4.5
      vertex -0.780361 -3.92314 4.5
      vertex -0.392068 -3.98074 4.5
    endloop
  endfacet
  facet normal 0 0 1
    outer loop
      vertex -1.53073 -3.69552 4.5
      vertex -0.669696 -1.61679 4.5
      vertex -0.824944 -1.54336 4.5
    endloop
  endfacet
  facet normal 0 0 1
    outer loop
      vertex -1.88559 -3.52768 4.5
      vertex -0.824944 -1.54336 4.5
      vertex -0.972247 -1.45507 4.5
    endloop
  endfacet
  facet normal 0 0 1
    outer loop
      vertex -2.22228 -3.32588 4.5
      vertex -0.972247 -1.45507 4.5
      vertex -1.11019 -1.35277 4.5
    endloop
  endfacet
  facet normal 0 0 1
    outer loop
      vertex -0.507998 -1.67465 4.5
      vertex -1.16114 -3.82776 4.5
      vertex -0.780361 -3.92314 4.5
    endloop
  endfacet
  facet normal 0 0 1
    outer loop
      vertex -2.53757 -3.09204 4.5
      vertex -1.11019 -1.35277 4.5
      vertex -1.23744 -1.23744 4.5
    endloop
  endfacet
  facet normal 0 0 1
    outer loop
      vertex -2.82843 -2.82843 4.5
      vertex -1.23744 -1.23744 4.5
      vertex -1.35277 -1.11019 4.5
    endloop
  endfacet
  facet normal 0 0 1
    outer loop
      vertex -3.09204 -2.53757 4.5
      vertex -1.35277 -1.11019 4.5
      vertex -1.45507 -0.972247 4.5
    endloop
  endfacet
  facet normal 0 0 1
    outer loop
      vertex -0.669696 -1.61679 4.5
      vertex -1.53073 -3.69552 4.5
      vertex -1.16114 -3.82776 4.5
    endloop
  endfacet
  facet normal 0 0 1
    outer loop
      vertex -3.32588 -2.22228 4.5
      vertex -1.45507 -0.972247 4.5
      vertex -1.54336 -0.824944 4.5
    endloop
  endfacet
  facet normal 0 0 1
    outer loop
      vertex -3.52768 -1.88559 4.5
      vertex -1.54336 -0.824944 4.5
      vertex -1.61679 -0.669696 4.5
    endloop
  endfacet
  facet normal 0 0 1
    outer loop
      vertex -3.69552 -1.53073 4.5
      vertex -1.61679 -0.669696 4.5
      vertex -1.67465 -0.507998 4.5
    endloop
  endfacet
  facet normal 0 0 1
    outer loop
      vertex -3.82776 -1.16114 4.5
      vertex -1.67465 -0.507998 4.5
      vertex -1.71637 -0.341408 4.5
    endloop
  endfacet
  facet normal 0 0 1
    outer loop
      vertex -3.92314 -0.780361 4.5
      vertex -1.71637 -0.341408 4.5
      vertex -1.74157 -0.17153 4.5
    endloop
  endfacet
  facet normal 0 0 1
    outer loop
      vertex -0.824944 -1.54336 4.5
      vertex -1.88559 -3.52768 4.5
      vertex -1.53073 -3.69552 4.5
    endloop
  endfacet
  facet normal 0 0 1
    outer loop
      vertex -3.98074 -0.392068 4.5
      vertex -1.74157 -0.17153 4.5
      vertex -1.75 0 4.5
    endloop
  endfacet
  facet normal -0 0 1
    outer loop
      vertex -3.52768 1.88559 4.5
      vertex -1.54336 0.824944 4.5
      vertex -3.32588 2.22228 4.5
    endloop
  endfacet
  facet normal 0 0 1
    outer loop
      vertex -1.54336 0.824944 4.5
      vertex -3.52768 1.88559 4.5
      vertex -1.61679 0.669696 4.5
    endloop
  endfacet
  facet normal 0 0 1
    outer loop
      vertex -0.972247 -1.45507 4.5
      vertex -2.22228 -3.32588 4.5
      vertex -1.88559 -3.52768 4.5
    endloop
  endfacet
  facet normal -0 0 1
    outer loop
      vertex -3.69552 1.53073 4.5
      vertex -1.61679 0.669696 4.5
      vertex -3.52768 1.88559 4.5
    endloop
  endfacet
  facet normal 0 0 1
    outer loop
      vertex -1.11019 -1.35277 4.5
      vertex -2.53757 -3.09204 4.5
      vertex -2.22228 -3.32588 4.5
    endloop
  endfacet
  facet normal 0 0 1
    outer loop
      vertex -1.61679 0.669696 4.5
      vertex -3.69552 1.53073 4.5
      vertex -1.67465 0.507998 4.5
    endloop
  endfacet
  facet normal 0 0 1
    outer loop
      vertex -1.23744 -1.23744 4.5
      vertex -2.82843 -2.82843 4.5
      vertex -2.53757 -3.09204 4.5
    endloop
  endfacet
  facet normal -0 0 1
    outer loop
      vertex -3.82776 1.16114 4.5
      vertex -1.67465 0.507998 4.5
      vertex -3.69552 1.53073 4.5
    endloop
  endfacet
  facet normal 0 0 1
    outer loop
      vertex -1.35277 -1.11019 4.5
      vertex -3.09204 -2.53757 4.5
      vertex -2.82843 -2.82843 4.5
    endloop
  endfacet
  facet normal 0 0 1
    outer loop
      vertex -1.67465 0.507998 4.5
      vertex -3.82776 1.16114 4.5
      vertex -1.71637 0.341408 4.5
    endloop
  endfacet
  facet normal 0 0 1
    outer loop
      vertex -1.45507 -0.972247 4.5
      vertex -3.32588 -2.22228 4.5
      vertex -3.09204 -2.53757 4.5
    endloop
  endfacet
  facet normal -0 0 1
    outer loop
      vertex -3.92314 0.780361 4.5
      vertex -1.71637 0.341408 4.5
      vertex -3.82776 1.16114 4.5
    endloop
  endfacet
  facet normal 0 0 1
    outer loop
      vertex -1.54336 -0.824944 4.5
      vertex -3.52768 -1.88559 4.5
      vertex -3.32588 -2.22228 4.5
    endloop
  endfacet
  facet normal 0 0 1
    outer loop
      vertex -1.71637 0.341408 4.5
      vertex -3.92314 0.780361 4.5
      vertex -1.74157 0.17153 4.5
    endloop
  endfacet
  facet normal 0 0 1
    outer loop
      vertex -1.61679 -0.669696 4.5
      vertex -3.69552 -1.53073 4.5
      vertex -3.52768 -1.88559 4.5
    endloop
  endfacet
  facet normal -0 0 1
    outer loop
      vertex -3.98074 0.392068 4.5
      vertex -1.74157 0.17153 4.5
      vertex -3.92314 0.780361 4.5
    endloop
  endfacet
  facet normal 0 0 1
    outer loop
      vertex -1.67465 -0.507998 4.5
      vertex -3.82776 -1.16114 4.5
      vertex -3.69552 -1.53073 4.5
    endloop
  endfacet
  facet normal 0 0 1
    outer loop
      vertex -1.74157 0.17153 4.5
      vertex -3.98074 0.392068 4.5
      vertex -1.75 0 4.5
    endloop
  endfacet
  facet normal 0 0 1
    outer loop
      vertex -1.71637 -0.341408 4.5
      vertex -3.92314 -0.780361 4.5
      vertex -3.82776 -1.16114 4.5
    endloop
  endfacet
  facet normal 0 0 1
    outer loop
      vertex -4 0 4.5
      vertex -1.75 0 4.5
      vertex -3.98074 0.392068 4.5
    endloop
  endfacet
  facet normal 0 0 1
    outer loop
      vertex -1.74157 -0.17153 4.5
      vertex -3.98074 -0.392068 4.5
      vertex -3.92314 -0.780361 4.5
    endloop
  endfacet
  facet normal 0 0 1
    outer loop
      vertex -1.75 0 4.5
      vertex -4 0 4.5
      vertex -3.98074 -0.392068 4.5
    endloop
  endfacet
  facet normal -0.857733 0.514095 0
    outer loop
      vertex -3.52768 1.88559 -4.5
      vertex -3.32588 2.22228 4.5
      vertex -3.32588 2.22228 -4.5
    endloop
  endfacet
  facet normal -0.857733 0.514095 0
    outer loop
      vertex -3.32588 2.22228 4.5
      vertex -3.52768 1.88559 -4.5
      vertex -3.52768 1.88559 4.5
    endloop
  endfacet
  facet normal -0.24298 0.970031 0
    outer loop
      vertex -0.780361 3.92314 -4.5
      vertex -1.16114 3.82776 4.5
      vertex -0.780361 3.92314 4.5
    endloop
  endfacet
  facet normal -0.24298 0.970031 0
    outer loop
      vertex -1.16114 3.82776 4.5
      vertex -0.780361 3.92314 -4.5
      vertex -1.16114 3.82776 -4.5
    endloop
  endfacet
  facet normal 0.970031 -0.24298 0
    outer loop
      vertex 3.82776 -1.16114 4.5
      vertex 3.92314 -0.780361 -4.5
      vertex 3.92314 -0.780361 4.5
    endloop
  endfacet
  facet normal 0.970031 -0.24298 0
    outer loop
      vertex 3.92314 -0.780361 -4.5
      vertex 3.82776 -1.16114 4.5
      vertex 3.82776 -1.16114 -4.5
    endloop
  endfacet
  facet normal 0.903986 -0.427563 0
    outer loop
      vertex 3.52768 -1.88559 4.5
      vertex 3.69552 -1.53073 -4.5
      vertex 3.69552 -1.53073 4.5
    endloop
  endfacet
  facet normal 0.903986 -0.427563 0
    outer loop
      vertex 3.69552 -1.53073 -4.5
      vertex 3.52768 -1.88559 4.5
      vertex 3.52768 -1.88559 -4.5
    endloop
  endfacet
  facet normal 0.427563 -0.903986 0
    outer loop
      vertex 1.53073 -3.69552 -4.5
      vertex 1.88559 -3.52768 4.5
      vertex 1.53073 -3.69552 4.5
    endloop
  endfacet
  facet normal 0.427563 -0.903986 0
    outer loop
      vertex 1.88559 -3.52768 4.5
      vertex 1.53073 -3.69552 -4.5
      vertex 1.88559 -3.52768 -4.5
    endloop
  endfacet
  facet normal -0.989176 -0.146736 0
    outer loop
      vertex -3.92314 -0.780361 -4.5
      vertex -3.98074 -0.392068 4.5
      vertex -3.98074 -0.392068 -4.5
    endloop
  endfacet
  facet normal -0.989176 -0.146736 0
    outer loop
      vertex -3.98074 -0.392068 4.5
      vertex -3.92314 -0.780361 -4.5
      vertex -3.92314 -0.780361 4.5
    endloop
  endfacet
  facet normal -0.941545 -0.336887 0
    outer loop
      vertex -3.69552 -1.53073 -4.5
      vertex -3.82776 -1.16114 4.5
      vertex -3.82776 -1.16114 -4.5
    endloop
  endfacet
  facet normal -0.941545 -0.336887 0
    outer loop
      vertex -3.82776 -1.16114 4.5
      vertex -3.69552 -1.53073 -4.5
      vertex -3.69552 -1.53073 4.5
    endloop
  endfacet
  facet normal 0.941545 -0.336887 0
    outer loop
      vertex 3.69552 -1.53073 4.5
      vertex 3.82776 -1.16114 -4.5
      vertex 3.82776 -1.16114 4.5
    endloop
  endfacet
  facet normal 0.941545 -0.336887 0
    outer loop
      vertex 3.82776 -1.16114 -4.5
      vertex 3.69552 -1.53073 4.5
      vertex 3.69552 -1.53073 -4.5
    endloop
  endfacet
  facet normal 0.24298 -0.970031 0
    outer loop
      vertex 0.780361 -3.92314 -4.5
      vertex 1.16114 -3.82776 4.5
      vertex 0.780361 -3.92314 4.5
    endloop
  endfacet
  facet normal 0.24298 -0.970031 0
    outer loop
      vertex 1.16114 -3.82776 4.5
      vertex 0.780361 -3.92314 -4.5
      vertex 1.16114 -3.82776 -4.5
    endloop
  endfacet
  facet normal 0.146736 -0.989176 0
    outer loop
      vertex 0.392068 -3.98074 -4.5
      vertex 0.780361 -3.92314 4.5
      vertex 0.392068 -3.98074 4.5
    endloop
  endfacet
  facet normal 0.146736 -0.989176 0
    outer loop
      vertex 0.780361 -3.92314 4.5
      vertex 0.392068 -3.98074 -4.5
      vertex 0.780361 -3.92314 -4.5
    endloop
  endfacet
  facet normal -0.970043 -0.242933 0
    outer loop
      vertex 1.71637 0.341408 -4.5
      vertex 1.67465 0.507998 4.5
      vertex 1.67465 0.507998 -4.5
    endloop
  endfacet
  facet normal -0.970043 -0.242933 0
    outer loop
      vertex 1.67465 0.507998 4.5
      vertex 1.71637 0.341408 -4.5
      vertex 1.71637 0.341408 4.5
    endloop
  endfacet
  facet normal -0.998795 -0.0490867 0
    outer loop
      vertex 1.75 0 -4.5
      vertex 1.74157 0.17153 4.5
      vertex 1.74157 0.17153 -4.5
    endloop
  endfacet
  facet normal -0.998795 -0.0490867 0
    outer loop
      vertex 1.74157 0.17153 4.5
      vertex 1.75 0 -4.5
      vertex 1.75 0 4.5
    endloop
  endfacet
  facet normal 0.998795 -0.0490867 0
    outer loop
      vertex -1.75 0 4.5
      vertex -1.74157 0.17153 -4.5
      vertex -1.74157 0.17153 4.5
    endloop
  endfacet
  facet normal 0.998795 -0.0490867 0
    outer loop
      vertex -1.74157 0.17153 -4.5
      vertex -1.75 0 4.5
      vertex -1.75 0 -4.5
    endloop
  endfacet
  facet normal -0.0490867 -0.998795 0
    outer loop
      vertex 0 1.75 -4.5
      vertex 0.17153 1.74157 4.5
      vertex 0 1.75 4.5
    endloop
  endfacet
  facet normal -0.0490867 -0.998795 -0
    outer loop
      vertex 0.17153 1.74157 4.5
      vertex 0 1.75 -4.5
      vertex 0.17153 1.74157 -4.5
    endloop
  endfacet
  facet normal -0.67155 -0.740959 0
    outer loop
      vertex 1.11019 1.35277 -4.5
      vertex 1.23744 1.23744 4.5
      vertex 1.11019 1.35277 4.5
    endloop
  endfacet
  facet normal -0.67155 -0.740959 -0
    outer loop
      vertex 1.23744 1.23744 4.5
      vertex 1.11019 1.35277 -4.5
      vertex 1.23744 1.23744 -4.5
    endloop
  endfacet
  facet normal 0.67155 -0.740959 0
    outer loop
      vertex -1.23744 1.23744 -4.5
      vertex -1.11019 1.35277 4.5
      vertex -1.23744 1.23744 4.5
    endloop
  endfacet
  facet normal 0.67155 -0.740959 0
    outer loop
      vertex -1.11019 1.35277 4.5
      vertex -1.23744 1.23744 -4.5
      vertex -1.11019 1.35277 -4.5
    endloop
  endfacet
  facet normal 0.336908 -0.941538 0
    outer loop
      vertex -0.669696 1.61679 -4.5
      vertex -0.507998 1.67465 4.5
      vertex -0.669696 1.61679 4.5
    endloop
  endfacet
  facet normal 0.336908 -0.941538 0
    outer loop
      vertex -0.507998 1.67465 4.5
      vertex -0.669696 1.61679 -4.5
      vertex -0.507998 1.67465 -4.5
    endloop
  endfacet
  facet normal 0.803223 0.595679 0
    outer loop
      vertex -1.35277 -1.11019 4.5
      vertex -1.45507 -0.972247 -4.5
      vertex -1.45507 -0.972247 4.5
    endloop
  endfacet
  facet normal 0.803223 0.595679 0
    outer loop
      vertex -1.45507 -0.972247 -4.5
      vertex -1.35277 -1.11019 4.5
      vertex -1.35277 -1.11019 -4.5
    endloop
  endfacet
  facet normal -0.941538 -0.336908 0
    outer loop
      vertex 1.67465 0.507998 -4.5
      vertex 1.61679 0.669696 4.5
      vertex 1.61679 0.669696 -4.5
    endloop
  endfacet
  facet normal -0.941538 -0.336908 0
    outer loop
      vertex 1.61679 0.669696 4.5
      vertex 1.67465 0.507998 -4.5
      vertex 1.67465 0.507998 4.5
    endloop
  endfacet
  facet normal -0.42757 -0.903982 0
    outer loop
      vertex 0.669696 1.61679 -4.5
      vertex 0.824944 1.54336 4.5
      vertex 0.669696 1.61679 4.5
    endloop
  endfacet
  facet normal -0.42757 -0.903982 -0
    outer loop
      vertex 0.824944 1.54336 4.5
      vertex 0.669696 1.61679 -4.5
      vertex 0.824944 1.54336 -4.5
    endloop
  endfacet
  facet normal -0.595679 -0.803223 0
    outer loop
      vertex 0.972247 1.45507 -4.5
      vertex 1.11019 1.35277 4.5
      vertex 0.972247 1.45507 4.5
    endloop
  endfacet
  facet normal -0.595679 -0.803223 -0
    outer loop
      vertex 1.11019 1.35277 4.5
      vertex 0.972247 1.45507 -4.5
      vertex 1.11019 1.35277 -4.5
    endloop
  endfacet
  facet normal 0.857729 -0.514103 0
    outer loop
      vertex -1.54336 0.824944 4.5
      vertex -1.45507 0.972247 -4.5
      vertex -1.45507 0.972247 4.5
    endloop
  endfacet
  facet normal 0.857729 -0.514103 0
    outer loop
      vertex -1.45507 0.972247 -4.5
      vertex -1.54336 0.824944 4.5
      vertex -1.54336 0.824944 -4.5
    endloop
  endfacet
  facet normal 0.803223 -0.595679 0
    outer loop
      vertex -1.45507 0.972247 4.5
      vertex -1.35277 1.11019 -4.5
      vertex -1.35277 1.11019 4.5
    endloop
  endfacet
  facet normal 0.803223 -0.595679 0
    outer loop
      vertex -1.35277 1.11019 -4.5
      vertex -1.45507 0.972247 4.5
      vertex -1.45507 0.972247 -4.5
    endloop
  endfacet
  facet normal -0.903982 0.42757 0
    outer loop
      vertex 1.54336 -0.824944 -4.5
      vertex 1.61679 -0.669696 4.5
      vertex 1.61679 -0.669696 -4.5
    endloop
  endfacet
  facet normal -0.903982 0.42757 0
    outer loop
      vertex 1.61679 -0.669696 4.5
      vertex 1.54336 -0.824944 -4.5
      vertex 1.54336 -0.824944 4.5
    endloop
  endfacet
  facet normal -0.242933 0.970043 0
    outer loop
      vertex 0.507998 -1.67465 -4.5
      vertex 0.341408 -1.71637 4.5
      vertex 0.507998 -1.67465 4.5
    endloop
  endfacet
  facet normal -0.242933 0.970043 0
    outer loop
      vertex 0.341408 -1.71637 4.5
      vertex 0.507998 -1.67465 -4.5
      vertex 0.341408 -1.71637 -4.5
    endloop
  endfacet
  facet normal -0.740959 0.67155 0
    outer loop
      vertex 1.23744 -1.23744 -4.5
      vertex 1.35277 -1.11019 4.5
      vertex 1.35277 -1.11019 -4.5
    endloop
  endfacet
  facet normal -0.740959 0.67155 0
    outer loop
      vertex 1.35277 -1.11019 4.5
      vertex 1.23744 -1.23744 -4.5
      vertex 1.23744 -1.23744 4.5
    endloop
  endfacet
  facet normal -0.970043 0.242933 0
    outer loop
      vertex 1.67465 -0.507998 -4.5
      vertex 1.71637 -0.341408 4.5
      vertex 1.71637 -0.341408 -4.5
    endloop
  endfacet
  facet normal -0.970043 0.242933 0
    outer loop
      vertex 1.71637 -0.341408 4.5
      vertex 1.67465 -0.507998 -4.5
      vertex 1.67465 -0.507998 4.5
    endloop
  endfacet
  facet normal 0.336908 0.941538 -0
    outer loop
      vertex -0.507998 -1.67465 -4.5
      vertex -0.669696 -1.61679 4.5
      vertex -0.507998 -1.67465 4.5
    endloop
  endfacet
  facet normal 0.336908 0.941538 0
    outer loop
      vertex -0.669696 -1.61679 4.5
      vertex -0.507998 -1.67465 -4.5
      vertex -0.669696 -1.61679 -4.5
    endloop
  endfacet
  facet normal 0.514103 0.857729 -0
    outer loop
      vertex -0.824944 -1.54336 -4.5
      vertex -0.972247 -1.45507 4.5
      vertex -0.824944 -1.54336 4.5
    endloop
  endfacet
  facet normal 0.514103 0.857729 0
    outer loop
      vertex -0.972247 -1.45507 4.5
      vertex -0.824944 -1.54336 -4.5
      vertex -0.972247 -1.45507 -4.5
    endloop
  endfacet
  facet normal -0.989176 -0.146736 0
    outer loop
      vertex 1.74157 0.17153 -4.5
      vertex 1.71637 0.341408 4.5
      vertex 1.71637 0.341408 -4.5
    endloop
  endfacet
  facet normal -0.989176 -0.146736 0
    outer loop
      vertex 1.71637 0.341408 4.5
      vertex 1.74157 0.17153 -4.5
      vertex 1.74157 0.17153 4.5
    endloop
  endfacet
  facet normal -0.903982 -0.42757 0
    outer loop
      vertex 1.61679 0.669696 -4.5
      vertex 1.54336 0.824944 4.5
      vertex 1.54336 0.824944 -4.5
    endloop
  endfacet
  facet normal -0.903982 -0.42757 0
    outer loop
      vertex 1.54336 0.824944 4.5
      vertex 1.61679 0.669696 -4.5
      vertex 1.61679 0.669696 4.5
    endloop
  endfacet
  facet normal -0.857729 -0.514103 0
    outer loop
      vertex 1.54336 0.824944 -4.5
      vertex 1.45507 0.972247 4.5
      vertex 1.45507 0.972247 -4.5
    endloop
  endfacet
  facet normal -0.857729 -0.514103 0
    outer loop
      vertex 1.45507 0.972247 4.5
      vertex 1.54336 0.824944 -4.5
      vertex 1.54336 0.824944 4.5
    endloop
  endfacet
  facet normal -0.803223 -0.595679 0
    outer loop
      vertex 1.45507 0.972247 -4.5
      vertex 1.35277 1.11019 4.5
      vertex 1.35277 1.11019 -4.5
    endloop
  endfacet
  facet normal -0.803223 -0.595679 0
    outer loop
      vertex 1.35277 1.11019 4.5
      vertex 1.45507 0.972247 -4.5
      vertex 1.45507 0.972247 4.5
    endloop
  endfacet
  facet normal -0.336908 -0.941538 0
    outer loop
      vertex 0.507998 1.67465 -4.5
      vertex 0.669696 1.61679 4.5
      vertex 0.507998 1.67465 4.5
    endloop
  endfacet
  facet normal -0.336908 -0.941538 -0
    outer loop
      vertex 0.669696 1.61679 4.5
      vertex 0.507998 1.67465 -4.5
      vertex 0.669696 1.61679 -4.5
    endloop
  endfacet
  facet normal -0.242933 -0.970043 0
    outer loop
      vertex 0.341408 1.71637 -4.5
      vertex 0.507998 1.67465 4.5
      vertex 0.341408 1.71637 4.5
    endloop
  endfacet
  facet normal -0.242933 -0.970043 -0
    outer loop
      vertex 0.507998 1.67465 4.5
      vertex 0.341408 1.71637 -4.5
      vertex 0.507998 1.67465 -4.5
    endloop
  endfacet
  facet normal -0.146736 -0.989176 0
    outer loop
      vertex 0.17153 1.74157 -4.5
      vertex 0.341408 1.71637 4.5
      vertex 0.17153 1.74157 4.5
    endloop
  endfacet
  facet normal -0.146736 -0.989176 -0
    outer loop
      vertex 0.341408 1.71637 4.5
      vertex 0.17153 1.74157 -4.5
      vertex 0.341408 1.71637 -4.5
    endloop
  endfacet
  facet normal -0.514103 -0.857729 0
    outer loop
      vertex 0.824944 1.54336 -4.5
      vertex 0.972247 1.45507 4.5
      vertex 0.824944 1.54336 4.5
    endloop
  endfacet
  facet normal -0.514103 -0.857729 -0
    outer loop
      vertex 0.972247 1.45507 4.5
      vertex 0.824944 1.54336 -4.5
      vertex 0.972247 1.45507 -4.5
    endloop
  endfacet
  facet normal 0.903982 -0.42757 0
    outer loop
      vertex -1.61679 0.669696 4.5
      vertex -1.54336 0.824944 -4.5
      vertex -1.54336 0.824944 4.5
    endloop
  endfacet
  facet normal 0.903982 -0.42757 0
    outer loop
      vertex -1.54336 0.824944 -4.5
      vertex -1.61679 0.669696 4.5
      vertex -1.61679 0.669696 -4.5
    endloop
  endfacet
  facet normal 0.970043 -0.242933 0
    outer loop
      vertex -1.71637 0.341408 4.5
      vertex -1.67465 0.507998 -4.5
      vertex -1.67465 0.507998 4.5
    endloop
  endfacet
  facet normal 0.970043 -0.242933 0
    outer loop
      vertex -1.67465 0.507998 -4.5
      vertex -1.71637 0.341408 4.5
      vertex -1.71637 0.341408 -4.5
    endloop
  endfacet
  facet normal 0.514103 -0.857729 0
    outer loop
      vertex -0.972247 1.45507 -4.5
      vertex -0.824944 1.54336 4.5
      vertex -0.972247 1.45507 4.5
    endloop
  endfacet
  facet normal 0.514103 -0.857729 0
    outer loop
      vertex -0.824944 1.54336 4.5
      vertex -0.972247 1.45507 -4.5
      vertex -0.824944 1.54336 -4.5
    endloop
  endfacet
  facet normal 0.0490867 -0.998795 0
    outer loop
      vertex -0.17153 1.74157 -4.5
      vertex 0 1.75 4.5
      vertex -0.17153 1.74157 4.5
    endloop
  endfacet
  facet normal 0.0490867 -0.998795 0
    outer loop
      vertex 0 1.75 4.5
      vertex -0.17153 1.74157 -4.5
      vertex 0 1.75 -4.5
    endloop
  endfacet
  facet normal 0.146736 -0.989176 0
    outer loop
      vertex -0.341408 1.71637 -4.5
      vertex -0.17153 1.74157 4.5
      vertex -0.341408 1.71637 4.5
    endloop
  endfacet
  facet normal 0.146736 -0.989176 0
    outer loop
      vertex -0.17153 1.74157 4.5
      vertex -0.341408 1.71637 -4.5
      vertex -0.17153 1.74157 -4.5
    endloop
  endfacet
  facet normal -0.0490867 0.998795 0
    outer loop
      vertex 0.17153 -1.74157 -4.5
      vertex 0 -1.75 4.5
      vertex 0.17153 -1.74157 4.5
    endloop
  endfacet
  facet normal -0.0490867 0.998795 0
    outer loop
      vertex 0 -1.75 4.5
      vertex 0.17153 -1.74157 -4.5
      vertex 0 -1.75 -4.5
    endloop
  endfacet
  facet normal -0.146736 0.989176 0
    outer loop
      vertex 0.341408 -1.71637 -4.5
      vertex 0.17153 -1.74157 4.5
      vertex 0.341408 -1.71637 4.5
    endloop
  endfacet
  facet normal -0.146736 0.989176 0
    outer loop
      vertex 0.17153 -1.74157 4.5
      vertex 0.341408 -1.71637 -4.5
      vertex 0.17153 -1.74157 -4.5
    endloop
  endfacet
  facet normal -0.67155 0.740959 0
    outer loop
      vertex 1.23744 -1.23744 -4.5
      vertex 1.11019 -1.35277 4.5
      vertex 1.23744 -1.23744 4.5
    endloop
  endfacet
  facet normal -0.67155 0.740959 0
    outer loop
      vertex 1.11019 -1.35277 4.5
      vertex 1.23744 -1.23744 -4.5
      vertex 1.11019 -1.35277 -4.5
    endloop
  endfacet
  facet normal -0.595679 0.803223 0
    outer loop
      vertex 1.11019 -1.35277 -4.5
      vertex 0.972247 -1.45507 4.5
      vertex 1.11019 -1.35277 4.5
    endloop
  endfacet
  facet normal -0.595679 0.803223 0
    outer loop
      vertex 0.972247 -1.45507 4.5
      vertex 1.11019 -1.35277 -4.5
      vertex 0.972247 -1.45507 -4.5
    endloop
  endfacet
  facet normal -0.803223 0.595679 0
    outer loop
      vertex 1.35277 -1.11019 -4.5
      vertex 1.45507 -0.972247 4.5
      vertex 1.45507 -0.972247 -4.5
    endloop
  endfacet
  facet normal -0.803223 0.595679 0
    outer loop
      vertex 1.45507 -0.972247 4.5
      vertex 1.35277 -1.11019 -4.5
      vertex 1.35277 -1.11019 4.5
    endloop
  endfacet
  facet normal -0.857729 0.514103 0
    outer loop
      vertex 1.45507 -0.972247 -4.5
      vertex 1.54336 -0.824944 4.5
      vertex 1.54336 -0.824944 -4.5
    endloop
  endfacet
  facet normal -0.857729 0.514103 0
    outer loop
      vertex 1.54336 -0.824944 4.5
      vertex 1.45507 -0.972247 -4.5
      vertex 1.45507 -0.972247 4.5
    endloop
  endfacet
  facet normal 0.146736 0.989176 -0
    outer loop
      vertex -0.17153 -1.74157 -4.5
      vertex -0.341408 -1.71637 4.5
      vertex -0.17153 -1.74157 4.5
    endloop
  endfacet
  facet normal 0.146736 0.989176 0
    outer loop
      vertex -0.341408 -1.71637 4.5
      vertex -0.17153 -1.74157 -4.5
      vertex -0.341408 -1.71637 -4.5
    endloop
  endfacet
  facet normal 0.67155 0.740959 -0
    outer loop
      vertex -1.11019 -1.35277 -4.5
      vertex -1.23744 -1.23744 4.5
      vertex -1.11019 -1.35277 4.5
    endloop
  endfacet
  facet normal 0.67155 0.740959 0
    outer loop
      vertex -1.23744 -1.23744 4.5
      vertex -1.11019 -1.35277 -4.5
      vertex -1.23744 -1.23744 -4.5
    endloop
  endfacet
  facet normal 0.42757 0.903982 -0
    outer loop
      vertex -0.669696 -1.61679 -4.5
      vertex -0.824944 -1.54336 4.5
      vertex -0.669696 -1.61679 4.5
    endloop
  endfacet
  facet normal 0.42757 0.903982 0
    outer loop
      vertex -0.824944 -1.54336 4.5
      vertex -0.669696 -1.61679 -4.5
      vertex -0.824944 -1.54336 -4.5
    endloop
  endfacet
  facet normal 0.0490867 0.998795 -0
    outer loop
      vertex 0 -1.75 -4.5
      vertex -0.17153 -1.74157 4.5
      vertex 0 -1.75 4.5
    endloop
  endfacet
  facet normal 0.0490867 0.998795 0
    outer loop
      vertex -0.17153 -1.74157 4.5
      vertex 0 -1.75 -4.5
      vertex -0.17153 -1.74157 -4.5
    endloop
  endfacet
  facet normal 0.595679 0.803223 -0
    outer loop
      vertex -0.972247 -1.45507 -4.5
      vertex -1.11019 -1.35277 4.5
      vertex -0.972247 -1.45507 4.5
    endloop
  endfacet
  facet normal 0.595679 0.803223 0
    outer loop
      vertex -1.11019 -1.35277 4.5
      vertex -0.972247 -1.45507 -4.5
      vertex -1.11019 -1.35277 -4.5
    endloop
  endfacet
  facet normal 0.740959 0.67155 0
    outer loop
      vertex -1.23744 -1.23744 4.5
      vertex -1.35277 -1.11019 -4.5
      vertex -1.35277 -1.11019 4.5
    endloop
  endfacet
  facet normal 0.740959 0.67155 0
    outer loop
      vertex -1.35277 -1.11019 -4.5
      vertex -1.23744 -1.23744 4.5
      vertex -1.23744 -1.23744 -4.5
    endloop
  endfacet
  facet normal 0.903982 0.42757 0
    outer loop
      vertex -1.54336 -0.824944 4.5
      vertex -1.61679 -0.669696 -4.5
      vertex -1.61679 -0.669696 4.5
    endloop
  endfacet
  facet normal 0.903982 0.42757 0
    outer loop
      vertex -1.61679 -0.669696 -4.5
      vertex -1.54336 -0.824944 4.5
      vertex -1.54336 -0.824944 -4.5
    endloop
  endfacet
  facet normal 0.970043 0.242933 0
    outer loop
      vertex -1.67465 -0.507998 4.5
      vertex -1.71637 -0.341408 -4.5
      vertex -1.71637 -0.341408 4.5
    endloop
  endfacet
  facet normal 0.970043 0.242933 0
    outer loop
      vertex -1.71637 -0.341408 -4.5
      vertex -1.67465 -0.507998 4.5
      vertex -1.67465 -0.507998 -4.5
    endloop
  endfacet
  facet normal 0.998795 0.0490867 0
    outer loop
      vertex -1.74157 -0.17153 4.5
      vertex -1.75 0 -4.5
      vertex -1.75 0 4.5
    endloop
  endfacet
  facet normal 0.998795 0.0490867 0
    outer loop
      vertex -1.75 0 -4.5
      vertex -1.74157 -0.17153 4.5
      vertex -1.74157 -0.17153 -4.5
    endloop
  endfacet
  facet normal -0.740959 -0.67155 0
    outer loop
      vertex 1.35277 1.11019 -4.5
      vertex 1.23744 1.23744 4.5
      vertex 1.23744 1.23744 -4.5
    endloop
  endfacet
  facet normal -0.740959 -0.67155 0
    outer loop
      vertex 1.23744 1.23744 4.5
      vertex 1.35277 1.11019 -4.5
      vertex 1.35277 1.11019 4.5
    endloop
  endfacet
  facet normal 0.740959 -0.67155 0
    outer loop
      vertex -1.35277 1.11019 4.5
      vertex -1.23744 1.23744 -4.5
      vertex -1.23744 1.23744 4.5
    endloop
  endfacet
  facet normal 0.740959 -0.67155 0
    outer loop
      vertex -1.23744 1.23744 -4.5
      vertex -1.35277 1.11019 4.5
      vertex -1.35277 1.11019 -4.5
    endloop
  endfacet
  facet normal 0.989176 -0.146736 0
    outer loop
      vertex -1.74157 0.17153 4.5
      vertex -1.71637 0.341408 -4.5
      vertex -1.71637 0.341408 4.5
    endloop
  endfacet
  facet normal 0.989176 -0.146736 0
    outer loop
      vertex -1.71637 0.341408 -4.5
      vertex -1.74157 0.17153 4.5
      vertex -1.74157 0.17153 -4.5
    endloop
  endfacet
  facet normal 0.941538 -0.336908 0
    outer loop
      vertex -1.67465 0.507998 4.5
      vertex -1.61679 0.669696 -4.5
      vertex -1.61679 0.669696 4.5
    endloop
  endfacet
  facet normal 0.941538 -0.336908 0
    outer loop
      vertex -1.61679 0.669696 -4.5
      vertex -1.67465 0.507998 4.5
      vertex -1.67465 0.507998 -4.5
    endloop
  endfacet
  facet normal 0.595679 -0.803223 0
    outer loop
      vertex -1.11019 1.35277 -4.5
      vertex -0.972247 1.45507 4.5
      vertex -1.11019 1.35277 4.5
    endloop
  endfacet
  facet normal 0.595679 -0.803223 0
    outer loop
      vertex -0.972247 1.45507 4.5
      vertex -1.11019 1.35277 -4.5
      vertex -0.972247 1.45507 -4.5
    endloop
  endfacet
  facet normal 0.42757 -0.903982 0
    outer loop
      vertex -0.824944 1.54336 -4.5
      vertex -0.669696 1.61679 4.5
      vertex -0.824944 1.54336 4.5
    endloop
  endfacet
  facet normal 0.42757 -0.903982 0
    outer loop
      vertex -0.669696 1.61679 4.5
      vertex -0.824944 1.54336 -4.5
      vertex -0.669696 1.61679 -4.5
    endloop
  endfacet
  facet normal 0.242933 -0.970043 0
    outer loop
      vertex -0.507998 1.67465 -4.5
      vertex -0.341408 1.71637 4.5
      vertex -0.507998 1.67465 4.5
    endloop
  endfacet
  facet normal 0.242933 -0.970043 0
    outer loop
      vertex -0.341408 1.71637 4.5
      vertex -0.507998 1.67465 -4.5
      vertex -0.341408 1.71637 -4.5
    endloop
  endfacet
  facet normal -0.336908 0.941538 0
    outer loop
      vertex 0.669696 -1.61679 -4.5
      vertex 0.507998 -1.67465 4.5
      vertex 0.669696 -1.61679 4.5
    endloop
  endfacet
  facet normal -0.336908 0.941538 0
    outer loop
      vertex 0.507998 -1.67465 4.5
      vertex 0.669696 -1.61679 -4.5
      vertex 0.507998 -1.67465 -4.5
    endloop
  endfacet
  facet normal -0.42757 0.903982 0
    outer loop
      vertex 0.824944 -1.54336 -4.5
      vertex 0.669696 -1.61679 4.5
      vertex 0.824944 -1.54336 4.5
    endloop
  endfacet
  facet normal -0.42757 0.903982 0
    outer loop
      vertex 0.669696 -1.61679 4.5
      vertex 0.824944 -1.54336 -4.5
      vertex 0.669696 -1.61679 -4.5
    endloop
  endfacet
  facet normal -0.941538 0.336908 0
    outer loop
      vertex 1.61679 -0.669696 -4.5
      vertex 1.67465 -0.507998 4.5
      vertex 1.67465 -0.507998 -4.5
    endloop
  endfacet
  facet normal -0.941538 0.336908 0
    outer loop
      vertex 1.67465 -0.507998 4.5
      vertex 1.61679 -0.669696 -4.5
      vertex 1.61679 -0.669696 4.5
    endloop
  endfacet
  facet normal -0.989176 0.146736 0
    outer loop
      vertex 1.71637 -0.341408 -4.5
      vertex 1.74157 -0.17153 4.5
      vertex 1.74157 -0.17153 -4.5
    endloop
  endfacet
  facet normal -0.989176 0.146736 0
    outer loop
      vertex 1.74157 -0.17153 4.5
      vertex 1.71637 -0.341408 -4.5
      vertex 1.71637 -0.341408 4.5
    endloop
  endfacet
  facet normal -0.998795 0.0490867 0
    outer loop
      vertex 1.74157 -0.17153 -4.5
      vertex 1.75 0 4.5
      vertex 1.75 0 -4.5
    endloop
  endfacet
  facet normal -0.998795 0.0490867 0
    outer loop
      vertex 1.75 0 4.5
      vertex 1.74157 -0.17153 -4.5
      vertex 1.74157 -0.17153 4.5
    endloop
  endfacet
  facet normal 0.242933 0.970043 -0
    outer loop
      vertex -0.341408 -1.71637 -4.5
      vertex -0.507998 -1.67465 4.5
      vertex -0.341408 -1.71637 4.5
    endloop
  endfacet
  facet normal 0.242933 0.970043 0
    outer loop
      vertex -0.507998 -1.67465 4.5
      vertex -0.341408 -1.71637 -4.5
      vertex -0.507998 -1.67465 -4.5
    endloop
  endfacet
  facet normal 0.857729 0.514103 0
    outer loop
      vertex -1.45507 -0.972247 4.5
      vertex -1.54336 -0.824944 -4.5
      vertex -1.54336 -0.824944 4.5
    endloop
  endfacet
  facet normal 0.857729 0.514103 0
    outer loop
      vertex -1.54336 -0.824944 -4.5
      vertex -1.45507 -0.972247 4.5
      vertex -1.45507 -0.972247 -4.5
    endloop
  endfacet
  facet normal 0.989176 0.146736 0
    outer loop
      vertex -1.71637 -0.341408 4.5
      vertex -1.74157 -0.17153 -4.5
      vertex -1.74157 -0.17153 4.5
    endloop
  endfacet
  facet normal 0.989176 0.146736 0
    outer loop
      vertex -1.74157 -0.17153 -4.5
      vertex -1.71637 -0.341408 4.5
      vertex -1.71637 -0.341408 -4.5
    endloop
  endfacet
  facet normal 0.941538 0.336908 0
    outer loop
      vertex -1.61679 -0.669696 4.5
      vertex -1.67465 -0.507998 -4.5
      vertex -1.67465 -0.507998 4.5
    endloop
  endfacet
  facet normal 0.941538 0.336908 0
    outer loop
      vertex -1.67465 -0.507998 -4.5
      vertex -1.61679 -0.669696 4.5
      vertex -1.61679 -0.669696 -4.5
    endloop
  endfacet
  facet normal -0.514103 0.857729 0
    outer loop
      vertex 0.972247 -1.45507 -4.5
      vertex 0.824944 -1.54336 4.5
      vertex 0.972247 -1.45507 4.5
    endloop
  endfacet
  facet normal -0.514103 0.857729 0
    outer loop
      vertex 0.824944 -1.54336 4.5
      vertex 0.972247 -1.45507 -4.5
      vertex 0.824944 -1.54336 -4.5
    endloop
  endfacet
endsolid OpenSCAD_Model
