solid OpenSCAD_Model
  facet normal -1 0 0
    outer loop
      vertex -11.75 7 -2.5
      vertex -11.75 5.3 -6.49041e-016
      vertex -11.75 7 2.5
    endloop
  endfacet
  facet normal -1 0 0
    outer loop
      vertex -11.75 7 -2.5
      vertex -11.75 5.27502 -0.253617
      vertex -11.75 5.3 -6.49041e-016
    endloop
  endfacet
  facet normal -1 0 0
    outer loop
      vertex -11.75 7 -2.5
      vertex -11.75 5.20104 -0.497488
      vertex -11.75 5.27502 -0.253617
    endloop
  endfacet
  facet normal -1 0 0
    outer loop
      vertex -11.75 7 -2.5
      vertex -11.75 5.08091 -0.72224
      vertex -11.75 5.20104 -0.497488
    endloop
  endfacet
  facet normal -1 0 0
    outer loop
      vertex -11.75 7 -2.5
      vertex -11.75 4.91924 -0.919238
      vertex -11.75 5.08091 -0.72224
    endloop
  endfacet
  facet normal -1 0 0
    outer loop
      vertex -11.75 7 -2.5
      vertex -11.75 4.72224 -1.08091
      vertex -11.75 4.91924 -0.919238
    endloop
  endfacet
  facet normal -1 0 0
    outer loop
      vertex -11.75 7 -2.5
      vertex -11.75 4.49749 -1.20104
      vertex -11.75 4.72224 -1.08091
    endloop
  endfacet
  facet normal -1 0 0
    outer loop
      vertex -11.75 7 -2.5
      vertex -11.75 4.25362 -1.27502
      vertex -11.75 4.49749 -1.20104
    endloop
  endfacet
  facet normal -1 0 0
    outer loop
      vertex -11.75 7 -2.5
      vertex -11.75 4 -1.3
      vertex -11.75 4.25362 -1.27502
    endloop
  endfacet
  facet normal -1 0 0
    outer loop
      vertex -11.75 7 -2.5
      vertex -11.75 3.74638 -1.27502
      vertex -11.75 4 -1.3
    endloop
  endfacet
  facet normal -1 0 0
    outer loop
      vertex -11.75 -8.74638 -1.27502
      vertex -11.75 3.74638 -1.27502
      vertex -11.75 7 -2.5
    endloop
  endfacet
  facet normal -1 0 0
    outer loop
      vertex -11.75 2.72498 -0.253617
      vertex -11.75 -7.7 9.42947e-016
      vertex -11.75 2.7 -3.30644e-016
    endloop
  endfacet
  facet normal -1 0 0
    outer loop
      vertex -11.75 -7.72498 -0.253617
      vertex -11.75 2.72498 -0.253617
      vertex -11.75 2.79896 -0.497488
    endloop
  endfacet
  facet normal -1 0 0
    outer loop
      vertex -11.75 -7.79896 -0.497488
      vertex -11.75 2.79896 -0.497488
      vertex -11.75 2.91909 -0.72224
    endloop
  endfacet
  facet normal -1 0 0
    outer loop
      vertex -11.75 -7.91909 -0.72224
      vertex -11.75 2.91909 -0.72224
      vertex -11.75 3.08076 -0.919238
    endloop
  endfacet
  facet normal -1 0 0
    outer loop
      vertex -11.75 -8.08076 -0.919238
      vertex -11.75 3.08076 -0.919238
      vertex -11.75 3.27776 -1.08091
    endloop
  endfacet
  facet normal -1 0 0
    outer loop
      vertex -11.75 -8.27776 -1.08091
      vertex -11.75 3.27776 -1.08091
      vertex -11.75 3.50251 -1.20104
    endloop
  endfacet
  facet normal -1 0 0
    outer loop
      vertex -11.75 3.74638 -1.27502
      vertex -11.75 -8.74638 -1.27502
      vertex -11.75 3.50251 -1.20104
    endloop
  endfacet
  facet normal -1 0 0
    outer loop
      vertex -11.75 2.72498 -0.253617
      vertex -11.75 -7.72498 -0.253617
      vertex -11.75 -7.7 9.42947e-016
    endloop
  endfacet
  facet normal -1 0 0
    outer loop
      vertex -11.75 2.79896 -0.497488
      vertex -11.75 -7.79896 -0.497488
      vertex -11.75 -7.72498 -0.253617
    endloop
  endfacet
  facet normal -1 0 0
    outer loop
      vertex -11.75 2.91909 -0.72224
      vertex -11.75 -7.91909 -0.72224
      vertex -11.75 -7.79896 -0.497488
    endloop
  endfacet
  facet normal -1 0 0
    outer loop
      vertex -11.75 3.08076 -0.919238
      vertex -11.75 -8.08076 -0.919238
      vertex -11.75 -7.91909 -0.72224
    endloop
  endfacet
  facet normal -1 0 0
    outer loop
      vertex -11.75 3.27776 -1.08091
      vertex -11.75 -8.27776 -1.08091
      vertex -11.75 -8.08076 -0.919238
    endloop
  endfacet
  facet normal -1 0 0
    outer loop
      vertex -11.75 3.50251 -1.20104
      vertex -11.75 -8.50251 -1.20104
      vertex -11.75 -8.27776 -1.08091
    endloop
  endfacet
  facet normal -1 -0 0
    outer loop
      vertex -11.75 3.50251 -1.20104
      vertex -11.75 -8.74638 -1.27502
      vertex -11.75 -8.50251 -1.20104
    endloop
  endfacet
  facet normal -1 0 0
    outer loop
      vertex -11.75 -12 -2.5
      vertex -11.75 -8.74638 -1.27502
      vertex -11.75 7 -2.5
    endloop
  endfacet
  facet normal -1 -0 0
    outer loop
      vertex -11.75 -10.275 -0.253617
      vertex -11.75 -12 -2.5
      vertex -11.75 -10.3 1.26134e-015
    endloop
  endfacet
  facet normal -1 -0 0
    outer loop
      vertex -11.75 -10.201 -0.497488
      vertex -11.75 -12 -2.5
      vertex -11.75 -10.275 -0.253617
    endloop
  endfacet
  facet normal -1 -0 0
    outer loop
      vertex -11.75 -10.0809 -0.72224
      vertex -11.75 -12 -2.5
      vertex -11.75 -10.201 -0.497488
    endloop
  endfacet
  facet normal -1 -0 0
    outer loop
      vertex -11.75 -9.91924 -0.919238
      vertex -11.75 -12 -2.5
      vertex -11.75 -10.0809 -0.72224
    endloop
  endfacet
  facet normal -1 -0 0
    outer loop
      vertex -11.75 -9.72224 -1.08091
      vertex -11.75 -12 -2.5
      vertex -11.75 -9.91924 -0.919238
    endloop
  endfacet
  facet normal -1 -0 0
    outer loop
      vertex -11.75 -9.49749 -1.20104
      vertex -11.75 -12 -2.5
      vertex -11.75 -9.72224 -1.08091
    endloop
  endfacet
  facet normal -1 -0 0
    outer loop
      vertex -11.75 -9.25362 -1.27502
      vertex -11.75 -12 -2.5
      vertex -11.75 -9.49749 -1.20104
    endloop
  endfacet
  facet normal -1 -0 0
    outer loop
      vertex -11.75 -9 -1.3
      vertex -11.75 -12 -2.5
      vertex -11.75 -9.25362 -1.27502
    endloop
  endfacet
  facet normal -1 0 0
    outer loop
      vertex -11.75 -8.74638 -1.27502
      vertex -11.75 -12 -2.5
      vertex -11.75 -9 -1.3
    endloop
  endfacet
  facet normal -1 0 0
    outer loop
      vertex -11.75 5.27502 0.253617
      vertex -11.75 7 2.5
      vertex -11.75 5.3 -6.49041e-016
    endloop
  endfacet
  facet normal -1 0 0
    outer loop
      vertex -11.75 5.20104 0.497488
      vertex -11.75 7 2.5
      vertex -11.75 5.27502 0.253617
    endloop
  endfacet
  facet normal -1 0 0
    outer loop
      vertex -11.75 5.08091 0.72224
      vertex -11.75 7 2.5
      vertex -11.75 5.20104 0.497488
    endloop
  endfacet
  facet normal -1 0 0
    outer loop
      vertex -11.75 4.91924 0.919238
      vertex -11.75 7 2.5
      vertex -11.75 5.08091 0.72224
    endloop
  endfacet
  facet normal -1 0 0
    outer loop
      vertex -11.75 4.72224 1.08091
      vertex -11.75 7 2.5
      vertex -11.75 4.91924 0.919238
    endloop
  endfacet
  facet normal -1 0 0
    outer loop
      vertex -11.75 4.49749 1.20104
      vertex -11.75 7 2.5
      vertex -11.75 4.72224 1.08091
    endloop
  endfacet
  facet normal -1 0 0
    outer loop
      vertex -11.75 4.25362 1.27502
      vertex -11.75 7 2.5
      vertex -11.75 4.49749 1.20104
    endloop
  endfacet
  facet normal -1 0 0
    outer loop
      vertex -11.75 4 1.3
      vertex -11.75 7 2.5
      vertex -11.75 4.25362 1.27502
    endloop
  endfacet
  facet normal -1 0 0
    outer loop
      vertex -11.75 3.74638 1.27502
      vertex -11.75 7 2.5
      vertex -11.75 4 1.3
    endloop
  endfacet
  facet normal -1 0 0
    outer loop
      vertex -11.75 -8.74638 1.27502
      vertex -11.75 3.74638 1.27502
      vertex -11.75 3.50251 1.20104
    endloop
  endfacet
  facet normal -1 0 0
    outer loop
      vertex -11.75 -7.7 9.42947e-016
      vertex -11.75 2.72498 0.253617
      vertex -11.75 2.7 -3.30644e-016
    endloop
  endfacet
  facet normal -1 0 0
    outer loop
      vertex -11.75 -7.72498 0.253617
      vertex -11.75 2.72498 0.253617
      vertex -11.75 -7.7 9.42947e-016
    endloop
  endfacet
  facet normal -1 0 0
    outer loop
      vertex -11.75 2.72498 0.253617
      vertex -11.75 -7.72498 0.253617
      vertex -11.75 2.79896 0.497488
    endloop
  endfacet
  facet normal -1 0 0
    outer loop
      vertex -11.75 -7.79896 0.497488
      vertex -11.75 2.79896 0.497488
      vertex -11.75 -7.72498 0.253617
    endloop
  endfacet
  facet normal -1 0 0
    outer loop
      vertex -11.75 2.79896 0.497488
      vertex -11.75 -7.79896 0.497488
      vertex -11.75 2.91909 0.72224
    endloop
  endfacet
  facet normal -1 0 0
    outer loop
      vertex -11.75 -7.91909 0.72224
      vertex -11.75 2.91909 0.72224
      vertex -11.75 -7.79896 0.497488
    endloop
  endfacet
  facet normal -1 0 0
    outer loop
      vertex -11.75 2.91909 0.72224
      vertex -11.75 -7.91909 0.72224
      vertex -11.75 3.08076 0.919238
    endloop
  endfacet
  facet normal -1 0 0
    outer loop
      vertex -11.75 -8.08076 0.919238
      vertex -11.75 3.08076 0.919238
      vertex -11.75 -7.91909 0.72224
    endloop
  endfacet
  facet normal -1 0 0
    outer loop
      vertex -11.75 3.08076 0.919238
      vertex -11.75 -8.08076 0.919238
      vertex -11.75 3.27776 1.08091
    endloop
  endfacet
  facet normal -1 0 0
    outer loop
      vertex -11.75 -8.27776 1.08091
      vertex -11.75 3.27776 1.08091
      vertex -11.75 -8.08076 0.919238
    endloop
  endfacet
  facet normal -1 0 0
    outer loop
      vertex -11.75 3.27776 1.08091
      vertex -11.75 -8.27776 1.08091
      vertex -11.75 3.50251 1.20104
    endloop
  endfacet
  facet normal -1 0 0
    outer loop
      vertex -11.75 -8.50251 1.20104
      vertex -11.75 3.50251 1.20104
      vertex -11.75 -8.27776 1.08091
    endloop
  endfacet
  facet normal -1 0 0
    outer loop
      vertex -11.75 -8.74638 1.27502
      vertex -11.75 3.50251 1.20104
      vertex -11.75 -8.50251 1.20104
    endloop
  endfacet
  facet normal -1 0 0
    outer loop
      vertex -11.75 3.74638 1.27502
      vertex -11.75 -8.74638 1.27502
      vertex -11.75 7 2.5
    endloop
  endfacet
  facet normal -1 0 0
    outer loop
      vertex -11.75 -12 2.5
      vertex -11.75 -8.74638 1.27502
      vertex -11.75 -9 1.3
    endloop
  endfacet
  facet normal -1 0 0
    outer loop
      vertex -11.75 -12 2.5
      vertex -11.75 -10.3 1.26134e-015
      vertex -11.75 -12 -2.5
    endloop
  endfacet
  facet normal -1 0 0
    outer loop
      vertex -11.75 -10.3 1.26134e-015
      vertex -11.75 -12 2.5
      vertex -11.75 -10.275 0.253617
    endloop
  endfacet
  facet normal -1 0 0
    outer loop
      vertex -11.75 -10.275 0.253617
      vertex -11.75 -12 2.5
      vertex -11.75 -10.201 0.497488
    endloop
  endfacet
  facet normal -1 0 0
    outer loop
      vertex -11.75 -8.74638 1.27502
      vertex -11.75 -12 2.5
      vertex -11.75 7 2.5
    endloop
  endfacet
  facet normal -1 0 0
    outer loop
      vertex -11.75 -9.25362 1.27502
      vertex -11.75 -12 2.5
      vertex -11.75 -9 1.3
    endloop
  endfacet
  facet normal -1 0 0
    outer loop
      vertex -11.75 -9.49749 1.20104
      vertex -11.75 -12 2.5
      vertex -11.75 -9.25362 1.27502
    endloop
  endfacet
  facet normal -1 0 0
    outer loop
      vertex -11.75 -9.72224 1.08091
      vertex -11.75 -12 2.5
      vertex -11.75 -9.49749 1.20104
    endloop
  endfacet
  facet normal -1 0 0
    outer loop
      vertex -11.75 -9.91924 0.919238
      vertex -11.75 -12 2.5
      vertex -11.75 -9.72224 1.08091
    endloop
  endfacet
  facet normal -1 0 0
    outer loop
      vertex -11.75 -10.0809 0.72224
      vertex -11.75 -12 2.5
      vertex -11.75 -9.91924 0.919238
    endloop
  endfacet
  facet normal -1 0 0
    outer loop
      vertex -11.75 -10.201 0.497488
      vertex -11.75 -12 2.5
      vertex -11.75 -10.0809 0.72224
    endloop
  endfacet
  facet normal 0 0 -1
    outer loop
      vertex 11.75 -12 -2.5
      vertex 10.05 -2.5 -2.5
      vertex 11.75 7 -2.5
    endloop
  endfacet
  facet normal 0 0 -1
    outer loop
      vertex 11.75 -12 -2.5
      vertex 10.025 -2.75362 -2.5
      vertex 10.05 -2.5 -2.5
    endloop
  endfacet
  facet normal 0 0 -1
    outer loop
      vertex 11.75 -12 -2.5
      vertex 9.95104 -2.99749 -2.5
      vertex 10.025 -2.75362 -2.5
    endloop
  endfacet
  facet normal 0 0 -1
    outer loop
      vertex 11.75 -12 -2.5
      vertex 9.83091 -3.22224 -2.5
      vertex 9.95104 -2.99749 -2.5
    endloop
  endfacet
  facet normal 0 0 -1
    outer loop
      vertex 11.75 -12 -2.5
      vertex 9.66924 -3.41924 -2.5
      vertex 9.83091 -3.22224 -2.5
    endloop
  endfacet
  facet normal 0 0 -1
    outer loop
      vertex 11.75 -12 -2.5
      vertex 9.47224 -3.58091 -2.5
      vertex 9.66924 -3.41924 -2.5
    endloop
  endfacet
  facet normal 0 0 -1
    outer loop
      vertex 11.75 -12 -2.5
      vertex 9.24749 -3.70104 -2.5
      vertex 9.47224 -3.58091 -2.5
    endloop
  endfacet
  facet normal 0 0 -1
    outer loop
      vertex 11.75 -12 -2.5
      vertex 9.00362 -3.77502 -2.5
      vertex 9.24749 -3.70104 -2.5
    endloop
  endfacet
  facet normal 0 0 -1
    outer loop
      vertex 11.75 -12 -2.5
      vertex 8.75 -3.8 -2.5
      vertex 9.00362 -3.77502 -2.5
    endloop
  endfacet
  facet normal 0 0 -1
    outer loop
      vertex 11.75 -12 -2.5
      vertex 8.49638 -3.77502 -2.5
      vertex 8.75 -3.8 -2.5
    endloop
  endfacet
  facet normal 0 0 -1
    outer loop
      vertex 11.75 -12 -2.5
      vertex 8.25251 -3.70104 -2.5
      vertex 8.49638 -3.77502 -2.5
    endloop
  endfacet
  facet normal 0 0 -1
    outer loop
      vertex 11.75 -12 -2.5
      vertex 8.02776 -3.58091 -2.5
      vertex 8.25251 -3.70104 -2.5
    endloop
  endfacet
  facet normal 0 0 -1
    outer loop
      vertex 11.75 -12 -2.5
      vertex 7.83076 -3.41924 -2.5
      vertex 8.02776 -3.58091 -2.5
    endloop
  endfacet
  facet normal 0 0 -1
    outer loop
      vertex -7.83076 -3.41924 -2.5
      vertex 7.83076 -3.41924 -2.5
      vertex 11.75 -12 -2.5
    endloop
  endfacet
  facet normal 0 0 -1
    outer loop
      vertex 7.83076 -3.41924 -2.5
      vertex -7.83076 -3.41924 -2.5
      vertex 7.66909 -3.22224 -2.5
    endloop
  endfacet
  facet normal 0 0 -1
    outer loop
      vertex 7.47498 -2.75362 -2.5
      vertex -7.45 -2.5 -2.5
      vertex 7.45 -2.5 -2.5
    endloop
  endfacet
  facet normal 0 0 -1
    outer loop
      vertex -7.47498 -2.75362 -2.5
      vertex 7.47498 -2.75362 -2.5
      vertex 7.54896 -2.99749 -2.5
    endloop
  endfacet
  facet normal 0 -0 -1
    outer loop
      vertex -7.66909 -3.22224 -2.5
      vertex 7.66909 -3.22224 -2.5
      vertex -7.83076 -3.41924 -2.5
    endloop
  endfacet
  facet normal 0 0 -1
    outer loop
      vertex 7.47498 -2.75362 -2.5
      vertex -7.47498 -2.75362 -2.5
      vertex -7.45 -2.5 -2.5
    endloop
  endfacet
  facet normal 0 0 -1
    outer loop
      vertex 7.54896 -2.99749 -2.5
      vertex -7.54896 -2.99749 -2.5
      vertex -7.47498 -2.75362 -2.5
    endloop
  endfacet
  facet normal -0 0 -1
    outer loop
      vertex 7.54896 -2.99749 -2.5
      vertex -7.66909 -3.22224 -2.5
      vertex -7.54896 -2.99749 -2.5
    endloop
  endfacet
  facet normal 0 0 -1
    outer loop
      vertex 7.66909 -3.22224 -2.5
      vertex -7.66909 -3.22224 -2.5
      vertex 7.54896 -2.99749 -2.5
    endloop
  endfacet
  facet normal 0 0 -1
    outer loop
      vertex -11.75 -12 -2.5
      vertex -7.83076 -3.41924 -2.5
      vertex 11.75 -12 -2.5
    endloop
  endfacet
  facet normal 0 0 -1
    outer loop
      vertex -7.83076 -3.41924 -2.5
      vertex -11.75 -12 -2.5
      vertex -8.02776 -3.58091 -2.5
    endloop
  endfacet
  facet normal 0 0 -1
    outer loop
      vertex -8.02776 -3.58091 -2.5
      vertex -11.75 -12 -2.5
      vertex -8.25251 -3.70104 -2.5
    endloop
  endfacet
  facet normal 0 0 -1
    outer loop
      vertex -8.25251 -3.70104 -2.5
      vertex -11.75 -12 -2.5
      vertex -8.49638 -3.77502 -2.5
    endloop
  endfacet
  facet normal 0 0 -1
    outer loop
      vertex -8.49638 -3.77502 -2.5
      vertex -11.75 -12 -2.5
      vertex -8.75 -3.8 -2.5
    endloop
  endfacet
  facet normal -0 0 -1
    outer loop
      vertex -8.75 -3.8 -2.5
      vertex -11.75 -12 -2.5
      vertex -9.00362 -3.77502 -2.5
    endloop
  endfacet
  facet normal -0 0 -1
    outer loop
      vertex -10.025 -2.75362 -2.5
      vertex -11.75 -12 -2.5
      vertex -10.05 -2.5 -2.5
    endloop
  endfacet
  facet normal -0 0 -1
    outer loop
      vertex -9.95104 -2.99749 -2.5
      vertex -11.75 -12 -2.5
      vertex -10.025 -2.75362 -2.5
    endloop
  endfacet
  facet normal -0 0 -1
    outer loop
      vertex -9.83091 -3.22224 -2.5
      vertex -11.75 -12 -2.5
      vertex -9.95104 -2.99749 -2.5
    endloop
  endfacet
  facet normal -0 0 -1
    outer loop
      vertex -9.66924 -3.41924 -2.5
      vertex -11.75 -12 -2.5
      vertex -9.83091 -3.22224 -2.5
    endloop
  endfacet
  facet normal -0 0 -1
    outer loop
      vertex -9.47224 -3.58091 -2.5
      vertex -11.75 -12 -2.5
      vertex -9.66924 -3.41924 -2.5
    endloop
  endfacet
  facet normal -0 0 -1
    outer loop
      vertex -9.24749 -3.70104 -2.5
      vertex -11.75 -12 -2.5
      vertex -9.47224 -3.58091 -2.5
    endloop
  endfacet
  facet normal -0 0 -1
    outer loop
      vertex -9.00362 -3.77502 -2.5
      vertex -11.75 -12 -2.5
      vertex -9.24749 -3.70104 -2.5
    endloop
  endfacet
  facet normal 0 0 -1
    outer loop
      vertex 10.025 -2.24638 -2.5
      vertex 11.75 7 -2.5
      vertex 10.05 -2.5 -2.5
    endloop
  endfacet
  facet normal 0 0 -1
    outer loop
      vertex 9.95104 -2.00251 -2.5
      vertex 11.75 7 -2.5
      vertex 10.025 -2.24638 -2.5
    endloop
  endfacet
  facet normal 0 0 -1
    outer loop
      vertex 9.83091 -1.77776 -2.5
      vertex 11.75 7 -2.5
      vertex 9.95104 -2.00251 -2.5
    endloop
  endfacet
  facet normal 0 0 -1
    outer loop
      vertex 9.66924 -1.58076 -2.5
      vertex 11.75 7 -2.5
      vertex 9.83091 -1.77776 -2.5
    endloop
  endfacet
  facet normal 0 0 -1
    outer loop
      vertex 9.47224 -1.41909 -2.5
      vertex 11.75 7 -2.5
      vertex 9.66924 -1.58076 -2.5
    endloop
  endfacet
  facet normal 0 0 -1
    outer loop
      vertex 9.24749 -1.29896 -2.5
      vertex 11.75 7 -2.5
      vertex 9.47224 -1.41909 -2.5
    endloop
  endfacet
  facet normal 0 0 -1
    outer loop
      vertex 9.00362 -1.22498 -2.5
      vertex 11.75 7 -2.5
      vertex 9.24749 -1.29896 -2.5
    endloop
  endfacet
  facet normal 0 0 -1
    outer loop
      vertex 8.75 -1.2 -2.5
      vertex 11.75 7 -2.5
      vertex 9.00362 -1.22498 -2.5
    endloop
  endfacet
  facet normal 0 0 -1
    outer loop
      vertex 8.49638 -1.22498 -2.5
      vertex 11.75 7 -2.5
      vertex 8.75 -1.2 -2.5
    endloop
  endfacet
  facet normal 0 0 -1
    outer loop
      vertex 8.25251 -1.29896 -2.5
      vertex 11.75 7 -2.5
      vertex 8.49638 -1.22498 -2.5
    endloop
  endfacet
  facet normal 0 0 -1
    outer loop
      vertex 8.02776 -1.41909 -2.5
      vertex 11.75 7 -2.5
      vertex 8.25251 -1.29896 -2.5
    endloop
  endfacet
  facet normal 0 0 -1
    outer loop
      vertex 7.83076 -1.58076 -2.5
      vertex 11.75 7 -2.5
      vertex 8.02776 -1.41909 -2.5
    endloop
  endfacet
  facet normal 0 0 -1
    outer loop
      vertex -7.83076 -1.58076 -2.5
      vertex 7.83076 -1.58076 -2.5
      vertex 7.66909 -1.77776 -2.5
    endloop
  endfacet
  facet normal 0 0 -1
    outer loop
      vertex -7.66909 -1.77776 -2.5
      vertex 7.66909 -1.77776 -2.5
      vertex 7.54896 -2.00251 -2.5
    endloop
  endfacet
  facet normal 0 0 -1
    outer loop
      vertex -7.45 -2.5 -2.5
      vertex 7.47498 -2.24638 -2.5
      vertex 7.45 -2.5 -2.5
    endloop
  endfacet
  facet normal 0 0 -1
    outer loop
      vertex -7.47498 -2.24638 -2.5
      vertex 7.47498 -2.24638 -2.5
      vertex -7.45 -2.5 -2.5
    endloop
  endfacet
  facet normal 0 0 -1
    outer loop
      vertex 7.47498 -2.24638 -2.5
      vertex -7.47498 -2.24638 -2.5
      vertex 7.54896 -2.00251 -2.5
    endloop
  endfacet
  facet normal 0 0 -1
    outer loop
      vertex -7.54896 -2.00251 -2.5
      vertex 7.54896 -2.00251 -2.5
      vertex -7.47498 -2.24638 -2.5
    endloop
  endfacet
  facet normal 0 0 -1
    outer loop
      vertex -7.66909 -1.77776 -2.5
      vertex 7.54896 -2.00251 -2.5
      vertex -7.54896 -2.00251 -2.5
    endloop
  endfacet
  facet normal 0 0 -1
    outer loop
      vertex 7.66909 -1.77776 -2.5
      vertex -7.66909 -1.77776 -2.5
      vertex -7.83076 -1.58076 -2.5
    endloop
  endfacet
  facet normal 0 0 -1
    outer loop
      vertex 7.83076 -1.58076 -2.5
      vertex -7.83076 -1.58076 -2.5
      vertex 11.75 7 -2.5
    endloop
  endfacet
  facet normal 0 0 -1
    outer loop
      vertex -11.75 7 -2.5
      vertex -7.83076 -1.58076 -2.5
      vertex -8.02776 -1.41909 -2.5
    endloop
  endfacet
  facet normal 0 0 -1
    outer loop
      vertex -11.75 7 -2.5
      vertex -8.02776 -1.41909 -2.5
      vertex -8.25251 -1.29896 -2.5
    endloop
  endfacet
  facet normal 0 0 -1
    outer loop
      vertex -11.75 7 -2.5
      vertex -8.25251 -1.29896 -2.5
      vertex -8.49638 -1.22498 -2.5
    endloop
  endfacet
  facet normal 0 0 -1
    outer loop
      vertex -11.75 7 -2.5
      vertex -8.49638 -1.22498 -2.5
      vertex -8.75 -1.2 -2.5
    endloop
  endfacet
  facet normal 0 0 -1
    outer loop
      vertex -11.75 7 -2.5
      vertex -8.75 -1.2 -2.5
      vertex -9.00362 -1.22498 -2.5
    endloop
  endfacet
  facet normal 0 0 -1
    outer loop
      vertex -11.75 7 -2.5
      vertex -9.00362 -1.22498 -2.5
      vertex -9.24749 -1.29896 -2.5
    endloop
  endfacet
  facet normal 0 0 -1
    outer loop
      vertex -11.75 7 -2.5
      vertex -10.05 -2.5 -2.5
      vertex -11.75 -12 -2.5
    endloop
  endfacet
  facet normal 0 0 -1
    outer loop
      vertex -7.83076 -1.58076 -2.5
      vertex -11.75 7 -2.5
      vertex 11.75 7 -2.5
    endloop
  endfacet
  facet normal 0 0 -1
    outer loop
      vertex -9.47224 -1.41909 -2.5
      vertex -11.75 7 -2.5
      vertex -9.24749 -1.29896 -2.5
    endloop
  endfacet
  facet normal 0 0 -1
    outer loop
      vertex -9.66924 -1.58076 -2.5
      vertex -11.75 7 -2.5
      vertex -9.47224 -1.41909 -2.5
    endloop
  endfacet
  facet normal 0 0 -1
    outer loop
      vertex -9.83091 -1.77776 -2.5
      vertex -11.75 7 -2.5
      vertex -9.66924 -1.58076 -2.5
    endloop
  endfacet
  facet normal 0 0 -1
    outer loop
      vertex -9.95104 -2.00251 -2.5
      vertex -11.75 7 -2.5
      vertex -9.83091 -1.77776 -2.5
    endloop
  endfacet
  facet normal 0 0 -1
    outer loop
      vertex -10.025 -2.24638 -2.5
      vertex -11.75 7 -2.5
      vertex -9.95104 -2.00251 -2.5
    endloop
  endfacet
  facet normal 0 0 -1
    outer loop
      vertex -10.05 -2.5 -2.5
      vertex -11.75 7 -2.5
      vertex -10.025 -2.24638 -2.5
    endloop
  endfacet
  facet normal 1 0 0
    outer loop
      vertex 11.75 7 2.5
      vertex 11.75 5.3 -6.49041e-016
      vertex 11.75 7 -2.5
    endloop
  endfacet
  facet normal 1 0 0
    outer loop
      vertex 11.75 7 2.5
      vertex 11.75 5.27502 0.253617
      vertex 11.75 5.3 -6.49041e-016
    endloop
  endfacet
  facet normal 1 0 0
    outer loop
      vertex 11.75 7 2.5
      vertex 11.75 5.20104 0.497488
      vertex 11.75 5.27502 0.253617
    endloop
  endfacet
  facet normal 1 0 0
    outer loop
      vertex 11.75 7 2.5
      vertex 11.75 5.08091 0.72224
      vertex 11.75 5.20104 0.497488
    endloop
  endfacet
  facet normal 1 0 0
    outer loop
      vertex 11.75 7 2.5
      vertex 11.75 4.91924 0.919238
      vertex 11.75 5.08091 0.72224
    endloop
  endfacet
  facet normal 1 0 0
    outer loop
      vertex 11.75 7 2.5
      vertex 11.75 4.72224 1.08091
      vertex 11.75 4.91924 0.919238
    endloop
  endfacet
  facet normal 1 0 0
    outer loop
      vertex 11.75 7 2.5
      vertex 11.75 4.49749 1.20104
      vertex 11.75 4.72224 1.08091
    endloop
  endfacet
  facet normal 1 0 0
    outer loop
      vertex 11.75 7 2.5
      vertex 11.75 4.25362 1.27502
      vertex 11.75 4.49749 1.20104
    endloop
  endfacet
  facet normal 1 0 0
    outer loop
      vertex 11.75 7 2.5
      vertex 11.75 4 1.3
      vertex 11.75 4.25362 1.27502
    endloop
  endfacet
  facet normal 1 0 0
    outer loop
      vertex 11.75 7 2.5
      vertex 11.75 3.74638 1.27502
      vertex 11.75 4 1.3
    endloop
  endfacet
  facet normal 1 0 0
    outer loop
      vertex 11.75 -8.74638 1.27502
      vertex 11.75 3.74638 1.27502
      vertex 11.75 7 2.5
    endloop
  endfacet
  facet normal 1 0 0
    outer loop
      vertex 11.75 2.72498 0.253617
      vertex 11.75 -7.7 9.42947e-016
      vertex 11.75 2.7 -3.30644e-016
    endloop
  endfacet
  facet normal 1 0 0
    outer loop
      vertex 11.75 -7.72498 0.253617
      vertex 11.75 2.72498 0.253617
      vertex 11.75 2.79896 0.497488
    endloop
  endfacet
  facet normal 1 0 0
    outer loop
      vertex 11.75 -7.79896 0.497488
      vertex 11.75 2.79896 0.497488
      vertex 11.75 2.91909 0.72224
    endloop
  endfacet
  facet normal 1 0 0
    outer loop
      vertex 11.75 -7.91909 0.72224
      vertex 11.75 2.91909 0.72224
      vertex 11.75 3.08076 0.919238
    endloop
  endfacet
  facet normal 1 0 0
    outer loop
      vertex 11.75 -8.08076 0.919238
      vertex 11.75 3.08076 0.919238
      vertex 11.75 3.27776 1.08091
    endloop
  endfacet
  facet normal 1 0 0
    outer loop
      vertex 11.75 -8.27776 1.08091
      vertex 11.75 3.27776 1.08091
      vertex 11.75 3.50251 1.20104
    endloop
  endfacet
  facet normal 1 0 0
    outer loop
      vertex 11.75 3.74638 1.27502
      vertex 11.75 -8.74638 1.27502
      vertex 11.75 3.50251 1.20104
    endloop
  endfacet
  facet normal 1 0 0
    outer loop
      vertex 11.75 2.72498 0.253617
      vertex 11.75 -7.72498 0.253617
      vertex 11.75 -7.7 9.42947e-016
    endloop
  endfacet
  facet normal 1 0 0
    outer loop
      vertex 11.75 2.79896 0.497488
      vertex 11.75 -7.79896 0.497488
      vertex 11.75 -7.72498 0.253617
    endloop
  endfacet
  facet normal 1 0 0
    outer loop
      vertex 11.75 2.91909 0.72224
      vertex 11.75 -7.91909 0.72224
      vertex 11.75 -7.79896 0.497488
    endloop
  endfacet
  facet normal 1 0 0
    outer loop
      vertex 11.75 3.08076 0.919238
      vertex 11.75 -8.08076 0.919238
      vertex 11.75 -7.91909 0.72224
    endloop
  endfacet
  facet normal 1 0 0
    outer loop
      vertex 11.75 3.27776 1.08091
      vertex 11.75 -8.27776 1.08091
      vertex 11.75 -8.08076 0.919238
    endloop
  endfacet
  facet normal 1 0 0
    outer loop
      vertex 11.75 3.50251 1.20104
      vertex 11.75 -8.50251 1.20104
      vertex 11.75 -8.27776 1.08091
    endloop
  endfacet
  facet normal 1 0 0
    outer loop
      vertex 11.75 3.50251 1.20104
      vertex 11.75 -8.74638 1.27502
      vertex 11.75 -8.50251 1.20104
    endloop
  endfacet
  facet normal 1 -0 0
    outer loop
      vertex 11.75 -12 2.5
      vertex 11.75 -8.74638 1.27502
      vertex 11.75 7 2.5
    endloop
  endfacet
  facet normal 1 0 0
    outer loop
      vertex 11.75 -10.275 0.253617
      vertex 11.75 -12 2.5
      vertex 11.75 -10.3 1.26134e-015
    endloop
  endfacet
  facet normal 1 0 0
    outer loop
      vertex 11.75 -10.201 0.497488
      vertex 11.75 -12 2.5
      vertex 11.75 -10.275 0.253617
    endloop
  endfacet
  facet normal 1 0 0
    outer loop
      vertex 11.75 -10.0809 0.72224
      vertex 11.75 -12 2.5
      vertex 11.75 -10.201 0.497488
    endloop
  endfacet
  facet normal 1 0 0
    outer loop
      vertex 11.75 -9.91924 0.919238
      vertex 11.75 -12 2.5
      vertex 11.75 -10.0809 0.72224
    endloop
  endfacet
  facet normal 1 0 0
    outer loop
      vertex 11.75 -9.72224 1.08091
      vertex 11.75 -12 2.5
      vertex 11.75 -9.91924 0.919238
    endloop
  endfacet
  facet normal 1 0 0
    outer loop
      vertex 11.75 -9.49749 1.20104
      vertex 11.75 -12 2.5
      vertex 11.75 -9.72224 1.08091
    endloop
  endfacet
  facet normal 1 0 0
    outer loop
      vertex 11.75 -9.25362 1.27502
      vertex 11.75 -12 2.5
      vertex 11.75 -9.49749 1.20104
    endloop
  endfacet
  facet normal 1 0 0
    outer loop
      vertex 11.75 -9 1.3
      vertex 11.75 -12 2.5
      vertex 11.75 -9.25362 1.27502
    endloop
  endfacet
  facet normal 1 0 0
    outer loop
      vertex 11.75 -8.74638 1.27502
      vertex 11.75 -12 2.5
      vertex 11.75 -9 1.3
    endloop
  endfacet
  facet normal 1 -0 0
    outer loop
      vertex 11.75 5.27502 -0.253617
      vertex 11.75 7 -2.5
      vertex 11.75 5.3 -6.49041e-016
    endloop
  endfacet
  facet normal 1 -0 0
    outer loop
      vertex 11.75 5.20104 -0.497488
      vertex 11.75 7 -2.5
      vertex 11.75 5.27502 -0.253617
    endloop
  endfacet
  facet normal 1 -0 0
    outer loop
      vertex 11.75 5.08091 -0.72224
      vertex 11.75 7 -2.5
      vertex 11.75 5.20104 -0.497488
    endloop
  endfacet
  facet normal 1 -0 0
    outer loop
      vertex 11.75 4.91924 -0.919238
      vertex 11.75 7 -2.5
      vertex 11.75 5.08091 -0.72224
    endloop
  endfacet
  facet normal 1 -0 0
    outer loop
      vertex 11.75 4.72224 -1.08091
      vertex 11.75 7 -2.5
      vertex 11.75 4.91924 -0.919238
    endloop
  endfacet
  facet normal 1 -0 0
    outer loop
      vertex 11.75 4.49749 -1.20104
      vertex 11.75 7 -2.5
      vertex 11.75 4.72224 -1.08091
    endloop
  endfacet
  facet normal 1 -0 0
    outer loop
      vertex 11.75 4.25362 -1.27502
      vertex 11.75 7 -2.5
      vertex 11.75 4.49749 -1.20104
    endloop
  endfacet
  facet normal 1 -0 0
    outer loop
      vertex 11.75 4 -1.3
      vertex 11.75 7 -2.5
      vertex 11.75 4.25362 -1.27502
    endloop
  endfacet
  facet normal 1 0 0
    outer loop
      vertex 11.75 3.74638 -1.27502
      vertex 11.75 7 -2.5
      vertex 11.75 4 -1.3
    endloop
  endfacet
  facet normal 1 0 0
    outer loop
      vertex 11.75 -8.74638 -1.27502
      vertex 11.75 3.74638 -1.27502
      vertex 11.75 3.50251 -1.20104
    endloop
  endfacet
  facet normal 1 0 0
    outer loop
      vertex 11.75 -7.7 9.42947e-016
      vertex 11.75 2.72498 -0.253617
      vertex 11.75 2.7 -3.30644e-016
    endloop
  endfacet
  facet normal 1 0 0
    outer loop
      vertex 11.75 -7.72498 -0.253617
      vertex 11.75 2.72498 -0.253617
      vertex 11.75 -7.7 9.42947e-016
    endloop
  endfacet
  facet normal 1 0 0
    outer loop
      vertex 11.75 2.72498 -0.253617
      vertex 11.75 -7.72498 -0.253617
      vertex 11.75 2.79896 -0.497488
    endloop
  endfacet
  facet normal 1 0 0
    outer loop
      vertex 11.75 -7.79896 -0.497488
      vertex 11.75 2.79896 -0.497488
      vertex 11.75 -7.72498 -0.253617
    endloop
  endfacet
  facet normal 1 0 0
    outer loop
      vertex 11.75 2.79896 -0.497488
      vertex 11.75 -7.79896 -0.497488
      vertex 11.75 2.91909 -0.72224
    endloop
  endfacet
  facet normal 1 0 0
    outer loop
      vertex 11.75 -7.91909 -0.72224
      vertex 11.75 2.91909 -0.72224
      vertex 11.75 -7.79896 -0.497488
    endloop
  endfacet
  facet normal 1 0 0
    outer loop
      vertex 11.75 2.91909 -0.72224
      vertex 11.75 -7.91909 -0.72224
      vertex 11.75 3.08076 -0.919238
    endloop
  endfacet
  facet normal 1 0 0
    outer loop
      vertex 11.75 -8.08076 -0.919238
      vertex 11.75 3.08076 -0.919238
      vertex 11.75 -7.91909 -0.72224
    endloop
  endfacet
  facet normal 1 0 0
    outer loop
      vertex 11.75 3.08076 -0.919238
      vertex 11.75 -8.08076 -0.919238
      vertex 11.75 3.27776 -1.08091
    endloop
  endfacet
  facet normal 1 0 0
    outer loop
      vertex 11.75 -8.27776 -1.08091
      vertex 11.75 3.27776 -1.08091
      vertex 11.75 -8.08076 -0.919238
    endloop
  endfacet
  facet normal 1 0 0
    outer loop
      vertex 11.75 3.27776 -1.08091
      vertex 11.75 -8.27776 -1.08091
      vertex 11.75 3.50251 -1.20104
    endloop
  endfacet
  facet normal 1 0 0
    outer loop
      vertex 11.75 -8.50251 -1.20104
      vertex 11.75 3.50251 -1.20104
      vertex 11.75 -8.27776 -1.08091
    endloop
  endfacet
  facet normal 1 0 0
    outer loop
      vertex 11.75 -8.74638 -1.27502
      vertex 11.75 3.50251 -1.20104
      vertex 11.75 -8.50251 -1.20104
    endloop
  endfacet
  facet normal 1 0 0
    outer loop
      vertex 11.75 3.74638 -1.27502
      vertex 11.75 -8.74638 -1.27502
      vertex 11.75 7 -2.5
    endloop
  endfacet
  facet normal 1 0 0
    outer loop
      vertex 11.75 -12 -2.5
      vertex 11.75 -8.74638 -1.27502
      vertex 11.75 -9 -1.3
    endloop
  endfacet
  facet normal 1 0 0
    outer loop
      vertex 11.75 -12 -2.5
      vertex 11.75 -10.3 1.26134e-015
      vertex 11.75 -12 2.5
    endloop
  endfacet
  facet normal 1 0 0
    outer loop
      vertex 11.75 -10.3 1.26134e-015
      vertex 11.75 -12 -2.5
      vertex 11.75 -10.275 -0.253617
    endloop
  endfacet
  facet normal 1 0 0
    outer loop
      vertex 11.75 -10.275 -0.253617
      vertex 11.75 -12 -2.5
      vertex 11.75 -10.201 -0.497488
    endloop
  endfacet
  facet normal 1 0 0
    outer loop
      vertex 11.75 -8.74638 -1.27502
      vertex 11.75 -12 -2.5
      vertex 11.75 7 -2.5
    endloop
  endfacet
  facet normal 1 0 0
    outer loop
      vertex 11.75 -9.25362 -1.27502
      vertex 11.75 -12 -2.5
      vertex 11.75 -9 -1.3
    endloop
  endfacet
  facet normal 1 0 0
    outer loop
      vertex 11.75 -9.49749 -1.20104
      vertex 11.75 -12 -2.5
      vertex 11.75 -9.25362 -1.27502
    endloop
  endfacet
  facet normal 1 0 0
    outer loop
      vertex 11.75 -9.72224 -1.08091
      vertex 11.75 -12 -2.5
      vertex 11.75 -9.49749 -1.20104
    endloop
  endfacet
  facet normal 1 0 0
    outer loop
      vertex 11.75 -9.91924 -0.919238
      vertex 11.75 -12 -2.5
      vertex 11.75 -9.72224 -1.08091
    endloop
  endfacet
  facet normal 1 0 0
    outer loop
      vertex 11.75 -10.0809 -0.72224
      vertex 11.75 -12 -2.5
      vertex 11.75 -9.91924 -0.919238
    endloop
  endfacet
  facet normal 1 0 0
    outer loop
      vertex 11.75 -10.201 -0.497488
      vertex 11.75 -12 -2.5
      vertex 11.75 -10.0809 -0.72224
    endloop
  endfacet
  facet normal -0 0 1
    outer loop
      vertex -11.75 7 2.5
      vertex -6.5 5.5 2.5
      vertex -6.5 7 2.5
    endloop
  endfacet
  facet normal 0 0 1
    outer loop
      vertex -6.5 5.5 2.5
      vertex -7.45 -2.5 2.5
      vertex -6.5 -10.5 2.5
    endloop
  endfacet
  facet normal -0 0 1
    outer loop
      vertex -7.47498 -2.75362 2.5
      vertex -6.5 -10.5 2.5
      vertex -7.45 -2.5 2.5
    endloop
  endfacet
  facet normal 0 0 1
    outer loop
      vertex -6.5 5.5 2.5
      vertex -7.47498 -2.24638 2.5
      vertex -7.45 -2.5 2.5
    endloop
  endfacet
  facet normal 0 0 1
    outer loop
      vertex -6.5 5.5 2.5
      vertex -7.54896 -2.00251 2.5
      vertex -7.47498 -2.24638 2.5
    endloop
  endfacet
  facet normal 0 0 1
    outer loop
      vertex -6.5 5.5 2.5
      vertex -7.66909 -1.77776 2.5
      vertex -7.54896 -2.00251 2.5
    endloop
  endfacet
  facet normal 0 0 1
    outer loop
      vertex -6.5 5.5 2.5
      vertex -7.83076 -1.58076 2.5
      vertex -7.66909 -1.77776 2.5
    endloop
  endfacet
  facet normal 0 0 1
    outer loop
      vertex -6.5 5.5 2.5
      vertex -8.02776 -1.41909 2.5
      vertex -7.83076 -1.58076 2.5
    endloop
  endfacet
  facet normal 0 0 1
    outer loop
      vertex -6.5 5.5 2.5
      vertex -8.25251 -1.29896 2.5
      vertex -8.02776 -1.41909 2.5
    endloop
  endfacet
  facet normal 0 0 1
    outer loop
      vertex -6.5 5.5 2.5
      vertex -8.49638 -1.22498 2.5
      vertex -8.25251 -1.29896 2.5
    endloop
  endfacet
  facet normal 0 0 1
    outer loop
      vertex -6.5 5.5 2.5
      vertex -8.75 -1.2 2.5
      vertex -8.49638 -1.22498 2.5
    endloop
  endfacet
  facet normal 0 -0 1
    outer loop
      vertex -9.00362 -1.22498 2.5
      vertex -6.5 5.5 2.5
      vertex -11.75 7 2.5
    endloop
  endfacet
  facet normal 0 0 1
    outer loop
      vertex -6.5 5.5 2.5
      vertex -9.00362 -1.22498 2.5
      vertex -8.75 -1.2 2.5
    endloop
  endfacet
  facet normal 0 0 1
    outer loop
      vertex -9.00362 -1.22498 2.5
      vertex -11.75 7 2.5
      vertex -9.24749 -1.29896 2.5
    endloop
  endfacet
  facet normal 0 0 1
    outer loop
      vertex -9.24749 -1.29896 2.5
      vertex -11.75 7 2.5
      vertex -9.47224 -1.41909 2.5
    endloop
  endfacet
  facet normal 0 0 1
    outer loop
      vertex -9.47224 -1.41909 2.5
      vertex -11.75 7 2.5
      vertex -9.66924 -1.58076 2.5
    endloop
  endfacet
  facet normal 0 0 1
    outer loop
      vertex -9.66924 -1.58076 2.5
      vertex -11.75 7 2.5
      vertex -9.83091 -1.77776 2.5
    endloop
  endfacet
  facet normal 0 0 1
    outer loop
      vertex -10.025 -2.24638 2.5
      vertex -11.75 7 2.5
      vertex -10.05 -2.5 2.5
    endloop
  endfacet
  facet normal 0 0 1
    outer loop
      vertex -9.95104 -2.00251 2.5
      vertex -11.75 7 2.5
      vertex -10.025 -2.24638 2.5
    endloop
  endfacet
  facet normal 0 0 1
    outer loop
      vertex -9.83091 -1.77776 2.5
      vertex -11.75 7 2.5
      vertex -9.95104 -2.00251 2.5
    endloop
  endfacet
  facet normal 0 0 1
    outer loop
      vertex 7.45 -2.5 2.5
      vertex -6.5 -10.5 2.5
      vertex 7.47498 -2.75362 2.5
    endloop
  endfacet
  facet normal 0 0 1
    outer loop
      vertex 7.47498 -2.75362 2.5
      vertex -6.5 -10.5 2.5
      vertex 6.5 -10.5 2.5
    endloop
  endfacet
  facet normal -0 0 1
    outer loop
      vertex -7.54896 -2.99749 2.5
      vertex -6.5 -10.5 2.5
      vertex -7.47498 -2.75362 2.5
    endloop
  endfacet
  facet normal -0 0 1
    outer loop
      vertex -7.66909 -3.22224 2.5
      vertex -6.5 -10.5 2.5
      vertex -7.54896 -2.99749 2.5
    endloop
  endfacet
  facet normal -0 0 1
    outer loop
      vertex -7.83076 -3.41924 2.5
      vertex -6.5 -10.5 2.5
      vertex -7.66909 -3.22224 2.5
    endloop
  endfacet
  facet normal -0 0 1
    outer loop
      vertex -8.02776 -3.58091 2.5
      vertex -6.5 -10.5 2.5
      vertex -7.83076 -3.41924 2.5
    endloop
  endfacet
  facet normal -0 0 1
    outer loop
      vertex -8.25251 -3.70104 2.5
      vertex -6.5 -10.5 2.5
      vertex -8.02776 -3.58091 2.5
    endloop
  endfacet
  facet normal -0 0 1
    outer loop
      vertex -8.49638 -3.77502 2.5
      vertex -6.5 -10.5 2.5
      vertex -8.25251 -3.70104 2.5
    endloop
  endfacet
  facet normal -0 0 1
    outer loop
      vertex -8.75 -3.8 2.5
      vertex -6.5 -10.5 2.5
      vertex -8.49638 -3.77502 2.5
    endloop
  endfacet
  facet normal 0 0 1
    outer loop
      vertex -9.00362 -3.77502 2.5
      vertex -6.5 -10.5 2.5
      vertex -8.75 -3.8 2.5
    endloop
  endfacet
  facet normal 0 0 1
    outer loop
      vertex -6.5 -10.5 2.5
      vertex -9.00362 -3.77502 2.5
      vertex -11.75 -12 2.5
    endloop
  endfacet
  facet normal 0 0 1
    outer loop
      vertex -11.75 -12 2.5
      vertex -9.00362 -3.77502 2.5
      vertex -9.24749 -3.70104 2.5
    endloop
  endfacet
  facet normal 0 0 1
    outer loop
      vertex -11.75 -12 2.5
      vertex -9.24749 -3.70104 2.5
      vertex -9.47224 -3.58091 2.5
    endloop
  endfacet
  facet normal 0 0 1
    outer loop
      vertex -11.75 -12 2.5
      vertex -9.47224 -3.58091 2.5
      vertex -9.66924 -3.41924 2.5
    endloop
  endfacet
  facet normal 0 0 1
    outer loop
      vertex -11.75 -12 2.5
      vertex -9.66924 -3.41924 2.5
      vertex -9.83091 -3.22224 2.5
    endloop
  endfacet
  facet normal 0 0 1
    outer loop
      vertex -11.75 -12 2.5
      vertex -9.83091 -3.22224 2.5
      vertex -9.95104 -2.99749 2.5
    endloop
  endfacet
  facet normal 0 0 1
    outer loop
      vertex -11.75 -12 2.5
      vertex -10.05 -2.5 2.5
      vertex -11.75 7 2.5
    endloop
  endfacet
  facet normal 0 0 1
    outer loop
      vertex -6.5 -10.5 2.5
      vertex -11.75 -12 2.5
      vertex -6.5 -12 2.5
    endloop
  endfacet
  facet normal 0 0 1
    outer loop
      vertex -10.025 -2.75362 2.5
      vertex -11.75 -12 2.5
      vertex -9.95104 -2.99749 2.5
    endloop
  endfacet
  facet normal 0 0 1
    outer loop
      vertex -10.05 -2.5 2.5
      vertex -11.75 -12 2.5
      vertex -10.025 -2.75362 2.5
    endloop
  endfacet
  facet normal 0 0 1
    outer loop
      vertex 11.75 7 2.5
      vertex 10.05 -2.5 2.5
      vertex 11.75 -12 2.5
    endloop
  endfacet
  facet normal 0 0 1
    outer loop
      vertex 11.75 7 2.5
      vertex 10.025 -2.24638 2.5
      vertex 10.05 -2.5 2.5
    endloop
  endfacet
  facet normal 0 0 1
    outer loop
      vertex 11.75 7 2.5
      vertex 9.95104 -2.00251 2.5
      vertex 10.025 -2.24638 2.5
    endloop
  endfacet
  facet normal 0 0 1
    outer loop
      vertex 11.75 7 2.5
      vertex 9.83091 -1.77776 2.5
      vertex 9.95104 -2.00251 2.5
    endloop
  endfacet
  facet normal 0 0 1
    outer loop
      vertex 11.75 7 2.5
      vertex 9.66924 -1.58076 2.5
      vertex 9.83091 -1.77776 2.5
    endloop
  endfacet
  facet normal 0 0 1
    outer loop
      vertex 11.75 7 2.5
      vertex 9.47224 -1.41909 2.5
      vertex 9.66924 -1.58076 2.5
    endloop
  endfacet
  facet normal 0 0 1
    outer loop
      vertex 11.75 7 2.5
      vertex 9.24749 -1.29896 2.5
      vertex 9.47224 -1.41909 2.5
    endloop
  endfacet
  facet normal 0 0 1
    outer loop
      vertex 11.75 7 2.5
      vertex 9.00362 -1.22498 2.5
      vertex 9.24749 -1.29896 2.5
    endloop
  endfacet
  facet normal -0 0 1
    outer loop
      vertex 6.5 5.5 2.5
      vertex 9.00362 -1.22498 2.5
      vertex 11.75 7 2.5
    endloop
  endfacet
  facet normal 0 0 1
    outer loop
      vertex 9.00362 -1.22498 2.5
      vertex 6.5 5.5 2.5
      vertex 8.75 -1.2 2.5
    endloop
  endfacet
  facet normal 0 0 1
    outer loop
      vertex 8.75 -1.2 2.5
      vertex 6.5 5.5 2.5
      vertex 8.49638 -1.22498 2.5
    endloop
  endfacet
  facet normal 0 0 1
    outer loop
      vertex 8.49638 -1.22498 2.5
      vertex 6.5 5.5 2.5
      vertex 8.25251 -1.29896 2.5
    endloop
  endfacet
  facet normal 0 0 1
    outer loop
      vertex 8.25251 -1.29896 2.5
      vertex 6.5 5.5 2.5
      vertex 8.02776 -1.41909 2.5
    endloop
  endfacet
  facet normal 0 0 1
    outer loop
      vertex 8.02776 -1.41909 2.5
      vertex 6.5 5.5 2.5
      vertex 7.83076 -1.58076 2.5
    endloop
  endfacet
  facet normal 0 0 1
    outer loop
      vertex 7.83076 -1.58076 2.5
      vertex 6.5 5.5 2.5
      vertex 7.66909 -1.77776 2.5
    endloop
  endfacet
  facet normal -0 0 1
    outer loop
      vertex -6.5 5.5 2.5
      vertex 7.54896 -2.00251 2.5
      vertex 6.5 5.5 2.5
    endloop
  endfacet
  facet normal 0 0 1
    outer loop
      vertex 7.66909 -1.77776 2.5
      vertex 6.5 5.5 2.5
      vertex 7.54896 -2.00251 2.5
    endloop
  endfacet
  facet normal 0 0 1
    outer loop
      vertex 6.5 5.5 2.5
      vertex 11.75 7 2.5
      vertex 6.5 7 2.5
    endloop
  endfacet
  facet normal -0 0 1
    outer loop
      vertex 10.025 -2.75362 2.5
      vertex 11.75 -12 2.5
      vertex 10.05 -2.5 2.5
    endloop
  endfacet
  facet normal -0 0 1
    outer loop
      vertex 9.95104 -2.99749 2.5
      vertex 11.75 -12 2.5
      vertex 10.025 -2.75362 2.5
    endloop
  endfacet
  facet normal -0 0 1
    outer loop
      vertex 9.83091 -3.22224 2.5
      vertex 11.75 -12 2.5
      vertex 9.95104 -2.99749 2.5
    endloop
  endfacet
  facet normal -0 0 1
    outer loop
      vertex 9.66924 -3.41924 2.5
      vertex 11.75 -12 2.5
      vertex 9.83091 -3.22224 2.5
    endloop
  endfacet
  facet normal -0 0 1
    outer loop
      vertex 9.47224 -3.58091 2.5
      vertex 11.75 -12 2.5
      vertex 9.66924 -3.41924 2.5
    endloop
  endfacet
  facet normal -0 0 1
    outer loop
      vertex 9.24749 -3.70104 2.5
      vertex 11.75 -12 2.5
      vertex 9.47224 -3.58091 2.5
    endloop
  endfacet
  facet normal -0 0 1
    outer loop
      vertex 9.00362 -3.77502 2.5
      vertex 11.75 -12 2.5
      vertex 9.24749 -3.70104 2.5
    endloop
  endfacet
  facet normal 0 0 1
    outer loop
      vertex 6.5 -10.5 2.5
      vertex 9.00362 -3.77502 2.5
      vertex 8.75 -3.8 2.5
    endloop
  endfacet
  facet normal 0 0 1
    outer loop
      vertex 6.5 -10.5 2.5
      vertex 8.75 -3.8 2.5
      vertex 8.49638 -3.77502 2.5
    endloop
  endfacet
  facet normal 0 0 1
    outer loop
      vertex 6.5 -10.5 2.5
      vertex 8.49638 -3.77502 2.5
      vertex 8.25251 -3.70104 2.5
    endloop
  endfacet
  facet normal 0 0 1
    outer loop
      vertex 6.5 -10.5 2.5
      vertex 8.25251 -3.70104 2.5
      vertex 8.02776 -3.58091 2.5
    endloop
  endfacet
  facet normal 0 0 1
    outer loop
      vertex 6.5 -10.5 2.5
      vertex 8.02776 -3.58091 2.5
      vertex 7.83076 -3.41924 2.5
    endloop
  endfacet
  facet normal 0 0 1
    outer loop
      vertex 6.5 -10.5 2.5
      vertex 7.83076 -3.41924 2.5
      vertex 7.66909 -3.22224 2.5
    endloop
  endfacet
  facet normal 0 0 1
    outer loop
      vertex 6.5 -10.5 2.5
      vertex 7.66909 -3.22224 2.5
      vertex 7.54896 -2.99749 2.5
    endloop
  endfacet
  facet normal 0 0 1
    outer loop
      vertex 7.54896 -2.00251 2.5
      vertex -6.5 5.5 2.5
      vertex 7.47498 -2.24638 2.5
    endloop
  endfacet
  facet normal 0 0 1
    outer loop
      vertex 7.47498 -2.24638 2.5
      vertex -6.5 5.5 2.5
      vertex 7.45 -2.5 2.5
    endloop
  endfacet
  facet normal 0 0 1
    outer loop
      vertex -6.5 -10.5 2.5
      vertex 7.45 -2.5 2.5
      vertex -6.5 5.5 2.5
    endloop
  endfacet
  facet normal 0 0 1
    outer loop
      vertex 6.5 -10.5 2.5
      vertex 7.54896 -2.99749 2.5
      vertex 7.47498 -2.75362 2.5
    endloop
  endfacet
  facet normal 0 0 1
    outer loop
      vertex 9.00362 -3.77502 2.5
      vertex 6.5 -10.5 2.5
      vertex 11.75 -12 2.5
    endloop
  endfacet
  facet normal 0 0 1
    outer loop
      vertex 11.75 -12 2.5
      vertex 6.5 -10.5 2.5
      vertex 6.5 -12 2.5
    endloop
  endfacet
  facet normal 0 1 0
    outer loop
      vertex 11.75 7 2.5
      vertex 6.5 7 1.5
      vertex 6.5 7 2.5
    endloop
  endfacet
  facet normal 0 1 0
    outer loop
      vertex 6.5 7 1.5
      vertex 11.75 7 -2.5
      vertex -6.5 7 1.5
    endloop
  endfacet
  facet normal 0 1 -0
    outer loop
      vertex 11.75 7 -2.5
      vertex 6.5 7 1.5
      vertex 11.75 7 2.5
    endloop
  endfacet
  facet normal 0 1 -0
    outer loop
      vertex -6.5 7 1.5
      vertex -11.75 7 2.5
      vertex -6.5 7 2.5
    endloop
  endfacet
  facet normal 0 1 0
    outer loop
      vertex -11.75 7 -2.5
      vertex -6.5 7 1.5
      vertex 11.75 7 -2.5
    endloop
  endfacet
  facet normal 0 1 0
    outer loop
      vertex -6.5 7 1.5
      vertex -11.75 7 -2.5
      vertex -11.75 7 2.5
    endloop
  endfacet
  facet normal 0 -1 0
    outer loop
      vertex -11.75 -12 2.5
      vertex -6.5 -12 1.5
      vertex -6.5 -12 2.5
    endloop
  endfacet
  facet normal 0 -1 -0
    outer loop
      vertex -6.5 -12 1.5
      vertex -11.75 -12 -2.5
      vertex 6.5 -12 1.5
    endloop
  endfacet
  facet normal 0 -1 0
    outer loop
      vertex -11.75 -12 -2.5
      vertex -6.5 -12 1.5
      vertex -11.75 -12 2.5
    endloop
  endfacet
  facet normal 0 -1 0
    outer loop
      vertex 6.5 -12 1.5
      vertex 11.75 -12 2.5
      vertex 6.5 -12 2.5
    endloop
  endfacet
  facet normal 0 -1 0
    outer loop
      vertex 11.75 -12 -2.5
      vertex 6.5 -12 1.5
      vertex -11.75 -12 -2.5
    endloop
  endfacet
  facet normal 0 -1 0
    outer loop
      vertex 6.5 -12 1.5
      vertex 11.75 -12 -2.5
      vertex 11.75 -12 2.5
    endloop
  endfacet
  facet normal 0 0.0980153 -0.995185
    outer loop
      vertex -11.75 -9.25362 1.27502
      vertex 11.75 -9 1.3
      vertex 11.75 -9.25362 1.27502
    endloop
  endfacet
  facet normal 0 0.0980153 -0.995185
    outer loop
      vertex 11.75 -9 1.3
      vertex -11.75 -9.25362 1.27502
      vertex -11.75 -9 1.3
    endloop
  endfacet
  facet normal 0 -0.0980149 0.995185
    outer loop
      vertex -11.75 -8.74638 -1.27502
      vertex 11.75 -9 -1.3
      vertex 11.75 -8.74638 -1.27502
    endloop
  endfacet
  facet normal 0 -0.0980149 0.995185
    outer loop
      vertex 11.75 -9 -1.3
      vertex -11.75 -8.74638 -1.27502
      vertex -11.75 -9 -1.3
    endloop
  endfacet
  facet normal 0 0.995185 0.0980153
    outer loop
      vertex 11.75 -10.275 -0.253617
      vertex -11.75 -10.3 1.26134e-015
      vertex 11.75 -10.3 1.26134e-015
    endloop
  endfacet
  facet normal 0 0.995185 0.0980153
    outer loop
      vertex -11.75 -10.3 1.26134e-015
      vertex 11.75 -10.275 -0.253617
      vertex -11.75 -10.275 -0.253617
    endloop
  endfacet
  facet normal 0 -0.773011 0.634393
    outer loop
      vertex -11.75 -8.08076 -0.919238
      vertex 11.75 -7.91909 -0.72224
      vertex -11.75 -7.91909 -0.72224
    endloop
  endfacet
  facet normal 0 -0.773011 0.634393
    outer loop
      vertex 11.75 -7.91909 -0.72224
      vertex -11.75 -8.08076 -0.919238
      vertex 11.75 -8.08076 -0.919238
    endloop
  endfacet
  facet normal -0 0.634393 0.773011
    outer loop
      vertex -11.75 -9.72224 -1.08091
      vertex 11.75 -9.91924 -0.919238
      vertex 11.75 -9.72224 -1.08091
    endloop
  endfacet
  facet normal 0 0.634393 0.773011
    outer loop
      vertex 11.75 -9.91924 -0.919238
      vertex -11.75 -9.72224 -1.08091
      vertex -11.75 -9.91924 -0.919238
    endloop
  endfacet
  facet normal 0 0.88192 0.471399
    outer loop
      vertex 11.75 -10.0809 -0.72224
      vertex -11.75 -10.201 -0.497488
      vertex 11.75 -10.201 -0.497488
    endloop
  endfacet
  facet normal 0 0.88192 0.471399
    outer loop
      vertex -11.75 -10.201 -0.497488
      vertex 11.75 -10.0809 -0.72224
      vertex -11.75 -10.0809 -0.72224
    endloop
  endfacet
  facet normal 0 -0.471399 0.88192
    outer loop
      vertex -11.75 -8.27776 -1.08091
      vertex 11.75 -8.50251 -1.20104
      vertex 11.75 -8.27776 -1.08091
    endloop
  endfacet
  facet normal 0 -0.471399 0.88192
    outer loop
      vertex 11.75 -8.50251 -1.20104
      vertex -11.75 -8.27776 -1.08091
      vertex -11.75 -8.50251 -1.20104
    endloop
  endfacet
  facet normal 0 0.290285 -0.95694
    outer loop
      vertex -11.75 -9.49749 1.20104
      vertex 11.75 -9.25362 1.27502
      vertex 11.75 -9.49749 1.20104
    endloop
  endfacet
  facet normal 0 0.290285 -0.95694
    outer loop
      vertex 11.75 -9.25362 1.27502
      vertex -11.75 -9.49749 1.20104
      vertex -11.75 -9.25362 1.27502
    endloop
  endfacet
  facet normal 0 0.634393 -0.773011
    outer loop
      vertex -11.75 -9.91924 0.919238
      vertex 11.75 -9.72224 1.08091
      vertex 11.75 -9.91924 0.919238
    endloop
  endfacet
  facet normal 0 0.634393 -0.773011
    outer loop
      vertex 11.75 -9.72224 1.08091
      vertex -11.75 -9.91924 0.919238
      vertex -11.75 -9.72224 1.08091
    endloop
  endfacet
  facet normal 0 0.995185 -0.0980153
    outer loop
      vertex 11.75 -10.3 1.26134e-015
      vertex -11.75 -10.275 0.253617
      vertex 11.75 -10.275 0.253617
    endloop
  endfacet
  facet normal 0 0.995185 -0.0980153
    outer loop
      vertex -11.75 -10.275 0.253617
      vertex 11.75 -10.3 1.26134e-015
      vertex -11.75 -10.3 1.26134e-015
    endloop
  endfacet
  facet normal 0 0.88192 -0.471399
    outer loop
      vertex 11.75 -10.201 0.497488
      vertex -11.75 -10.0809 0.72224
      vertex 11.75 -10.0809 0.72224
    endloop
  endfacet
  facet normal 0 0.88192 -0.471399
    outer loop
      vertex -11.75 -10.0809 0.72224
      vertex 11.75 -10.201 0.497488
      vertex -11.75 -10.201 0.497488
    endloop
  endfacet
  facet normal -0 0.290285 0.95694
    outer loop
      vertex -11.75 -9.25362 -1.27502
      vertex 11.75 -9.49749 -1.20104
      vertex 11.75 -9.25362 -1.27502
    endloop
  endfacet
  facet normal 0 0.290285 0.95694
    outer loop
      vertex 11.75 -9.49749 -1.20104
      vertex -11.75 -9.25362 -1.27502
      vertex -11.75 -9.49749 -1.20104
    endloop
  endfacet
  facet normal -0 0.471399 0.88192
    outer loop
      vertex -11.75 -9.49749 -1.20104
      vertex 11.75 -9.72224 -1.08091
      vertex 11.75 -9.49749 -1.20104
    endloop
  endfacet
  facet normal 0 0.471399 0.88192
    outer loop
      vertex 11.75 -9.72224 -1.08091
      vertex -11.75 -9.49749 -1.20104
      vertex -11.75 -9.72224 -1.08091
    endloop
  endfacet
  facet normal -0 0.0980153 0.995185
    outer loop
      vertex -11.75 -9 -1.3
      vertex 11.75 -9.25362 -1.27502
      vertex 11.75 -9 -1.3
    endloop
  endfacet
  facet normal 0 0.0980153 0.995185
    outer loop
      vertex 11.75 -9.25362 -1.27502
      vertex -11.75 -9 -1.3
      vertex -11.75 -9.25362 -1.27502
    endloop
  endfacet
  facet normal 0 0.773011 0.634393
    outer loop
      vertex 11.75 -9.91924 -0.919238
      vertex -11.75 -10.0809 -0.72224
      vertex 11.75 -10.0809 -0.72224
    endloop
  endfacet
  facet normal 0 0.773011 0.634393
    outer loop
      vertex -11.75 -10.0809 -0.72224
      vertex 11.75 -9.91924 -0.919238
      vertex -11.75 -9.91924 -0.919238
    endloop
  endfacet
  facet normal 0 0.95694 0.290285
    outer loop
      vertex 11.75 -10.201 -0.497488
      vertex -11.75 -10.275 -0.253617
      vertex 11.75 -10.275 -0.253617
    endloop
  endfacet
  facet normal 0 0.95694 0.290285
    outer loop
      vertex -11.75 -10.275 -0.253617
      vertex 11.75 -10.201 -0.497488
      vertex -11.75 -10.201 -0.497488
    endloop
  endfacet
  facet normal 0 -0.95694 -0.290285
    outer loop
      vertex -11.75 -7.72498 0.253617
      vertex 11.75 -7.79896 0.497488
      vertex -11.75 -7.79896 0.497488
    endloop
  endfacet
  facet normal 0 -0.95694 -0.290285
    outer loop
      vertex 11.75 -7.79896 0.497488
      vertex -11.75 -7.72498 0.253617
      vertex 11.75 -7.72498 0.253617
    endloop
  endfacet
  facet normal 0 -0.773011 -0.634393
    outer loop
      vertex -11.75 -7.91909 0.72224
      vertex 11.75 -8.08076 0.919238
      vertex -11.75 -8.08076 0.919238
    endloop
  endfacet
  facet normal 0 -0.773011 -0.634393
    outer loop
      vertex 11.75 -8.08076 0.919238
      vertex -11.75 -7.91909 0.72224
      vertex 11.75 -7.91909 0.72224
    endloop
  endfacet
  facet normal 0 -0.471399 -0.88192
    outer loop
      vertex -11.75 -8.50251 1.20104
      vertex 11.75 -8.27776 1.08091
      vertex 11.75 -8.50251 1.20104
    endloop
  endfacet
  facet normal -0 -0.471399 -0.88192
    outer loop
      vertex 11.75 -8.27776 1.08091
      vertex -11.75 -8.50251 1.20104
      vertex -11.75 -8.27776 1.08091
    endloop
  endfacet
  facet normal 0 -0.0980149 -0.995185
    outer loop
      vertex -11.75 -9 1.3
      vertex 11.75 -8.74638 1.27502
      vertex 11.75 -9 1.3
    endloop
  endfacet
  facet normal -0 -0.0980149 -0.995185
    outer loop
      vertex 11.75 -8.74638 1.27502
      vertex -11.75 -9 1.3
      vertex -11.75 -8.74638 1.27502
    endloop
  endfacet
  facet normal 0 -0.95694 0.290285
    outer loop
      vertex -11.75 -7.79896 -0.497488
      vertex 11.75 -7.72498 -0.253617
      vertex -11.75 -7.72498 -0.253617
    endloop
  endfacet
  facet normal 0 -0.95694 0.290285
    outer loop
      vertex 11.75 -7.72498 -0.253617
      vertex -11.75 -7.79896 -0.497488
      vertex 11.75 -7.79896 -0.497488
    endloop
  endfacet
  facet normal 0 -0.995185 0.0980153
    outer loop
      vertex -11.75 -7.72498 -0.253617
      vertex 11.75 -7.7 9.42947e-016
      vertex -11.75 -7.7 9.42947e-016
    endloop
  endfacet
  facet normal 0 -0.995185 0.0980153
    outer loop
      vertex 11.75 -7.7 9.42947e-016
      vertex -11.75 -7.72498 -0.253617
      vertex 11.75 -7.72498 -0.253617
    endloop
  endfacet
  facet normal 0 -0.634393 0.773011
    outer loop
      vertex -11.75 -8.08076 -0.919238
      vertex 11.75 -8.27776 -1.08091
      vertex 11.75 -8.08076 -0.919238
    endloop
  endfacet
  facet normal 0 -0.634393 0.773011
    outer loop
      vertex 11.75 -8.27776 -1.08091
      vertex -11.75 -8.08076 -0.919238
      vertex -11.75 -8.27776 -1.08091
    endloop
  endfacet
  facet normal 0 -0.290285 0.95694
    outer loop
      vertex -11.75 -8.50251 -1.20104
      vertex 11.75 -8.74638 -1.27502
      vertex 11.75 -8.50251 -1.20104
    endloop
  endfacet
  facet normal 0 -0.290285 0.95694
    outer loop
      vertex 11.75 -8.74638 -1.27502
      vertex -11.75 -8.50251 -1.20104
      vertex -11.75 -8.74638 -1.27502
    endloop
  endfacet
  facet normal 0 0.471399 -0.88192
    outer loop
      vertex -11.75 -9.72224 1.08091
      vertex 11.75 -9.49749 1.20104
      vertex 11.75 -9.72224 1.08091
    endloop
  endfacet
  facet normal 0 0.471399 -0.88192
    outer loop
      vertex 11.75 -9.49749 1.20104
      vertex -11.75 -9.72224 1.08091
      vertex -11.75 -9.49749 1.20104
    endloop
  endfacet
  facet normal 0 0.773011 -0.634393
    outer loop
      vertex 11.75 -10.0809 0.72224
      vertex -11.75 -9.91924 0.919238
      vertex 11.75 -9.91924 0.919238
    endloop
  endfacet
  facet normal 0 0.773011 -0.634393
    outer loop
      vertex -11.75 -9.91924 0.919238
      vertex 11.75 -10.0809 0.72224
      vertex -11.75 -10.0809 0.72224
    endloop
  endfacet
  facet normal 0 0.95694 -0.290285
    outer loop
      vertex 11.75 -10.275 0.253617
      vertex -11.75 -10.201 0.497488
      vertex 11.75 -10.201 0.497488
    endloop
  endfacet
  facet normal 0 0.95694 -0.290285
    outer loop
      vertex -11.75 -10.201 0.497488
      vertex 11.75 -10.275 0.253617
      vertex -11.75 -10.275 0.253617
    endloop
  endfacet
  facet normal 0 -0.88192 -0.471399
    outer loop
      vertex -11.75 -7.79896 0.497488
      vertex 11.75 -7.91909 0.72224
      vertex -11.75 -7.91909 0.72224
    endloop
  endfacet
  facet normal 0 -0.88192 -0.471399
    outer loop
      vertex 11.75 -7.91909 0.72224
      vertex -11.75 -7.79896 0.497488
      vertex 11.75 -7.79896 0.497488
    endloop
  endfacet
  facet normal 0 -0.634393 -0.773011
    outer loop
      vertex -11.75 -8.27776 1.08091
      vertex 11.75 -8.08076 0.919238
      vertex 11.75 -8.27776 1.08091
    endloop
  endfacet
  facet normal -0 -0.634393 -0.773011
    outer loop
      vertex 11.75 -8.08076 0.919238
      vertex -11.75 -8.27776 1.08091
      vertex -11.75 -8.08076 0.919238
    endloop
  endfacet
  facet normal 0 -0.290285 -0.95694
    outer loop
      vertex -11.75 -8.74638 1.27502
      vertex 11.75 -8.50251 1.20104
      vertex 11.75 -8.74638 1.27502
    endloop
  endfacet
  facet normal -0 -0.290285 -0.95694
    outer loop
      vertex 11.75 -8.50251 1.20104
      vertex -11.75 -8.74638 1.27502
      vertex -11.75 -8.50251 1.20104
    endloop
  endfacet
  facet normal 0 -0.88192 0.471399
    outer loop
      vertex -11.75 -7.91909 -0.72224
      vertex 11.75 -7.79896 -0.497488
      vertex -11.75 -7.79896 -0.497488
    endloop
  endfacet
  facet normal 0 -0.88192 0.471399
    outer loop
      vertex 11.75 -7.79896 -0.497488
      vertex -11.75 -7.91909 -0.72224
      vertex 11.75 -7.91909 -0.72224
    endloop
  endfacet
  facet normal 0 -0.995185 -0.0980153
    outer loop
      vertex -11.75 -7.7 9.42947e-016
      vertex 11.75 -7.72498 0.253617
      vertex -11.75 -7.72498 0.253617
    endloop
  endfacet
  facet normal 0 -0.995185 -0.0980153
    outer loop
      vertex 11.75 -7.72498 0.253617
      vertex -11.75 -7.7 9.42947e-016
      vertex 11.75 -7.7 9.42947e-016
    endloop
  endfacet
  facet normal 0 0.0980149 -0.995185
    outer loop
      vertex -11.75 3.74638 1.27502
      vertex 11.75 4 1.3
      vertex 11.75 3.74638 1.27502
    endloop
  endfacet
  facet normal 0 0.0980149 -0.995185
    outer loop
      vertex 11.75 4 1.3
      vertex -11.75 3.74638 1.27502
      vertex -11.75 4 1.3
    endloop
  endfacet
  facet normal -0 0.0980149 0.995185
    outer loop
      vertex -11.75 4 -1.3
      vertex 11.75 3.74638 -1.27502
      vertex 11.75 4 -1.3
    endloop
  endfacet
  facet normal 0 0.0980149 0.995185
    outer loop
      vertex 11.75 3.74638 -1.27502
      vertex -11.75 4 -1.3
      vertex -11.75 3.74638 -1.27502
    endloop
  endfacet
  facet normal 0 0.995185 0.0980153
    outer loop
      vertex 11.75 2.72498 -0.253617
      vertex -11.75 2.7 -3.30644e-016
      vertex 11.75 2.7 -3.30644e-016
    endloop
  endfacet
  facet normal 0 0.995185 0.0980153
    outer loop
      vertex -11.75 2.7 -3.30644e-016
      vertex 11.75 2.72498 -0.253617
      vertex -11.75 2.72498 -0.253617
    endloop
  endfacet
  facet normal 0 -0.995185 -0.0980153
    outer loop
      vertex -11.75 5.3 -6.49041e-016
      vertex 11.75 5.27502 0.253617
      vertex -11.75 5.27502 0.253617
    endloop
  endfacet
  facet normal 0 -0.995185 -0.0980153
    outer loop
      vertex 11.75 5.27502 0.253617
      vertex -11.75 5.3 -6.49041e-016
      vertex 11.75 5.3 -6.49041e-016
    endloop
  endfacet
  facet normal -0 0.634393 0.773011
    outer loop
      vertex -11.75 3.27776 -1.08091
      vertex 11.75 3.08076 -0.919238
      vertex 11.75 3.27776 -1.08091
    endloop
  endfacet
  facet normal 0 0.634393 0.773011
    outer loop
      vertex 11.75 3.08076 -0.919238
      vertex -11.75 3.27776 -1.08091
      vertex -11.75 3.08076 -0.919238
    endloop
  endfacet
  facet normal 0 0.88192 0.471399
    outer loop
      vertex 11.75 2.91909 -0.72224
      vertex -11.75 2.79896 -0.497488
      vertex 11.75 2.79896 -0.497488
    endloop
  endfacet
  facet normal 0 0.88192 0.471399
    outer loop
      vertex -11.75 2.79896 -0.497488
      vertex 11.75 2.91909 -0.72224
      vertex -11.75 2.91909 -0.72224
    endloop
  endfacet
  facet normal 0 -0.471399 -0.88192
    outer loop
      vertex -11.75 4.49749 1.20104
      vertex 11.75 4.72224 1.08091
      vertex 11.75 4.49749 1.20104
    endloop
  endfacet
  facet normal -0 -0.471399 -0.88192
    outer loop
      vertex 11.75 4.72224 1.08091
      vertex -11.75 4.49749 1.20104
      vertex -11.75 4.72224 1.08091
    endloop
  endfacet
  facet normal 0 0.290285 -0.95694
    outer loop
      vertex -11.75 3.50251 1.20104
      vertex 11.75 3.74638 1.27502
      vertex 11.75 3.50251 1.20104
    endloop
  endfacet
  facet normal 0 0.290285 -0.95694
    outer loop
      vertex 11.75 3.74638 1.27502
      vertex -11.75 3.50251 1.20104
      vertex -11.75 3.74638 1.27502
    endloop
  endfacet
  facet normal 0 0.634393 -0.773011
    outer loop
      vertex -11.75 3.08076 0.919238
      vertex 11.75 3.27776 1.08091
      vertex 11.75 3.08076 0.919238
    endloop
  endfacet
  facet normal 0 0.634393 -0.773011
    outer loop
      vertex 11.75 3.27776 1.08091
      vertex -11.75 3.08076 0.919238
      vertex -11.75 3.27776 1.08091
    endloop
  endfacet
  facet normal 0 0.995185 -0.0980153
    outer loop
      vertex 11.75 2.7 -3.30644e-016
      vertex -11.75 2.72498 0.253617
      vertex 11.75 2.72498 0.253617
    endloop
  endfacet
  facet normal 0 0.995185 -0.0980153
    outer loop
      vertex -11.75 2.72498 0.253617
      vertex 11.75 2.7 -3.30644e-016
      vertex -11.75 2.7 -3.30644e-016
    endloop
  endfacet
  facet normal 0 0.88192 -0.471399
    outer loop
      vertex 11.75 2.79896 0.497488
      vertex -11.75 2.91909 0.72224
      vertex 11.75 2.91909 0.72224
    endloop
  endfacet
  facet normal 0 0.88192 -0.471399
    outer loop
      vertex -11.75 2.91909 0.72224
      vertex 11.75 2.79896 0.497488
      vertex -11.75 2.79896 0.497488
    endloop
  endfacet
  facet normal -0 0.471399 0.88192
    outer loop
      vertex -11.75 3.50251 -1.20104
      vertex 11.75 3.27776 -1.08091
      vertex 11.75 3.50251 -1.20104
    endloop
  endfacet
  facet normal 0 0.471399 0.88192
    outer loop
      vertex 11.75 3.27776 -1.08091
      vertex -11.75 3.50251 -1.20104
      vertex -11.75 3.27776 -1.08091
    endloop
  endfacet
  facet normal -0 0.290285 0.95694
    outer loop
      vertex -11.75 3.74638 -1.27502
      vertex 11.75 3.50251 -1.20104
      vertex 11.75 3.74638 -1.27502
    endloop
  endfacet
  facet normal 0 0.290285 0.95694
    outer loop
      vertex 11.75 3.50251 -1.20104
      vertex -11.75 3.74638 -1.27502
      vertex -11.75 3.50251 -1.20104
    endloop
  endfacet
  facet normal 0 0.773011 0.634393
    outer loop
      vertex 11.75 3.08076 -0.919238
      vertex -11.75 2.91909 -0.72224
      vertex 11.75 2.91909 -0.72224
    endloop
  endfacet
  facet normal 0 0.773011 0.634393
    outer loop
      vertex -11.75 2.91909 -0.72224
      vertex 11.75 3.08076 -0.919238
      vertex -11.75 3.08076 -0.919238
    endloop
  endfacet
  facet normal 0 0.95694 0.290285
    outer loop
      vertex 11.75 2.79896 -0.497488
      vertex -11.75 2.72498 -0.253617
      vertex 11.75 2.72498 -0.253617
    endloop
  endfacet
  facet normal 0 0.95694 0.290285
    outer loop
      vertex -11.75 2.72498 -0.253617
      vertex 11.75 2.79896 -0.497488
      vertex -11.75 2.79896 -0.497488
    endloop
  endfacet
  facet normal 0 -0.0980153 -0.995185
    outer loop
      vertex -11.75 4 1.3
      vertex 11.75 4.25362 1.27502
      vertex 11.75 4 1.3
    endloop
  endfacet
  facet normal -0 -0.0980153 -0.995185
    outer loop
      vertex 11.75 4.25362 1.27502
      vertex -11.75 4 1.3
      vertex -11.75 4.25362 1.27502
    endloop
  endfacet
  facet normal 0 0.471399 -0.88192
    outer loop
      vertex -11.75 3.27776 1.08091
      vertex 11.75 3.50251 1.20104
      vertex 11.75 3.27776 1.08091
    endloop
  endfacet
  facet normal 0 0.471399 -0.88192
    outer loop
      vertex 11.75 3.50251 1.20104
      vertex -11.75 3.27776 1.08091
      vertex -11.75 3.50251 1.20104
    endloop
  endfacet
  facet normal 0 0.773011 -0.634393
    outer loop
      vertex 11.75 2.91909 0.72224
      vertex -11.75 3.08076 0.919238
      vertex 11.75 3.08076 0.919238
    endloop
  endfacet
  facet normal 0 0.773011 -0.634393
    outer loop
      vertex -11.75 3.08076 0.919238
      vertex 11.75 2.91909 0.72224
      vertex -11.75 2.91909 0.72224
    endloop
  endfacet
  facet normal 0 0.95694 -0.290285
    outer loop
      vertex 11.75 2.72498 0.253617
      vertex -11.75 2.79896 0.497488
      vertex 11.75 2.79896 0.497488
    endloop
  endfacet
  facet normal 0 0.95694 -0.290285
    outer loop
      vertex -11.75 2.79896 0.497488
      vertex 11.75 2.72498 0.253617
      vertex -11.75 2.72498 0.253617
    endloop
  endfacet
  facet normal 0 -0.773011 -0.634393
    outer loop
      vertex -11.75 5.08091 0.72224
      vertex 11.75 4.91924 0.919238
      vertex -11.75 4.91924 0.919238
    endloop
  endfacet
  facet normal 0 -0.773011 -0.634393
    outer loop
      vertex 11.75 4.91924 0.919238
      vertex -11.75 5.08091 0.72224
      vertex 11.75 5.08091 0.72224
    endloop
  endfacet
  facet normal 0 -0.634393 -0.773011
    outer loop
      vertex -11.75 4.72224 1.08091
      vertex 11.75 4.91924 0.919238
      vertex 11.75 4.72224 1.08091
    endloop
  endfacet
  facet normal -0 -0.634393 -0.773011
    outer loop
      vertex 11.75 4.91924 0.919238
      vertex -11.75 4.72224 1.08091
      vertex -11.75 4.91924 0.919238
    endloop
  endfacet
  facet normal 0 -0.290285 -0.95694
    outer loop
      vertex -11.75 4.25362 1.27502
      vertex 11.75 4.49749 1.20104
      vertex 11.75 4.25362 1.27502
    endloop
  endfacet
  facet normal -0 -0.290285 -0.95694
    outer loop
      vertex 11.75 4.49749 1.20104
      vertex -11.75 4.25362 1.27502
      vertex -11.75 4.49749 1.20104
    endloop
  endfacet
  facet normal 0 -0.773011 0.634393
    outer loop
      vertex -11.75 4.91924 -0.919238
      vertex 11.75 5.08091 -0.72224
      vertex -11.75 5.08091 -0.72224
    endloop
  endfacet
  facet normal 0 -0.773011 0.634393
    outer loop
      vertex 11.75 5.08091 -0.72224
      vertex -11.75 4.91924 -0.919238
      vertex 11.75 4.91924 -0.919238
    endloop
  endfacet
  facet normal 0 -0.634393 0.773011
    outer loop
      vertex -11.75 4.91924 -0.919238
      vertex 11.75 4.72224 -1.08091
      vertex 11.75 4.91924 -0.919238
    endloop
  endfacet
  facet normal 0 -0.634393 0.773011
    outer loop
      vertex 11.75 4.72224 -1.08091
      vertex -11.75 4.91924 -0.919238
      vertex -11.75 4.72224 -1.08091
    endloop
  endfacet
  facet normal 0 -0.95694 -0.290285
    outer loop
      vertex -11.75 5.27502 0.253617
      vertex 11.75 5.20104 0.497488
      vertex -11.75 5.20104 0.497488
    endloop
  endfacet
  facet normal 0 -0.95694 -0.290285
    outer loop
      vertex 11.75 5.20104 0.497488
      vertex -11.75 5.27502 0.253617
      vertex 11.75 5.27502 0.253617
    endloop
  endfacet
  facet normal 0 -0.95694 0.290285
    outer loop
      vertex -11.75 5.20104 -0.497488
      vertex 11.75 5.27502 -0.253617
      vertex -11.75 5.27502 -0.253617
    endloop
  endfacet
  facet normal 0 -0.95694 0.290285
    outer loop
      vertex 11.75 5.27502 -0.253617
      vertex -11.75 5.20104 -0.497488
      vertex 11.75 5.20104 -0.497488
    endloop
  endfacet
  facet normal 0 -0.88192 0.471399
    outer loop
      vertex -11.75 5.08091 -0.72224
      vertex 11.75 5.20104 -0.497488
      vertex -11.75 5.20104 -0.497488
    endloop
  endfacet
  facet normal 0 -0.88192 0.471399
    outer loop
      vertex 11.75 5.20104 -0.497488
      vertex -11.75 5.08091 -0.72224
      vertex 11.75 5.08091 -0.72224
    endloop
  endfacet
  facet normal 0 -0.471399 0.88192
    outer loop
      vertex -11.75 4.72224 -1.08091
      vertex 11.75 4.49749 -1.20104
      vertex 11.75 4.72224 -1.08091
    endloop
  endfacet
  facet normal 0 -0.471399 0.88192
    outer loop
      vertex 11.75 4.49749 -1.20104
      vertex -11.75 4.72224 -1.08091
      vertex -11.75 4.49749 -1.20104
    endloop
  endfacet
  facet normal 0 -0.290285 0.95694
    outer loop
      vertex -11.75 4.49749 -1.20104
      vertex 11.75 4.25362 -1.27502
      vertex 11.75 4.49749 -1.20104
    endloop
  endfacet
  facet normal 0 -0.290285 0.95694
    outer loop
      vertex 11.75 4.25362 -1.27502
      vertex -11.75 4.49749 -1.20104
      vertex -11.75 4.25362 -1.27502
    endloop
  endfacet
  facet normal 0 -0.0980153 0.995185
    outer loop
      vertex -11.75 4.25362 -1.27502
      vertex 11.75 4 -1.3
      vertex 11.75 4.25362 -1.27502
    endloop
  endfacet
  facet normal 0 -0.0980153 0.995185
    outer loop
      vertex 11.75 4 -1.3
      vertex -11.75 4.25362 -1.27502
      vertex -11.75 4 -1.3
    endloop
  endfacet
  facet normal 0 -0.88192 -0.471399
    outer loop
      vertex -11.75 5.20104 0.497488
      vertex 11.75 5.08091 0.72224
      vertex -11.75 5.08091 0.72224
    endloop
  endfacet
  facet normal 0 -0.88192 -0.471399
    outer loop
      vertex 11.75 5.08091 0.72224
      vertex -11.75 5.20104 0.497488
      vertex 11.75 5.20104 0.497488
    endloop
  endfacet
  facet normal 0 -0.995185 0.0980153
    outer loop
      vertex -11.75 5.27502 -0.253617
      vertex 11.75 5.3 -6.49041e-016
      vertex -11.75 5.3 -6.49041e-016
    endloop
  endfacet
  facet normal 0 -0.995185 0.0980153
    outer loop
      vertex 11.75 5.3 -6.49041e-016
      vertex -11.75 5.27502 -0.253617
      vertex 11.75 5.27502 -0.253617
    endloop
  endfacet
  facet normal -0.995185 0.0980153 0
    outer loop
      vertex 10.025 -2.75362 -2.5
      vertex 10.05 -2.5 2.5
      vertex 10.05 -2.5 -2.5
    endloop
  endfacet
  facet normal -0.995185 0.0980153 0
    outer loop
      vertex 10.05 -2.5 2.5
      vertex 10.025 -2.75362 -2.5
      vertex 10.025 -2.75362 2.5
    endloop
  endfacet
  facet normal 0.0980149 0.995185 -0
    outer loop
      vertex 8.75 -3.8 -2.5
      vertex 8.49638 -3.77502 2.5
      vertex 8.75 -3.8 2.5
    endloop
  endfacet
  facet normal 0.0980149 0.995185 0
    outer loop
      vertex 8.49638 -3.77502 2.5
      vertex 8.75 -3.8 -2.5
      vertex 8.49638 -3.77502 -2.5
    endloop
  endfacet
  facet normal -0.0980153 -0.995185 0
    outer loop
      vertex 8.75 -1.2 -2.5
      vertex 9.00362 -1.22498 2.5
      vertex 8.75 -1.2 2.5
    endloop
  endfacet
  facet normal -0.0980153 -0.995185 -0
    outer loop
      vertex 9.00362 -1.22498 2.5
      vertex 8.75 -1.2 -2.5
      vertex 9.00362 -1.22498 -2.5
    endloop
  endfacet
  facet normal -0.634393 0.773011 0
    outer loop
      vertex 9.66924 -3.41924 -2.5
      vertex 9.47224 -3.58091 2.5
      vertex 9.66924 -3.41924 2.5
    endloop
  endfacet
  facet normal -0.634393 0.773011 0
    outer loop
      vertex 9.47224 -3.58091 2.5
      vertex 9.66924 -3.41924 -2.5
      vertex 9.47224 -3.58091 -2.5
    endloop
  endfacet
  facet normal 0.773011 0.634393 0
    outer loop
      vertex 7.83076 -3.41924 2.5
      vertex 7.66909 -3.22224 -2.5
      vertex 7.66909 -3.22224 2.5
    endloop
  endfacet
  facet normal 0.773011 0.634393 0
    outer loop
      vertex 7.66909 -3.22224 -2.5
      vertex 7.83076 -3.41924 2.5
      vertex 7.83076 -3.41924 -2.5
    endloop
  endfacet
  facet normal 0.471399 0.88192 -0
    outer loop
      vertex 8.25251 -3.70104 -2.5
      vertex 8.02776 -3.58091 2.5
      vertex 8.25251 -3.70104 2.5
    endloop
  endfacet
  facet normal 0.471399 0.88192 0
    outer loop
      vertex 8.02776 -3.58091 2.5
      vertex 8.25251 -3.70104 -2.5
      vertex 8.02776 -3.58091 -2.5
    endloop
  endfacet
  facet normal -0.88192 0.471399 0
    outer loop
      vertex 9.83091 -3.22224 -2.5
      vertex 9.95104 -2.99749 2.5
      vertex 9.95104 -2.99749 -2.5
    endloop
  endfacet
  facet normal -0.88192 0.471399 0
    outer loop
      vertex 9.95104 -2.99749 2.5
      vertex 9.83091 -3.22224 -2.5
      vertex 9.83091 -3.22224 2.5
    endloop
  endfacet
  facet normal -0.95694 0.290285 0
    outer loop
      vertex 9.95104 -2.99749 -2.5
      vertex 10.025 -2.75362 2.5
      vertex 10.025 -2.75362 -2.5
    endloop
  endfacet
  facet normal -0.95694 0.290285 0
    outer loop
      vertex 10.025 -2.75362 2.5
      vertex 9.95104 -2.99749 -2.5
      vertex 9.95104 -2.99749 2.5
    endloop
  endfacet
  facet normal -0.773011 0.634393 0
    outer loop
      vertex 9.66924 -3.41924 -2.5
      vertex 9.83091 -3.22224 2.5
      vertex 9.83091 -3.22224 -2.5
    endloop
  endfacet
  facet normal -0.773011 0.634393 0
    outer loop
      vertex 9.83091 -3.22224 2.5
      vertex 9.66924 -3.41924 -2.5
      vertex 9.66924 -3.41924 2.5
    endloop
  endfacet
  facet normal -0.290285 0.95694 0
    outer loop
      vertex 9.24749 -3.70104 -2.5
      vertex 9.00362 -3.77502 2.5
      vertex 9.24749 -3.70104 2.5
    endloop
  endfacet
  facet normal -0.290285 0.95694 0
    outer loop
      vertex 9.00362 -3.77502 2.5
      vertex 9.24749 -3.70104 -2.5
      vertex 9.00362 -3.77502 -2.5
    endloop
  endfacet
  facet normal -0.0980153 0.995185 0
    outer loop
      vertex 9.00362 -3.77502 -2.5
      vertex 8.75 -3.8 2.5
      vertex 9.00362 -3.77502 2.5
    endloop
  endfacet
  facet normal -0.0980153 0.995185 0
    outer loop
      vertex 8.75 -3.8 2.5
      vertex 9.00362 -3.77502 -2.5
      vertex 8.75 -3.8 -2.5
    endloop
  endfacet
  facet normal -0.471399 0.88192 0
    outer loop
      vertex 9.47224 -3.58091 -2.5
      vertex 9.24749 -3.70104 2.5
      vertex 9.47224 -3.58091 2.5
    endloop
  endfacet
  facet normal -0.471399 0.88192 0
    outer loop
      vertex 9.24749 -3.70104 2.5
      vertex 9.47224 -3.58091 -2.5
      vertex 9.24749 -3.70104 -2.5
    endloop
  endfacet
  facet normal 0.95694 0.290285 0
    outer loop
      vertex 7.54896 -2.99749 2.5
      vertex 7.47498 -2.75362 -2.5
      vertex 7.47498 -2.75362 2.5
    endloop
  endfacet
  facet normal 0.95694 0.290285 0
    outer loop
      vertex 7.47498 -2.75362 -2.5
      vertex 7.54896 -2.99749 2.5
      vertex 7.54896 -2.99749 -2.5
    endloop
  endfacet
  facet normal 0.88192 0.471399 0
    outer loop
      vertex 7.66909 -3.22224 2.5
      vertex 7.54896 -2.99749 -2.5
      vertex 7.54896 -2.99749 2.5
    endloop
  endfacet
  facet normal 0.88192 0.471399 0
    outer loop
      vertex 7.54896 -2.99749 -2.5
      vertex 7.66909 -3.22224 2.5
      vertex 7.66909 -3.22224 -2.5
    endloop
  endfacet
  facet normal 0.995185 0.0980153 0
    outer loop
      vertex 7.47498 -2.75362 2.5
      vertex 7.45 -2.5 -2.5
      vertex 7.45 -2.5 2.5
    endloop
  endfacet
  facet normal 0.995185 0.0980153 0
    outer loop
      vertex 7.45 -2.5 -2.5
      vertex 7.47498 -2.75362 2.5
      vertex 7.47498 -2.75362 -2.5
    endloop
  endfacet
  facet normal 0.634393 0.773011 -0
    outer loop
      vertex 8.02776 -3.58091 -2.5
      vertex 7.83076 -3.41924 2.5
      vertex 8.02776 -3.58091 2.5
    endloop
  endfacet
  facet normal 0.634393 0.773011 0
    outer loop
      vertex 7.83076 -3.41924 2.5
      vertex 8.02776 -3.58091 -2.5
      vertex 7.83076 -3.41924 -2.5
    endloop
  endfacet
  facet normal 0.290285 0.95694 -0
    outer loop
      vertex 8.49638 -3.77502 -2.5
      vertex 8.25251 -3.70104 2.5
      vertex 8.49638 -3.77502 2.5
    endloop
  endfacet
  facet normal 0.290285 0.95694 0
    outer loop
      vertex 8.25251 -3.70104 2.5
      vertex 8.49638 -3.77502 -2.5
      vertex 8.25251 -3.70104 -2.5
    endloop
  endfacet
  facet normal -0.290285 -0.95694 0
    outer loop
      vertex 9.00362 -1.22498 -2.5
      vertex 9.24749 -1.29896 2.5
      vertex 9.00362 -1.22498 2.5
    endloop
  endfacet
  facet normal -0.290285 -0.95694 -0
    outer loop
      vertex 9.24749 -1.29896 2.5
      vertex 9.00362 -1.22498 -2.5
      vertex 9.24749 -1.29896 -2.5
    endloop
  endfacet
  facet normal -0.634393 -0.773011 0
    outer loop
      vertex 9.47224 -1.41909 -2.5
      vertex 9.66924 -1.58076 2.5
      vertex 9.47224 -1.41909 2.5
    endloop
  endfacet
  facet normal -0.634393 -0.773011 -0
    outer loop
      vertex 9.66924 -1.58076 2.5
      vertex 9.47224 -1.41909 -2.5
      vertex 9.66924 -1.58076 -2.5
    endloop
  endfacet
  facet normal -0.88192 -0.471399 0
    outer loop
      vertex 9.95104 -2.00251 -2.5
      vertex 9.83091 -1.77776 2.5
      vertex 9.83091 -1.77776 -2.5
    endloop
  endfacet
  facet normal -0.88192 -0.471399 0
    outer loop
      vertex 9.83091 -1.77776 2.5
      vertex 9.95104 -2.00251 -2.5
      vertex 9.95104 -2.00251 2.5
    endloop
  endfacet
  facet normal -0.995185 -0.0980149 0
    outer loop
      vertex 10.05 -2.5 -2.5
      vertex 10.025 -2.24638 2.5
      vertex 10.025 -2.24638 -2.5
    endloop
  endfacet
  facet normal -0.995185 -0.0980149 0
    outer loop
      vertex 10.025 -2.24638 2.5
      vertex 10.05 -2.5 -2.5
      vertex 10.05 -2.5 2.5
    endloop
  endfacet
  facet normal 0.290285 -0.95694 0
    outer loop
      vertex 8.25251 -1.29896 -2.5
      vertex 8.49638 -1.22498 2.5
      vertex 8.25251 -1.29896 2.5
    endloop
  endfacet
  facet normal 0.290285 -0.95694 0
    outer loop
      vertex 8.49638 -1.22498 2.5
      vertex 8.25251 -1.29896 -2.5
      vertex 8.49638 -1.22498 -2.5
    endloop
  endfacet
  facet normal 0.471399 -0.88192 0
    outer loop
      vertex 8.02776 -1.41909 -2.5
      vertex 8.25251 -1.29896 2.5
      vertex 8.02776 -1.41909 2.5
    endloop
  endfacet
  facet normal 0.471399 -0.88192 0
    outer loop
      vertex 8.25251 -1.29896 2.5
      vertex 8.02776 -1.41909 -2.5
      vertex 8.25251 -1.29896 -2.5
    endloop
  endfacet
  facet normal 0.0980149 -0.995185 0
    outer loop
      vertex 8.49638 -1.22498 -2.5
      vertex 8.75 -1.2 2.5
      vertex 8.49638 -1.22498 2.5
    endloop
  endfacet
  facet normal 0.0980149 -0.995185 0
    outer loop
      vertex 8.75 -1.2 2.5
      vertex 8.49638 -1.22498 -2.5
      vertex 8.75 -1.2 -2.5
    endloop
  endfacet
  facet normal 0.773011 -0.634393 0
    outer loop
      vertex 7.66909 -1.77776 2.5
      vertex 7.83076 -1.58076 -2.5
      vertex 7.83076 -1.58076 2.5
    endloop
  endfacet
  facet normal 0.773011 -0.634393 0
    outer loop
      vertex 7.83076 -1.58076 -2.5
      vertex 7.66909 -1.77776 2.5
      vertex 7.66909 -1.77776 -2.5
    endloop
  endfacet
  facet normal 0.634393 -0.773011 0
    outer loop
      vertex 7.83076 -1.58076 -2.5
      vertex 8.02776 -1.41909 2.5
      vertex 7.83076 -1.58076 2.5
    endloop
  endfacet
  facet normal 0.634393 -0.773011 0
    outer loop
      vertex 8.02776 -1.41909 2.5
      vertex 7.83076 -1.58076 -2.5
      vertex 8.02776 -1.41909 -2.5
    endloop
  endfacet
  facet normal 0.95694 -0.290285 0
    outer loop
      vertex 7.47498 -2.24638 2.5
      vertex 7.54896 -2.00251 -2.5
      vertex 7.54896 -2.00251 2.5
    endloop
  endfacet
  facet normal 0.95694 -0.290285 0
    outer loop
      vertex 7.54896 -2.00251 -2.5
      vertex 7.47498 -2.24638 2.5
      vertex 7.47498 -2.24638 -2.5
    endloop
  endfacet
  facet normal 0.995185 -0.0980149 0
    outer loop
      vertex 7.45 -2.5 2.5
      vertex 7.47498 -2.24638 -2.5
      vertex 7.47498 -2.24638 2.5
    endloop
  endfacet
  facet normal 0.995185 -0.0980149 0
    outer loop
      vertex 7.47498 -2.24638 -2.5
      vertex 7.45 -2.5 2.5
      vertex 7.45 -2.5 -2.5
    endloop
  endfacet
  facet normal -0.471399 -0.88192 0
    outer loop
      vertex 9.24749 -1.29896 -2.5
      vertex 9.47224 -1.41909 2.5
      vertex 9.24749 -1.29896 2.5
    endloop
  endfacet
  facet normal -0.471399 -0.88192 -0
    outer loop
      vertex 9.47224 -1.41909 2.5
      vertex 9.24749 -1.29896 -2.5
      vertex 9.47224 -1.41909 -2.5
    endloop
  endfacet
  facet normal -0.773011 -0.634393 0
    outer loop
      vertex 9.83091 -1.77776 -2.5
      vertex 9.66924 -1.58076 2.5
      vertex 9.66924 -1.58076 -2.5
    endloop
  endfacet
  facet normal -0.773011 -0.634393 0
    outer loop
      vertex 9.66924 -1.58076 2.5
      vertex 9.83091 -1.77776 -2.5
      vertex 9.83091 -1.77776 2.5
    endloop
  endfacet
  facet normal -0.95694 -0.290285 0
    outer loop
      vertex 10.025 -2.24638 -2.5
      vertex 9.95104 -2.00251 2.5
      vertex 9.95104 -2.00251 -2.5
    endloop
  endfacet
  facet normal -0.95694 -0.290285 0
    outer loop
      vertex 9.95104 -2.00251 2.5
      vertex 10.025 -2.24638 -2.5
      vertex 10.025 -2.24638 2.5
    endloop
  endfacet
  facet normal 0.88192 -0.471399 0
    outer loop
      vertex 7.54896 -2.00251 2.5
      vertex 7.66909 -1.77776 -2.5
      vertex 7.66909 -1.77776 2.5
    endloop
  endfacet
  facet normal 0.88192 -0.471399 0
    outer loop
      vertex 7.66909 -1.77776 -2.5
      vertex 7.54896 -2.00251 2.5
      vertex 7.54896 -2.00251 -2.5
    endloop
  endfacet
  facet normal -0.995185 0.0980153 0
    outer loop
      vertex -7.47498 -2.75362 -2.5
      vertex -7.45 -2.5 2.5
      vertex -7.45 -2.5 -2.5
    endloop
  endfacet
  facet normal -0.995185 0.0980153 0
    outer loop
      vertex -7.45 -2.5 2.5
      vertex -7.47498 -2.75362 -2.5
      vertex -7.47498 -2.75362 2.5
    endloop
  endfacet
  facet normal 0.0980153 0.995185 -0
    outer loop
      vertex -8.75 -3.8 -2.5
      vertex -9.00362 -3.77502 2.5
      vertex -8.75 -3.8 2.5
    endloop
  endfacet
  facet normal 0.0980153 0.995185 0
    outer loop
      vertex -9.00362 -3.77502 2.5
      vertex -8.75 -3.8 -2.5
      vertex -9.00362 -3.77502 -2.5
    endloop
  endfacet
  facet normal 0.634393 -0.773011 0
    outer loop
      vertex -9.66924 -1.58076 -2.5
      vertex -9.47224 -1.41909 2.5
      vertex -9.66924 -1.58076 2.5
    endloop
  endfacet
  facet normal 0.634393 -0.773011 0
    outer loop
      vertex -9.47224 -1.41909 2.5
      vertex -9.66924 -1.58076 -2.5
      vertex -9.47224 -1.41909 -2.5
    endloop
  endfacet
  facet normal -0.634393 0.773011 0
    outer loop
      vertex -7.83076 -3.41924 -2.5
      vertex -8.02776 -3.58091 2.5
      vertex -7.83076 -3.41924 2.5
    endloop
  endfacet
  facet normal -0.634393 0.773011 0
    outer loop
      vertex -8.02776 -3.58091 2.5
      vertex -7.83076 -3.41924 -2.5
      vertex -8.02776 -3.58091 -2.5
    endloop
  endfacet
  facet normal 0.773011 0.634393 0
    outer loop
      vertex -9.66924 -3.41924 2.5
      vertex -9.83091 -3.22224 -2.5
      vertex -9.83091 -3.22224 2.5
    endloop
  endfacet
  facet normal 0.773011 0.634393 0
    outer loop
      vertex -9.83091 -3.22224 -2.5
      vertex -9.66924 -3.41924 2.5
      vertex -9.66924 -3.41924 -2.5
    endloop
  endfacet
  facet normal 0.471399 0.88192 -0
    outer loop
      vertex -9.24749 -3.70104 -2.5
      vertex -9.47224 -3.58091 2.5
      vertex -9.24749 -3.70104 2.5
    endloop
  endfacet
  facet normal 0.471399 0.88192 0
    outer loop
      vertex -9.47224 -3.58091 2.5
      vertex -9.24749 -3.70104 -2.5
      vertex -9.47224 -3.58091 -2.5
    endloop
  endfacet
  facet normal -0.88192 0.471399 0
    outer loop
      vertex -7.66909 -3.22224 -2.5
      vertex -7.54896 -2.99749 2.5
      vertex -7.54896 -2.99749 -2.5
    endloop
  endfacet
  facet normal -0.88192 0.471399 0
    outer loop
      vertex -7.54896 -2.99749 2.5
      vertex -7.66909 -3.22224 -2.5
      vertex -7.66909 -3.22224 2.5
    endloop
  endfacet
  facet normal -0.95694 0.290285 0
    outer loop
      vertex -7.54896 -2.99749 -2.5
      vertex -7.47498 -2.75362 2.5
      vertex -7.47498 -2.75362 -2.5
    endloop
  endfacet
  facet normal -0.95694 0.290285 0
    outer loop
      vertex -7.47498 -2.75362 2.5
      vertex -7.54896 -2.99749 -2.5
      vertex -7.54896 -2.99749 2.5
    endloop
  endfacet
  facet normal -0.773011 0.634393 0
    outer loop
      vertex -7.83076 -3.41924 -2.5
      vertex -7.66909 -3.22224 2.5
      vertex -7.66909 -3.22224 -2.5
    endloop
  endfacet
  facet normal -0.773011 0.634393 0
    outer loop
      vertex -7.66909 -3.22224 2.5
      vertex -7.83076 -3.41924 -2.5
      vertex -7.83076 -3.41924 2.5
    endloop
  endfacet
  facet normal -0.290285 0.95694 0
    outer loop
      vertex -8.25251 -3.70104 -2.5
      vertex -8.49638 -3.77502 2.5
      vertex -8.25251 -3.70104 2.5
    endloop
  endfacet
  facet normal -0.290285 0.95694 0
    outer loop
      vertex -8.49638 -3.77502 2.5
      vertex -8.25251 -3.70104 -2.5
      vertex -8.49638 -3.77502 -2.5
    endloop
  endfacet
  facet normal -0.0980149 0.995185 0
    outer loop
      vertex -8.49638 -3.77502 -2.5
      vertex -8.75 -3.8 2.5
      vertex -8.49638 -3.77502 2.5
    endloop
  endfacet
  facet normal -0.0980149 0.995185 0
    outer loop
      vertex -8.75 -3.8 2.5
      vertex -8.49638 -3.77502 -2.5
      vertex -8.75 -3.8 -2.5
    endloop
  endfacet
  facet normal -0.471399 0.88192 0
    outer loop
      vertex -8.02776 -3.58091 -2.5
      vertex -8.25251 -3.70104 2.5
      vertex -8.02776 -3.58091 2.5
    endloop
  endfacet
  facet normal -0.471399 0.88192 0
    outer loop
      vertex -8.25251 -3.70104 2.5
      vertex -8.02776 -3.58091 -2.5
      vertex -8.25251 -3.70104 -2.5
    endloop
  endfacet
  facet normal 0.95694 0.290285 0
    outer loop
      vertex -9.95104 -2.99749 2.5
      vertex -10.025 -2.75362 -2.5
      vertex -10.025 -2.75362 2.5
    endloop
  endfacet
  facet normal 0.95694 0.290285 0
    outer loop
      vertex -10.025 -2.75362 -2.5
      vertex -9.95104 -2.99749 2.5
      vertex -9.95104 -2.99749 -2.5
    endloop
  endfacet
  facet normal 0.88192 0.471399 0
    outer loop
      vertex -9.83091 -3.22224 2.5
      vertex -9.95104 -2.99749 -2.5
      vertex -9.95104 -2.99749 2.5
    endloop
  endfacet
  facet normal 0.88192 0.471399 0
    outer loop
      vertex -9.95104 -2.99749 -2.5
      vertex -9.83091 -3.22224 2.5
      vertex -9.83091 -3.22224 -2.5
    endloop
  endfacet
  facet normal 0.995185 0.0980153 0
    outer loop
      vertex -10.025 -2.75362 2.5
      vertex -10.05 -2.5 -2.5
      vertex -10.05 -2.5 2.5
    endloop
  endfacet
  facet normal 0.995185 0.0980153 0
    outer loop
      vertex -10.05 -2.5 -2.5
      vertex -10.025 -2.75362 2.5
      vertex -10.025 -2.75362 -2.5
    endloop
  endfacet
  facet normal 0.634393 0.773011 -0
    outer loop
      vertex -9.47224 -3.58091 -2.5
      vertex -9.66924 -3.41924 2.5
      vertex -9.47224 -3.58091 2.5
    endloop
  endfacet
  facet normal 0.634393 0.773011 0
    outer loop
      vertex -9.66924 -3.41924 2.5
      vertex -9.47224 -3.58091 -2.5
      vertex -9.66924 -3.41924 -2.5
    endloop
  endfacet
  facet normal 0.290285 0.95694 -0
    outer loop
      vertex -9.00362 -3.77502 -2.5
      vertex -9.24749 -3.70104 2.5
      vertex -9.00362 -3.77502 2.5
    endloop
  endfacet
  facet normal 0.290285 0.95694 0
    outer loop
      vertex -9.24749 -3.70104 2.5
      vertex -9.00362 -3.77502 -2.5
      vertex -9.24749 -3.70104 -2.5
    endloop
  endfacet
  facet normal -0.995185 -0.0980149 0
    outer loop
      vertex -7.45 -2.5 -2.5
      vertex -7.47498 -2.24638 2.5
      vertex -7.47498 -2.24638 -2.5
    endloop
  endfacet
  facet normal -0.995185 -0.0980149 0
    outer loop
      vertex -7.47498 -2.24638 2.5
      vertex -7.45 -2.5 -2.5
      vertex -7.45 -2.5 2.5
    endloop
  endfacet
  facet normal -0.290285 -0.95694 0
    outer loop
      vertex -8.49638 -1.22498 -2.5
      vertex -8.25251 -1.29896 2.5
      vertex -8.49638 -1.22498 2.5
    endloop
  endfacet
  facet normal -0.290285 -0.95694 -0
    outer loop
      vertex -8.25251 -1.29896 2.5
      vertex -8.49638 -1.22498 -2.5
      vertex -8.25251 -1.29896 -2.5
    endloop
  endfacet
  facet normal -0.634393 -0.773011 0
    outer loop
      vertex -8.02776 -1.41909 -2.5
      vertex -7.83076 -1.58076 2.5
      vertex -8.02776 -1.41909 2.5
    endloop
  endfacet
  facet normal -0.634393 -0.773011 -0
    outer loop
      vertex -7.83076 -1.58076 2.5
      vertex -8.02776 -1.41909 -2.5
      vertex -7.83076 -1.58076 -2.5
    endloop
  endfacet
  facet normal -0.88192 -0.471399 0
    outer loop
      vertex -7.54896 -2.00251 -2.5
      vertex -7.66909 -1.77776 2.5
      vertex -7.66909 -1.77776 -2.5
    endloop
  endfacet
  facet normal -0.88192 -0.471399 0
    outer loop
      vertex -7.66909 -1.77776 2.5
      vertex -7.54896 -2.00251 -2.5
      vertex -7.54896 -2.00251 2.5
    endloop
  endfacet
  facet normal 0.471399 -0.88192 0
    outer loop
      vertex -9.47224 -1.41909 -2.5
      vertex -9.24749 -1.29896 2.5
      vertex -9.47224 -1.41909 2.5
    endloop
  endfacet
  facet normal 0.471399 -0.88192 0
    outer loop
      vertex -9.24749 -1.29896 2.5
      vertex -9.47224 -1.41909 -2.5
      vertex -9.24749 -1.29896 -2.5
    endloop
  endfacet
  facet normal 0.0980153 -0.995185 0
    outer loop
      vertex -9.00362 -1.22498 -2.5
      vertex -8.75 -1.2 2.5
      vertex -9.00362 -1.22498 2.5
    endloop
  endfacet
  facet normal 0.0980153 -0.995185 0
    outer loop
      vertex -8.75 -1.2 2.5
      vertex -9.00362 -1.22498 -2.5
      vertex -8.75 -1.2 -2.5
    endloop
  endfacet
  facet normal 0.773011 -0.634393 0
    outer loop
      vertex -9.83091 -1.77776 2.5
      vertex -9.66924 -1.58076 -2.5
      vertex -9.66924 -1.58076 2.5
    endloop
  endfacet
  facet normal 0.773011 -0.634393 0
    outer loop
      vertex -9.66924 -1.58076 -2.5
      vertex -9.83091 -1.77776 2.5
      vertex -9.83091 -1.77776 -2.5
    endloop
  endfacet
  facet normal 0.95694 -0.290285 0
    outer loop
      vertex -10.025 -2.24638 2.5
      vertex -9.95104 -2.00251 -2.5
      vertex -9.95104 -2.00251 2.5
    endloop
  endfacet
  facet normal 0.95694 -0.290285 0
    outer loop
      vertex -9.95104 -2.00251 -2.5
      vertex -10.025 -2.24638 2.5
      vertex -10.025 -2.24638 -2.5
    endloop
  endfacet
  facet normal 0.995185 -0.0980149 0
    outer loop
      vertex -10.05 -2.5 2.5
      vertex -10.025 -2.24638 -2.5
      vertex -10.025 -2.24638 2.5
    endloop
  endfacet
  facet normal 0.995185 -0.0980149 0
    outer loop
      vertex -10.025 -2.24638 -2.5
      vertex -10.05 -2.5 2.5
      vertex -10.05 -2.5 -2.5
    endloop
  endfacet
  facet normal -0.471399 -0.88192 0
    outer loop
      vertex -8.25251 -1.29896 -2.5
      vertex -8.02776 -1.41909 2.5
      vertex -8.25251 -1.29896 2.5
    endloop
  endfacet
  facet normal -0.471399 -0.88192 -0
    outer loop
      vertex -8.02776 -1.41909 2.5
      vertex -8.25251 -1.29896 -2.5
      vertex -8.02776 -1.41909 -2.5
    endloop
  endfacet
  facet normal -0.773011 -0.634393 0
    outer loop
      vertex -7.66909 -1.77776 -2.5
      vertex -7.83076 -1.58076 2.5
      vertex -7.83076 -1.58076 -2.5
    endloop
  endfacet
  facet normal -0.773011 -0.634393 0
    outer loop
      vertex -7.83076 -1.58076 2.5
      vertex -7.66909 -1.77776 -2.5
      vertex -7.66909 -1.77776 2.5
    endloop
  endfacet
  facet normal -0.95694 -0.290285 0
    outer loop
      vertex -7.47498 -2.24638 -2.5
      vertex -7.54896 -2.00251 2.5
      vertex -7.54896 -2.00251 -2.5
    endloop
  endfacet
  facet normal -0.95694 -0.290285 0
    outer loop
      vertex -7.54896 -2.00251 2.5
      vertex -7.47498 -2.24638 -2.5
      vertex -7.47498 -2.24638 2.5
    endloop
  endfacet
  facet normal 0.290285 -0.95694 0
    outer loop
      vertex -9.24749 -1.29896 -2.5
      vertex -9.00362 -1.22498 2.5
      vertex -9.24749 -1.29896 2.5
    endloop
  endfacet
  facet normal 0.290285 -0.95694 0
    outer loop
      vertex -9.00362 -1.22498 2.5
      vertex -9.24749 -1.29896 -2.5
      vertex -9.00362 -1.22498 -2.5
    endloop
  endfacet
  facet normal -0.0980149 -0.995185 0
    outer loop
      vertex -8.75 -1.2 -2.5
      vertex -8.49638 -1.22498 2.5
      vertex -8.75 -1.2 2.5
    endloop
  endfacet
  facet normal -0.0980149 -0.995185 -0
    outer loop
      vertex -8.49638 -1.22498 2.5
      vertex -8.75 -1.2 -2.5
      vertex -8.49638 -1.22498 -2.5
    endloop
  endfacet
  facet normal 0.88192 -0.471399 0
    outer loop
      vertex -9.95104 -2.00251 2.5
      vertex -9.83091 -1.77776 -2.5
      vertex -9.83091 -1.77776 2.5
    endloop
  endfacet
  facet normal 0.88192 -0.471399 0
    outer loop
      vertex -9.83091 -1.77776 -2.5
      vertex -9.95104 -2.00251 2.5
      vertex -9.95104 -2.00251 -2.5
    endloop
  endfacet
  facet normal 1 -0 0
    outer loop
      vertex -6.5 -12 2.5
      vertex -6.5 -10.5 1.5
      vertex -6.5 -10.5 2.5
    endloop
  endfacet
  facet normal 1 0 0
    outer loop
      vertex -6.5 -10.5 1.5
      vertex -6.5 -12 2.5
      vertex -6.5 -12 1.5
    endloop
  endfacet
  facet normal -0 0 1
    outer loop
      vertex -6.5 -10.5 1.5
      vertex 6.5 -12 1.5
      vertex 6.5 -10.5 1.5
    endloop
  endfacet
  facet normal 0 0 1
    outer loop
      vertex 6.5 -12 1.5
      vertex -6.5 -10.5 1.5
      vertex -6.5 -12 1.5
    endloop
  endfacet
  facet normal -1 0 0
    outer loop
      vertex 6.5 -12 1.5
      vertex 6.5 -10.5 2.5
      vertex 6.5 -10.5 1.5
    endloop
  endfacet
  facet normal -1 -0 0
    outer loop
      vertex 6.5 -10.5 2.5
      vertex 6.5 -12 1.5
      vertex 6.5 -12 2.5
    endloop
  endfacet
  facet normal 0 -1 0
    outer loop
      vertex -6.5 -10.5 1.5
      vertex 6.5 -10.5 2.5
      vertex -6.5 -10.5 2.5
    endloop
  endfacet
  facet normal 0 -1 -0
    outer loop
      vertex 6.5 -10.5 2.5
      vertex -6.5 -10.5 1.5
      vertex 6.5 -10.5 1.5
    endloop
  endfacet
  facet normal 1 -0 0
    outer loop
      vertex -6.5 5.5 2.5
      vertex -6.5 7 1.5
      vertex -6.5 7 2.5
    endloop
  endfacet
  facet normal 1 0 0
    outer loop
      vertex -6.5 7 1.5
      vertex -6.5 5.5 2.5
      vertex -6.5 5.5 1.5
    endloop
  endfacet
  facet normal -0 0 1
    outer loop
      vertex -6.5 7 1.5
      vertex 6.5 5.5 1.5
      vertex 6.5 7 1.5
    endloop
  endfacet
  facet normal 0 0 1
    outer loop
      vertex 6.5 5.5 1.5
      vertex -6.5 7 1.5
      vertex -6.5 5.5 1.5
    endloop
  endfacet
  facet normal -1 0 0
    outer loop
      vertex 6.5 5.5 1.5
      vertex 6.5 7 2.5
      vertex 6.5 7 1.5
    endloop
  endfacet
  facet normal -1 -0 0
    outer loop
      vertex 6.5 7 2.5
      vertex 6.5 5.5 1.5
      vertex 6.5 5.5 2.5
    endloop
  endfacet
  facet normal 0 1 -0
    outer loop
      vertex 6.5 5.5 1.5
      vertex -6.5 5.5 2.5
      vertex 6.5 5.5 2.5
    endloop
  endfacet
  facet normal 0 1 0
    outer loop
      vertex -6.5 5.5 2.5
      vertex 6.5 5.5 1.5
      vertex -6.5 5.5 1.5
    endloop
  endfacet
endsolid OpenSCAD_Model
