solid OpenSCAD_Model
  facet normal 0 0 -1
    outer loop
      vertex 2.64999 8 0
      vertex -7.34999 12.7 0
      vertex 7.34999 12.7 0
    endloop
  endfacet
  facet normal 0 0 -1
    outer loop
      vertex -7.34999 12.7 0
      vertex -2.64999 8 0
      vertex -7.34999 0 0
    endloop
  endfacet
  facet normal 0 0 -1
    outer loop
      vertex 2.64999 8 0
      vertex 7.34999 0 0
      vertex 2.64999 0 0
    endloop
  endfacet
  facet normal 0 0 -1
    outer loop
      vertex 2.64999 8 0
      vertex 7.34999 12.7 0
      vertex 7.34999 0 0
    endloop
  endfacet
  facet normal 0 0 -1
    outer loop
      vertex -2.64999 8 0
      vertex -7.34999 12.7 0
      vertex 2.64999 8 0
    endloop
  endfacet
  facet normal 0 0 -1
    outer loop
      vertex -2.64999 0 0
      vertex -7.34999 0 0
      vertex -2.64999 8 0
    endloop
  endfacet
  facet normal 0 0 1
    outer loop
      vertex 7.34999 12.7 4.7
      vertex -7.34999 12.7 4.7
      vertex 2.64999 8 4.7
    endloop
  endfacet
  facet normal 0 0 1
    outer loop
      vertex -7.34999 0 4.7
      vertex -2.64999 8 4.7
      vertex -7.34999 12.7 4.7
    endloop
  endfacet
  facet normal 0 0 1
    outer loop
      vertex 2.64999 0 4.7
      vertex 7.34999 0 4.7
      vertex 2.64999 8 4.7
    endloop
  endfacet
  facet normal 0 -0 1
    outer loop
      vertex 7.34999 0 4.7
      vertex 7.34999 12.7 4.7
      vertex 2.64999 8 4.7
    endloop
  endfacet
  facet normal 0 0 1
    outer loop
      vertex 2.64999 8 4.7
      vertex -7.34999 12.7 4.7
      vertex -2.64999 8 4.7
    endloop
  endfacet
  facet normal 0 0 1
    outer loop
      vertex -2.64999 8 4.7
      vertex -7.34999 0 4.7
      vertex -2.64999 0 4.7
    endloop
  endfacet
  facet normal 0 -1 0
    outer loop
      vertex 2.64999 8 0
      vertex -2.64999 8 4.7
      vertex -2.64999 8 0
    endloop
  endfacet
  facet normal 0 -1 0
    outer loop
      vertex 2.64999 8 0
      vertex 2.64999 8 4.7
      vertex -2.64999 8 4.7
    endloop
  endfacet
  facet normal -1 0 0
    outer loop
      vertex 2.64999 0 0
      vertex 2.64999 8 4.7
      vertex 2.64999 8 0
    endloop
  endfacet
  facet normal -1 0 0
    outer loop
      vertex 2.64999 0 0
      vertex 2.64999 0 4.7
      vertex 2.64999 8 4.7
    endloop
  endfacet
  facet normal 0 -1 0
    outer loop
      vertex 7.34999 0 0
      vertex 2.64999 0 4.7
      vertex 2.64999 0 0
    endloop
  endfacet
  facet normal 0 -1 0
    outer loop
      vertex 7.34999 0 0
      vertex 7.34999 0 4.7
      vertex 2.64999 0 4.7
    endloop
  endfacet
  facet normal 1 0 0
    outer loop
      vertex 7.34999 12.7 0
      vertex 7.34999 0 4.7
      vertex 7.34999 0 0
    endloop
  endfacet
  facet normal 1 0 -0
    outer loop
      vertex 7.34999 12.7 0
      vertex 7.34999 12.7 4.7
      vertex 7.34999 0 4.7
    endloop
  endfacet
  facet normal 0 1 0
    outer loop
      vertex -7.34999 12.7 0
      vertex 7.34999 12.7 4.7
      vertex 7.34999 12.7 0
    endloop
  endfacet
  facet normal 0 1 0
    outer loop
      vertex -7.34999 12.7 0
      vertex -7.34999 12.7 4.7
      vertex 7.34999 12.7 4.7
    endloop
  endfacet
  facet normal -1 0 0
    outer loop
      vertex -7.34999 0 0
      vertex -7.34999 12.7 4.7
      vertex -7.34999 12.7 0
    endloop
  endfacet
  facet normal -1 0 0
    outer loop
      vertex -7.34999 0 0
      vertex -7.34999 0 4.7
      vertex -7.34999 12.7 4.7
    endloop
  endfacet
  facet normal 0 -1 0
    outer loop
      vertex -2.64999 0 0
      vertex -7.34999 0 4.7
      vertex -7.34999 0 0
    endloop
  endfacet
  facet normal 0 -1 0
    outer loop
      vertex -2.64999 0 0
      vertex -2.64999 0 4.7
      vertex -7.34999 0 4.7
    endloop
  endfacet
  facet normal 1 0 0
    outer loop
      vertex -2.64999 8 0
      vertex -2.64999 0 4.7
      vertex -2.64999 0 0
    endloop
  endfacet
  facet normal 1 0 -0
    outer loop
      vertex -2.64999 8 0
      vertex -2.64999 8 4.7
      vertex -2.64999 0 4.7
    endloop
  endfacet
endsolid OpenSCAD_Model
