solid OpenSCAD_Model
  facet normal 0 0.866025 0.5
    outer loop
      vertex 7 3.4641 1.55431e-015
      vertex -2.81541e-016 1.73205 3
      vertex 7 1.73205 3
    endloop
  endfacet
  facet normal -1.09884e-016 0.866025 0.5
    outer loop
      vertex -2.81541e-016 1.73205 3
      vertex 7 3.4641 1.55431e-015
      vertex 7.69185e-016 3.4641 0
    endloop
  endfacet
  facet normal 0 0.866025 0.5
    outer loop
      vertex 34 3.4641 7.54952e-015
      vertex 29 1.73205 3
      vertex 34 1.73205 3
    endloop
  endfacet
  facet normal -1.53837e-016 0.866025 0.5
    outer loop
      vertex 29 1.73205 3
      vertex 34 3.4641 7.54952e-015
      vertex 29 3.4641 6.43929e-015
    endloop
  endfacet
  facet normal 0 -0.866025 0.5
    outer loop
      vertex -1.05073e-015 -1.73205 3
      vertex 34 -3.4641 7.54952e-015
      vertex 34 -1.73205 3
    endloop
  endfacet
  facet normal -1.11022e-016 -0.866025 0.5
    outer loop
      vertex 34 -3.4641 7.54952e-015
      vertex -1.05073e-015 -1.73205 3
      vertex -7.69185e-016 -3.4641 0
    endloop
  endfacet
  facet normal -0 0 1
    outer loop
      vertex 29 1.73205 3
      vertex 34 -1.73205 3
      vertex 34 1.73205 3
    endloop
  endfacet
  facet normal -0 0 1
    outer loop
      vertex 7 1.73205 3
      vertex 34 -1.73205 3
      vertex 29 1.73205 3
    endloop
  endfacet
  facet normal 0 0 1
    outer loop
      vertex -1.05073e-015 -1.73205 3
      vertex 7 1.73205 3
      vertex -2.81541e-016 1.73205 3
    endloop
  endfacet
  facet normal 0 0 1
    outer loop
      vertex 7 1.73205 3
      vertex -1.05073e-015 -1.73205 3
      vertex 34 -1.73205 3
    endloop
  endfacet
  facet normal -1 2.22045e-016 -2.22045e-016
    outer loop
      vertex 3.00497e-016 0.881921 -0.471396
      vertex 7.69185e-016 3.4641 0
      vertex 1.05073e-015 1.73205 -3
    endloop
  endfacet
  facet normal -1 2.22045e-016 -2.22045e-016
    outer loop
      vertex 1.99211e-016 0.995184 0.0980167
      vertex 7.69185e-016 3.4641 0
      vertex 2.22045e-016 1 0
    endloop
  endfacet
  facet normal -1 2.22045e-016 -2.22045e-016
    outer loop
      vertex 7.69185e-016 3.4641 0
      vertex 2.42739e-016 0.995184 -0.0980167
      vertex 2.22045e-016 1 0
    endloop
  endfacet
  facet normal -1 2.22045e-016 -2.22045e-016
    outer loop
      vertex 7.69185e-016 3.4641 0
      vertex 2.61097e-016 0.980784 -0.19509
      vertex 2.42739e-016 0.995184 -0.0980167
    endloop
  endfacet
  facet normal -1 2.22045e-016 -2.22045e-016
    outer loop
      vertex 7.69185e-016 3.4641 0
      vertex 2.76939e-016 0.95694 -0.290284
      vertex 2.61097e-016 0.980784 -0.19509
    endloop
  endfacet
  facet normal -1 2.22045e-016 -2.22045e-016
    outer loop
      vertex 7.69185e-016 3.4641 0
      vertex 2.90115e-016 0.923879 -0.382683
      vertex 2.76939e-016 0.95694 -0.290284
    endloop
  endfacet
  facet normal -1 2.22045e-016 -2.22045e-016
    outer loop
      vertex 7.69185e-016 3.4641 0
      vertex 3.00497e-016 0.881921 -0.471396
      vertex 2.90115e-016 0.923879 -0.382683
    endloop
  endfacet
  facet normal -1 2.22045e-016 -2.22045e-016
    outer loop
      vertex 1.05073e-015 1.73205 -3
      vertex 3.07985e-016 0.83147 -0.55557
      vertex 3.00497e-016 0.881921 -0.471396
    endloop
  endfacet
  facet normal -1 2.22045e-016 -2.22045e-016
    outer loop
      vertex 1.05073e-015 1.73205 -3
      vertex 3.12506e-016 0.77301 -0.634393
      vertex 3.07985e-016 0.83147 -0.55557
    endloop
  endfacet
  facet normal -1 2.22045e-016 -2.22045e-016
    outer loop
      vertex 1.05073e-015 1.73205 -3
      vertex 3.14018e-016 0.707107 -0.707107
      vertex 3.12506e-016 0.77301 -0.634393
    endloop
  endfacet
  facet normal -1 2.22045e-016 -2.22045e-016
    outer loop
      vertex 1.05073e-015 1.73205 -3
      vertex 3.12506e-016 0.634393 -0.77301
      vertex 3.14018e-016 0.707107 -0.707107
    endloop
  endfacet
  facet normal -1 2.22045e-016 -2.22045e-016
    outer loop
      vertex 1.05073e-015 1.73205 -3
      vertex 3.07985e-016 0.55557 -0.83147
      vertex 3.12506e-016 0.634393 -0.77301
    endloop
  endfacet
  facet normal -1 2.22045e-016 -2.22045e-016
    outer loop
      vertex 1.05073e-015 1.73205 -3
      vertex 3.00497e-016 0.471396 -0.881921
      vertex 3.07985e-016 0.55557 -0.83147
    endloop
  endfacet
  facet normal -1 2.22045e-016 -2.22045e-016
    outer loop
      vertex 1.05073e-015 1.73205 -3
      vertex 2.90115e-016 0.382683 -0.923879
      vertex 3.00497e-016 0.471396 -0.881921
    endloop
  endfacet
  facet normal -1 2.22045e-016 -2.22045e-016
    outer loop
      vertex 1.05073e-015 1.73205 -3
      vertex 2.76939e-016 0.290284 -0.95694
      vertex 2.90115e-016 0.382683 -0.923879
    endloop
  endfacet
  facet normal -1 2.22045e-016 -2.22045e-016
    outer loop
      vertex 1.05073e-015 1.73205 -3
      vertex 2.61097e-016 0.19509 -0.980784
      vertex 2.76939e-016 0.290284 -0.95694
    endloop
  endfacet
  facet normal -1 2.22045e-016 -2.22045e-016
    outer loop
      vertex 1.05073e-015 1.73205 -3
      vertex 2.42739e-016 0.0980167 -0.995184
      vertex 2.61097e-016 0.19509 -0.980784
    endloop
  endfacet
  facet normal -1 2.22045e-016 -2.22045e-016
    outer loop
      vertex 1.05073e-015 1.73205 -3
      vertex 2.22045e-016 0 -1
      vertex 2.42739e-016 0.0980167 -0.995184
    endloop
  endfacet
  facet normal -1 2.22045e-016 -2.22045e-016
    outer loop
      vertex 2.81541e-016 -1.73205 -3
      vertex 2.22045e-016 0 -1
      vertex 1.05073e-015 1.73205 -3
    endloop
  endfacet
  facet normal -1 2.22045e-016 -2.22045e-016
    outer loop
      vertex 2.22045e-016 0 -1
      vertex 2.81541e-016 -1.73205 -3
      vertex 1.99211e-016 -0.0980167 -0.995184
    endloop
  endfacet
  facet normal -1 2.22045e-016 -2.22045e-016
    outer loop
      vertex 1.99211e-016 -0.0980167 -0.995184
      vertex 2.81541e-016 -1.73205 -3
      vertex 1.74459e-016 -0.19509 -0.980784
    endloop
  endfacet
  facet normal -1 2.22045e-016 -2.22045e-016
    outer loop
      vertex 1.74459e-016 -0.19509 -0.980784
      vertex 2.81541e-016 -1.73205 -3
      vertex 1.48027e-016 -0.290284 -0.95694
    endloop
  endfacet
  facet normal -1 2.22045e-016 -2.22045e-016
    outer loop
      vertex 1.48027e-016 -0.290284 -0.95694
      vertex 2.81541e-016 -1.73205 -3
      vertex 1.2017e-016 -0.382683 -0.923879
    endloop
  endfacet
  facet normal -1 2.22045e-016 -2.22045e-016
    outer loop
      vertex 1.2017e-016 -0.382683 -0.923879
      vertex 2.81541e-016 -1.73205 -3
      vertex 9.11547e-017 -0.471396 -0.881921
    endloop
  endfacet
  facet normal -1 2.22045e-016 -2.22045e-016
    outer loop
      vertex 9.11547e-017 -0.471396 -0.881921
      vertex 2.81541e-016 -1.73205 -3
      vertex 6.12621e-017 -0.55557 -0.83147
    endloop
  endfacet
  facet normal -1 2.22045e-016 -2.22045e-016
    outer loop
      vertex 6.12621e-017 -0.55557 -0.83147
      vertex 2.81541e-016 -1.73205 -3
      vertex 3.07793e-017 -0.634393 -0.77301
    endloop
  endfacet
  facet normal -1 2.22045e-016 -2.22045e-016
    outer loop
      vertex -1.74459e-016 -0.980784 -0.19509
      vertex -7.69185e-016 -3.4641 0
      vertex -1.99211e-016 -0.995184 -0.0980167
    endloop
  endfacet
  facet normal -1 2.22045e-016 -2.22045e-016
    outer loop
      vertex -1.48027e-016 -0.95694 -0.290284
      vertex -7.69185e-016 -3.4641 0
      vertex -1.74459e-016 -0.980784 -0.19509
    endloop
  endfacet
  facet normal -1 2.22045e-016 -2.22045e-016
    outer loop
      vertex -1.2017e-016 -0.923879 -0.382683
      vertex -7.69185e-016 -3.4641 0
      vertex -1.48027e-016 -0.95694 -0.290284
    endloop
  endfacet
  facet normal -1 2.22045e-016 -2.22045e-016
    outer loop
      vertex -9.11547e-017 -0.881921 -0.471396
      vertex -7.69185e-016 -3.4641 0
      vertex -1.2017e-016 -0.923879 -0.382683
    endloop
  endfacet
  facet normal -1 2.22045e-016 -2.22045e-016
    outer loop
      vertex -7.69185e-016 -3.4641 0
      vertex -9.11547e-017 -0.881921 -0.471396
      vertex 2.81541e-016 -1.73205 -3
    endloop
  endfacet
  facet normal -1 2.22045e-016 -2.22045e-016
    outer loop
      vertex -6.12621e-017 -0.83147 -0.55557
      vertex 2.81541e-016 -1.73205 -3
      vertex -9.11547e-017 -0.881921 -0.471396
    endloop
  endfacet
  facet normal -1 2.22045e-016 -2.22045e-016
    outer loop
      vertex -3.07793e-017 -0.77301 -0.634393
      vertex 2.81541e-016 -1.73205 -3
      vertex -6.12621e-017 -0.83147 -0.55557
    endloop
  endfacet
  facet normal -1 2.22045e-016 -2.22045e-016
    outer loop
      vertex 0 -0.707107 -0.707107
      vertex 2.81541e-016 -1.73205 -3
      vertex -3.07793e-017 -0.77301 -0.634393
    endloop
  endfacet
  facet normal -1 2.22045e-016 -2.22045e-016
    outer loop
      vertex 3.07793e-017 -0.634393 -0.77301
      vertex 2.81541e-016 -1.73205 -3
      vertex 0 -0.707107 -0.707107
    endloop
  endfacet
  facet normal -1 2.22045e-016 -2.22045e-016
    outer loop
      vertex 1.74459e-016 0.980784 0.19509
      vertex 7.69185e-016 3.4641 0
      vertex 1.99211e-016 0.995184 0.0980167
    endloop
  endfacet
  facet normal -1 2.22045e-016 -2.22045e-016
    outer loop
      vertex 1.48027e-016 0.95694 0.290284
      vertex 7.69185e-016 3.4641 0
      vertex 1.74459e-016 0.980784 0.19509
    endloop
  endfacet
  facet normal -1 2.22045e-016 -2.22045e-016
    outer loop
      vertex 1.2017e-016 0.923879 0.382683
      vertex 7.69185e-016 3.4641 0
      vertex 1.48027e-016 0.95694 0.290284
    endloop
  endfacet
  facet normal -1 2.22045e-016 -2.22045e-016
    outer loop
      vertex 9.11547e-017 0.881921 0.471396
      vertex 7.69185e-016 3.4641 0
      vertex 1.2017e-016 0.923879 0.382683
    endloop
  endfacet
  facet normal -1 2.22045e-016 -2.22045e-016
    outer loop
      vertex 7.69185e-016 3.4641 0
      vertex 9.11547e-017 0.881921 0.471396
      vertex -2.81541e-016 1.73205 3
    endloop
  endfacet
  facet normal -1 2.22045e-016 -2.22045e-016
    outer loop
      vertex 6.12621e-017 0.83147 0.55557
      vertex -2.81541e-016 1.73205 3
      vertex 9.11547e-017 0.881921 0.471396
    endloop
  endfacet
  facet normal -1 2.22045e-016 -2.22045e-016
    outer loop
      vertex 3.07793e-017 0.77301 0.634393
      vertex -2.81541e-016 1.73205 3
      vertex 6.12621e-017 0.83147 0.55557
    endloop
  endfacet
  facet normal -1 2.22045e-016 -2.22045e-016
    outer loop
      vertex 0 0.707107 0.707107
      vertex -2.81541e-016 1.73205 3
      vertex 3.07793e-017 0.77301 0.634393
    endloop
  endfacet
  facet normal -1 2.22045e-016 -2.22045e-016
    outer loop
      vertex -3.07793e-017 0.634393 0.77301
      vertex -2.81541e-016 1.73205 3
      vertex 0 0.707107 0.707107
    endloop
  endfacet
  facet normal -1 2.22045e-016 -2.22045e-016
    outer loop
      vertex -6.12621e-017 0.55557 0.83147
      vertex -2.81541e-016 1.73205 3
      vertex -3.07793e-017 0.634393 0.77301
    endloop
  endfacet
  facet normal -1 2.22045e-016 -2.22045e-016
    outer loop
      vertex -9.11547e-017 0.471396 0.881921
      vertex -2.81541e-016 1.73205 3
      vertex -6.12621e-017 0.55557 0.83147
    endloop
  endfacet
  facet normal -1 2.22045e-016 -2.22045e-016
    outer loop
      vertex -1.2017e-016 0.382683 0.923879
      vertex -2.81541e-016 1.73205 3
      vertex -9.11547e-017 0.471396 0.881921
    endloop
  endfacet
  facet normal -1 2.22045e-016 -2.22045e-016
    outer loop
      vertex -1.48027e-016 0.290284 0.95694
      vertex -2.81541e-016 1.73205 3
      vertex -1.2017e-016 0.382683 0.923879
    endloop
  endfacet
  facet normal -1 2.22045e-016 -2.22045e-016
    outer loop
      vertex -1.74459e-016 0.19509 0.980784
      vertex -2.81541e-016 1.73205 3
      vertex -1.48027e-016 0.290284 0.95694
    endloop
  endfacet
  facet normal -1 2.22045e-016 -2.22045e-016
    outer loop
      vertex -1.99211e-016 0.0980167 0.995184
      vertex -2.81541e-016 1.73205 3
      vertex -1.74459e-016 0.19509 0.980784
    endloop
  endfacet
  facet normal -1 2.22045e-016 -2.22045e-016
    outer loop
      vertex -2.22045e-016 0 1
      vertex -2.81541e-016 1.73205 3
      vertex -1.99211e-016 0.0980167 0.995184
    endloop
  endfacet
  facet normal -1 2.22045e-016 -2.22045e-016
    outer loop
      vertex -1.05073e-015 -1.73205 3
      vertex -2.22045e-016 0 1
      vertex -2.42739e-016 -0.0980167 0.995184
    endloop
  endfacet
  facet normal -1 2.22045e-016 -2.22045e-016
    outer loop
      vertex -1.05073e-015 -1.73205 3
      vertex -2.42739e-016 -0.0980167 0.995184
      vertex -2.61097e-016 -0.19509 0.980784
    endloop
  endfacet
  facet normal -1 2.22045e-016 -2.22045e-016
    outer loop
      vertex -1.05073e-015 -1.73205 3
      vertex -2.61097e-016 -0.19509 0.980784
      vertex -2.76939e-016 -0.290284 0.95694
    endloop
  endfacet
  facet normal -1 2.22045e-016 -2.22045e-016
    outer loop
      vertex -1.05073e-015 -1.73205 3
      vertex -2.76939e-016 -0.290284 0.95694
      vertex -2.90115e-016 -0.382683 0.923879
    endloop
  endfacet
  facet normal -1 2.22045e-016 -2.22045e-016
    outer loop
      vertex -1.05073e-015 -1.73205 3
      vertex -2.90115e-016 -0.382683 0.923879
      vertex -3.00497e-016 -0.471396 0.881921
    endloop
  endfacet
  facet normal -1 2.22045e-016 -2.22045e-016
    outer loop
      vertex -1.05073e-015 -1.73205 3
      vertex -3.00497e-016 -0.471396 0.881921
      vertex -3.07985e-016 -0.55557 0.83147
    endloop
  endfacet
  facet normal -1 2.22045e-016 -2.22045e-016
    outer loop
      vertex -1.05073e-015 -1.73205 3
      vertex -3.07985e-016 -0.55557 0.83147
      vertex -3.12506e-016 -0.634393 0.77301
    endloop
  endfacet
  facet normal -1 2.22045e-016 -2.22045e-016
    outer loop
      vertex -1.05073e-015 -1.73205 3
      vertex -3.12506e-016 -0.634393 0.77301
      vertex -3.14018e-016 -0.707107 0.707107
    endloop
  endfacet
  facet normal -1 2.22045e-016 -2.22045e-016
    outer loop
      vertex -1.99211e-016 -0.995184 -0.0980167
      vertex -7.69185e-016 -3.4641 0
      vertex -2.22045e-016 -1 0
    endloop
  endfacet
  facet normal -1 2.22045e-016 -2.22045e-016
    outer loop
      vertex -2.22045e-016 -1 0
      vertex -7.69185e-016 -3.4641 0
      vertex -2.42739e-016 -0.995184 0.0980167
    endloop
  endfacet
  facet normal -1 2.22045e-016 -2.22045e-016
    outer loop
      vertex -2.22045e-016 0 1
      vertex -1.05073e-015 -1.73205 3
      vertex -2.81541e-016 1.73205 3
    endloop
  endfacet
  facet normal -1 2.22045e-016 -2.22045e-016
    outer loop
      vertex -3.12506e-016 -0.77301 0.634393
      vertex -1.05073e-015 -1.73205 3
      vertex -3.14018e-016 -0.707107 0.707107
    endloop
  endfacet
  facet normal -1 2.22045e-016 -2.22045e-016
    outer loop
      vertex -3.07985e-016 -0.83147 0.55557
      vertex -1.05073e-015 -1.73205 3
      vertex -3.12506e-016 -0.77301 0.634393
    endloop
  endfacet
  facet normal -1 2.22045e-016 -2.22045e-016
    outer loop
      vertex -3.00497e-016 -0.881921 0.471396
      vertex -1.05073e-015 -1.73205 3
      vertex -3.07985e-016 -0.83147 0.55557
    endloop
  endfacet
  facet normal -1 2.22045e-016 -2.22045e-016
    outer loop
      vertex -7.69185e-016 -3.4641 0
      vertex -3.00497e-016 -0.881921 0.471396
      vertex -2.90115e-016 -0.923879 0.382683
    endloop
  endfacet
  facet normal -1 2.22045e-016 -2.22045e-016
    outer loop
      vertex -7.69185e-016 -3.4641 0
      vertex -2.90115e-016 -0.923879 0.382683
      vertex -2.76939e-016 -0.95694 0.290284
    endloop
  endfacet
  facet normal -1 2.22045e-016 -2.22045e-016
    outer loop
      vertex -7.69185e-016 -3.4641 0
      vertex -2.76939e-016 -0.95694 0.290284
      vertex -2.61097e-016 -0.980784 0.19509
    endloop
  endfacet
  facet normal -1 2.22045e-016 -2.22045e-016
    outer loop
      vertex -2.42739e-016 -0.995184 0.0980167
      vertex -7.69185e-016 -3.4641 0
      vertex -2.61097e-016 -0.980784 0.19509
    endloop
  endfacet
  facet normal -1 2.22045e-016 -2.22045e-016
    outer loop
      vertex -3.00497e-016 -0.881921 0.471396
      vertex -7.69185e-016 -3.4641 0
      vertex -1.05073e-015 -1.73205 3
    endloop
  endfacet
  facet normal 1.53837e-016 0.866025 -0.5
    outer loop
      vertex 34 1.73205 -3
      vertex 29 3.4641 6.43929e-015
      vertex 34 3.4641 7.54952e-015
    endloop
  endfacet
  facet normal 0 0.866025 -0.5
    outer loop
      vertex 29 3.4641 6.43929e-015
      vertex 34 1.73205 -3
      vertex 29 1.73205 -3
    endloop
  endfacet
  facet normal 1.09884e-016 0.866025 -0.5
    outer loop
      vertex 7 1.73205 -3
      vertex 7.69185e-016 3.4641 0
      vertex 7 3.4641 1.55431e-015
    endloop
  endfacet
  facet normal 0 0.866025 -0.5
    outer loop
      vertex 7.69185e-016 3.4641 0
      vertex 7 1.73205 -3
      vertex 1.05073e-015 1.73205 -3
    endloop
  endfacet
  facet normal 1.13115e-016 -0.866025 -0.5
    outer loop
      vertex 2.81541e-016 -1.73205 -3
      vertex 34 -3.4641 7.54952e-015
      vertex -7.69185e-016 -3.4641 0
    endloop
  endfacet
  facet normal 0 -0.866025 -0.5
    outer loop
      vertex 34 -3.4641 7.54952e-015
      vertex 2.81541e-016 -1.73205 -3
      vertex 34 -1.73205 -3
    endloop
  endfacet
  facet normal 0 -2.75302e-007 -1
    outer loop
      vertex 34 -1.73205 -3
      vertex 29 1.73205 -3
      vertex 34 1.73205 -3
    endloop
  endfacet
  facet normal 0 -2.75302e-007 -1
    outer loop
      vertex 34 -1.73205 -3
      vertex 7 1.73205 -3
      vertex 29 1.73205 -3
    endloop
  endfacet
  facet normal 0 -2.75302e-007 -1
    outer loop
      vertex 2.81541e-016 -1.73205 -3
      vertex 7 1.73205 -3
      vertex 34 -1.73205 -3
    endloop
  endfacet
  facet normal -0 -2.75302e-007 -1
    outer loop
      vertex 7 1.73205 -3
      vertex 2.81541e-016 -1.73205 -3
      vertex 1.05073e-015 1.73205 -3
    endloop
  endfacet
  facet normal 1 -0 0
    outer loop
      vertex 34 0.881921 0.471396
      vertex 34 3.4641 7.54952e-015
      vertex 34 1.73205 3
    endloop
  endfacet
  facet normal 1 0 0
    outer loop
      vertex 34 0.995184 -0.0980167
      vertex 34 3.4641 7.54952e-015
      vertex 34 1 7.54952e-015
    endloop
  endfacet
  facet normal 1 0 0
    outer loop
      vertex 34 3.4641 7.54952e-015
      vertex 34 0.995184 0.0980167
      vertex 34 1 7.54952e-015
    endloop
  endfacet
  facet normal 1 0 0
    outer loop
      vertex 34 3.4641 7.54952e-015
      vertex 34 0.980784 0.19509
      vertex 34 0.995184 0.0980167
    endloop
  endfacet
  facet normal 1 0 0
    outer loop
      vertex 34 3.4641 7.54952e-015
      vertex 34 0.95694 0.290284
      vertex 34 0.980784 0.19509
    endloop
  endfacet
  facet normal 1 0 0
    outer loop
      vertex 34 3.4641 7.54952e-015
      vertex 34 0.923879 0.382683
      vertex 34 0.95694 0.290284
    endloop
  endfacet
  facet normal 1 0 0
    outer loop
      vertex 34 3.4641 7.54952e-015
      vertex 34 0.881921 0.471396
      vertex 34 0.923879 0.382683
    endloop
  endfacet
  facet normal 1 0 0
    outer loop
      vertex 34 1.73205 3
      vertex 34 0.83147 0.55557
      vertex 34 0.881921 0.471396
    endloop
  endfacet
  facet normal 1 0 0
    outer loop
      vertex 34 1.73205 3
      vertex 34 0.77301 0.634393
      vertex 34 0.83147 0.55557
    endloop
  endfacet
  facet normal 1 0 0
    outer loop
      vertex 34 1.73205 3
      vertex 34 0.707107 0.707107
      vertex 34 0.77301 0.634393
    endloop
  endfacet
  facet normal 1 0 0
    outer loop
      vertex 34 1.73205 3
      vertex 34 0.634393 0.77301
      vertex 34 0.707107 0.707107
    endloop
  endfacet
  facet normal 1 0 0
    outer loop
      vertex 34 1.73205 3
      vertex 34 0.55557 0.83147
      vertex 34 0.634393 0.77301
    endloop
  endfacet
  facet normal 1 0 0
    outer loop
      vertex 34 1.73205 3
      vertex 34 0.471396 0.881921
      vertex 34 0.55557 0.83147
    endloop
  endfacet
  facet normal 1 0 0
    outer loop
      vertex 34 1.73205 3
      vertex 34 0.382683 0.923879
      vertex 34 0.471396 0.881921
    endloop
  endfacet
  facet normal 1 0 0
    outer loop
      vertex 34 1.73205 3
      vertex 34 0.290284 0.95694
      vertex 34 0.382683 0.923879
    endloop
  endfacet
  facet normal 1 0 0
    outer loop
      vertex 34 1.73205 3
      vertex 34 0.19509 0.980784
      vertex 34 0.290284 0.95694
    endloop
  endfacet
  facet normal 1 0 0
    outer loop
      vertex 34 1.73205 3
      vertex 34 0.0980167 0.995184
      vertex 34 0.19509 0.980784
    endloop
  endfacet
  facet normal 1 0 0
    outer loop
      vertex 34 1.73205 3
      vertex 34 -7.54952e-015 1
      vertex 34 0.0980167 0.995184
    endloop
  endfacet
  facet normal 1 -0 0
    outer loop
      vertex 34 -1.73205 3
      vertex 34 -7.54952e-015 1
      vertex 34 1.73205 3
    endloop
  endfacet
  facet normal 1 0 0
    outer loop
      vertex 34 -7.54952e-015 1
      vertex 34 -1.73205 3
      vertex 34 -0.0980167 0.995184
    endloop
  endfacet
  facet normal 1 0 0
    outer loop
      vertex 34 -0.0980167 0.995184
      vertex 34 -1.73205 3
      vertex 34 -0.19509 0.980784
    endloop
  endfacet
  facet normal 1 0 0
    outer loop
      vertex 34 -0.19509 0.980784
      vertex 34 -1.73205 3
      vertex 34 -0.290284 0.95694
    endloop
  endfacet
  facet normal 1 0 0
    outer loop
      vertex 34 -0.290284 0.95694
      vertex 34 -1.73205 3
      vertex 34 -0.382683 0.923879
    endloop
  endfacet
  facet normal 1 0 0
    outer loop
      vertex 34 -0.382683 0.923879
      vertex 34 -1.73205 3
      vertex 34 -0.471396 0.881921
    endloop
  endfacet
  facet normal 1 0 0
    outer loop
      vertex 34 -0.471396 0.881921
      vertex 34 -1.73205 3
      vertex 34 -0.55557 0.83147
    endloop
  endfacet
  facet normal 1 0 0
    outer loop
      vertex 34 -0.55557 0.83147
      vertex 34 -1.73205 3
      vertex 34 -0.634393 0.77301
    endloop
  endfacet
  facet normal 1 0 0
    outer loop
      vertex 34 -0.980784 0.19509
      vertex 34 -3.4641 7.54952e-015
      vertex 34 -0.995184 0.0980167
    endloop
  endfacet
  facet normal 1 0 0
    outer loop
      vertex 34 -0.95694 0.290284
      vertex 34 -3.4641 7.54952e-015
      vertex 34 -0.980784 0.19509
    endloop
  endfacet
  facet normal 1 0 0
    outer loop
      vertex 34 -0.923879 0.382683
      vertex 34 -3.4641 7.54952e-015
      vertex 34 -0.95694 0.290284
    endloop
  endfacet
  facet normal 1 0 0
    outer loop
      vertex 34 -0.881921 0.471396
      vertex 34 -3.4641 7.54952e-015
      vertex 34 -0.923879 0.382683
    endloop
  endfacet
  facet normal 1 0 0
    outer loop
      vertex 34 -3.4641 7.54952e-015
      vertex 34 -0.881921 0.471396
      vertex 34 -1.73205 3
    endloop
  endfacet
  facet normal 1 0 0
    outer loop
      vertex 34 -0.83147 0.55557
      vertex 34 -1.73205 3
      vertex 34 -0.881921 0.471396
    endloop
  endfacet
  facet normal 1 0 0
    outer loop
      vertex 34 -0.77301 0.634393
      vertex 34 -1.73205 3
      vertex 34 -0.83147 0.55557
    endloop
  endfacet
  facet normal 1 0 0
    outer loop
      vertex 34 -0.707107 0.707107
      vertex 34 -1.73205 3
      vertex 34 -0.77301 0.634393
    endloop
  endfacet
  facet normal 1 0 0
    outer loop
      vertex 34 -0.634393 0.77301
      vertex 34 -1.73205 3
      vertex 34 -0.707107 0.707107
    endloop
  endfacet
  facet normal 1 0 0
    outer loop
      vertex 34 0.980784 -0.19509
      vertex 34 3.4641 7.54952e-015
      vertex 34 0.995184 -0.0980167
    endloop
  endfacet
  facet normal 1 0 0
    outer loop
      vertex 34 0.95694 -0.290284
      vertex 34 3.4641 7.54952e-015
      vertex 34 0.980784 -0.19509
    endloop
  endfacet
  facet normal 1 0 0
    outer loop
      vertex 34 0.923879 -0.382683
      vertex 34 3.4641 7.54952e-015
      vertex 34 0.95694 -0.290284
    endloop
  endfacet
  facet normal 1 0 0
    outer loop
      vertex 34 0.881921 -0.471396
      vertex 34 3.4641 7.54952e-015
      vertex 34 0.923879 -0.382683
    endloop
  endfacet
  facet normal 1 0 0
    outer loop
      vertex 34 3.4641 7.54952e-015
      vertex 34 0.881921 -0.471396
      vertex 34 1.73205 -3
    endloop
  endfacet
  facet normal 1 -0 0
    outer loop
      vertex 34 0.83147 -0.55557
      vertex 34 1.73205 -3
      vertex 34 0.881921 -0.471396
    endloop
  endfacet
  facet normal 1 -0 0
    outer loop
      vertex 34 0.77301 -0.634393
      vertex 34 1.73205 -3
      vertex 34 0.83147 -0.55557
    endloop
  endfacet
  facet normal 1 -0 0
    outer loop
      vertex 34 0.707107 -0.707107
      vertex 34 1.73205 -3
      vertex 34 0.77301 -0.634393
    endloop
  endfacet
  facet normal 1 -0 0
    outer loop
      vertex 34 0.634393 -0.77301
      vertex 34 1.73205 -3
      vertex 34 0.707107 -0.707107
    endloop
  endfacet
  facet normal 1 -0 0
    outer loop
      vertex 34 0.55557 -0.83147
      vertex 34 1.73205 -3
      vertex 34 0.634393 -0.77301
    endloop
  endfacet
  facet normal 1 -0 0
    outer loop
      vertex 34 0.471396 -0.881921
      vertex 34 1.73205 -3
      vertex 34 0.55557 -0.83147
    endloop
  endfacet
  facet normal 1 -0 0
    outer loop
      vertex 34 0.382683 -0.923879
      vertex 34 1.73205 -3
      vertex 34 0.471396 -0.881921
    endloop
  endfacet
  facet normal 1 -0 0
    outer loop
      vertex 34 0.290284 -0.95694
      vertex 34 1.73205 -3
      vertex 34 0.382683 -0.923879
    endloop
  endfacet
  facet normal 1 -0 0
    outer loop
      vertex 34 0.19509 -0.980784
      vertex 34 1.73205 -3
      vertex 34 0.290284 -0.95694
    endloop
  endfacet
  facet normal 1 -0 0
    outer loop
      vertex 34 0.0980167 -0.995184
      vertex 34 1.73205 -3
      vertex 34 0.19509 -0.980784
    endloop
  endfacet
  facet normal 1 -0 0
    outer loop
      vertex 34 -7.54952e-015 -1
      vertex 34 1.73205 -3
      vertex 34 0.0980167 -0.995184
    endloop
  endfacet
  facet normal 1 0 0
    outer loop
      vertex 34 -1.73205 -3
      vertex 34 -7.54952e-015 -1
      vertex 34 -0.0980167 -0.995184
    endloop
  endfacet
  facet normal 1 0 0
    outer loop
      vertex 34 -1.73205 -3
      vertex 34 -0.0980167 -0.995184
      vertex 34 -0.19509 -0.980784
    endloop
  endfacet
  facet normal 1 0 0
    outer loop
      vertex 34 -1.73205 -3
      vertex 34 -0.19509 -0.980784
      vertex 34 -0.290284 -0.95694
    endloop
  endfacet
  facet normal 1 0 0
    outer loop
      vertex 34 -1.73205 -3
      vertex 34 -0.290284 -0.95694
      vertex 34 -0.382683 -0.923879
    endloop
  endfacet
  facet normal 1 0 0
    outer loop
      vertex 34 -1.73205 -3
      vertex 34 -0.382683 -0.923879
      vertex 34 -0.471396 -0.881921
    endloop
  endfacet
  facet normal 1 0 0
    outer loop
      vertex 34 -1.73205 -3
      vertex 34 -0.471396 -0.881921
      vertex 34 -0.55557 -0.83147
    endloop
  endfacet
  facet normal 1 0 0
    outer loop
      vertex 34 -1.73205 -3
      vertex 34 -0.55557 -0.83147
      vertex 34 -0.634393 -0.77301
    endloop
  endfacet
  facet normal 1 0 0
    outer loop
      vertex 34 -1.73205 -3
      vertex 34 -0.634393 -0.77301
      vertex 34 -0.707107 -0.707107
    endloop
  endfacet
  facet normal 1 0 0
    outer loop
      vertex 34 -0.995184 0.0980167
      vertex 34 -3.4641 7.54952e-015
      vertex 34 -1 7.54952e-015
    endloop
  endfacet
  facet normal 1 0 0
    outer loop
      vertex 34 -1 7.54952e-015
      vertex 34 -3.4641 7.54952e-015
      vertex 34 -0.995184 -0.0980167
    endloop
  endfacet
  facet normal 1 0 0
    outer loop
      vertex 34 -7.54952e-015 -1
      vertex 34 -1.73205 -3
      vertex 34 1.73205 -3
    endloop
  endfacet
  facet normal 1 0 0
    outer loop
      vertex 34 -0.77301 -0.634393
      vertex 34 -1.73205 -3
      vertex 34 -0.707107 -0.707107
    endloop
  endfacet
  facet normal 1 0 0
    outer loop
      vertex 34 -0.83147 -0.55557
      vertex 34 -1.73205 -3
      vertex 34 -0.77301 -0.634393
    endloop
  endfacet
  facet normal 1 0 0
    outer loop
      vertex 34 -0.881921 -0.471396
      vertex 34 -1.73205 -3
      vertex 34 -0.83147 -0.55557
    endloop
  endfacet
  facet normal 1 0 0
    outer loop
      vertex 34 -3.4641 7.54952e-015
      vertex 34 -0.881921 -0.471396
      vertex 34 -0.923879 -0.382683
    endloop
  endfacet
  facet normal 1 0 0
    outer loop
      vertex 34 -3.4641 7.54952e-015
      vertex 34 -0.923879 -0.382683
      vertex 34 -0.95694 -0.290284
    endloop
  endfacet
  facet normal 1 0 0
    outer loop
      vertex 34 -3.4641 7.54952e-015
      vertex 34 -0.95694 -0.290284
      vertex 34 -0.980784 -0.19509
    endloop
  endfacet
  facet normal 1 0 0
    outer loop
      vertex 34 -0.995184 -0.0980167
      vertex 34 -3.4641 7.54952e-015
      vertex 34 -0.980784 -0.19509
    endloop
  endfacet
  facet normal 1 0 0
    outer loop
      vertex 34 -0.881921 -0.471396
      vertex 34 -3.4641 7.54952e-015
      vertex 34 -1.73205 -3
    endloop
  endfacet
  facet normal 0 -0.671557 -0.740953
    outer loop
      vertex 34 0.634393 0.77301
      vertex 0 0.707107 0.707107
      vertex 34 0.707107 0.707107
    endloop
  endfacet
  facet normal 0 -0.671557 -0.740953
    outer loop
      vertex 0 0.707107 0.707107
      vertex 34 0.634393 0.77301
      vertex -3.07793e-017 0.634393 0.77301
    endloop
  endfacet
  facet normal -1.09018e-017 -0.998795 0.0490758
    outer loop
      vertex 2.42739e-016 0.995184 -0.0980167
      vertex 34 1 7.54952e-015
      vertex 2.22045e-016 1 0
    endloop
  endfacet
  facet normal 0 -0.998795 0.0490758
    outer loop
      vertex 34 1 7.54952e-015
      vertex 2.42739e-016 0.995184 -0.0980167
      vertex 34 0.995184 -0.0980167
    endloop
  endfacet
  facet normal 0 0.336892 -0.941543
    outer loop
      vertex 34 -0.382683 0.923879
      vertex -2.76939e-016 -0.290284 0.95694
      vertex 34 -0.290284 0.95694
    endloop
  endfacet
  facet normal 0 0.336892 -0.941543
    outer loop
      vertex -2.76939e-016 -0.290284 0.95694
      vertex 34 -0.382683 0.923879
      vertex -2.90115e-016 -0.382683 0.923879
    endloop
  endfacet
  facet normal 0 0.903992 -0.42755
    outer loop
      vertex 34 -0.923879 0.382683
      vertex -3.00497e-016 -0.881921 0.471396
      vertex 34 -0.881921 0.471396
    endloop
  endfacet
  facet normal 0 0.903992 -0.42755
    outer loop
      vertex -3.00497e-016 -0.881921 0.471396
      vertex 34 -0.923879 0.382683
      vertex -2.90115e-016 -0.923879 0.382683
    endloop
  endfacet
  facet normal -0 0.42755 0.903992
    outer loop
      vertex 1.2017e-016 -0.382683 -0.923879
      vertex 34 -0.471396 -0.881921
      vertex 34 -0.382683 -0.923879
    endloop
  endfacet
  facet normal 0 0.42755 0.903992
    outer loop
      vertex 34 -0.471396 -0.881921
      vertex 1.2017e-016 -0.382683 -0.923879
      vertex 9.11547e-017 -0.471396 -0.881921
    endloop
  endfacet
  facet normal 0 -0.903992 -0.42755
    outer loop
      vertex 1.2017e-016 0.923879 0.382683
      vertex 34 0.881921 0.471396
      vertex 9.11547e-017 0.881921 0.471396
    endloop
  endfacet
  facet normal 0 -0.903992 -0.42755
    outer loop
      vertex 34 0.881921 0.471396
      vertex 1.2017e-016 0.923879 0.382683
      vertex 34 0.923879 0.382683
    endloop
  endfacet
  facet normal 0 -0.857729 -0.514101
    outer loop
      vertex 9.11547e-017 0.881921 0.471396
      vertex 34 0.83147 0.55557
      vertex 6.12621e-017 0.83147 0.55557
    endloop
  endfacet
  facet normal 0 -0.857729 -0.514101
    outer loop
      vertex 34 0.83147 0.55557
      vertex 9.11547e-017 0.881921 0.471396
      vertex 34 0.881921 0.471396
    endloop
  endfacet
  facet normal 0 -0.42755 -0.903992
    outer loop
      vertex 34 0.382683 0.923879
      vertex -9.11547e-017 0.471396 0.881921
      vertex 34 0.471396 0.881921
    endloop
  endfacet
  facet normal 0 -0.42755 -0.903992
    outer loop
      vertex -9.11547e-017 0.471396 0.881921
      vertex 34 0.382683 0.923879
      vertex -1.2017e-016 0.382683 0.923879
    endloop
  endfacet
  facet normal 0 0.740953 -0.671557
    outer loop
      vertex 34 -0.77301 0.634393
      vertex -3.14018e-016 -0.707107 0.707107
      vertex 34 -0.707107 0.707107
    endloop
  endfacet
  facet normal 0 0.740953 -0.671557
    outer loop
      vertex -3.14018e-016 -0.707107 0.707107
      vertex 34 -0.77301 0.634393
      vertex -3.12506e-016 -0.77301 0.634393
    endloop
  endfacet
  facet normal 0 0.146731 -0.989176
    outer loop
      vertex 34 -0.19509 0.980784
      vertex -2.42739e-016 -0.0980167 0.995184
      vertex 34 -0.0980167 0.995184
    endloop
  endfacet
  facet normal 0 0.146731 -0.989176
    outer loop
      vertex -2.42739e-016 -0.0980167 0.995184
      vertex 34 -0.19509 0.980784
      vertex -2.61097e-016 -0.19509 0.980784
    endloop
  endfacet
  facet normal 0 -0.941543 0.336892
    outer loop
      vertex 2.90115e-016 0.923879 -0.382683
      vertex 34 0.95694 -0.290284
      vertex 2.76939e-016 0.95694 -0.290284
    endloop
  endfacet
  facet normal 0 -0.941543 0.336892
    outer loop
      vertex 34 0.95694 -0.290284
      vertex 2.90115e-016 0.923879 -0.382683
      vertex 34 0.923879 -0.382683
    endloop
  endfacet
  facet normal -0 0.146731 0.989176
    outer loop
      vertex 1.99211e-016 -0.0980167 -0.995184
      vertex 34 -0.19509 -0.980784
      vertex 34 -0.0980167 -0.995184
    endloop
  endfacet
  facet normal 0 0.146731 0.989176
    outer loop
      vertex 34 -0.19509 -0.980784
      vertex 1.99211e-016 -0.0980167 -0.995184
      vertex 1.74459e-016 -0.19509 -0.980784
    endloop
  endfacet
  facet normal -0 0.671557 0.740953
    outer loop
      vertex 3.07793e-017 -0.634393 -0.77301
      vertex 34 -0.707107 -0.707107
      vertex 34 -0.634393 -0.77301
    endloop
  endfacet
  facet normal 0 0.671557 0.740953
    outer loop
      vertex 34 -0.707107 -0.707107
      vertex 3.07793e-017 -0.634393 -0.77301
      vertex 0 -0.707107 -0.707107
    endloop
  endfacet
  facet normal 0 -0.970031 -0.242979
    outer loop
      vertex 1.74459e-016 0.980784 0.19509
      vertex 34 0.95694 0.290284
      vertex 1.48027e-016 0.95694 0.290284
    endloop
  endfacet
  facet normal 0 -0.970031 -0.242979
    outer loop
      vertex 34 0.95694 0.290284
      vertex 1.74459e-016 0.980784 0.19509
      vertex 34 0.980784 0.19509
    endloop
  endfacet
  facet normal 0 -0.941543 -0.336892
    outer loop
      vertex 1.48027e-016 0.95694 0.290284
      vertex 34 0.923879 0.382683
      vertex 1.2017e-016 0.923879 0.382683
    endloop
  endfacet
  facet normal 0 -0.941543 -0.336892
    outer loop
      vertex 34 0.923879 0.382683
      vertex 1.48027e-016 0.95694 0.290284
      vertex 34 0.95694 0.290284
    endloop
  endfacet
  facet normal 0 -0.803207 -0.5957
    outer loop
      vertex 6.12621e-017 0.83147 0.55557
      vertex 34 0.77301 0.634393
      vertex 3.07793e-017 0.77301 0.634393
    endloop
  endfacet
  facet normal 0 -0.803207 -0.5957
    outer loop
      vertex 34 0.77301 0.634393
      vertex 6.12621e-017 0.83147 0.55557
      vertex 34 0.83147 0.55557
    endloop
  endfacet
  facet normal 0 -0.740953 -0.671557
    outer loop
      vertex 3.07793e-017 0.77301 0.634393
      vertex 34 0.707107 0.707107
      vertex 0 0.707107 0.707107
    endloop
  endfacet
  facet normal 0 -0.740953 -0.671557
    outer loop
      vertex 34 0.707107 0.707107
      vertex 3.07793e-017 0.77301 0.634393
      vertex 34 0.77301 0.634393
    endloop
  endfacet
  facet normal 0 -0.5957 -0.803207
    outer loop
      vertex 34 0.55557 0.83147
      vertex -3.07793e-017 0.634393 0.77301
      vertex 34 0.634393 0.77301
    endloop
  endfacet
  facet normal 0 -0.5957 -0.803207
    outer loop
      vertex -3.07793e-017 0.634393 0.77301
      vertex 34 0.55557 0.83147
      vertex -6.12621e-017 0.55557 0.83147
    endloop
  endfacet
  facet normal 0 -0.0490758 -0.998795
    outer loop
      vertex 34 -7.54952e-015 1
      vertex -1.99211e-016 0.0980167 0.995184
      vertex 34 0.0980167 0.995184
    endloop
  endfacet
  facet normal -1.09018e-017 -0.0490758 -0.998795
    outer loop
      vertex -1.99211e-016 0.0980167 0.995184
      vertex 34 -7.54952e-015 1
      vertex -2.22045e-016 0 1
    endloop
  endfacet
  facet normal 0 -0.514101 -0.857729
    outer loop
      vertex 34 0.471396 0.881921
      vertex -6.12621e-017 0.55557 0.83147
      vertex 34 0.55557 0.83147
    endloop
  endfacet
  facet normal 0 -0.514101 -0.857729
    outer loop
      vertex -6.12621e-017 0.55557 0.83147
      vertex 34 0.471396 0.881921
      vertex -9.11547e-017 0.471396 0.881921
    endloop
  endfacet
  facet normal 0 -0.336892 -0.941543
    outer loop
      vertex 34 0.290284 0.95694
      vertex -1.2017e-016 0.382683 0.923879
      vertex 34 0.382683 0.923879
    endloop
  endfacet
  facet normal 0 -0.336892 -0.941543
    outer loop
      vertex -1.2017e-016 0.382683 0.923879
      vertex 34 0.290284 0.95694
      vertex -1.48027e-016 0.290284 0.95694
    endloop
  endfacet
  facet normal 0 -0.242979 -0.970031
    outer loop
      vertex 34 0.19509 0.980784
      vertex -1.48027e-016 0.290284 0.95694
      vertex 34 0.290284 0.95694
    endloop
  endfacet
  facet normal 0 -0.242979 -0.970031
    outer loop
      vertex -1.48027e-016 0.290284 0.95694
      vertex 34 0.19509 0.980784
      vertex -1.74459e-016 0.19509 0.980784
    endloop
  endfacet
  facet normal 0 0.998795 -0.0490758
    outer loop
      vertex 34 -1 7.54952e-015
      vertex -2.42739e-016 -0.995184 0.0980167
      vertex 34 -0.995184 0.0980167
    endloop
  endfacet
  facet normal 1.09018e-017 0.998795 -0.0490758
    outer loop
      vertex -2.42739e-016 -0.995184 0.0980167
      vertex 34 -1 7.54952e-015
      vertex -2.22045e-016 -1 0
    endloop
  endfacet
  facet normal 0 0.941543 -0.336892
    outer loop
      vertex 34 -0.95694 0.290284
      vertex -2.90115e-016 -0.923879 0.382683
      vertex 34 -0.923879 0.382683
    endloop
  endfacet
  facet normal 0 0.941543 -0.336892
    outer loop
      vertex -2.90115e-016 -0.923879 0.382683
      vertex 34 -0.95694 0.290284
      vertex -2.76939e-016 -0.95694 0.290284
    endloop
  endfacet
  facet normal 0 0.970031 -0.242979
    outer loop
      vertex 34 -0.980784 0.19509
      vertex -2.76939e-016 -0.95694 0.290284
      vertex 34 -0.95694 0.290284
    endloop
  endfacet
  facet normal 0 0.970031 -0.242979
    outer loop
      vertex -2.76939e-016 -0.95694 0.290284
      vertex 34 -0.980784 0.19509
      vertex -2.61097e-016 -0.980784 0.19509
    endloop
  endfacet
  facet normal 0 0.857729 -0.514101
    outer loop
      vertex 34 -0.881921 0.471396
      vertex -3.07985e-016 -0.83147 0.55557
      vertex 34 -0.83147 0.55557
    endloop
  endfacet
  facet normal 0 0.857729 -0.514101
    outer loop
      vertex -3.07985e-016 -0.83147 0.55557
      vertex 34 -0.881921 0.471396
      vertex -3.00497e-016 -0.881921 0.471396
    endloop
  endfacet
  facet normal 0 0.803207 -0.5957
    outer loop
      vertex 34 -0.83147 0.55557
      vertex -3.12506e-016 -0.77301 0.634393
      vertex 34 -0.77301 0.634393
    endloop
  endfacet
  facet normal 0 0.803207 -0.5957
    outer loop
      vertex -3.12506e-016 -0.77301 0.634393
      vertex 34 -0.83147 0.55557
      vertex -3.07985e-016 -0.83147 0.55557
    endloop
  endfacet
  facet normal 0 0.242979 -0.970031
    outer loop
      vertex 34 -0.290284 0.95694
      vertex -2.61097e-016 -0.19509 0.980784
      vertex 34 -0.19509 0.980784
    endloop
  endfacet
  facet normal 0 0.242979 -0.970031
    outer loop
      vertex -2.61097e-016 -0.19509 0.980784
      vertex 34 -0.290284 0.95694
      vertex -2.76939e-016 -0.290284 0.95694
    endloop
  endfacet
  facet normal 1.09018e-017 0.0490758 -0.998795
    outer loop
      vertex 34 -0.0980167 0.995184
      vertex -2.22045e-016 0 1
      vertex 34 -7.54952e-015 1
    endloop
  endfacet
  facet normal 0 0.0490758 -0.998795
    outer loop
      vertex -2.22045e-016 0 1
      vertex 34 -0.0980167 0.995184
      vertex -2.42739e-016 -0.0980167 0.995184
    endloop
  endfacet
  facet normal 0 0.514101 -0.857729
    outer loop
      vertex 34 -0.55557 0.83147
      vertex -3.00497e-016 -0.471396 0.881921
      vertex 34 -0.471396 0.881921
    endloop
  endfacet
  facet normal 0 0.514101 -0.857729
    outer loop
      vertex -3.00497e-016 -0.471396 0.881921
      vertex 34 -0.55557 0.83147
      vertex -3.07985e-016 -0.55557 0.83147
    endloop
  endfacet
  facet normal 0 0.5957 -0.803207
    outer loop
      vertex 34 -0.634393 0.77301
      vertex -3.07985e-016 -0.55557 0.83147
      vertex 34 -0.55557 0.83147
    endloop
  endfacet
  facet normal 0 0.5957 -0.803207
    outer loop
      vertex -3.07985e-016 -0.55557 0.83147
      vertex 34 -0.634393 0.77301
      vertex -3.12506e-016 -0.634393 0.77301
    endloop
  endfacet
  facet normal 0 0.42755 -0.903992
    outer loop
      vertex 34 -0.471396 0.881921
      vertex -2.90115e-016 -0.382683 0.923879
      vertex 34 -0.382683 0.923879
    endloop
  endfacet
  facet normal 0 0.42755 -0.903992
    outer loop
      vertex -2.90115e-016 -0.382683 0.923879
      vertex 34 -0.471396 0.881921
      vertex -3.00497e-016 -0.471396 0.881921
    endloop
  endfacet
  facet normal 0 0.671557 -0.740953
    outer loop
      vertex 34 -0.707107 0.707107
      vertex -3.12506e-016 -0.634393 0.77301
      vertex 34 -0.634393 0.77301
    endloop
  endfacet
  facet normal 0 0.671557 -0.740953
    outer loop
      vertex -3.12506e-016 -0.634393 0.77301
      vertex 34 -0.707107 0.707107
      vertex -3.14018e-016 -0.707107 0.707107
    endloop
  endfacet
  facet normal 0 -0.998795 -0.0490758
    outer loop
      vertex 1.99211e-016 0.995184 0.0980167
      vertex 34 1 7.54952e-015
      vertex 34 0.995184 0.0980167
    endloop
  endfacet
  facet normal 1.0897e-017 -0.998795 -0.0490758
    outer loop
      vertex 34 1 7.54952e-015
      vertex 1.99211e-016 0.995184 0.0980167
      vertex 2.22045e-016 1 0
    endloop
  endfacet
  facet normal 0 -0.970031 0.242979
    outer loop
      vertex 2.76939e-016 0.95694 -0.290284
      vertex 34 0.980784 -0.19509
      vertex 2.61097e-016 0.980784 -0.19509
    endloop
  endfacet
  facet normal 0 -0.970031 0.242979
    outer loop
      vertex 34 0.980784 -0.19509
      vertex 2.76939e-016 0.95694 -0.290284
      vertex 34 0.95694 -0.290284
    endloop
  endfacet
  facet normal 0 -0.0490758 0.998795
    outer loop
      vertex 2.42739e-016 0.0980167 -0.995184
      vertex 34 -7.54952e-015 -1
      vertex 34 0.0980167 -0.995184
    endloop
  endfacet
  facet normal -1.0897e-017 -0.0490758 0.998795
    outer loop
      vertex 34 -7.54952e-015 -1
      vertex 2.42739e-016 0.0980167 -0.995184
      vertex 2.22045e-016 0 -1
    endloop
  endfacet
  facet normal 0 -0.740953 0.671557
    outer loop
      vertex 3.14018e-016 0.707107 -0.707107
      vertex 34 0.77301 -0.634393
      vertex 3.12506e-016 0.77301 -0.634393
    endloop
  endfacet
  facet normal 0 -0.740953 0.671557
    outer loop
      vertex 34 0.77301 -0.634393
      vertex 3.14018e-016 0.707107 -0.707107
      vertex 34 0.707107 -0.707107
    endloop
  endfacet
  facet normal 0 -0.146731 0.989176
    outer loop
      vertex 2.61097e-016 0.19509 -0.980784
      vertex 34 0.0980167 -0.995184
      vertex 34 0.19509 -0.980784
    endloop
  endfacet
  facet normal 0 -0.146731 0.989176
    outer loop
      vertex 34 0.0980167 -0.995184
      vertex 2.61097e-016 0.19509 -0.980784
      vertex 2.42739e-016 0.0980167 -0.995184
    endloop
  endfacet
  facet normal 0 -0.242979 0.970031
    outer loop
      vertex 2.76939e-016 0.290284 -0.95694
      vertex 34 0.19509 -0.980784
      vertex 34 0.290284 -0.95694
    endloop
  endfacet
  facet normal 0 -0.242979 0.970031
    outer loop
      vertex 34 0.19509 -0.980784
      vertex 2.76939e-016 0.290284 -0.95694
      vertex 2.61097e-016 0.19509 -0.980784
    endloop
  endfacet
  facet normal 0 -0.5957 0.803207
    outer loop
      vertex 3.12506e-016 0.634393 -0.77301
      vertex 34 0.55557 -0.83147
      vertex 34 0.634393 -0.77301
    endloop
  endfacet
  facet normal 0 -0.5957 0.803207
    outer loop
      vertex 34 0.55557 -0.83147
      vertex 3.12506e-016 0.634393 -0.77301
      vertex 3.07985e-016 0.55557 -0.83147
    endloop
  endfacet
  facet normal 0 -0.42755 0.903992
    outer loop
      vertex 3.00497e-016 0.471396 -0.881921
      vertex 34 0.382683 -0.923879
      vertex 34 0.471396 -0.881921
    endloop
  endfacet
  facet normal 0 -0.42755 0.903992
    outer loop
      vertex 34 0.382683 -0.923879
      vertex 3.00497e-016 0.471396 -0.881921
      vertex 2.90115e-016 0.382683 -0.923879
    endloop
  endfacet
  facet normal 1.0897e-017 0.0490758 0.998795
    outer loop
      vertex 2.22045e-016 0 -1
      vertex 34 -0.0980167 -0.995184
      vertex 34 -7.54952e-015 -1
    endloop
  endfacet
  facet normal 0 0.0490758 0.998795
    outer loop
      vertex 34 -0.0980167 -0.995184
      vertex 2.22045e-016 0 -1
      vertex 1.99211e-016 -0.0980167 -0.995184
    endloop
  endfacet
  facet normal -0 0.336892 0.941543
    outer loop
      vertex 1.48027e-016 -0.290284 -0.95694
      vertex 34 -0.382683 -0.923879
      vertex 34 -0.290284 -0.95694
    endloop
  endfacet
  facet normal 0 0.336892 0.941543
    outer loop
      vertex 34 -0.382683 -0.923879
      vertex 1.48027e-016 -0.290284 -0.95694
      vertex 1.2017e-016 -0.382683 -0.923879
    endloop
  endfacet
  facet normal -0 0.514101 0.857729
    outer loop
      vertex 9.11547e-017 -0.471396 -0.881921
      vertex 34 -0.55557 -0.83147
      vertex 34 -0.471396 -0.881921
    endloop
  endfacet
  facet normal 0 0.514101 0.857729
    outer loop
      vertex 34 -0.55557 -0.83147
      vertex 9.11547e-017 -0.471396 -0.881921
      vertex 6.12621e-017 -0.55557 -0.83147
    endloop
  endfacet
  facet normal 0 0.970031 0.242979
    outer loop
      vertex 34 -0.95694 -0.290284
      vertex -1.74459e-016 -0.980784 -0.19509
      vertex 34 -0.980784 -0.19509
    endloop
  endfacet
  facet normal 0 0.970031 0.242979
    outer loop
      vertex -1.74459e-016 -0.980784 -0.19509
      vertex 34 -0.95694 -0.290284
      vertex -1.48027e-016 -0.95694 -0.290284
    endloop
  endfacet
  facet normal -1.09018e-017 0.998795 0.0490758
    outer loop
      vertex 34 -0.995184 -0.0980167
      vertex -2.22045e-016 -1 0
      vertex 34 -1 7.54952e-015
    endloop
  endfacet
  facet normal 0 0.998795 0.0490758
    outer loop
      vertex -2.22045e-016 -1 0
      vertex 34 -0.995184 -0.0980167
      vertex -1.99211e-016 -0.995184 -0.0980167
    endloop
  endfacet
  facet normal 0 0.803207 0.5957
    outer loop
      vertex 34 -0.77301 -0.634393
      vertex -6.12621e-017 -0.83147 -0.55557
      vertex 34 -0.83147 -0.55557
    endloop
  endfacet
  facet normal 0 0.803207 0.5957
    outer loop
      vertex -6.12621e-017 -0.83147 -0.55557
      vertex 34 -0.77301 -0.634393
      vertex -3.07793e-017 -0.77301 -0.634393
    endloop
  endfacet
  facet normal 0 0.857729 0.514101
    outer loop
      vertex 34 -0.83147 -0.55557
      vertex -9.11547e-017 -0.881921 -0.471396
      vertex 34 -0.881921 -0.471396
    endloop
  endfacet
  facet normal 0 0.857729 0.514101
    outer loop
      vertex -9.11547e-017 -0.881921 -0.471396
      vertex 34 -0.83147 -0.55557
      vertex -6.12621e-017 -0.83147 -0.55557
    endloop
  endfacet
  facet normal 0 0.903992 0.42755
    outer loop
      vertex 34 -0.881921 -0.471396
      vertex -1.2017e-016 -0.923879 -0.382683
      vertex 34 -0.923879 -0.382683
    endloop
  endfacet
  facet normal 0 0.903992 0.42755
    outer loop
      vertex -1.2017e-016 -0.923879 -0.382683
      vertex 34 -0.881921 -0.471396
      vertex -9.11547e-017 -0.881921 -0.471396
    endloop
  endfacet
  facet normal 0 -0.989176 -0.146731
    outer loop
      vertex 1.99211e-016 0.995184 0.0980167
      vertex 34 0.980784 0.19509
      vertex 1.74459e-016 0.980784 0.19509
    endloop
  endfacet
  facet normal 0 -0.989176 -0.146731
    outer loop
      vertex 34 0.980784 0.19509
      vertex 1.99211e-016 0.995184 0.0980167
      vertex 34 0.995184 0.0980167
    endloop
  endfacet
  facet normal 0 -0.146731 -0.989176
    outer loop
      vertex 34 0.0980167 0.995184
      vertex -1.74459e-016 0.19509 0.980784
      vertex 34 0.19509 0.980784
    endloop
  endfacet
  facet normal 0 -0.146731 -0.989176
    outer loop
      vertex -1.74459e-016 0.19509 0.980784
      vertex 34 0.0980167 0.995184
      vertex -1.99211e-016 0.0980167 0.995184
    endloop
  endfacet
  facet normal 0 0.989176 -0.146731
    outer loop
      vertex 34 -0.995184 0.0980167
      vertex -2.61097e-016 -0.980784 0.19509
      vertex 34 -0.980784 0.19509
    endloop
  endfacet
  facet normal 0 0.989176 -0.146731
    outer loop
      vertex -2.61097e-016 -0.980784 0.19509
      vertex 34 -0.995184 0.0980167
      vertex -2.42739e-016 -0.995184 0.0980167
    endloop
  endfacet
  facet normal 0 -0.989176 0.146731
    outer loop
      vertex 2.61097e-016 0.980784 -0.19509
      vertex 34 0.995184 -0.0980167
      vertex 2.42739e-016 0.995184 -0.0980167
    endloop
  endfacet
  facet normal 0 -0.989176 0.146731
    outer loop
      vertex 34 0.995184 -0.0980167
      vertex 2.61097e-016 0.980784 -0.19509
      vertex 34 0.980784 -0.19509
    endloop
  endfacet
  facet normal 0 -0.857729 0.514101
    outer loop
      vertex 3.07985e-016 0.83147 -0.55557
      vertex 34 0.881921 -0.471396
      vertex 3.00497e-016 0.881921 -0.471396
    endloop
  endfacet
  facet normal 0 -0.857729 0.514101
    outer loop
      vertex 34 0.881921 -0.471396
      vertex 3.07985e-016 0.83147 -0.55557
      vertex 34 0.83147 -0.55557
    endloop
  endfacet
  facet normal 0 -0.336892 0.941543
    outer loop
      vertex 2.90115e-016 0.382683 -0.923879
      vertex 34 0.290284 -0.95694
      vertex 34 0.382683 -0.923879
    endloop
  endfacet
  facet normal 0 -0.336892 0.941543
    outer loop
      vertex 34 0.290284 -0.95694
      vertex 2.90115e-016 0.382683 -0.923879
      vertex 2.76939e-016 0.290284 -0.95694
    endloop
  endfacet
  facet normal 0 -0.671557 0.740953
    outer loop
      vertex 3.14018e-016 0.707107 -0.707107
      vertex 34 0.634393 -0.77301
      vertex 34 0.707107 -0.707107
    endloop
  endfacet
  facet normal 0 -0.671557 0.740953
    outer loop
      vertex 34 0.634393 -0.77301
      vertex 3.14018e-016 0.707107 -0.707107
      vertex 3.12506e-016 0.634393 -0.77301
    endloop
  endfacet
  facet normal 0 -0.514101 0.857729
    outer loop
      vertex 3.07985e-016 0.55557 -0.83147
      vertex 34 0.471396 -0.881921
      vertex 34 0.55557 -0.83147
    endloop
  endfacet
  facet normal 0 -0.514101 0.857729
    outer loop
      vertex 34 0.471396 -0.881921
      vertex 3.07985e-016 0.55557 -0.83147
      vertex 3.00497e-016 0.471396 -0.881921
    endloop
  endfacet
  facet normal -0 0.242979 0.970031
    outer loop
      vertex 1.74459e-016 -0.19509 -0.980784
      vertex 34 -0.290284 -0.95694
      vertex 34 -0.19509 -0.980784
    endloop
  endfacet
  facet normal 0 0.242979 0.970031
    outer loop
      vertex 34 -0.290284 -0.95694
      vertex 1.74459e-016 -0.19509 -0.980784
      vertex 1.48027e-016 -0.290284 -0.95694
    endloop
  endfacet
  facet normal -0 0.5957 0.803207
    outer loop
      vertex 6.12621e-017 -0.55557 -0.83147
      vertex 34 -0.634393 -0.77301
      vertex 34 -0.55557 -0.83147
    endloop
  endfacet
  facet normal 0 0.5957 0.803207
    outer loop
      vertex 34 -0.634393 -0.77301
      vertex 6.12621e-017 -0.55557 -0.83147
      vertex 3.07793e-017 -0.634393 -0.77301
    endloop
  endfacet
  facet normal 0 0.941543 0.336892
    outer loop
      vertex 34 -0.923879 -0.382683
      vertex -1.48027e-016 -0.95694 -0.290284
      vertex 34 -0.95694 -0.290284
    endloop
  endfacet
  facet normal 0 0.941543 0.336892
    outer loop
      vertex -1.48027e-016 -0.95694 -0.290284
      vertex 34 -0.923879 -0.382683
      vertex -1.2017e-016 -0.923879 -0.382683
    endloop
  endfacet
  facet normal 0 0.989176 0.146731
    outer loop
      vertex 34 -0.980784 -0.19509
      vertex -1.99211e-016 -0.995184 -0.0980167
      vertex 34 -0.995184 -0.0980167
    endloop
  endfacet
  facet normal 0 0.989176 0.146731
    outer loop
      vertex -1.99211e-016 -0.995184 -0.0980167
      vertex 34 -0.980784 -0.19509
      vertex -1.74459e-016 -0.980784 -0.19509
    endloop
  endfacet
  facet normal 0 0.740953 0.671557
    outer loop
      vertex 34 -0.707107 -0.707107
      vertex -3.07793e-017 -0.77301 -0.634393
      vertex 34 -0.77301 -0.634393
    endloop
  endfacet
  facet normal 0 0.740953 0.671557
    outer loop
      vertex -3.07793e-017 -0.77301 -0.634393
      vertex 34 -0.707107 -0.707107
      vertex 0 -0.707107 -0.707107
    endloop
  endfacet
  facet normal 0 -0.903992 0.42755
    outer loop
      vertex 3.00497e-016 0.881921 -0.471396
      vertex 34 0.923879 -0.382683
      vertex 2.90115e-016 0.923879 -0.382683
    endloop
  endfacet
  facet normal 0 -0.903992 0.42755
    outer loop
      vertex 34 0.923879 -0.382683
      vertex 3.00497e-016 0.881921 -0.471396
      vertex 34 0.881921 -0.471396
    endloop
  endfacet
  facet normal 0 -0.803207 0.5957
    outer loop
      vertex 3.12506e-016 0.77301 -0.634393
      vertex 34 0.83147 -0.55557
      vertex 3.07985e-016 0.83147 -0.55557
    endloop
  endfacet
  facet normal 0 -0.803207 0.5957
    outer loop
      vertex 34 0.83147 -0.55557
      vertex 3.12506e-016 0.77301 -0.634393
      vertex 34 0.77301 -0.634393
    endloop
  endfacet
  facet normal 0 1 -0
    outer loop
      vertex 29 1.73205 -3
      vertex 7 1.73205 3
      vertex 29 1.73205 3
    endloop
  endfacet
  facet normal 0 1 0
    outer loop
      vertex 7 1.73205 3
      vertex 29 1.73205 -3
      vertex 7 1.73205 -3
    endloop
  endfacet
  facet normal -1 0 0
    outer loop
      vertex 29 1.73205 3
      vertex 29 3.4641 6.43929e-015
      vertex 29 1.73205 -3
    endloop
  endfacet
  facet normal 1 0 0
    outer loop
      vertex 7 3.4641 1.55431e-015
      vertex 7 1.73205 3
      vertex 7 1.73205 -3
    endloop
  endfacet
endsolid OpenSCAD_Model
