solid OpenSCAD_Model
  facet normal -1 0 0
    outer loop
      vertex -21.5 -10.5 -1.5
      vertex -21.5 10.5 1.5
      vertex -21.5 10.5 -1.5
    endloop
  endfacet
  facet normal -1 -0 0
    outer loop
      vertex -21.5 10.5 1.5
      vertex -21.5 -10.5 -1.5
      vertex -21.5 -10.5 1.5
    endloop
  endfacet
  facet normal 0 0 1
    outer loop
      vertex 15.976 7.95614 1.5
      vertex 21.5 10.5 1.5
      vertex 16 8.2 1.5
    endloop
  endfacet
  facet normal 0 0 1
    outer loop
      vertex 21.5 10.5 1.5
      vertex 15.976 8.44386 1.5
      vertex 16 8.2 1.5
    endloop
  endfacet
  facet normal 0 0 1
    outer loop
      vertex 21.5 10.5 1.5
      vertex 15.9048 8.67835 1.5
      vertex 15.976 8.44386 1.5
    endloop
  endfacet
  facet normal 0 0 1
    outer loop
      vertex 21.5 10.5 1.5
      vertex 15.7893 8.89446 1.5
      vertex 15.9048 8.67835 1.5
    endloop
  endfacet
  facet normal 0 0 1
    outer loop
      vertex 21.5 10.5 1.5
      vertex 15.6339 9.08388 1.5
      vertex 15.7893 8.89446 1.5
    endloop
  endfacet
  facet normal 0 0 1
    outer loop
      vertex 21.5 10.5 1.5
      vertex 15.4445 9.23934 1.5
      vertex 15.6339 9.08388 1.5
    endloop
  endfacet
  facet normal 0 0 1
    outer loop
      vertex 21.5 10.5 1.5
      vertex 15.2284 9.35485 1.5
      vertex 15.4445 9.23934 1.5
    endloop
  endfacet
  facet normal 0 0 1
    outer loop
      vertex 21.5 10.5 1.5
      vertex 14.9939 9.42598 1.5
      vertex 15.2284 9.35485 1.5
    endloop
  endfacet
  facet normal 0 0 1
    outer loop
      vertex 21.5 10.5 1.5
      vertex 14.75 9.45 1.5
      vertex 14.9939 9.42598 1.5
    endloop
  endfacet
  facet normal 0 0 1
    outer loop
      vertex 21.5 10.5 1.5
      vertex 14.5061 9.42598 1.5
      vertex 14.75 9.45 1.5
    endloop
  endfacet
  facet normal 0 0 1
    outer loop
      vertex -21.5 10.5 1.5
      vertex 13.5 8.2 1.5
      vertex 13.524 8.44386 1.5
    endloop
  endfacet
  facet normal 0 0 1
    outer loop
      vertex -21.5 10.5 1.5
      vertex 13.524 8.44386 1.5
      vertex 13.5951 8.67835 1.5
    endloop
  endfacet
  facet normal 0 0 1
    outer loop
      vertex -21.5 10.5 1.5
      vertex 13.5951 8.67835 1.5
      vertex 13.7107 8.89446 1.5
    endloop
  endfacet
  facet normal 0 0 1
    outer loop
      vertex -21.5 10.5 1.5
      vertex 13.7107 8.89446 1.5
      vertex 13.8661 9.08388 1.5
    endloop
  endfacet
  facet normal 0 0 1
    outer loop
      vertex -21.5 10.5 1.5
      vertex 13.8661 9.08388 1.5
      vertex 14.0555 9.23934 1.5
    endloop
  endfacet
  facet normal 0 0 1
    outer loop
      vertex 13.5 8.2 1.5
      vertex -13.524 -7.95614 1.5
      vertex -13.5 -8.2 1.5
    endloop
  endfacet
  facet normal 0 0 1
    outer loop
      vertex 13.5 8.2 1.5
      vertex -13.5951 -7.72165 1.5
      vertex -13.524 -7.95614 1.5
    endloop
  endfacet
  facet normal 0 0 1
    outer loop
      vertex 13.5 8.2 1.5
      vertex -13.7107 -7.50554 1.5
      vertex -13.5951 -7.72165 1.5
    endloop
  endfacet
  facet normal 0 0 1
    outer loop
      vertex 13.5 8.2 1.5
      vertex -13.8661 -7.31612 1.5
      vertex -13.7107 -7.50554 1.5
    endloop
  endfacet
  facet normal 0 0 1
    outer loop
      vertex 13.5 8.2 1.5
      vertex -14.0555 -7.16066 1.5
      vertex -13.8661 -7.31612 1.5
    endloop
  endfacet
  facet normal 0 0 1
    outer loop
      vertex 13.5 8.2 1.5
      vertex -21.5 10.5 1.5
      vertex -14.0555 -7.16066 1.5
    endloop
  endfacet
  facet normal 0 0 1
    outer loop
      vertex -14.0555 -7.16066 1.5
      vertex -21.5 10.5 1.5
      vertex -14.2716 -7.04515 1.5
    endloop
  endfacet
  facet normal 0 0 1
    outer loop
      vertex -14.2716 -7.04515 1.5
      vertex -21.5 10.5 1.5
      vertex -14.5061 -6.97402 1.5
    endloop
  endfacet
  facet normal 0 0 1
    outer loop
      vertex -14.5061 -6.97402 1.5
      vertex -21.5 10.5 1.5
      vertex -14.75 -6.95 1.5
    endloop
  endfacet
  facet normal 0 0 1
    outer loop
      vertex -14.75 -6.95 1.5
      vertex -21.5 10.5 1.5
      vertex -14.9939 -6.97402 1.5
    endloop
  endfacet
  facet normal 0 0 1
    outer loop
      vertex -14.9939 -6.97402 1.5
      vertex -21.5 10.5 1.5
      vertex -15.2284 -7.04515 1.5
    endloop
  endfacet
  facet normal 0 0 1
    outer loop
      vertex -15.9048 -7.72165 1.5
      vertex -21.5 -10.5 1.5
      vertex -15.976 -7.95614 1.5
    endloop
  endfacet
  facet normal 0 0 1
    outer loop
      vertex -15.7893 -7.50554 1.5
      vertex -21.5 -10.5 1.5
      vertex -15.9048 -7.72165 1.5
    endloop
  endfacet
  facet normal 0 0 1
    outer loop
      vertex -15.6339 -7.31612 1.5
      vertex -21.5 -10.5 1.5
      vertex -15.7893 -7.50554 1.5
    endloop
  endfacet
  facet normal 0 0 1
    outer loop
      vertex -21.5 -10.5 1.5
      vertex -15.6339 -7.31612 1.5
      vertex -21.5 10.5 1.5
    endloop
  endfacet
  facet normal 0 0 1
    outer loop
      vertex -15.4445 -7.16066 1.5
      vertex -21.5 10.5 1.5
      vertex -15.6339 -7.31612 1.5
    endloop
  endfacet
  facet normal 0 0 1
    outer loop
      vertex -15.2284 -7.04515 1.5
      vertex -21.5 10.5 1.5
      vertex -15.4445 -7.16066 1.5
    endloop
  endfacet
  facet normal 0 0 1
    outer loop
      vertex 14.2716 9.35485 1.5
      vertex -21.5 10.5 1.5
      vertex 14.0555 9.23934 1.5
    endloop
  endfacet
  facet normal 0 0 1
    outer loop
      vertex 14.5061 9.42598 1.5
      vertex -21.5 10.5 1.5
      vertex 14.2716 9.35485 1.5
    endloop
  endfacet
  facet normal -0 0 1
    outer loop
      vertex -21.5 10.5 1.5
      vertex 14.5061 9.42598 1.5
      vertex 21.5 10.5 1.5
    endloop
  endfacet
  facet normal 0 0 1
    outer loop
      vertex 15.9048 7.72165 1.5
      vertex 21.5 10.5 1.5
      vertex 15.976 7.95614 1.5
    endloop
  endfacet
  facet normal 0 0 1
    outer loop
      vertex 15.7893 7.50554 1.5
      vertex 21.5 10.5 1.5
      vertex 15.9048 7.72165 1.5
    endloop
  endfacet
  facet normal 0 0 1
    outer loop
      vertex 15.6339 7.31612 1.5
      vertex 21.5 10.5 1.5
      vertex 15.7893 7.50554 1.5
    endloop
  endfacet
  facet normal 0 0 1
    outer loop
      vertex 21.5 10.5 1.5
      vertex 15.6339 7.31612 1.5
      vertex 21.5 -10.5 1.5
    endloop
  endfacet
  facet normal -0 0 1
    outer loop
      vertex 15.4445 7.16066 1.5
      vertex 21.5 -10.5 1.5
      vertex 15.6339 7.31612 1.5
    endloop
  endfacet
  facet normal -0 0 1
    outer loop
      vertex 15.2284 7.04515 1.5
      vertex 21.5 -10.5 1.5
      vertex 15.4445 7.16066 1.5
    endloop
  endfacet
  facet normal -0 0 1
    outer loop
      vertex 14.9939 6.97402 1.5
      vertex 21.5 -10.5 1.5
      vertex 15.2284 7.04515 1.5
    endloop
  endfacet
  facet normal -0 0 1
    outer loop
      vertex 14.75 6.95 1.5
      vertex 21.5 -10.5 1.5
      vertex 14.9939 6.97402 1.5
    endloop
  endfacet
  facet normal 0 0 1
    outer loop
      vertex 14.5061 6.97402 1.5
      vertex 21.5 -10.5 1.5
      vertex 14.75 6.95 1.5
    endloop
  endfacet
  facet normal 0 0 1
    outer loop
      vertex 14.2716 7.04515 1.5
      vertex 21.5 -10.5 1.5
      vertex 14.5061 6.97402 1.5
    endloop
  endfacet
  facet normal 0 0 1
    outer loop
      vertex 14.0555 7.16066 1.5
      vertex 21.5 -10.5 1.5
      vertex 14.2716 7.04515 1.5
    endloop
  endfacet
  facet normal 0 0 1
    outer loop
      vertex -13.5 -8.2 1.5
      vertex 14.0555 7.16066 1.5
      vertex 13.8661 7.31612 1.5
    endloop
  endfacet
  facet normal 0 0 1
    outer loop
      vertex -13.5 -8.2 1.5
      vertex 13.8661 7.31612 1.5
      vertex 13.7107 7.50554 1.5
    endloop
  endfacet
  facet normal 0 0 1
    outer loop
      vertex -13.5 -8.2 1.5
      vertex 13.7107 7.50554 1.5
      vertex 13.5951 7.72165 1.5
    endloop
  endfacet
  facet normal 0 0 1
    outer loop
      vertex -13.5 -8.2 1.5
      vertex 13.524 7.95614 1.5
      vertex 13.5 8.2 1.5
    endloop
  endfacet
  facet normal 0 0 1
    outer loop
      vertex -13.5 -8.2 1.5
      vertex 13.5951 7.72165 1.5
      vertex 13.524 7.95614 1.5
    endloop
  endfacet
  facet normal 0 0 1
    outer loop
      vertex 14.0555 7.16066 1.5
      vertex -13.5 -8.2 1.5
      vertex 21.5 -10.5 1.5
    endloop
  endfacet
  facet normal -0 0 1
    outer loop
      vertex -13.524 -8.44386 1.5
      vertex 21.5 -10.5 1.5
      vertex -13.5 -8.2 1.5
    endloop
  endfacet
  facet normal -0 0 1
    outer loop
      vertex -13.5951 -8.67835 1.5
      vertex 21.5 -10.5 1.5
      vertex -13.524 -8.44386 1.5
    endloop
  endfacet
  facet normal -0 0 1
    outer loop
      vertex -13.7107 -8.89446 1.5
      vertex 21.5 -10.5 1.5
      vertex -13.5951 -8.67835 1.5
    endloop
  endfacet
  facet normal -0 0 1
    outer loop
      vertex -13.8661 -9.08388 1.5
      vertex 21.5 -10.5 1.5
      vertex -13.7107 -8.89446 1.5
    endloop
  endfacet
  facet normal -0 0 1
    outer loop
      vertex -14.0555 -9.23934 1.5
      vertex 21.5 -10.5 1.5
      vertex -13.8661 -9.08388 1.5
    endloop
  endfacet
  facet normal -0 0 1
    outer loop
      vertex -14.2716 -9.35485 1.5
      vertex 21.5 -10.5 1.5
      vertex -14.0555 -9.23934 1.5
    endloop
  endfacet
  facet normal -0 0 1
    outer loop
      vertex -14.5061 -9.42598 1.5
      vertex 21.5 -10.5 1.5
      vertex -14.2716 -9.35485 1.5
    endloop
  endfacet
  facet normal 0 0 1
    outer loop
      vertex -21.5 -10.5 1.5
      vertex -14.5061 -9.42598 1.5
      vertex -14.75 -9.45 1.5
    endloop
  endfacet
  facet normal 0 0 1
    outer loop
      vertex -15.976 -7.95614 1.5
      vertex -21.5 -10.5 1.5
      vertex -16 -8.2 1.5
    endloop
  endfacet
  facet normal 0 0 1
    outer loop
      vertex -14.5061 -9.42598 1.5
      vertex -21.5 -10.5 1.5
      vertex 21.5 -10.5 1.5
    endloop
  endfacet
  facet normal 0 0 1
    outer loop
      vertex -14.9939 -9.42598 1.5
      vertex -21.5 -10.5 1.5
      vertex -14.75 -9.45 1.5
    endloop
  endfacet
  facet normal 0 0 1
    outer loop
      vertex -15.2284 -9.35485 1.5
      vertex -21.5 -10.5 1.5
      vertex -14.9939 -9.42598 1.5
    endloop
  endfacet
  facet normal 0 0 1
    outer loop
      vertex -15.4445 -9.23934 1.5
      vertex -21.5 -10.5 1.5
      vertex -15.2284 -9.35485 1.5
    endloop
  endfacet
  facet normal 0 0 1
    outer loop
      vertex -15.6339 -9.08388 1.5
      vertex -21.5 -10.5 1.5
      vertex -15.4445 -9.23934 1.5
    endloop
  endfacet
  facet normal 0 0 1
    outer loop
      vertex -15.7893 -8.89446 1.5
      vertex -21.5 -10.5 1.5
      vertex -15.6339 -9.08388 1.5
    endloop
  endfacet
  facet normal 0 0 1
    outer loop
      vertex -15.9048 -8.67835 1.5
      vertex -21.5 -10.5 1.5
      vertex -15.7893 -8.89446 1.5
    endloop
  endfacet
  facet normal 0 0 1
    outer loop
      vertex -15.976 -8.44386 1.5
      vertex -21.5 -10.5 1.5
      vertex -15.9048 -8.67835 1.5
    endloop
  endfacet
  facet normal 0 0 1
    outer loop
      vertex -16 -8.2 1.5
      vertex -21.5 -10.5 1.5
      vertex -15.976 -8.44386 1.5
    endloop
  endfacet
  facet normal 1 -0 0
    outer loop
      vertex 21.5 -10.5 1.5
      vertex 21.5 10.5 -1.5
      vertex 21.5 10.5 1.5
    endloop
  endfacet
  facet normal 1 0 0
    outer loop
      vertex 21.5 10.5 -1.5
      vertex 21.5 -10.5 1.5
      vertex 21.5 -10.5 -1.5
    endloop
  endfacet
  facet normal 0 0 -1
    outer loop
      vertex 15.6339 7.31612 -1.5
      vertex 21.5 10.5 -1.5
      vertex 21.5 -10.5 -1.5
    endloop
  endfacet
  facet normal 0 0 -1
    outer loop
      vertex 21.5 10.5 -1.5
      vertex 15.976 7.95614 -1.5
      vertex 16 8.2 -1.5
    endloop
  endfacet
  facet normal 0 0 -1
    outer loop
      vertex 21.5 10.5 -1.5
      vertex 15.9048 7.72165 -1.5
      vertex 15.976 7.95614 -1.5
    endloop
  endfacet
  facet normal 0 0 -1
    outer loop
      vertex 21.5 10.5 -1.5
      vertex 15.7893 7.50554 -1.5
      vertex 15.9048 7.72165 -1.5
    endloop
  endfacet
  facet normal 0 0 -1
    outer loop
      vertex 21.5 10.5 -1.5
      vertex 15.6339 7.31612 -1.5
      vertex 15.7893 7.50554 -1.5
    endloop
  endfacet
  facet normal 0 0 -1
    outer loop
      vertex 21.5 -10.5 -1.5
      vertex 15.4445 7.16066 -1.5
      vertex 15.6339 7.31612 -1.5
    endloop
  endfacet
  facet normal 0 0 -1
    outer loop
      vertex 21.5 -10.5 -1.5
      vertex 15.2284 7.04515 -1.5
      vertex 15.4445 7.16066 -1.5
    endloop
  endfacet
  facet normal 0 0 -1
    outer loop
      vertex 21.5 -10.5 -1.5
      vertex 14.9939 6.97402 -1.5
      vertex 15.2284 7.04515 -1.5
    endloop
  endfacet
  facet normal 0 0 -1
    outer loop
      vertex 21.5 -10.5 -1.5
      vertex 14.75 6.95 -1.5
      vertex 14.9939 6.97402 -1.5
    endloop
  endfacet
  facet normal 0 0 -1
    outer loop
      vertex 21.5 -10.5 -1.5
      vertex 14.5061 6.97402 -1.5
      vertex 14.75 6.95 -1.5
    endloop
  endfacet
  facet normal 0 0 -1
    outer loop
      vertex 21.5 -10.5 -1.5
      vertex 14.2716 7.04515 -1.5
      vertex 14.5061 6.97402 -1.5
    endloop
  endfacet
  facet normal 0 0 -1
    outer loop
      vertex 21.5 -10.5 -1.5
      vertex 14.0555 7.16066 -1.5
      vertex 14.2716 7.04515 -1.5
    endloop
  endfacet
  facet normal 0 0 -1
    outer loop
      vertex -13.5 -8.2 -1.5
      vertex 14.0555 7.16066 -1.5
      vertex 21.5 -10.5 -1.5
    endloop
  endfacet
  facet normal 0 0 -1
    outer loop
      vertex -13.524 -7.95614 -1.5
      vertex 14.0555 7.16066 -1.5
      vertex -13.5 -8.2 -1.5
    endloop
  endfacet
  facet normal -0 0 -1
    outer loop
      vertex 14.0555 7.16066 -1.5
      vertex -13.524 -7.95614 -1.5
      vertex 13.8661 7.31612 -1.5
    endloop
  endfacet
  facet normal 0 0 -1
    outer loop
      vertex -13.7107 -7.50554 -1.5
      vertex 13.7107 7.50554 -1.5
      vertex -13.5951 -7.72165 -1.5
    endloop
  endfacet
  facet normal -0 0 -1
    outer loop
      vertex 13.8661 7.31612 -1.5
      vertex -13.5951 -7.72165 -1.5
      vertex 13.7107 7.50554 -1.5
    endloop
  endfacet
  facet normal 0 0 -1
    outer loop
      vertex -13.5951 -7.72165 -1.5
      vertex 13.8661 7.31612 -1.5
      vertex -13.524 -7.95614 -1.5
    endloop
  endfacet
  facet normal 0 0 -1
    outer loop
      vertex 21.5 -10.5 -1.5
      vertex -13.524 -8.44386 -1.5
      vertex -13.5 -8.2 -1.5
    endloop
  endfacet
  facet normal 0 0 -1
    outer loop
      vertex 21.5 -10.5 -1.5
      vertex -13.5951 -8.67835 -1.5
      vertex -13.524 -8.44386 -1.5
    endloop
  endfacet
  facet normal 0 0 -1
    outer loop
      vertex 21.5 -10.5 -1.5
      vertex -13.7107 -8.89446 -1.5
      vertex -13.5951 -8.67835 -1.5
    endloop
  endfacet
  facet normal 0 0 -1
    outer loop
      vertex 21.5 -10.5 -1.5
      vertex -13.8661 -9.08388 -1.5
      vertex -13.7107 -8.89446 -1.5
    endloop
  endfacet
  facet normal 0 0 -1
    outer loop
      vertex 21.5 -10.5 -1.5
      vertex -14.0555 -9.23934 -1.5
      vertex -13.8661 -9.08388 -1.5
    endloop
  endfacet
  facet normal 0 0 -1
    outer loop
      vertex 21.5 -10.5 -1.5
      vertex -14.2716 -9.35485 -1.5
      vertex -14.0555 -9.23934 -1.5
    endloop
  endfacet
  facet normal 0 0 -1
    outer loop
      vertex 21.5 -10.5 -1.5
      vertex -14.5061 -9.42598 -1.5
      vertex -14.2716 -9.35485 -1.5
    endloop
  endfacet
  facet normal 0 0 -1
    outer loop
      vertex -21.5 -10.5 -1.5
      vertex -14.5061 -9.42598 -1.5
      vertex 21.5 -10.5 -1.5
    endloop
  endfacet
  facet normal -0 0 -1
    outer loop
      vertex -15.976 -8.44386 -1.5
      vertex -21.5 -10.5 -1.5
      vertex -16 -8.2 -1.5
    endloop
  endfacet
  facet normal -0 0 -1
    outer loop
      vertex -15.9048 -8.67835 -1.5
      vertex -21.5 -10.5 -1.5
      vertex -15.976 -8.44386 -1.5
    endloop
  endfacet
  facet normal -0 0 -1
    outer loop
      vertex -15.7893 -8.89446 -1.5
      vertex -21.5 -10.5 -1.5
      vertex -15.9048 -8.67835 -1.5
    endloop
  endfacet
  facet normal -0 0 -1
    outer loop
      vertex -15.6339 -9.08388 -1.5
      vertex -21.5 -10.5 -1.5
      vertex -15.7893 -8.89446 -1.5
    endloop
  endfacet
  facet normal -0 0 -1
    outer loop
      vertex -15.4445 -9.23934 -1.5
      vertex -21.5 -10.5 -1.5
      vertex -15.6339 -9.08388 -1.5
    endloop
  endfacet
  facet normal -0 0 -1
    outer loop
      vertex -15.2284 -9.35485 -1.5
      vertex -21.5 -10.5 -1.5
      vertex -15.4445 -9.23934 -1.5
    endloop
  endfacet
  facet normal -0 0 -1
    outer loop
      vertex -14.9939 -9.42598 -1.5
      vertex -21.5 -10.5 -1.5
      vertex -15.2284 -9.35485 -1.5
    endloop
  endfacet
  facet normal -0 0 -1
    outer loop
      vertex -14.75 -9.45 -1.5
      vertex -21.5 -10.5 -1.5
      vertex -14.9939 -9.42598 -1.5
    endloop
  endfacet
  facet normal 0 0 -1
    outer loop
      vertex -14.5061 -9.42598 -1.5
      vertex -21.5 -10.5 -1.5
      vertex -14.75 -9.45 -1.5
    endloop
  endfacet
  facet normal 0 0 -1
    outer loop
      vertex 15.976 8.44386 -1.5
      vertex 21.5 10.5 -1.5
      vertex 16 8.2 -1.5
    endloop
  endfacet
  facet normal 0 0 -1
    outer loop
      vertex 15.9048 8.67835 -1.5
      vertex 21.5 10.5 -1.5
      vertex 15.976 8.44386 -1.5
    endloop
  endfacet
  facet normal 0 0 -1
    outer loop
      vertex 15.7893 8.89446 -1.5
      vertex 21.5 10.5 -1.5
      vertex 15.9048 8.67835 -1.5
    endloop
  endfacet
  facet normal 0 0 -1
    outer loop
      vertex 15.6339 9.08388 -1.5
      vertex 21.5 10.5 -1.5
      vertex 15.7893 8.89446 -1.5
    endloop
  endfacet
  facet normal 0 0 -1
    outer loop
      vertex 15.4445 9.23934 -1.5
      vertex 21.5 10.5 -1.5
      vertex 15.6339 9.08388 -1.5
    endloop
  endfacet
  facet normal 0 0 -1
    outer loop
      vertex 15.2284 9.35485 -1.5
      vertex 21.5 10.5 -1.5
      vertex 15.4445 9.23934 -1.5
    endloop
  endfacet
  facet normal 0 0 -1
    outer loop
      vertex 14.9939 9.42598 -1.5
      vertex 21.5 10.5 -1.5
      vertex 15.2284 9.35485 -1.5
    endloop
  endfacet
  facet normal 0 0 -1
    outer loop
      vertex 14.75 9.45 -1.5
      vertex 21.5 10.5 -1.5
      vertex 14.9939 9.42598 -1.5
    endloop
  endfacet
  facet normal 0 0 -1
    outer loop
      vertex 14.5061 9.42598 -1.5
      vertex 21.5 10.5 -1.5
      vertex 14.75 9.45 -1.5
    endloop
  endfacet
  facet normal -0 0 -1
    outer loop
      vertex 13.7107 7.50554 -1.5
      vertex -13.7107 -7.50554 -1.5
      vertex 13.5951 7.72165 -1.5
    endloop
  endfacet
  facet normal 0 0 -1
    outer loop
      vertex -13.8661 -7.31612 -1.5
      vertex 13.5951 7.72165 -1.5
      vertex -13.7107 -7.50554 -1.5
    endloop
  endfacet
  facet normal -0 0 -1
    outer loop
      vertex 13.5951 7.72165 -1.5
      vertex -13.8661 -7.31612 -1.5
      vertex 13.524 7.95614 -1.5
    endloop
  endfacet
  facet normal 0 0 -1
    outer loop
      vertex -14.0555 -7.16066 -1.5
      vertex 13.524 7.95614 -1.5
      vertex -13.8661 -7.31612 -1.5
    endloop
  endfacet
  facet normal -0 0 -1
    outer loop
      vertex 13.524 7.95614 -1.5
      vertex -14.0555 -7.16066 -1.5
      vertex 13.5 8.2 -1.5
    endloop
  endfacet
  facet normal 0 0 -1
    outer loop
      vertex -21.5 10.5 -1.5
      vertex 13.5 8.2 -1.5
      vertex -14.0555 -7.16066 -1.5
    endloop
  endfacet
  facet normal 0 0 -1
    outer loop
      vertex 13.5 8.2 -1.5
      vertex -21.5 10.5 -1.5
      vertex 13.524 8.44386 -1.5
    endloop
  endfacet
  facet normal 0 0 -1
    outer loop
      vertex 13.524 8.44386 -1.5
      vertex -21.5 10.5 -1.5
      vertex 13.5951 8.67835 -1.5
    endloop
  endfacet
  facet normal 0 0 -1
    outer loop
      vertex 13.5951 8.67835 -1.5
      vertex -21.5 10.5 -1.5
      vertex 13.7107 8.89446 -1.5
    endloop
  endfacet
  facet normal 0 0 -1
    outer loop
      vertex 13.7107 8.89446 -1.5
      vertex -21.5 10.5 -1.5
      vertex 13.8661 9.08388 -1.5
    endloop
  endfacet
  facet normal 0 0 -1
    outer loop
      vertex -21.5 10.5 -1.5
      vertex -14.0555 -7.16066 -1.5
      vertex -14.2716 -7.04515 -1.5
    endloop
  endfacet
  facet normal 0 0 -1
    outer loop
      vertex -21.5 10.5 -1.5
      vertex -14.2716 -7.04515 -1.5
      vertex -14.5061 -6.97402 -1.5
    endloop
  endfacet
  facet normal 0 0 -1
    outer loop
      vertex -21.5 10.5 -1.5
      vertex -14.5061 -6.97402 -1.5
      vertex -14.75 -6.95 -1.5
    endloop
  endfacet
  facet normal 0 0 -1
    outer loop
      vertex -21.5 10.5 -1.5
      vertex -14.75 -6.95 -1.5
      vertex -14.9939 -6.97402 -1.5
    endloop
  endfacet
  facet normal 0 0 -1
    outer loop
      vertex -21.5 10.5 -1.5
      vertex -14.9939 -6.97402 -1.5
      vertex -15.2284 -7.04515 -1.5
    endloop
  endfacet
  facet normal 0 0 -1
    outer loop
      vertex -21.5 10.5 -1.5
      vertex -15.2284 -7.04515 -1.5
      vertex -15.4445 -7.16066 -1.5
    endloop
  endfacet
  facet normal 0 0 -1
    outer loop
      vertex -21.5 -10.5 -1.5
      vertex -15.976 -7.95614 -1.5
      vertex -16 -8.2 -1.5
    endloop
  endfacet
  facet normal 0 0 -1
    outer loop
      vertex -21.5 -10.5 -1.5
      vertex -15.9048 -7.72165 -1.5
      vertex -15.976 -7.95614 -1.5
    endloop
  endfacet
  facet normal 0 0 -1
    outer loop
      vertex -21.5 -10.5 -1.5
      vertex -15.7893 -7.50554 -1.5
      vertex -15.9048 -7.72165 -1.5
    endloop
  endfacet
  facet normal 0 0 -1
    outer loop
      vertex -21.5 -10.5 -1.5
      vertex -15.6339 -7.31612 -1.5
      vertex -15.7893 -7.50554 -1.5
    endloop
  endfacet
  facet normal 0 0 -1
    outer loop
      vertex -21.5 10.5 -1.5
      vertex -15.6339 -7.31612 -1.5
      vertex -21.5 -10.5 -1.5
    endloop
  endfacet
  facet normal 0 0 -1
    outer loop
      vertex -15.6339 -7.31612 -1.5
      vertex -21.5 10.5 -1.5
      vertex -15.4445 -7.16066 -1.5
    endloop
  endfacet
  facet normal 0 0 -1
    outer loop
      vertex 14.5061 9.42598 -1.5
      vertex -21.5 10.5 -1.5
      vertex 21.5 10.5 -1.5
    endloop
  endfacet
  facet normal 0 0 -1
    outer loop
      vertex 14.2716 9.35485 -1.5
      vertex -21.5 10.5 -1.5
      vertex 14.5061 9.42598 -1.5
    endloop
  endfacet
  facet normal 0 0 -1
    outer loop
      vertex 14.0555 9.23934 -1.5
      vertex -21.5 10.5 -1.5
      vertex 14.2716 9.35485 -1.5
    endloop
  endfacet
  facet normal 0 0 -1
    outer loop
      vertex 13.8661 9.08388 -1.5
      vertex -21.5 10.5 -1.5
      vertex 14.0555 9.23934 -1.5
    endloop
  endfacet
  facet normal 0 -1 0
    outer loop
      vertex -8.82442 -10.5 0.882707
      vertex 15 -10.5 0.9
      vertex -9 -10.5 0.9
    endloop
  endfacet
  facet normal 0 -1 0
    outer loop
      vertex -8.82442 -10.5 0.882707
      vertex 14.8244 -10.5 0.882707
      vertex 15 -10.5 0.9
    endloop
  endfacet
  facet normal 0 -1 0
    outer loop
      vertex -8.65558 -10.5 0.831491
      vertex 14.8244 -10.5 0.882707
      vertex -8.82442 -10.5 0.882707
    endloop
  endfacet
  facet normal 0 -1 0
    outer loop
      vertex -8.65558 -10.5 0.831491
      vertex 14.6556 -10.5 0.831491
      vertex 14.8244 -10.5 0.882707
    endloop
  endfacet
  facet normal 0 -1 0
    outer loop
      vertex -8.49999 -10.5 0.748322
      vertex 14.6556 -10.5 0.831491
      vertex -8.65558 -10.5 0.831491
    endloop
  endfacet
  facet normal 0 -1 0
    outer loop
      vertex -8.49999 -10.5 0.748322
      vertex 14.5 -10.5 0.748322
      vertex 14.6556 -10.5 0.831491
    endloop
  endfacet
  facet normal 0 -1 0
    outer loop
      vertex -8.3636 -10.5 0.636395
      vertex 14.5 -10.5 0.748322
      vertex -8.49999 -10.5 0.748322
    endloop
  endfacet
  facet normal 0 -1 0
    outer loop
      vertex -8.3636 -10.5 0.636395
      vertex 14.3636 -10.5 0.636395
      vertex 14.5 -10.5 0.748322
    endloop
  endfacet
  facet normal 0 -1 0
    outer loop
      vertex -8.25168 -10.5 0.500012
      vertex 14.3636 -10.5 0.636395
      vertex -8.3636 -10.5 0.636395
    endloop
  endfacet
  facet normal 0 -1 0
    outer loop
      vertex -8.25168 -10.5 0.500012
      vertex 14.2517 -10.5 0.500012
      vertex 14.3636 -10.5 0.636395
    endloop
  endfacet
  facet normal 0 -1 0
    outer loop
      vertex -8.16851 -10.5 0.344415
      vertex 14.2517 -10.5 0.500012
      vertex -8.25168 -10.5 0.500012
    endloop
  endfacet
  facet normal 0 -1 0
    outer loop
      vertex -8.16851 -10.5 0.344415
      vertex 14.1685 -10.5 0.344415
      vertex 14.2517 -10.5 0.500012
    endloop
  endfacet
  facet normal 0 -1 0
    outer loop
      vertex -8.11729 -10.5 0.175581
      vertex 14.1685 -10.5 0.344415
      vertex -8.16851 -10.5 0.344415
    endloop
  endfacet
  facet normal 0 -1 0
    outer loop
      vertex -8.11729 -10.5 0.175581
      vertex 14.1173 -10.5 0.175581
      vertex 14.1685 -10.5 0.344415
    endloop
  endfacet
  facet normal 0 -1 0
    outer loop
      vertex -8.1 -10.5 0
      vertex 14.1173 -10.5 0.175581
      vertex -8.11729 -10.5 0.175581
    endloop
  endfacet
  facet normal 0 -1 0
    outer loop
      vertex -8.1 -10.5 0
      vertex 14.1 -10.5 0
      vertex 14.1173 -10.5 0.175581
    endloop
  endfacet
  facet normal 0 -1 0
    outer loop
      vertex -8.11729 -10.5 -0.175581
      vertex 14.1 -10.5 0
      vertex -8.1 -10.5 0
    endloop
  endfacet
  facet normal 0 -1 0
    outer loop
      vertex -8.11729 -10.5 -0.175581
      vertex 14.1173 -10.5 -0.175581
      vertex 14.1 -10.5 0
    endloop
  endfacet
  facet normal 0 -1 0
    outer loop
      vertex -8.16851 -10.5 -0.344415
      vertex 14.1173 -10.5 -0.175581
      vertex -8.11729 -10.5 -0.175581
    endloop
  endfacet
  facet normal 0 -1 0
    outer loop
      vertex -8.16851 -10.5 -0.344415
      vertex 14.1685 -10.5 -0.344415
      vertex 14.1173 -10.5 -0.175581
    endloop
  endfacet
  facet normal 0 -1 0
    outer loop
      vertex -8.25168 -10.5 -0.500012
      vertex 14.1685 -10.5 -0.344415
      vertex -8.16851 -10.5 -0.344415
    endloop
  endfacet
  facet normal 0 -1 0
    outer loop
      vertex -8.25168 -10.5 -0.500012
      vertex 14.2517 -10.5 -0.500012
      vertex 14.1685 -10.5 -0.344415
    endloop
  endfacet
  facet normal 0 -1 0
    outer loop
      vertex -8.3636 -10.5 -0.636395
      vertex 14.2517 -10.5 -0.500012
      vertex -8.25168 -10.5 -0.500012
    endloop
  endfacet
  facet normal 0 -1 0
    outer loop
      vertex -8.3636 -10.5 -0.636395
      vertex 14.3636 -10.5 -0.636395
      vertex 14.2517 -10.5 -0.500012
    endloop
  endfacet
  facet normal 0 -1 0
    outer loop
      vertex -8.49999 -10.5 -0.748322
      vertex 14.3636 -10.5 -0.636395
      vertex -8.3636 -10.5 -0.636395
    endloop
  endfacet
  facet normal 0 -1 0
    outer loop
      vertex -8.49999 -10.5 -0.748322
      vertex 14.5 -10.5 -0.748322
      vertex 14.3636 -10.5 -0.636395
    endloop
  endfacet
  facet normal 0 -1 0
    outer loop
      vertex -8.65558 -10.5 -0.831491
      vertex 14.5 -10.5 -0.748322
      vertex -8.49999 -10.5 -0.748322
    endloop
  endfacet
  facet normal 0 -1 0
    outer loop
      vertex -8.65558 -10.5 -0.831491
      vertex 14.6556 -10.5 -0.831491
      vertex 14.5 -10.5 -0.748322
    endloop
  endfacet
  facet normal 0 -1 0
    outer loop
      vertex -8.82442 -10.5 -0.882707
      vertex 14.6556 -10.5 -0.831491
      vertex -8.65558 -10.5 -0.831491
    endloop
  endfacet
  facet normal 0 -1 0
    outer loop
      vertex -8.82442 -10.5 -0.882707
      vertex 14.8244 -10.5 -0.882707
      vertex 14.6556 -10.5 -0.831491
    endloop
  endfacet
  facet normal 0 -1 0
    outer loop
      vertex -9 -10.5 -0.9
      vertex 14.8244 -10.5 -0.882707
      vertex -8.82442 -10.5 -0.882707
    endloop
  endfacet
  facet normal 0 -1 -0
    outer loop
      vertex 14.8244 -10.5 -0.882707
      vertex -9 -10.5 -0.9
      vertex 15 -10.5 -0.9
    endloop
  endfacet
  facet normal 0 -1 0
    outer loop
      vertex -21.5 -10.5 1.5
      vertex -9 -10.5 0.9
      vertex 21.5 -10.5 1.5
    endloop
  endfacet
  facet normal 0 -1 0
    outer loop
      vertex -21.5 -10.5 1.5
      vertex -9.17558 -10.5 0.882707
      vertex -9 -10.5 0.9
    endloop
  endfacet
  facet normal 0 -1 0
    outer loop
      vertex -21.5 -10.5 1.5
      vertex -9.34441 -10.5 0.831491
      vertex -9.17558 -10.5 0.882707
    endloop
  endfacet
  facet normal 0 -1 0
    outer loop
      vertex -21.5 -10.5 1.5
      vertex -9.50001 -10.5 0.748322
      vertex -9.34441 -10.5 0.831491
    endloop
  endfacet
  facet normal 0 -1 0
    outer loop
      vertex -21.5 -10.5 1.5
      vertex -9.6364 -10.5 0.636395
      vertex -9.50001 -10.5 0.748322
    endloop
  endfacet
  facet normal 0 -1 0
    outer loop
      vertex -21.5 -10.5 1.5
      vertex -9.74832 -10.5 0.500012
      vertex -9.6364 -10.5 0.636395
    endloop
  endfacet
  facet normal 0 -1 0
    outer loop
      vertex -21.5 -10.5 1.5
      vertex -9.83149 -10.5 0.344415
      vertex -9.74832 -10.5 0.500012
    endloop
  endfacet
  facet normal 0 -1 0
    outer loop
      vertex -21.5 -10.5 1.5
      vertex -9.88271 -10.5 0.175581
      vertex -9.83149 -10.5 0.344415
    endloop
  endfacet
  facet normal 0 -1 0
    outer loop
      vertex -21.5 -10.5 1.5
      vertex -9.9 -10.5 0
      vertex -9.88271 -10.5 0.175581
    endloop
  endfacet
  facet normal 0 -1 0
    outer loop
      vertex -21.5 -10.5 -1.5
      vertex -9.9 -10.5 0
      vertex -21.5 -10.5 1.5
    endloop
  endfacet
  facet normal 0 -1 -0
    outer loop
      vertex -9.9 -10.5 0
      vertex -21.5 -10.5 -1.5
      vertex -9.88271 -10.5 -0.175581
    endloop
  endfacet
  facet normal 0 -1 -0
    outer loop
      vertex -9.88271 -10.5 -0.175581
      vertex -21.5 -10.5 -1.5
      vertex -9.83149 -10.5 -0.344415
    endloop
  endfacet
  facet normal 0 -1 -0
    outer loop
      vertex -9.83149 -10.5 -0.344415
      vertex -21.5 -10.5 -1.5
      vertex -9.74832 -10.5 -0.500012
    endloop
  endfacet
  facet normal 0 -1 -0
    outer loop
      vertex -9.74832 -10.5 -0.500012
      vertex -21.5 -10.5 -1.5
      vertex -9.6364 -10.5 -0.636395
    endloop
  endfacet
  facet normal 0 -1 -0
    outer loop
      vertex -9.6364 -10.5 -0.636395
      vertex -21.5 -10.5 -1.5
      vertex -9.50001 -10.5 -0.748322
    endloop
  endfacet
  facet normal 0 -1 -0
    outer loop
      vertex -9.50001 -10.5 -0.748322
      vertex -21.5 -10.5 -1.5
      vertex -9.34441 -10.5 -0.831491
    endloop
  endfacet
  facet normal 0 -1 0
    outer loop
      vertex 21.5 -10.5 -1.5
      vertex -9 -10.5 -0.9
      vertex -21.5 -10.5 -1.5
    endloop
  endfacet
  facet normal 0 -1 -0
    outer loop
      vertex -9.17558 -10.5 -0.882707
      vertex -21.5 -10.5 -1.5
      vertex -9 -10.5 -0.9
    endloop
  endfacet
  facet normal 0 -1 -0
    outer loop
      vertex -9.34441 -10.5 -0.831491
      vertex -21.5 -10.5 -1.5
      vertex -9.17558 -10.5 -0.882707
    endloop
  endfacet
  facet normal 0 -1 0
    outer loop
      vertex 15 -10.5 0.9
      vertex 21.5 -10.5 1.5
      vertex -9 -10.5 0.9
    endloop
  endfacet
  facet normal 0 -1 0
    outer loop
      vertex 15.1756 -10.5 0.882707
      vertex 21.5 -10.5 1.5
      vertex 15 -10.5 0.9
    endloop
  endfacet
  facet normal 0 -1 0
    outer loop
      vertex 15.3444 -10.5 0.831491
      vertex 21.5 -10.5 1.5
      vertex 15.1756 -10.5 0.882707
    endloop
  endfacet
  facet normal 0 -1 0
    outer loop
      vertex 15.5 -10.5 0.748322
      vertex 21.5 -10.5 1.5
      vertex 15.3444 -10.5 0.831491
    endloop
  endfacet
  facet normal 0 -1 0
    outer loop
      vertex 15.6364 -10.5 0.636395
      vertex 21.5 -10.5 1.5
      vertex 15.5 -10.5 0.748322
    endloop
  endfacet
  facet normal 0 -1 0
    outer loop
      vertex 15.7483 -10.5 0.500012
      vertex 21.5 -10.5 1.5
      vertex 15.6364 -10.5 0.636395
    endloop
  endfacet
  facet normal 0 -1 0
    outer loop
      vertex 15.8315 -10.5 0.344415
      vertex 21.5 -10.5 1.5
      vertex 15.7483 -10.5 0.500012
    endloop
  endfacet
  facet normal 0 -1 0
    outer loop
      vertex 15.8827 -10.5 0.175581
      vertex 21.5 -10.5 1.5
      vertex 15.8315 -10.5 0.344415
    endloop
  endfacet
  facet normal 0 -1 0
    outer loop
      vertex 15.9 -10.5 0
      vertex 21.5 -10.5 1.5
      vertex 15.8827 -10.5 0.175581
    endloop
  endfacet
  facet normal 0 -1 0
    outer loop
      vertex 21.5 -10.5 -1.5
      vertex 15.9 -10.5 0
      vertex 15.8827 -10.5 -0.175581
    endloop
  endfacet
  facet normal 0 -1 0
    outer loop
      vertex 21.5 -10.5 -1.5
      vertex 15.8827 -10.5 -0.175581
      vertex 15.8315 -10.5 -0.344415
    endloop
  endfacet
  facet normal 0 -1 0
    outer loop
      vertex 21.5 -10.5 -1.5
      vertex 15.8315 -10.5 -0.344415
      vertex 15.7483 -10.5 -0.500012
    endloop
  endfacet
  facet normal 0 -1 0
    outer loop
      vertex 21.5 -10.5 -1.5
      vertex 15.7483 -10.5 -0.500012
      vertex 15.6364 -10.5 -0.636395
    endloop
  endfacet
  facet normal 0 -1 0
    outer loop
      vertex 21.5 -10.5 -1.5
      vertex 15.6364 -10.5 -0.636395
      vertex 15.5 -10.5 -0.748322
    endloop
  endfacet
  facet normal 0 -1 0
    outer loop
      vertex 21.5 -10.5 -1.5
      vertex 15.5 -10.5 -0.748322
      vertex 15.3444 -10.5 -0.831491
    endloop
  endfacet
  facet normal 0 -1 0
    outer loop
      vertex 15.9 -10.5 0
      vertex 21.5 -10.5 -1.5
      vertex 21.5 -10.5 1.5
    endloop
  endfacet
  facet normal 0 -1 0
    outer loop
      vertex 15.1756 -10.5 -0.882707
      vertex 21.5 -10.5 -1.5
      vertex 15.3444 -10.5 -0.831491
    endloop
  endfacet
  facet normal 0 -1 0
    outer loop
      vertex 15 -10.5 -0.9
      vertex 21.5 -10.5 -1.5
      vertex 15.1756 -10.5 -0.882707
    endloop
  endfacet
  facet normal 0 -1 0
    outer loop
      vertex -9 -10.5 -0.9
      vertex 21.5 -10.5 -1.5
      vertex 15 -10.5 -0.9
    endloop
  endfacet
  facet normal 0 1 -0
    outer loop
      vertex 21.5 10.5 -1.5
      vertex -21.5 10.5 1.5
      vertex 21.5 10.5 1.5
    endloop
  endfacet
  facet normal 0 1 0
    outer loop
      vertex -21.5 10.5 1.5
      vertex 21.5 10.5 -1.5
      vertex -21.5 10.5 -1.5
    endloop
  endfacet
  facet normal -0.471404 -0.881918 0
    outer loop
      vertex 15.2284 9.35485 -1.5
      vertex 15.4445 9.23934 1.5
      vertex 15.2284 9.35485 1.5
    endloop
  endfacet
  facet normal -0.471404 -0.881918 -0
    outer loop
      vertex 15.4445 9.23934 1.5
      vertex 15.2284 9.35485 -1.5
      vertex 15.4445 9.23934 -1.5
    endloop
  endfacet
  facet normal 0.995192 -0.0979439 0
    outer loop
      vertex 13.5 8.2 1.5
      vertex 13.524 8.44386 -1.5
      vertex 13.524 8.44386 1.5
    endloop
  endfacet
  facet normal 0.995192 -0.0979439 0
    outer loop
      vertex 13.524 8.44386 -1.5
      vertex 13.5 8.2 1.5
      vertex 13.5 8.2 -1.5
    endloop
  endfacet
  facet normal -0.995192 0.0979439 0
    outer loop
      vertex 15.976 7.95614 -1.5
      vertex 16 8.2 1.5
      vertex 16 8.2 -1.5
    endloop
  endfacet
  facet normal -0.995192 0.0979439 0
    outer loop
      vertex 16 8.2 1.5
      vertex 15.976 7.95614 -1.5
      vertex 15.976 7.95614 1.5
    endloop
  endfacet
  facet normal 0.0980088 0.995186 -0
    outer loop
      vertex 14.75 6.95 -1.5
      vertex 14.5061 6.97402 1.5
      vertex 14.75 6.95 1.5
    endloop
  endfacet
  facet normal 0.0980088 0.995186 0
    outer loop
      vertex 14.5061 6.97402 1.5
      vertex 14.75 6.95 -1.5
      vertex 14.5061 6.97402 -1.5
    endloop
  endfacet
  facet normal 0.471404 -0.881918 0
    outer loop
      vertex 14.0555 9.23934 -1.5
      vertex 14.2716 9.35485 1.5
      vertex 14.0555 9.23934 1.5
    endloop
  endfacet
  facet normal 0.471404 -0.881918 0
    outer loop
      vertex 14.2716 9.35485 1.5
      vertex 14.0555 9.23934 -1.5
      vertex 14.2716 9.35485 -1.5
    endloop
  endfacet
  facet normal 0.956976 -0.290166 0
    outer loop
      vertex 13.524 8.44386 1.5
      vertex 13.5951 8.67835 -1.5
      vertex 13.5951 8.67835 1.5
    endloop
  endfacet
  facet normal 0.956976 -0.290166 0
    outer loop
      vertex 13.5951 8.67835 -1.5
      vertex 13.524 8.44386 1.5
      vertex 13.524 8.44386 -1.5
    endloop
  endfacet
  facet normal -0.773116 0.634264 0
    outer loop
      vertex 15.6339 7.31612 -1.5
      vertex 15.7893 7.50554 1.5
      vertex 15.7893 7.50554 -1.5
    endloop
  endfacet
  facet normal -0.773116 0.634264 0
    outer loop
      vertex 15.7893 7.50554 1.5
      vertex 15.6339 7.31612 -1.5
      vertex 15.6339 7.31612 1.5
    endloop
  endfacet
  facet normal 0.773116 0.634264 0
    outer loop
      vertex 13.8661 7.31612 1.5
      vertex 13.7107 7.50554 -1.5
      vertex 13.7107 7.50554 1.5
    endloop
  endfacet
  facet normal 0.773116 0.634264 0
    outer loop
      vertex 13.7107 7.50554 -1.5
      vertex 13.8661 7.31612 1.5
      vertex 13.8661 7.31612 -1.5
    endloop
  endfacet
  facet normal -0.956863 -0.29054 0
    outer loop
      vertex 15.976 8.44386 -1.5
      vertex 15.9048 8.67835 1.5
      vertex 15.9048 8.67835 -1.5
    endloop
  endfacet
  facet normal -0.956863 -0.29054 0
    outer loop
      vertex 15.9048 8.67835 1.5
      vertex 15.976 8.44386 -1.5
      vertex 15.976 8.44386 1.5
    endloop
  endfacet
  facet normal -0.881944 -0.471355 0
    outer loop
      vertex 15.9048 8.67835 -1.5
      vertex 15.7893 8.89446 1.5
      vertex 15.7893 8.89446 -1.5
    endloop
  endfacet
  facet normal -0.881944 -0.471355 0
    outer loop
      vertex 15.7893 8.89446 1.5
      vertex 15.9048 8.67835 -1.5
      vertex 15.9048 8.67835 1.5
    endloop
  endfacet
  facet normal -0.773116 -0.634264 0
    outer loop
      vertex 15.7893 8.89446 -1.5
      vertex 15.6339 9.08388 1.5
      vertex 15.6339 9.08388 -1.5
    endloop
  endfacet
  facet normal -0.773116 -0.634264 0
    outer loop
      vertex 15.6339 9.08388 1.5
      vertex 15.7893 8.89446 -1.5
      vertex 15.7893 8.89446 1.5
    endloop
  endfacet
  facet normal -0.63445 -0.772964 0
    outer loop
      vertex 15.4445 9.23934 -1.5
      vertex 15.6339 9.08388 1.5
      vertex 15.4445 9.23934 1.5
    endloop
  endfacet
  facet normal -0.63445 -0.772964 -0
    outer loop
      vertex 15.6339 9.08388 1.5
      vertex 15.4445 9.23934 -1.5
      vertex 15.6339 9.08388 -1.5
    endloop
  endfacet
  facet normal -0.290267 -0.956946 0
    outer loop
      vertex 14.9939 9.42598 -1.5
      vertex 15.2284 9.35485 1.5
      vertex 14.9939 9.42598 1.5
    endloop
  endfacet
  facet normal -0.290267 -0.956946 -0
    outer loop
      vertex 15.2284 9.35485 1.5
      vertex 14.9939 9.42598 -1.5
      vertex 15.2284 9.35485 -1.5
    endloop
  endfacet
  facet normal 0.0980088 -0.995186 0
    outer loop
      vertex 14.5061 9.42598 -1.5
      vertex 14.75 9.45 1.5
      vertex 14.5061 9.42598 1.5
    endloop
  endfacet
  facet normal 0.0980088 -0.995186 0
    outer loop
      vertex 14.75 9.45 1.5
      vertex 14.5061 9.42598 -1.5
      vertex 14.75 9.45 -1.5
    endloop
  endfacet
  facet normal -0.0980088 -0.995186 0
    outer loop
      vertex 14.75 9.45 -1.5
      vertex 14.9939 9.42598 1.5
      vertex 14.75 9.45 1.5
    endloop
  endfacet
  facet normal -0.0980088 -0.995186 -0
    outer loop
      vertex 14.9939 9.42598 1.5
      vertex 14.75 9.45 -1.5
      vertex 14.9939 9.42598 -1.5
    endloop
  endfacet
  facet normal 0.995192 0.0979439 0
    outer loop
      vertex 13.524 7.95614 1.5
      vertex 13.5 8.2 -1.5
      vertex 13.5 8.2 1.5
    endloop
  endfacet
  facet normal 0.995192 0.0979439 0
    outer loop
      vertex 13.5 8.2 -1.5
      vertex 13.524 7.95614 1.5
      vertex 13.524 7.95614 -1.5
    endloop
  endfacet
  facet normal 0.881774 -0.471672 0
    outer loop
      vertex 13.5951 8.67835 1.5
      vertex 13.7107 8.89446 -1.5
      vertex 13.7107 8.89446 1.5
    endloop
  endfacet
  facet normal 0.881774 -0.471672 0
    outer loop
      vertex 13.7107 8.89446 -1.5
      vertex 13.5951 8.67835 1.5
      vertex 13.5951 8.67835 -1.5
    endloop
  endfacet
  facet normal 0.63445 -0.772964 0
    outer loop
      vertex 13.8661 9.08388 -1.5
      vertex 14.0555 9.23934 1.5
      vertex 13.8661 9.08388 1.5
    endloop
  endfacet
  facet normal 0.63445 -0.772964 0
    outer loop
      vertex 14.0555 9.23934 1.5
      vertex 13.8661 9.08388 -1.5
      vertex 14.0555 9.23934 -1.5
    endloop
  endfacet
  facet normal 0.290267 -0.956946 0
    outer loop
      vertex 14.2716 9.35485 -1.5
      vertex 14.5061 9.42598 1.5
      vertex 14.2716 9.35485 1.5
    endloop
  endfacet
  facet normal 0.290267 -0.956946 0
    outer loop
      vertex 14.5061 9.42598 1.5
      vertex 14.2716 9.35485 -1.5
      vertex 14.5061 9.42598 -1.5
    endloop
  endfacet
  facet normal 0.773116 -0.634264 0
    outer loop
      vertex 13.7107 8.89446 1.5
      vertex 13.8661 9.08388 -1.5
      vertex 13.8661 9.08388 1.5
    endloop
  endfacet
  facet normal 0.773116 -0.634264 0
    outer loop
      vertex 13.8661 9.08388 -1.5
      vertex 13.7107 8.89446 1.5
      vertex 13.7107 8.89446 -1.5
    endloop
  endfacet
  facet normal -0.995192 -0.0979439 0
    outer loop
      vertex 16 8.2 -1.5
      vertex 15.976 8.44386 1.5
      vertex 15.976 8.44386 -1.5
    endloop
  endfacet
  facet normal -0.995192 -0.0979439 0
    outer loop
      vertex 15.976 8.44386 1.5
      vertex 16 8.2 -1.5
      vertex 16 8.2 1.5
    endloop
  endfacet
  facet normal -0.290267 0.956946 0
    outer loop
      vertex 15.2284 7.04515 -1.5
      vertex 14.9939 6.97402 1.5
      vertex 15.2284 7.04515 1.5
    endloop
  endfacet
  facet normal -0.290267 0.956946 0
    outer loop
      vertex 14.9939 6.97402 1.5
      vertex 15.2284 7.04515 -1.5
      vertex 14.9939 6.97402 -1.5
    endloop
  endfacet
  facet normal -0.881944 0.471355 0
    outer loop
      vertex 15.7893 7.50554 -1.5
      vertex 15.9048 7.72165 1.5
      vertex 15.9048 7.72165 -1.5
    endloop
  endfacet
  facet normal -0.881944 0.471355 0
    outer loop
      vertex 15.9048 7.72165 1.5
      vertex 15.7893 7.50554 -1.5
      vertex 15.7893 7.50554 1.5
    endloop
  endfacet
  facet normal -0.956863 0.29054 0
    outer loop
      vertex 15.9048 7.72165 -1.5
      vertex 15.976 7.95614 1.5
      vertex 15.976 7.95614 -1.5
    endloop
  endfacet
  facet normal -0.956863 0.29054 0
    outer loop
      vertex 15.976 7.95614 1.5
      vertex 15.9048 7.72165 -1.5
      vertex 15.9048 7.72165 1.5
    endloop
  endfacet
  facet normal -0.471404 0.881918 0
    outer loop
      vertex 15.4445 7.16066 -1.5
      vertex 15.2284 7.04515 1.5
      vertex 15.4445 7.16066 1.5
    endloop
  endfacet
  facet normal -0.471404 0.881918 0
    outer loop
      vertex 15.2284 7.04515 1.5
      vertex 15.4445 7.16066 -1.5
      vertex 15.2284 7.04515 -1.5
    endloop
  endfacet
  facet normal -0.63445 0.772964 0
    outer loop
      vertex 15.6339 7.31612 -1.5
      vertex 15.4445 7.16066 1.5
      vertex 15.6339 7.31612 1.5
    endloop
  endfacet
  facet normal -0.63445 0.772964 0
    outer loop
      vertex 15.4445 7.16066 1.5
      vertex 15.6339 7.31612 -1.5
      vertex 15.4445 7.16066 -1.5
    endloop
  endfacet
  facet normal -0.0980088 0.995186 0
    outer loop
      vertex 14.9939 6.97402 -1.5
      vertex 14.75 6.95 1.5
      vertex 14.9939 6.97402 1.5
    endloop
  endfacet
  facet normal -0.0980088 0.995186 0
    outer loop
      vertex 14.75 6.95 1.5
      vertex 14.9939 6.97402 -1.5
      vertex 14.75 6.95 -1.5
    endloop
  endfacet
  facet normal 0.290267 0.956946 -0
    outer loop
      vertex 14.5061 6.97402 -1.5
      vertex 14.2716 7.04515 1.5
      vertex 14.5061 6.97402 1.5
    endloop
  endfacet
  facet normal 0.290267 0.956946 0
    outer loop
      vertex 14.2716 7.04515 1.5
      vertex 14.5061 6.97402 -1.5
      vertex 14.2716 7.04515 -1.5
    endloop
  endfacet
  facet normal 0.471404 0.881918 -0
    outer loop
      vertex 14.2716 7.04515 -1.5
      vertex 14.0555 7.16066 1.5
      vertex 14.2716 7.04515 1.5
    endloop
  endfacet
  facet normal 0.471404 0.881918 0
    outer loop
      vertex 14.0555 7.16066 1.5
      vertex 14.2716 7.04515 -1.5
      vertex 14.0555 7.16066 -1.5
    endloop
  endfacet
  facet normal 0.956976 0.290166 0
    outer loop
      vertex 13.5951 7.72165 1.5
      vertex 13.524 7.95614 -1.5
      vertex 13.524 7.95614 1.5
    endloop
  endfacet
  facet normal 0.956976 0.290166 0
    outer loop
      vertex 13.524 7.95614 -1.5
      vertex 13.5951 7.72165 1.5
      vertex 13.5951 7.72165 -1.5
    endloop
  endfacet
  facet normal 0.881774 0.471672 0
    outer loop
      vertex 13.7107 7.50554 1.5
      vertex 13.5951 7.72165 -1.5
      vertex 13.5951 7.72165 1.5
    endloop
  endfacet
  facet normal 0.881774 0.471672 0
    outer loop
      vertex 13.5951 7.72165 -1.5
      vertex 13.7107 7.50554 1.5
      vertex 13.7107 7.50554 -1.5
    endloop
  endfacet
  facet normal 0.63445 0.772964 -0
    outer loop
      vertex 14.0555 7.16066 -1.5
      vertex 13.8661 7.31612 1.5
      vertex 14.0555 7.16066 1.5
    endloop
  endfacet
  facet normal 0.63445 0.772964 0
    outer loop
      vertex 13.8661 7.31612 1.5
      vertex 14.0555 7.16066 -1.5
      vertex 13.8661 7.31612 -1.5
    endloop
  endfacet
  facet normal -0.881774 -0.471672 0
    outer loop
      vertex -13.5951 -7.72165 -1.5
      vertex -13.7107 -7.50554 1.5
      vertex -13.7107 -7.50554 -1.5
    endloop
  endfacet
  facet normal -0.881774 -0.471672 0
    outer loop
      vertex -13.7107 -7.50554 1.5
      vertex -13.5951 -7.72165 -1.5
      vertex -13.5951 -7.72165 1.5
    endloop
  endfacet
  facet normal 0.956863 -0.29054 0
    outer loop
      vertex -15.976 -7.95614 1.5
      vertex -15.9048 -7.72165 -1.5
      vertex -15.9048 -7.72165 1.5
    endloop
  endfacet
  facet normal 0.956863 -0.29054 0
    outer loop
      vertex -15.9048 -7.72165 -1.5
      vertex -15.976 -7.95614 1.5
      vertex -15.976 -7.95614 -1.5
    endloop
  endfacet
  facet normal -0.773116 -0.634264 0
    outer loop
      vertex -13.7107 -7.50554 -1.5
      vertex -13.8661 -7.31612 1.5
      vertex -13.8661 -7.31612 -1.5
    endloop
  endfacet
  facet normal -0.773116 -0.634264 0
    outer loop
      vertex -13.8661 -7.31612 1.5
      vertex -13.7107 -7.50554 -1.5
      vertex -13.7107 -7.50554 1.5
    endloop
  endfacet
  facet normal -0.0980088 -0.995186 0
    outer loop
      vertex -14.75 -6.95 -1.5
      vertex -14.5061 -6.97402 1.5
      vertex -14.75 -6.95 1.5
    endloop
  endfacet
  facet normal -0.0980088 -0.995186 -0
    outer loop
      vertex -14.5061 -6.97402 1.5
      vertex -14.75 -6.95 -1.5
      vertex -14.5061 -6.97402 -1.5
    endloop
  endfacet
  facet normal -0.290267 -0.956946 0
    outer loop
      vertex -14.5061 -6.97402 -1.5
      vertex -14.2716 -7.04515 1.5
      vertex -14.5061 -6.97402 1.5
    endloop
  endfacet
  facet normal -0.290267 -0.956946 -0
    outer loop
      vertex -14.2716 -7.04515 1.5
      vertex -14.5061 -6.97402 -1.5
      vertex -14.2716 -7.04515 -1.5
    endloop
  endfacet
  facet normal 0.290267 -0.956946 0
    outer loop
      vertex -15.2284 -7.04515 -1.5
      vertex -14.9939 -6.97402 1.5
      vertex -15.2284 -7.04515 1.5
    endloop
  endfacet
  facet normal 0.290267 -0.956946 0
    outer loop
      vertex -14.9939 -6.97402 1.5
      vertex -15.2284 -7.04515 -1.5
      vertex -14.9939 -6.97402 -1.5
    endloop
  endfacet
  facet normal 0.881944 -0.471355 0
    outer loop
      vertex -15.9048 -7.72165 1.5
      vertex -15.7893 -7.50554 -1.5
      vertex -15.7893 -7.50554 1.5
    endloop
  endfacet
  facet normal 0.881944 -0.471355 0
    outer loop
      vertex -15.7893 -7.50554 -1.5
      vertex -15.9048 -7.72165 1.5
      vertex -15.9048 -7.72165 -1.5
    endloop
  endfacet
  facet normal -0.995192 0.0979439 0
    outer loop
      vertex -13.524 -8.44386 -1.5
      vertex -13.5 -8.2 1.5
      vertex -13.5 -8.2 -1.5
    endloop
  endfacet
  facet normal -0.995192 0.0979439 0
    outer loop
      vertex -13.5 -8.2 1.5
      vertex -13.524 -8.44386 -1.5
      vertex -13.524 -8.44386 1.5
    endloop
  endfacet
  facet normal -0.290267 0.956946 0
    outer loop
      vertex -14.2716 -9.35485 -1.5
      vertex -14.5061 -9.42598 1.5
      vertex -14.2716 -9.35485 1.5
    endloop
  endfacet
  facet normal -0.290267 0.956946 0
    outer loop
      vertex -14.5061 -9.42598 1.5
      vertex -14.2716 -9.35485 -1.5
      vertex -14.5061 -9.42598 -1.5
    endloop
  endfacet
  facet normal -0.63445 -0.772964 0
    outer loop
      vertex -14.0555 -7.16066 -1.5
      vertex -13.8661 -7.31612 1.5
      vertex -14.0555 -7.16066 1.5
    endloop
  endfacet
  facet normal -0.63445 -0.772964 -0
    outer loop
      vertex -13.8661 -7.31612 1.5
      vertex -14.0555 -7.16066 -1.5
      vertex -13.8661 -7.31612 -1.5
    endloop
  endfacet
  facet normal 0.0980088 -0.995186 0
    outer loop
      vertex -14.9939 -6.97402 -1.5
      vertex -14.75 -6.95 1.5
      vertex -14.9939 -6.97402 1.5
    endloop
  endfacet
  facet normal 0.0980088 -0.995186 0
    outer loop
      vertex -14.75 -6.95 1.5
      vertex -14.9939 -6.97402 -1.5
      vertex -14.75 -6.95 -1.5
    endloop
  endfacet
  facet normal -0.471404 -0.881918 0
    outer loop
      vertex -14.2716 -7.04515 -1.5
      vertex -14.0555 -7.16066 1.5
      vertex -14.2716 -7.04515 1.5
    endloop
  endfacet
  facet normal -0.471404 -0.881918 -0
    outer loop
      vertex -14.0555 -7.16066 1.5
      vertex -14.2716 -7.04515 -1.5
      vertex -14.0555 -7.16066 -1.5
    endloop
  endfacet
  facet normal 0.995192 -0.0979439 0
    outer loop
      vertex -16 -8.2 1.5
      vertex -15.976 -7.95614 -1.5
      vertex -15.976 -7.95614 1.5
    endloop
  endfacet
  facet normal 0.995192 -0.0979439 0
    outer loop
      vertex -15.976 -7.95614 -1.5
      vertex -16 -8.2 1.5
      vertex -16 -8.2 -1.5
    endloop
  endfacet
  facet normal 0.773116 -0.634264 0
    outer loop
      vertex -15.7893 -7.50554 1.5
      vertex -15.6339 -7.31612 -1.5
      vertex -15.6339 -7.31612 1.5
    endloop
  endfacet
  facet normal 0.773116 -0.634264 0
    outer loop
      vertex -15.6339 -7.31612 -1.5
      vertex -15.7893 -7.50554 1.5
      vertex -15.7893 -7.50554 -1.5
    endloop
  endfacet
  facet normal 0.471404 -0.881918 0
    outer loop
      vertex -15.4445 -7.16066 -1.5
      vertex -15.2284 -7.04515 1.5
      vertex -15.4445 -7.16066 1.5
    endloop
  endfacet
  facet normal 0.471404 -0.881918 0
    outer loop
      vertex -15.2284 -7.04515 1.5
      vertex -15.4445 -7.16066 -1.5
      vertex -15.2284 -7.04515 -1.5
    endloop
  endfacet
  facet normal 0.63445 -0.772964 0
    outer loop
      vertex -15.6339 -7.31612 -1.5
      vertex -15.4445 -7.16066 1.5
      vertex -15.6339 -7.31612 1.5
    endloop
  endfacet
  facet normal 0.63445 -0.772964 0
    outer loop
      vertex -15.4445 -7.16066 1.5
      vertex -15.6339 -7.31612 -1.5
      vertex -15.4445 -7.16066 -1.5
    endloop
  endfacet
  facet normal -0.995192 -0.0979439 0
    outer loop
      vertex -13.5 -8.2 -1.5
      vertex -13.524 -7.95614 1.5
      vertex -13.524 -7.95614 -1.5
    endloop
  endfacet
  facet normal -0.995192 -0.0979439 0
    outer loop
      vertex -13.524 -7.95614 1.5
      vertex -13.5 -8.2 -1.5
      vertex -13.5 -8.2 1.5
    endloop
  endfacet
  facet normal -0.63445 0.772964 0
    outer loop
      vertex -13.8661 -9.08388 -1.5
      vertex -14.0555 -9.23934 1.5
      vertex -13.8661 -9.08388 1.5
    endloop
  endfacet
  facet normal -0.63445 0.772964 0
    outer loop
      vertex -14.0555 -9.23934 1.5
      vertex -13.8661 -9.08388 -1.5
      vertex -14.0555 -9.23934 -1.5
    endloop
  endfacet
  facet normal -0.956976 0.290166 0
    outer loop
      vertex -13.5951 -8.67835 -1.5
      vertex -13.524 -8.44386 1.5
      vertex -13.524 -8.44386 -1.5
    endloop
  endfacet
  facet normal -0.956976 0.290166 0
    outer loop
      vertex -13.524 -8.44386 1.5
      vertex -13.5951 -8.67835 -1.5
      vertex -13.5951 -8.67835 1.5
    endloop
  endfacet
  facet normal 0.0980088 0.995186 -0
    outer loop
      vertex -14.75 -9.45 -1.5
      vertex -14.9939 -9.42598 1.5
      vertex -14.75 -9.45 1.5
    endloop
  endfacet
  facet normal 0.0980088 0.995186 0
    outer loop
      vertex -14.9939 -9.42598 1.5
      vertex -14.75 -9.45 -1.5
      vertex -14.9939 -9.42598 -1.5
    endloop
  endfacet
  facet normal -0.956976 -0.290166 0
    outer loop
      vertex -13.524 -7.95614 -1.5
      vertex -13.5951 -7.72165 1.5
      vertex -13.5951 -7.72165 -1.5
    endloop
  endfacet
  facet normal -0.956976 -0.290166 0
    outer loop
      vertex -13.5951 -7.72165 1.5
      vertex -13.524 -7.95614 -1.5
      vertex -13.524 -7.95614 1.5
    endloop
  endfacet
  facet normal 0.290267 0.956946 -0
    outer loop
      vertex -14.9939 -9.42598 -1.5
      vertex -15.2284 -9.35485 1.5
      vertex -14.9939 -9.42598 1.5
    endloop
  endfacet
  facet normal 0.290267 0.956946 0
    outer loop
      vertex -15.2284 -9.35485 1.5
      vertex -14.9939 -9.42598 -1.5
      vertex -15.2284 -9.35485 -1.5
    endloop
  endfacet
  facet normal 0.995192 0.0979439 0
    outer loop
      vertex -15.976 -8.44386 1.5
      vertex -16 -8.2 -1.5
      vertex -16 -8.2 1.5
    endloop
  endfacet
  facet normal 0.995192 0.0979439 0
    outer loop
      vertex -16 -8.2 -1.5
      vertex -15.976 -8.44386 1.5
      vertex -15.976 -8.44386 -1.5
    endloop
  endfacet
  facet normal -0.773116 0.634264 0
    outer loop
      vertex -13.8661 -9.08388 -1.5
      vertex -13.7107 -8.89446 1.5
      vertex -13.7107 -8.89446 -1.5
    endloop
  endfacet
  facet normal -0.773116 0.634264 0
    outer loop
      vertex -13.7107 -8.89446 1.5
      vertex -13.8661 -9.08388 -1.5
      vertex -13.8661 -9.08388 1.5
    endloop
  endfacet
  facet normal -0.881774 0.471672 0
    outer loop
      vertex -13.7107 -8.89446 -1.5
      vertex -13.5951 -8.67835 1.5
      vertex -13.5951 -8.67835 -1.5
    endloop
  endfacet
  facet normal -0.881774 0.471672 0
    outer loop
      vertex -13.5951 -8.67835 1.5
      vertex -13.7107 -8.89446 -1.5
      vertex -13.7107 -8.89446 1.5
    endloop
  endfacet
  facet normal -0.0980088 0.995186 0
    outer loop
      vertex -14.5061 -9.42598 -1.5
      vertex -14.75 -9.45 1.5
      vertex -14.5061 -9.42598 1.5
    endloop
  endfacet
  facet normal -0.0980088 0.995186 0
    outer loop
      vertex -14.75 -9.45 1.5
      vertex -14.5061 -9.42598 -1.5
      vertex -14.75 -9.45 -1.5
    endloop
  endfacet
  facet normal 0.471404 0.881918 -0
    outer loop
      vertex -15.2284 -9.35485 -1.5
      vertex -15.4445 -9.23934 1.5
      vertex -15.2284 -9.35485 1.5
    endloop
  endfacet
  facet normal 0.471404 0.881918 0
    outer loop
      vertex -15.4445 -9.23934 1.5
      vertex -15.2284 -9.35485 -1.5
      vertex -15.4445 -9.23934 -1.5
    endloop
  endfacet
  facet normal 0.956863 0.29054 0
    outer loop
      vertex -15.9048 -8.67835 1.5
      vertex -15.976 -8.44386 -1.5
      vertex -15.976 -8.44386 1.5
    endloop
  endfacet
  facet normal 0.956863 0.29054 0
    outer loop
      vertex -15.976 -8.44386 -1.5
      vertex -15.9048 -8.67835 1.5
      vertex -15.9048 -8.67835 -1.5
    endloop
  endfacet
  facet normal 0.63445 0.772964 -0
    outer loop
      vertex -15.4445 -9.23934 -1.5
      vertex -15.6339 -9.08388 1.5
      vertex -15.4445 -9.23934 1.5
    endloop
  endfacet
  facet normal 0.63445 0.772964 0
    outer loop
      vertex -15.6339 -9.08388 1.5
      vertex -15.4445 -9.23934 -1.5
      vertex -15.6339 -9.08388 -1.5
    endloop
  endfacet
  facet normal 0.881944 0.471355 0
    outer loop
      vertex -15.7893 -8.89446 1.5
      vertex -15.9048 -8.67835 -1.5
      vertex -15.9048 -8.67835 1.5
    endloop
  endfacet
  facet normal 0.881944 0.471355 0
    outer loop
      vertex -15.9048 -8.67835 -1.5
      vertex -15.7893 -8.89446 1.5
      vertex -15.7893 -8.89446 -1.5
    endloop
  endfacet
  facet normal -0.471404 0.881918 0
    outer loop
      vertex -14.0555 -9.23934 -1.5
      vertex -14.2716 -9.35485 1.5
      vertex -14.0555 -9.23934 1.5
    endloop
  endfacet
  facet normal -0.471404 0.881918 0
    outer loop
      vertex -14.2716 -9.35485 1.5
      vertex -14.0555 -9.23934 -1.5
      vertex -14.2716 -9.35485 -1.5
    endloop
  endfacet
  facet normal 0.773116 0.634264 0
    outer loop
      vertex -15.6339 -9.08388 1.5
      vertex -15.7893 -8.89446 -1.5
      vertex -15.7893 -8.89446 1.5
    endloop
  endfacet
  facet normal 0.773116 0.634264 0
    outer loop
      vertex -15.7893 -8.89446 -1.5
      vertex -15.6339 -9.08388 1.5
      vertex -15.6339 -9.08388 -1.5
    endloop
  endfacet
  facet normal -0.995181 0 -0.0980552
    outer loop
      vertex 15.9 -10.5 0
      vertex 15.8827 0 0.175581
      vertex 15.9 0 0
    endloop
  endfacet
  facet normal -0.995181 -0 -0.0980552
    outer loop
      vertex 15.8827 0 0.175581
      vertex 15.9 -10.5 0
      vertex 15.8827 -10.5 0.175581
    endloop
  endfacet
  facet normal -0.881847 0 -0.471536
    outer loop
      vertex 15.8315 -10.5 0.344415
      vertex 15.7483 0 0.500012
      vertex 15.8315 0 0.344415
    endloop
  endfacet
  facet normal -0.881847 -0 -0.471536
    outer loop
      vertex 15.7483 0 0.500012
      vertex 15.8315 -10.5 0.344415
      vertex 15.7483 -10.5 0.500012
    endloop
  endfacet
  facet normal 0.995181 0 -0.0980552
    outer loop
      vertex 14.1173 -10.5 0.175581
      vertex 14.1 0 0
      vertex 14.1173 0 0.175581
    endloop
  endfacet
  facet normal 0.995181 0 -0.0980552
    outer loop
      vertex 14.1 0 0
      vertex 14.1173 -10.5 0.175581
      vertex 14.1 -10.5 0
    endloop
  endfacet
  facet normal -0.290342 0 -0.956923
    outer loop
      vertex 15.1756 -10.5 0.882707
      vertex 15.3444 0 0.831491
      vertex 15.3444 -10.5 0.831491
    endloop
  endfacet
  facet normal -0.290342 0 -0.956923
    outer loop
      vertex 15.3444 0 0.831491
      vertex 15.1756 -10.5 0.882707
      vertex 15.1756 0 0.882707
    endloop
  endfacet
  facet normal 0.471393 0 -0.881923
    outer loop
      vertex 14.5 -10.5 0.748322
      vertex 14.6556 0 0.831491
      vertex 14.6556 -10.5 0.831491
    endloop
  endfacet
  facet normal 0.471393 0 -0.881923
    outer loop
      vertex 14.6556 0 0.831491
      vertex 14.5 -10.5 0.748322
      vertex 14.5 0 0.748322
    endloop
  endfacet
  facet normal 0.956964 0 -0.290206
    outer loop
      vertex 14.1685 -10.5 0.344415
      vertex 14.1173 0 0.175581
      vertex 14.1685 0 0.344415
    endloop
  endfacet
  facet normal 0.956964 0 -0.290206
    outer loop
      vertex 14.1173 0 0.175581
      vertex 14.1685 -10.5 0.344415
      vertex 14.1173 -10.5 0.175581
    endloop
  endfacet
  facet normal -0.995181 0 0.0980552
    outer loop
      vertex 15.8827 -10.5 -0.175581
      vertex 15.9 0 0
      vertex 15.8827 0 -0.175581
    endloop
  endfacet
  facet normal -0.995181 0 0.0980552
    outer loop
      vertex 15.9 0 0
      vertex 15.8827 -10.5 -0.175581
      vertex 15.9 -10.5 0
    endloop
  endfacet
  facet normal -0.290342 0 0.956923
    outer loop
      vertex 15.1756 0 -0.882707
      vertex 15.3444 -10.5 -0.831491
      vertex 15.3444 0 -0.831491
    endloop
  endfacet
  facet normal -0.290342 0 0.956923
    outer loop
      vertex 15.3444 -10.5 -0.831491
      vertex 15.1756 0 -0.882707
      vertex 15.1756 -10.5 -0.882707
    endloop
  endfacet
  facet normal -0.634347 0 -0.773048
    outer loop
      vertex 15.5 -10.5 0.748322
      vertex 15.6364 0 0.636395
      vertex 15.6364 -10.5 0.636395
    endloop
  endfacet
  facet normal -0.634347 0 -0.773048
    outer loop
      vertex 15.6364 0 0.636395
      vertex 15.5 -10.5 0.748322
      vertex 15.5 0 0.748322
    endloop
  endfacet
  facet normal -0.773084 0 -0.634303
    outer loop
      vertex 15.7483 -10.5 0.500012
      vertex 15.6364 0 0.636395
      vertex 15.7483 0 0.500012
    endloop
  endfacet
  facet normal -0.773084 -0 -0.634303
    outer loop
      vertex 15.6364 0 0.636395
      vertex 15.7483 -10.5 0.500012
      vertex 15.6364 -10.5 0.636395
    endloop
  endfacet
  facet normal 0.0980054 0 -0.995186
    outer loop
      vertex 14.8244 -10.5 0.882707
      vertex 15 0 0.9
      vertex 15 -10.5 0.9
    endloop
  endfacet
  facet normal 0.0980054 0 -0.995186
    outer loop
      vertex 15 0 0.9
      vertex 14.8244 -10.5 0.882707
      vertex 14.8244 0 0.882707
    endloop
  endfacet
  facet normal 0.881847 0 -0.471536
    outer loop
      vertex 14.2517 -10.5 0.500012
      vertex 14.1685 0 0.344415
      vertex 14.2517 0 0.500012
    endloop
  endfacet
  facet normal 0.881847 0 -0.471536
    outer loop
      vertex 14.1685 0 0.344415
      vertex 14.2517 -10.5 0.500012
      vertex 14.1685 -10.5 0.344415
    endloop
  endfacet
  facet normal 0.773084 0 -0.634303
    outer loop
      vertex 14.3636 -10.5 0.636395
      vertex 14.2517 0 0.500012
      vertex 14.3636 0 0.636395
    endloop
  endfacet
  facet normal 0.773084 0 -0.634303
    outer loop
      vertex 14.2517 0 0.500012
      vertex 14.3636 -10.5 0.636395
      vertex 14.2517 -10.5 0.500012
    endloop
  endfacet
  facet normal 0.0980054 0 0.995186
    outer loop
      vertex 14.8244 0 -0.882707
      vertex 15 -10.5 -0.9
      vertex 15 0 -0.9
    endloop
  endfacet
  facet normal 0.0980054 0 0.995186
    outer loop
      vertex 15 -10.5 -0.9
      vertex 14.8244 0 -0.882707
      vertex 14.8244 -10.5 -0.882707
    endloop
  endfacet
  facet normal -0.0980054 0 0.995186
    outer loop
      vertex 15 0 -0.9
      vertex 15.1756 -10.5 -0.882707
      vertex 15.1756 0 -0.882707
    endloop
  endfacet
  facet normal -0.0980054 0 0.995186
    outer loop
      vertex 15.1756 -10.5 -0.882707
      vertex 15 0 -0.9
      vertex 15 -10.5 -0.9
    endloop
  endfacet
  facet normal -0.956964 0 -0.290206
    outer loop
      vertex 15.8827 -10.5 0.175581
      vertex 15.8315 0 0.344415
      vertex 15.8827 0 0.175581
    endloop
  endfacet
  facet normal -0.956964 -0 -0.290206
    outer loop
      vertex 15.8315 0 0.344415
      vertex 15.8827 -10.5 0.175581
      vertex 15.8315 -10.5 0.344415
    endloop
  endfacet
  facet normal -0.0980054 0 -0.995186
    outer loop
      vertex 15 -10.5 0.9
      vertex 15.1756 0 0.882707
      vertex 15.1756 -10.5 0.882707
    endloop
  endfacet
  facet normal -0.0980054 0 -0.995186
    outer loop
      vertex 15.1756 0 0.882707
      vertex 15 -10.5 0.9
      vertex 15 0 0.9
    endloop
  endfacet
  facet normal -0.471393 0 -0.881923
    outer loop
      vertex 15.3444 -10.5 0.831491
      vertex 15.5 0 0.748322
      vertex 15.5 -10.5 0.748322
    endloop
  endfacet
  facet normal -0.471393 0 -0.881923
    outer loop
      vertex 15.5 0 0.748322
      vertex 15.3444 -10.5 0.831491
      vertex 15.3444 0 0.831491
    endloop
  endfacet
  facet normal 0.290342 0 -0.956923
    outer loop
      vertex 14.6556 -10.5 0.831491
      vertex 14.8244 0 0.882707
      vertex 14.8244 -10.5 0.882707
    endloop
  endfacet
  facet normal 0.290342 0 -0.956923
    outer loop
      vertex 14.8244 0 0.882707
      vertex 14.6556 -10.5 0.831491
      vertex 14.6556 0 0.831491
    endloop
  endfacet
  facet normal 0.634347 0 -0.773048
    outer loop
      vertex 14.3636 -10.5 0.636395
      vertex 14.5 0 0.748322
      vertex 14.5 -10.5 0.748322
    endloop
  endfacet
  facet normal 0.634347 0 -0.773048
    outer loop
      vertex 14.5 0 0.748322
      vertex 14.3636 -10.5 0.636395
      vertex 14.3636 0 0.636395
    endloop
  endfacet
  facet normal -0.956964 0 0.290206
    outer loop
      vertex 15.8315 -10.5 -0.344415
      vertex 15.8827 0 -0.175581
      vertex 15.8315 0 -0.344415
    endloop
  endfacet
  facet normal -0.956964 0 0.290206
    outer loop
      vertex 15.8827 0 -0.175581
      vertex 15.8315 -10.5 -0.344415
      vertex 15.8827 -10.5 -0.175581
    endloop
  endfacet
  facet normal -0.881847 0 0.471536
    outer loop
      vertex 15.7483 -10.5 -0.500012
      vertex 15.8315 0 -0.344415
      vertex 15.7483 0 -0.500012
    endloop
  endfacet
  facet normal -0.881847 0 0.471536
    outer loop
      vertex 15.8315 0 -0.344415
      vertex 15.7483 -10.5 -0.500012
      vertex 15.8315 -10.5 -0.344415
    endloop
  endfacet
  facet normal 0.995181 -0 0.0980552
    outer loop
      vertex 14.1 -10.5 0
      vertex 14.1173 0 -0.175581
      vertex 14.1 0 0
    endloop
  endfacet
  facet normal 0.995181 0 0.0980552
    outer loop
      vertex 14.1173 0 -0.175581
      vertex 14.1 -10.5 0
      vertex 14.1173 -10.5 -0.175581
    endloop
  endfacet
  facet normal -0.471393 0 0.881923
    outer loop
      vertex 15.3444 0 -0.831491
      vertex 15.5 -10.5 -0.748322
      vertex 15.5 0 -0.748322
    endloop
  endfacet
  facet normal -0.471393 0 0.881923
    outer loop
      vertex 15.5 -10.5 -0.748322
      vertex 15.3444 0 -0.831491
      vertex 15.3444 -10.5 -0.831491
    endloop
  endfacet
  facet normal 0 -1 0
    outer loop
      vertex 14.8244 0 0.882707
      vertex 15.1756 0 0.882707
      vertex 15 0 0.9
    endloop
  endfacet
  facet normal 0 -1 0
    outer loop
      vertex 14.6556 0 0.831491
      vertex 15.1756 0 0.882707
      vertex 14.8244 0 0.882707
    endloop
  endfacet
  facet normal 0 -1 0
    outer loop
      vertex 14.6556 0 0.831491
      vertex 15.3444 0 0.831491
      vertex 15.1756 0 0.882707
    endloop
  endfacet
  facet normal 0 -1 0
    outer loop
      vertex 14.5 0 0.748322
      vertex 15.3444 0 0.831491
      vertex 14.6556 0 0.831491
    endloop
  endfacet
  facet normal 0 -1 0
    outer loop
      vertex 14.5 0 0.748322
      vertex 15.5 0 0.748322
      vertex 15.3444 0 0.831491
    endloop
  endfacet
  facet normal 0 -1 0
    outer loop
      vertex 14.3636 0 0.636395
      vertex 15.5 0 0.748322
      vertex 14.5 0 0.748322
    endloop
  endfacet
  facet normal 0 -1 0
    outer loop
      vertex 14.3636 0 0.636395
      vertex 15.6364 0 0.636395
      vertex 15.5 0 0.748322
    endloop
  endfacet
  facet normal 0 -1 0
    outer loop
      vertex 14.2517 0 0.500012
      vertex 15.6364 0 0.636395
      vertex 14.3636 0 0.636395
    endloop
  endfacet
  facet normal 0 -1 0
    outer loop
      vertex 14.2517 0 0.500012
      vertex 15.7483 0 0.500012
      vertex 15.6364 0 0.636395
    endloop
  endfacet
  facet normal 0 -1 0
    outer loop
      vertex 14.1685 0 0.344415
      vertex 15.7483 0 0.500012
      vertex 14.2517 0 0.500012
    endloop
  endfacet
  facet normal 0 -1 0
    outer loop
      vertex 14.1685 0 0.344415
      vertex 15.8315 0 0.344415
      vertex 15.7483 0 0.500012
    endloop
  endfacet
  facet normal 0 -1 0
    outer loop
      vertex 14.1173 0 0.175581
      vertex 15.8315 0 0.344415
      vertex 14.1685 0 0.344415
    endloop
  endfacet
  facet normal 0 -1 0
    outer loop
      vertex 14.1173 0 0.175581
      vertex 15.8827 0 0.175581
      vertex 15.8315 0 0.344415
    endloop
  endfacet
  facet normal 0 -1 0
    outer loop
      vertex 14.1 0 0
      vertex 15.8827 0 0.175581
      vertex 14.1173 0 0.175581
    endloop
  endfacet
  facet normal 0 -1 0
    outer loop
      vertex 14.1 0 0
      vertex 15.9 0 0
      vertex 15.8827 0 0.175581
    endloop
  endfacet
  facet normal 0 -1 0
    outer loop
      vertex 14.1173 0 -0.175581
      vertex 15.9 0 0
      vertex 14.1 0 0
    endloop
  endfacet
  facet normal 0 -1 0
    outer loop
      vertex 14.1173 0 -0.175581
      vertex 15.8827 0 -0.175581
      vertex 15.9 0 0
    endloop
  endfacet
  facet normal 0 -1 0
    outer loop
      vertex 14.1685 0 -0.344415
      vertex 15.8827 0 -0.175581
      vertex 14.1173 0 -0.175581
    endloop
  endfacet
  facet normal 0 -1 0
    outer loop
      vertex 14.1685 0 -0.344415
      vertex 15.8315 0 -0.344415
      vertex 15.8827 0 -0.175581
    endloop
  endfacet
  facet normal 0 -1 0
    outer loop
      vertex 14.2517 0 -0.500012
      vertex 15.8315 0 -0.344415
      vertex 14.1685 0 -0.344415
    endloop
  endfacet
  facet normal 0 -1 0
    outer loop
      vertex 14.2517 0 -0.500012
      vertex 15.7483 0 -0.500012
      vertex 15.8315 0 -0.344415
    endloop
  endfacet
  facet normal 0 -1 0
    outer loop
      vertex 14.3636 0 -0.636395
      vertex 15.7483 0 -0.500012
      vertex 14.2517 0 -0.500012
    endloop
  endfacet
  facet normal 0 -1 0
    outer loop
      vertex 14.3636 0 -0.636395
      vertex 15.6364 0 -0.636395
      vertex 15.7483 0 -0.500012
    endloop
  endfacet
  facet normal 0 -1 0
    outer loop
      vertex 14.5 0 -0.748322
      vertex 15.6364 0 -0.636395
      vertex 14.3636 0 -0.636395
    endloop
  endfacet
  facet normal 0 -1 0
    outer loop
      vertex 14.5 0 -0.748322
      vertex 15.5 0 -0.748322
      vertex 15.6364 0 -0.636395
    endloop
  endfacet
  facet normal 0 -1 0
    outer loop
      vertex 14.6556 0 -0.831491
      vertex 15.5 0 -0.748322
      vertex 14.5 0 -0.748322
    endloop
  endfacet
  facet normal 0 -1 0
    outer loop
      vertex 14.6556 0 -0.831491
      vertex 15.3444 0 -0.831491
      vertex 15.5 0 -0.748322
    endloop
  endfacet
  facet normal 0 -1 0
    outer loop
      vertex 14.8244 0 -0.882707
      vertex 15.3444 0 -0.831491
      vertex 14.6556 0 -0.831491
    endloop
  endfacet
  facet normal 0 -1 0
    outer loop
      vertex 14.8244 0 -0.882707
      vertex 15.1756 0 -0.882707
      vertex 15.3444 0 -0.831491
    endloop
  endfacet
  facet normal -0 -1 0
    outer loop
      vertex 15.1756 0 -0.882707
      vertex 14.8244 0 -0.882707
      vertex 15 0 -0.9
    endloop
  endfacet
  facet normal 0.956964 -0 0.290206
    outer loop
      vertex 14.1173 -10.5 -0.175581
      vertex 14.1685 0 -0.344415
      vertex 14.1173 0 -0.175581
    endloop
  endfacet
  facet normal 0.956964 0 0.290206
    outer loop
      vertex 14.1685 0 -0.344415
      vertex 14.1173 -10.5 -0.175581
      vertex 14.1685 -10.5 -0.344415
    endloop
  endfacet
  facet normal 0.773084 -0 0.634303
    outer loop
      vertex 14.2517 -10.5 -0.500012
      vertex 14.3636 0 -0.636395
      vertex 14.2517 0 -0.500012
    endloop
  endfacet
  facet normal 0.773084 0 0.634303
    outer loop
      vertex 14.3636 0 -0.636395
      vertex 14.2517 -10.5 -0.500012
      vertex 14.3636 -10.5 -0.636395
    endloop
  endfacet
  facet normal -0.634347 0 0.773048
    outer loop
      vertex 15.5 0 -0.748322
      vertex 15.6364 -10.5 -0.636395
      vertex 15.6364 0 -0.636395
    endloop
  endfacet
  facet normal -0.634347 0 0.773048
    outer loop
      vertex 15.6364 -10.5 -0.636395
      vertex 15.5 0 -0.748322
      vertex 15.5 -10.5 -0.748322
    endloop
  endfacet
  facet normal -0.773084 0 0.634303
    outer loop
      vertex 15.6364 -10.5 -0.636395
      vertex 15.7483 0 -0.500012
      vertex 15.6364 0 -0.636395
    endloop
  endfacet
  facet normal -0.773084 0 0.634303
    outer loop
      vertex 15.7483 0 -0.500012
      vertex 15.6364 -10.5 -0.636395
      vertex 15.7483 -10.5 -0.500012
    endloop
  endfacet
  facet normal 0.290342 0 0.956923
    outer loop
      vertex 14.6556 0 -0.831491
      vertex 14.8244 -10.5 -0.882707
      vertex 14.8244 0 -0.882707
    endloop
  endfacet
  facet normal 0.290342 0 0.956923
    outer loop
      vertex 14.8244 -10.5 -0.882707
      vertex 14.6556 0 -0.831491
      vertex 14.6556 -10.5 -0.831491
    endloop
  endfacet
  facet normal 0.634347 0 0.773048
    outer loop
      vertex 14.3636 0 -0.636395
      vertex 14.5 -10.5 -0.748322
      vertex 14.5 0 -0.748322
    endloop
  endfacet
  facet normal 0.634347 0 0.773048
    outer loop
      vertex 14.5 -10.5 -0.748322
      vertex 14.3636 0 -0.636395
      vertex 14.3636 -10.5 -0.636395
    endloop
  endfacet
  facet normal 0.471393 0 0.881923
    outer loop
      vertex 14.5 0 -0.748322
      vertex 14.6556 -10.5 -0.831491
      vertex 14.6556 0 -0.831491
    endloop
  endfacet
  facet normal 0.471393 0 0.881923
    outer loop
      vertex 14.6556 -10.5 -0.831491
      vertex 14.5 0 -0.748322
      vertex 14.5 -10.5 -0.748322
    endloop
  endfacet
  facet normal 0.881847 -0 0.471536
    outer loop
      vertex 14.1685 -10.5 -0.344415
      vertex 14.2517 0 -0.500012
      vertex 14.1685 0 -0.344415
    endloop
  endfacet
  facet normal 0.881847 0 0.471536
    outer loop
      vertex 14.2517 0 -0.500012
      vertex 14.1685 -10.5 -0.344415
      vertex 14.2517 -10.5 -0.500012
    endloop
  endfacet
  facet normal -0.995187 0 -0.0979991
    outer loop
      vertex -8.1 -10.5 0
      vertex -8.11729 0 0.175581
      vertex -8.1 0 0
    endloop
  endfacet
  facet normal -0.995187 -0 -0.0979991
    outer loop
      vertex -8.11729 0 0.175581
      vertex -8.1 -10.5 0
      vertex -8.11729 -10.5 0.175581
    endloop
  endfacet
  facet normal -0.881917 0 -0.471404
    outer loop
      vertex -8.16851 -10.5 0.344415
      vertex -8.25168 0 0.500012
      vertex -8.16851 0 0.344415
    endloop
  endfacet
  facet normal -0.881917 -0 -0.471404
    outer loop
      vertex -8.25168 0 0.500012
      vertex -8.16851 -10.5 0.344415
      vertex -8.25168 -10.5 0.500012
    endloop
  endfacet
  facet normal 0.995187 0 -0.0979991
    outer loop
      vertex -9.88271 -10.5 0.175581
      vertex -9.9 0 0
      vertex -9.88271 0 0.175581
    endloop
  endfacet
  facet normal 0.995187 0 -0.0979991
    outer loop
      vertex -9.9 0 0
      vertex -9.88271 -10.5 0.175581
      vertex -9.9 -10.5 0
    endloop
  endfacet
  facet normal -0.290279 0 -0.956942
    outer loop
      vertex -8.82442 -10.5 0.882707
      vertex -8.65558 0 0.831491
      vertex -8.65558 -10.5 0.831491
    endloop
  endfacet
  facet normal -0.290279 0 -0.956942
    outer loop
      vertex -8.65558 0 0.831491
      vertex -8.82442 -10.5 0.882707
      vertex -8.82442 0 0.882707
    endloop
  endfacet
  facet normal 0.471393 0 -0.881923
    outer loop
      vertex -9.50001 -10.5 0.748322
      vertex -9.34441 0 0.831491
      vertex -9.34441 -10.5 0.831491
    endloop
  endfacet
  facet normal 0.471393 0 -0.881923
    outer loop
      vertex -9.34441 0 0.831491
      vertex -9.50001 -10.5 0.748322
      vertex -9.50001 0 0.748322
    endloop
  endfacet
  facet normal 0.956933 0 -0.290309
    outer loop
      vertex -9.83149 -10.5 0.344415
      vertex -9.88271 0 0.175581
      vertex -9.83149 0 0.344415
    endloop
  endfacet
  facet normal 0.956933 0 -0.290309
    outer loop
      vertex -9.88271 0 0.175581
      vertex -9.83149 -10.5 0.344415
      vertex -9.88271 -10.5 0.175581
    endloop
  endfacet
  facet normal -0.995187 0 0.0979991
    outer loop
      vertex -8.11729 -10.5 -0.175581
      vertex -8.1 0 0
      vertex -8.11729 0 -0.175581
    endloop
  endfacet
  facet normal -0.995187 0 0.0979991
    outer loop
      vertex -8.1 0 0
      vertex -8.11729 -10.5 -0.175581
      vertex -8.1 -10.5 0
    endloop
  endfacet
  facet normal -0.290279 0 0.956942
    outer loop
      vertex -8.82442 0 -0.882707
      vertex -8.65558 -10.5 -0.831491
      vertex -8.65558 0 -0.831491
    endloop
  endfacet
  facet normal -0.290279 0 0.956942
    outer loop
      vertex -8.65558 -10.5 -0.831491
      vertex -8.82442 0 -0.882707
      vertex -8.82442 -10.5 -0.882707
    endloop
  endfacet
  facet normal -0.634375 0 -0.773025
    outer loop
      vertex -8.49999 -10.5 0.748322
      vertex -8.3636 0 0.636395
      vertex -8.3636 -10.5 0.636395
    endloop
  endfacet
  facet normal -0.634375 0 -0.773025
    outer loop
      vertex -8.3636 0 0.636395
      vertex -8.49999 -10.5 0.748322
      vertex -8.49999 0 0.748322
    endloop
  endfacet
  facet normal -0.773029 0 -0.634371
    outer loop
      vertex -8.25168 -10.5 0.500012
      vertex -8.3636 0 0.636395
      vertex -8.25168 0 0.500012
    endloop
  endfacet
  facet normal -0.773029 -0 -0.634371
    outer loop
      vertex -8.3636 0 0.636395
      vertex -8.25168 -10.5 0.500012
      vertex -8.3636 -10.5 0.636395
    endloop
  endfacet
  facet normal 0.0980165 0 -0.995185
    outer loop
      vertex -9.17558 -10.5 0.882707
      vertex -9 0 0.9
      vertex -9 -10.5 0.9
    endloop
  endfacet
  facet normal 0.0980165 0 -0.995185
    outer loop
      vertex -9 0 0.9
      vertex -9.17558 -10.5 0.882707
      vertex -9.17558 0 0.882707
    endloop
  endfacet
  facet normal 0.881917 0 -0.471404
    outer loop
      vertex -9.74832 -10.5 0.500012
      vertex -9.83149 0 0.344415
      vertex -9.74832 0 0.500012
    endloop
  endfacet
  facet normal 0.881917 0 -0.471404
    outer loop
      vertex -9.83149 0 0.344415
      vertex -9.74832 -10.5 0.500012
      vertex -9.83149 -10.5 0.344415
    endloop
  endfacet
  facet normal 0.956933 -0 0.290309
    outer loop
      vertex -9.88271 -10.5 -0.175581
      vertex -9.83149 0 -0.344415
      vertex -9.88271 0 -0.175581
    endloop
  endfacet
  facet normal 0.956933 0 0.290309
    outer loop
      vertex -9.83149 0 -0.344415
      vertex -9.88271 -10.5 -0.175581
      vertex -9.83149 -10.5 -0.344415
    endloop
  endfacet
  facet normal -0.0980165 0 0.995185
    outer loop
      vertex -9 0 -0.9
      vertex -8.82442 -10.5 -0.882707
      vertex -8.82442 0 -0.882707
    endloop
  endfacet
  facet normal -0.0980165 0 0.995185
    outer loop
      vertex -8.82442 -10.5 -0.882707
      vertex -9 0 -0.9
      vertex -9 -10.5 -0.9
    endloop
  endfacet
  facet normal -0.956933 0 -0.290309
    outer loop
      vertex -8.11729 -10.5 0.175581
      vertex -8.16851 0 0.344415
      vertex -8.11729 0 0.175581
    endloop
  endfacet
  facet normal -0.956933 -0 -0.290309
    outer loop
      vertex -8.16851 0 0.344415
      vertex -8.11729 -10.5 0.175581
      vertex -8.16851 -10.5 0.344415
    endloop
  endfacet
  facet normal -0.0980165 0 -0.995185
    outer loop
      vertex -9 -10.5 0.9
      vertex -8.82442 0 0.882707
      vertex -8.82442 -10.5 0.882707
    endloop
  endfacet
  facet normal -0.0980165 0 -0.995185
    outer loop
      vertex -8.82442 0 0.882707
      vertex -9 -10.5 0.9
      vertex -9 0 0.9
    endloop
  endfacet
  facet normal -0.471416 0 -0.881911
    outer loop
      vertex -8.65558 -10.5 0.831491
      vertex -8.49999 0 0.748322
      vertex -8.49999 -10.5 0.748322
    endloop
  endfacet
  facet normal -0.471416 0 -0.881911
    outer loop
      vertex -8.49999 0 0.748322
      vertex -8.65558 -10.5 0.831491
      vertex -8.65558 0 0.831491
    endloop
  endfacet
  facet normal 0.290295 0 -0.956937
    outer loop
      vertex -9.34441 -10.5 0.831491
      vertex -9.17558 0 0.882707
      vertex -9.17558 -10.5 0.882707
    endloop
  endfacet
  facet normal 0.290295 0 -0.956937
    outer loop
      vertex -9.17558 0 0.882707
      vertex -9.34441 -10.5 0.831491
      vertex -9.34441 0 0.831491
    endloop
  endfacet
  facet normal 0.634375 0 -0.773025
    outer loop
      vertex -9.6364 -10.5 0.636395
      vertex -9.50001 0 0.748322
      vertex -9.50001 -10.5 0.748322
    endloop
  endfacet
  facet normal 0.634375 0 -0.773025
    outer loop
      vertex -9.50001 0 0.748322
      vertex -9.6364 -10.5 0.636395
      vertex -9.6364 0 0.636395
    endloop
  endfacet
  facet normal 0.773029 0 -0.634371
    outer loop
      vertex -9.6364 -10.5 0.636395
      vertex -9.74832 0 0.500012
      vertex -9.6364 0 0.636395
    endloop
  endfacet
  facet normal 0.773029 0 -0.634371
    outer loop
      vertex -9.74832 0 0.500012
      vertex -9.6364 -10.5 0.636395
      vertex -9.74832 -10.5 0.500012
    endloop
  endfacet
  facet normal -0.956933 0 0.290309
    outer loop
      vertex -8.16851 -10.5 -0.344415
      vertex -8.11729 0 -0.175581
      vertex -8.16851 0 -0.344415
    endloop
  endfacet
  facet normal -0.956933 0 0.290309
    outer loop
      vertex -8.11729 0 -0.175581
      vertex -8.16851 -10.5 -0.344415
      vertex -8.11729 -10.5 -0.175581
    endloop
  endfacet
  facet normal -0.881917 0 0.471404
    outer loop
      vertex -8.25168 -10.5 -0.500012
      vertex -8.16851 0 -0.344415
      vertex -8.25168 0 -0.500012
    endloop
  endfacet
  facet normal -0.881917 0 0.471404
    outer loop
      vertex -8.16851 0 -0.344415
      vertex -8.25168 -10.5 -0.500012
      vertex -8.16851 -10.5 -0.344415
    endloop
  endfacet
  facet normal 0.0980165 0 0.995185
    outer loop
      vertex -9.17558 0 -0.882707
      vertex -9 -10.5 -0.9
      vertex -9 0 -0.9
    endloop
  endfacet
  facet normal 0.0980165 0 0.995185
    outer loop
      vertex -9 -10.5 -0.9
      vertex -9.17558 0 -0.882707
      vertex -9.17558 -10.5 -0.882707
    endloop
  endfacet
  facet normal 0.995187 -0 0.0979991
    outer loop
      vertex -9.9 -10.5 0
      vertex -9.88271 0 -0.175581
      vertex -9.9 0 0
    endloop
  endfacet
  facet normal 0.995187 0 0.0979991
    outer loop
      vertex -9.88271 0 -0.175581
      vertex -9.9 -10.5 0
      vertex -9.88271 -10.5 -0.175581
    endloop
  endfacet
  facet normal -0.471416 0 0.881911
    outer loop
      vertex -8.65558 0 -0.831491
      vertex -8.49999 -10.5 -0.748322
      vertex -8.49999 0 -0.748322
    endloop
  endfacet
  facet normal -0.471416 0 0.881911
    outer loop
      vertex -8.49999 -10.5 -0.748322
      vertex -8.65558 0 -0.831491
      vertex -8.65558 -10.5 -0.831491
    endloop
  endfacet
  facet normal -0.634375 0 0.773025
    outer loop
      vertex -8.49999 0 -0.748322
      vertex -8.3636 -10.5 -0.636395
      vertex -8.3636 0 -0.636395
    endloop
  endfacet
  facet normal -0.634375 0 0.773025
    outer loop
      vertex -8.3636 -10.5 -0.636395
      vertex -8.49999 0 -0.748322
      vertex -8.49999 -10.5 -0.748322
    endloop
  endfacet
  facet normal 0.471393 0 0.881923
    outer loop
      vertex -9.50001 0 -0.748322
      vertex -9.34441 -10.5 -0.831491
      vertex -9.34441 0 -0.831491
    endloop
  endfacet
  facet normal 0.471393 0 0.881923
    outer loop
      vertex -9.34441 -10.5 -0.831491
      vertex -9.50001 0 -0.748322
      vertex -9.50001 -10.5 -0.748322
    endloop
  endfacet
  facet normal 0 -1 0
    outer loop
      vertex -9.17558 0 0.882707
      vertex -8.82442 0 0.882707
      vertex -9 0 0.9
    endloop
  endfacet
  facet normal 0 -1 0
    outer loop
      vertex -9.34441 0 0.831491
      vertex -8.82442 0 0.882707
      vertex -9.17558 0 0.882707
    endloop
  endfacet
  facet normal 0 -1 0
    outer loop
      vertex -9.34441 0 0.831491
      vertex -8.65558 0 0.831491
      vertex -8.82442 0 0.882707
    endloop
  endfacet
  facet normal 0 -1 0
    outer loop
      vertex -9.50001 0 0.748322
      vertex -8.65558 0 0.831491
      vertex -9.34441 0 0.831491
    endloop
  endfacet
  facet normal 0 -1 0
    outer loop
      vertex -9.50001 0 0.748322
      vertex -8.49999 0 0.748322
      vertex -8.65558 0 0.831491
    endloop
  endfacet
  facet normal 0 -1 0
    outer loop
      vertex -9.6364 0 0.636395
      vertex -8.49999 0 0.748322
      vertex -9.50001 0 0.748322
    endloop
  endfacet
  facet normal 0 -1 0
    outer loop
      vertex -9.6364 0 0.636395
      vertex -8.3636 0 0.636395
      vertex -8.49999 0 0.748322
    endloop
  endfacet
  facet normal 0 -1 0
    outer loop
      vertex -9.74832 0 0.500012
      vertex -8.3636 0 0.636395
      vertex -9.6364 0 0.636395
    endloop
  endfacet
  facet normal 0 -1 0
    outer loop
      vertex -9.74832 0 0.500012
      vertex -8.25168 0 0.500012
      vertex -8.3636 0 0.636395
    endloop
  endfacet
  facet normal 0 -1 0
    outer loop
      vertex -9.83149 0 0.344415
      vertex -8.25168 0 0.500012
      vertex -9.74832 0 0.500012
    endloop
  endfacet
  facet normal 0 -1 0
    outer loop
      vertex -9.83149 0 0.344415
      vertex -8.16851 0 0.344415
      vertex -8.25168 0 0.500012
    endloop
  endfacet
  facet normal 0 -1 0
    outer loop
      vertex -9.88271 0 0.175581
      vertex -8.16851 0 0.344415
      vertex -9.83149 0 0.344415
    endloop
  endfacet
  facet normal 0 -1 0
    outer loop
      vertex -9.88271 0 0.175581
      vertex -8.11729 0 0.175581
      vertex -8.16851 0 0.344415
    endloop
  endfacet
  facet normal 0 -1 0
    outer loop
      vertex -9.9 0 0
      vertex -8.11729 0 0.175581
      vertex -9.88271 0 0.175581
    endloop
  endfacet
  facet normal 0 -1 0
    outer loop
      vertex -9.9 0 0
      vertex -8.1 0 0
      vertex -8.11729 0 0.175581
    endloop
  endfacet
  facet normal 0 -1 0
    outer loop
      vertex -9.88271 0 -0.175581
      vertex -8.1 0 0
      vertex -9.9 0 0
    endloop
  endfacet
  facet normal 0 -1 0
    outer loop
      vertex -9.88271 0 -0.175581
      vertex -8.11729 0 -0.175581
      vertex -8.1 0 0
    endloop
  endfacet
  facet normal 0 -1 0
    outer loop
      vertex -9.83149 0 -0.344415
      vertex -8.11729 0 -0.175581
      vertex -9.88271 0 -0.175581
    endloop
  endfacet
  facet normal 0 -1 0
    outer loop
      vertex -9.83149 0 -0.344415
      vertex -8.16851 0 -0.344415
      vertex -8.11729 0 -0.175581
    endloop
  endfacet
  facet normal 0 -1 0
    outer loop
      vertex -9.74832 0 -0.500012
      vertex -8.16851 0 -0.344415
      vertex -9.83149 0 -0.344415
    endloop
  endfacet
  facet normal 0 -1 0
    outer loop
      vertex -9.74832 0 -0.500012
      vertex -8.25168 0 -0.500012
      vertex -8.16851 0 -0.344415
    endloop
  endfacet
  facet normal 0 -1 0
    outer loop
      vertex -9.6364 0 -0.636395
      vertex -8.25168 0 -0.500012
      vertex -9.74832 0 -0.500012
    endloop
  endfacet
  facet normal 0 -1 0
    outer loop
      vertex -9.6364 0 -0.636395
      vertex -8.3636 0 -0.636395
      vertex -8.25168 0 -0.500012
    endloop
  endfacet
  facet normal 0 -1 0
    outer loop
      vertex -9.50001 0 -0.748322
      vertex -8.3636 0 -0.636395
      vertex -9.6364 0 -0.636395
    endloop
  endfacet
  facet normal 0 -1 0
    outer loop
      vertex -9.50001 0 -0.748322
      vertex -8.49999 0 -0.748322
      vertex -8.3636 0 -0.636395
    endloop
  endfacet
  facet normal 0 -1 0
    outer loop
      vertex -9.34441 0 -0.831491
      vertex -8.49999 0 -0.748322
      vertex -9.50001 0 -0.748322
    endloop
  endfacet
  facet normal 0 -1 0
    outer loop
      vertex -9.34441 0 -0.831491
      vertex -8.65558 0 -0.831491
      vertex -8.49999 0 -0.748322
    endloop
  endfacet
  facet normal 0 -1 0
    outer loop
      vertex -9.17558 0 -0.882707
      vertex -8.65558 0 -0.831491
      vertex -9.34441 0 -0.831491
    endloop
  endfacet
  facet normal 0 -1 0
    outer loop
      vertex -9.17558 0 -0.882707
      vertex -8.82442 0 -0.882707
      vertex -8.65558 0 -0.831491
    endloop
  endfacet
  facet normal -0 -1 0
    outer loop
      vertex -8.82442 0 -0.882707
      vertex -9.17558 0 -0.882707
      vertex -9 0 -0.9
    endloop
  endfacet
  facet normal -0.773029 0 0.634371
    outer loop
      vertex -8.3636 -10.5 -0.636395
      vertex -8.25168 0 -0.500012
      vertex -8.3636 0 -0.636395
    endloop
  endfacet
  facet normal -0.773029 0 0.634371
    outer loop
      vertex -8.25168 0 -0.500012
      vertex -8.3636 -10.5 -0.636395
      vertex -8.25168 -10.5 -0.500012
    endloop
  endfacet
  facet normal 0.290295 0 0.956937
    outer loop
      vertex -9.34441 0 -0.831491
      vertex -9.17558 -10.5 -0.882707
      vertex -9.17558 0 -0.882707
    endloop
  endfacet
  facet normal 0.290295 0 0.956937
    outer loop
      vertex -9.17558 -10.5 -0.882707
      vertex -9.34441 0 -0.831491
      vertex -9.34441 -10.5 -0.831491
    endloop
  endfacet
  facet normal 0.881917 -0 0.471404
    outer loop
      vertex -9.83149 -10.5 -0.344415
      vertex -9.74832 0 -0.500012
      vertex -9.83149 0 -0.344415
    endloop
  endfacet
  facet normal 0.881917 0 0.471404
    outer loop
      vertex -9.74832 0 -0.500012
      vertex -9.83149 -10.5 -0.344415
      vertex -9.74832 -10.5 -0.500012
    endloop
  endfacet
  facet normal 0.773029 -0 0.634371
    outer loop
      vertex -9.74832 -10.5 -0.500012
      vertex -9.6364 0 -0.636395
      vertex -9.74832 0 -0.500012
    endloop
  endfacet
  facet normal 0.773029 0 0.634371
    outer loop
      vertex -9.6364 0 -0.636395
      vertex -9.74832 -10.5 -0.500012
      vertex -9.6364 -10.5 -0.636395
    endloop
  endfacet
  facet normal 0.634375 0 0.773025
    outer loop
      vertex -9.6364 0 -0.636395
      vertex -9.50001 -10.5 -0.748322
      vertex -9.50001 0 -0.748322
    endloop
  endfacet
  facet normal 0.634375 0 0.773025
    outer loop
      vertex -9.50001 -10.5 -0.748322
      vertex -9.6364 0 -0.636395
      vertex -9.6364 -10.5 -0.636395
    endloop
  endfacet
endsolid OpenSCAD_Model
