solid OpenSCAD_Model
  facet normal -1 0 0
    outer loop
      vertex -11.75 7 -2.5
      vertex -11.75 5.3 0
      vertex -11.75 7 2.5
    endloop
  endfacet
  facet normal -1 0 0
    outer loop
      vertex -11.75 7 -2.5
      vertex -11.75 5.27502 -0.253617
      vertex -11.75 5.3 0
    endloop
  endfacet
  facet normal -1 0 0
    outer loop
      vertex -11.75 7 -2.5
      vertex -11.75 5.20104 -0.497488
      vertex -11.75 5.27502 -0.253617
    endloop
  endfacet
  facet normal -1 0 0
    outer loop
      vertex -11.75 7 -2.5
      vertex -11.75 5.08091 -0.72224
      vertex -11.75 5.20104 -0.497488
    endloop
  endfacet
  facet normal -1 0 0
    outer loop
      vertex -11.75 7 -2.5
      vertex -11.75 4.91924 -0.919238
      vertex -11.75 5.08091 -0.72224
    endloop
  endfacet
  facet normal -1 0 0
    outer loop
      vertex -11.75 7 -2.5
      vertex -11.75 4.72224 -1.08091
      vertex -11.75 4.91924 -0.919238
    endloop
  endfacet
  facet normal -1 0 0
    outer loop
      vertex -11.75 7 -2.5
      vertex -11.75 4.49749 -1.20104
      vertex -11.75 4.72224 -1.08091
    endloop
  endfacet
  facet normal -1 0 0
    outer loop
      vertex -11.75 7 -2.5
      vertex -11.75 4.25362 -1.27502
      vertex -11.75 4.49749 -1.20104
    endloop
  endfacet
  facet normal -1 0 0
    outer loop
      vertex -11.75 7 -2.5
      vertex -11.75 4 -1.3
      vertex -11.75 4.25362 -1.27502
    endloop
  endfacet
  facet normal -1 0 0
    outer loop
      vertex -11.75 7 -2.5
      vertex -11.75 3.74638 -1.27502
      vertex -11.75 4 -1.3
    endloop
  endfacet
  facet normal -1 0 0
    outer loop
      vertex -11.75 -3.74638 -1.27502
      vertex -11.75 3.74638 -1.27502
      vertex -11.75 7 -2.5
    endloop
  endfacet
  facet normal -1 0 0
    outer loop
      vertex -11.75 2.72498 -0.253617
      vertex -11.75 -2.7 0
      vertex -11.75 2.7 0
    endloop
  endfacet
  facet normal -1 0 0
    outer loop
      vertex -11.75 -2.72498 -0.253617
      vertex -11.75 2.72498 -0.253617
      vertex -11.75 2.79896 -0.497488
    endloop
  endfacet
  facet normal -1 0 0
    outer loop
      vertex -11.75 -2.79896 -0.497488
      vertex -11.75 2.79896 -0.497488
      vertex -11.75 2.91909 -0.72224
    endloop
  endfacet
  facet normal -1 0 0
    outer loop
      vertex -11.75 -2.91909 -0.72224
      vertex -11.75 2.91909 -0.72224
      vertex -11.75 3.08076 -0.919238
    endloop
  endfacet
  facet normal -1 0 0
    outer loop
      vertex -11.75 -3.08076 -0.919238
      vertex -11.75 3.08076 -0.919238
      vertex -11.75 3.27776 -1.08091
    endloop
  endfacet
  facet normal -1 0 0
    outer loop
      vertex -11.75 -3.27776 -1.08091
      vertex -11.75 3.27776 -1.08091
      vertex -11.75 3.50251 -1.20104
    endloop
  endfacet
  facet normal -1 0 0
    outer loop
      vertex -11.75 3.74638 -1.27502
      vertex -11.75 -3.74638 -1.27502
      vertex -11.75 3.50251 -1.20104
    endloop
  endfacet
  facet normal -1 0 0
    outer loop
      vertex -11.75 2.72498 -0.253617
      vertex -11.75 -2.72498 -0.253617
      vertex -11.75 -2.7 0
    endloop
  endfacet
  facet normal -1 0 0
    outer loop
      vertex -11.75 2.79896 -0.497488
      vertex -11.75 -2.79896 -0.497488
      vertex -11.75 -2.72498 -0.253617
    endloop
  endfacet
  facet normal -1 0 0
    outer loop
      vertex -11.75 2.91909 -0.72224
      vertex -11.75 -2.91909 -0.72224
      vertex -11.75 -2.79896 -0.497488
    endloop
  endfacet
  facet normal -1 0 0
    outer loop
      vertex -11.75 3.08076 -0.919238
      vertex -11.75 -3.08076 -0.919238
      vertex -11.75 -2.91909 -0.72224
    endloop
  endfacet
  facet normal -1 0 0
    outer loop
      vertex -11.75 3.27776 -1.08091
      vertex -11.75 -3.27776 -1.08091
      vertex -11.75 -3.08076 -0.919238
    endloop
  endfacet
  facet normal -1 0 0
    outer loop
      vertex -11.75 3.50251 -1.20104
      vertex -11.75 -3.50251 -1.20104
      vertex -11.75 -3.27776 -1.08091
    endloop
  endfacet
  facet normal -1 -0 0
    outer loop
      vertex -11.75 3.50251 -1.20104
      vertex -11.75 -3.74638 -1.27502
      vertex -11.75 -3.50251 -1.20104
    endloop
  endfacet
  facet normal -1 0 0
    outer loop
      vertex -11.75 -7 -2.5
      vertex -11.75 -3.74638 -1.27502
      vertex -11.75 7 -2.5
    endloop
  endfacet
  facet normal -1 0 0
    outer loop
      vertex -11.75 -3.74638 -1.27502
      vertex -11.75 -7 -2.5
      vertex -11.75 -4 -1.3
    endloop
  endfacet
  facet normal -1 -0 0
    outer loop
      vertex -11.75 -5.27502 -0.253617
      vertex -11.75 -7 -2.5
      vertex -11.75 -5.3 0
    endloop
  endfacet
  facet normal -1 -0 0
    outer loop
      vertex -11.75 -5.20104 -0.497488
      vertex -11.75 -7 -2.5
      vertex -11.75 -5.27502 -0.253617
    endloop
  endfacet
  facet normal -1 -0 0
    outer loop
      vertex -11.75 -5.08091 -0.72224
      vertex -11.75 -7 -2.5
      vertex -11.75 -5.20104 -0.497488
    endloop
  endfacet
  facet normal -1 -0 0
    outer loop
      vertex -11.75 -4.91924 -0.919238
      vertex -11.75 -7 -2.5
      vertex -11.75 -5.08091 -0.72224
    endloop
  endfacet
  facet normal -1 -0 0
    outer loop
      vertex -11.75 -4.72224 -1.08091
      vertex -11.75 -7 -2.5
      vertex -11.75 -4.91924 -0.919238
    endloop
  endfacet
  facet normal -1 -0 0
    outer loop
      vertex -11.75 -4.49749 -1.20104
      vertex -11.75 -7 -2.5
      vertex -11.75 -4.72224 -1.08091
    endloop
  endfacet
  facet normal -1 -0 0
    outer loop
      vertex -11.75 -4.25362 -1.27502
      vertex -11.75 -7 -2.5
      vertex -11.75 -4.49749 -1.20104
    endloop
  endfacet
  facet normal -1 -0 0
    outer loop
      vertex -11.75 -4 -1.3
      vertex -11.75 -7 -2.5
      vertex -11.75 -4.25362 -1.27502
    endloop
  endfacet
  facet normal -1 0 0
    outer loop
      vertex -11.75 5.27502 0.253617
      vertex -11.75 7 2.5
      vertex -11.75 5.3 0
    endloop
  endfacet
  facet normal -1 0 0
    outer loop
      vertex -11.75 5.20104 0.497488
      vertex -11.75 7 2.5
      vertex -11.75 5.27502 0.253617
    endloop
  endfacet
  facet normal -1 0 0
    outer loop
      vertex -11.75 5.08091 0.72224
      vertex -11.75 7 2.5
      vertex -11.75 5.20104 0.497488
    endloop
  endfacet
  facet normal -1 0 0
    outer loop
      vertex -11.75 4.91924 0.919238
      vertex -11.75 7 2.5
      vertex -11.75 5.08091 0.72224
    endloop
  endfacet
  facet normal -1 0 0
    outer loop
      vertex -11.75 4.72224 1.08091
      vertex -11.75 7 2.5
      vertex -11.75 4.91924 0.919238
    endloop
  endfacet
  facet normal -1 0 0
    outer loop
      vertex -11.75 4.49749 1.20104
      vertex -11.75 7 2.5
      vertex -11.75 4.72224 1.08091
    endloop
  endfacet
  facet normal -1 0 0
    outer loop
      vertex -11.75 4.25362 1.27502
      vertex -11.75 7 2.5
      vertex -11.75 4.49749 1.20104
    endloop
  endfacet
  facet normal -1 0 0
    outer loop
      vertex -11.75 4 1.3
      vertex -11.75 7 2.5
      vertex -11.75 4.25362 1.27502
    endloop
  endfacet
  facet normal -1 0 0
    outer loop
      vertex -11.75 3.74638 1.27502
      vertex -11.75 7 2.5
      vertex -11.75 4 1.3
    endloop
  endfacet
  facet normal -1 0 0
    outer loop
      vertex -11.75 -3.74638 1.27502
      vertex -11.75 3.74638 1.27502
      vertex -11.75 3.50251 1.20104
    endloop
  endfacet
  facet normal -1 0 0
    outer loop
      vertex -11.75 -2.7 0
      vertex -11.75 2.72498 0.253617
      vertex -11.75 2.7 0
    endloop
  endfacet
  facet normal -1 0 0
    outer loop
      vertex -11.75 -2.72498 0.253617
      vertex -11.75 2.72498 0.253617
      vertex -11.75 -2.7 0
    endloop
  endfacet
  facet normal -1 0 0
    outer loop
      vertex -11.75 2.72498 0.253617
      vertex -11.75 -2.72498 0.253617
      vertex -11.75 2.79896 0.497488
    endloop
  endfacet
  facet normal -1 0 0
    outer loop
      vertex -11.75 -2.79896 0.497488
      vertex -11.75 2.79896 0.497488
      vertex -11.75 -2.72498 0.253617
    endloop
  endfacet
  facet normal -1 0 0
    outer loop
      vertex -11.75 2.79896 0.497488
      vertex -11.75 -2.79896 0.497488
      vertex -11.75 2.91909 0.72224
    endloop
  endfacet
  facet normal -1 0 0
    outer loop
      vertex -11.75 -2.91909 0.72224
      vertex -11.75 2.91909 0.72224
      vertex -11.75 -2.79896 0.497488
    endloop
  endfacet
  facet normal -1 0 0
    outer loop
      vertex -11.75 2.91909 0.72224
      vertex -11.75 -2.91909 0.72224
      vertex -11.75 3.08076 0.919238
    endloop
  endfacet
  facet normal -1 0 0
    outer loop
      vertex -11.75 -3.08076 0.919238
      vertex -11.75 3.08076 0.919238
      vertex -11.75 -2.91909 0.72224
    endloop
  endfacet
  facet normal -1 0 0
    outer loop
      vertex -11.75 3.08076 0.919238
      vertex -11.75 -3.08076 0.919238
      vertex -11.75 3.27776 1.08091
    endloop
  endfacet
  facet normal -1 0 0
    outer loop
      vertex -11.75 -3.27776 1.08091
      vertex -11.75 3.27776 1.08091
      vertex -11.75 -3.08076 0.919238
    endloop
  endfacet
  facet normal -1 0 0
    outer loop
      vertex -11.75 3.27776 1.08091
      vertex -11.75 -3.27776 1.08091
      vertex -11.75 3.50251 1.20104
    endloop
  endfacet
  facet normal -1 0 0
    outer loop
      vertex -11.75 -3.50251 1.20104
      vertex -11.75 3.50251 1.20104
      vertex -11.75 -3.27776 1.08091
    endloop
  endfacet
  facet normal -1 0 0
    outer loop
      vertex -11.75 -3.74638 1.27502
      vertex -11.75 3.50251 1.20104
      vertex -11.75 -3.50251 1.20104
    endloop
  endfacet
  facet normal -1 0 0
    outer loop
      vertex -11.75 3.74638 1.27502
      vertex -11.75 -3.74638 1.27502
      vertex -11.75 7 2.5
    endloop
  endfacet
  facet normal -1 0 0
    outer loop
      vertex -11.75 -7 2.5
      vertex -11.75 -3.74638 1.27502
      vertex -11.75 -4 1.3
    endloop
  endfacet
  facet normal -1 0 0
    outer loop
      vertex -11.75 -7 2.5
      vertex -11.75 -4 1.3
      vertex -11.75 -4.25362 1.27502
    endloop
  endfacet
  facet normal -1 0 0
    outer loop
      vertex -11.75 -7 2.5
      vertex -11.75 -5.3 0
      vertex -11.75 -7 -2.5
    endloop
  endfacet
  facet normal -1 0 0
    outer loop
      vertex -11.75 -5.3 0
      vertex -11.75 -7 2.5
      vertex -11.75 -5.27502 0.253617
    endloop
  endfacet
  facet normal -1 0 0
    outer loop
      vertex -11.75 -5.27502 0.253617
      vertex -11.75 -7 2.5
      vertex -11.75 -5.20104 0.497488
    endloop
  endfacet
  facet normal -1 0 0
    outer loop
      vertex -11.75 -3.74638 1.27502
      vertex -11.75 -7 2.5
      vertex -11.75 7 2.5
    endloop
  endfacet
  facet normal -1 0 0
    outer loop
      vertex -11.75 -4.49749 1.20104
      vertex -11.75 -7 2.5
      vertex -11.75 -4.25362 1.27502
    endloop
  endfacet
  facet normal -1 0 0
    outer loop
      vertex -11.75 -4.72224 1.08091
      vertex -11.75 -7 2.5
      vertex -11.75 -4.49749 1.20104
    endloop
  endfacet
  facet normal -1 0 0
    outer loop
      vertex -11.75 -4.91924 0.919238
      vertex -11.75 -7 2.5
      vertex -11.75 -4.72224 1.08091
    endloop
  endfacet
  facet normal -1 0 0
    outer loop
      vertex -11.75 -5.08091 0.72224
      vertex -11.75 -7 2.5
      vertex -11.75 -4.91924 0.919238
    endloop
  endfacet
  facet normal -1 0 0
    outer loop
      vertex -11.75 -5.20104 0.497488
      vertex -11.75 -7 2.5
      vertex -11.75 -5.08091 0.72224
    endloop
  endfacet
  facet normal 0 0 1
    outer loop
      vertex 11.75 7 2.5
      vertex 10.05 0 2.5
      vertex 11.75 -7 2.5
    endloop
  endfacet
  facet normal 0 0 1
    outer loop
      vertex 11.75 7 2.5
      vertex 10.025 0.253617 2.5
      vertex 10.05 0 2.5
    endloop
  endfacet
  facet normal 0 0 1
    outer loop
      vertex 11.75 7 2.5
      vertex 9.95104 0.497488 2.5
      vertex 10.025 0.253617 2.5
    endloop
  endfacet
  facet normal 0 0 1
    outer loop
      vertex 11.75 7 2.5
      vertex 9.83091 0.72224 2.5
      vertex 9.95104 0.497488 2.5
    endloop
  endfacet
  facet normal 0 0 1
    outer loop
      vertex 11.75 7 2.5
      vertex 9.66924 0.919238 2.5
      vertex 9.83091 0.72224 2.5
    endloop
  endfacet
  facet normal 0 0 1
    outer loop
      vertex 11.75 7 2.5
      vertex 9.47224 1.08091 2.5
      vertex 9.66924 0.919238 2.5
    endloop
  endfacet
  facet normal 0 0 1
    outer loop
      vertex 11.75 7 2.5
      vertex 9.24749 1.20104 2.5
      vertex 9.47224 1.08091 2.5
    endloop
  endfacet
  facet normal 0 0 1
    outer loop
      vertex 11.75 7 2.5
      vertex 9.00362 1.27502 2.5
      vertex 9.24749 1.20104 2.5
    endloop
  endfacet
  facet normal 0 0 1
    outer loop
      vertex 11.75 7 2.5
      vertex 8.75 1.3 2.5
      vertex 9.00362 1.27502 2.5
    endloop
  endfacet
  facet normal 0 0 1
    outer loop
      vertex 11.75 7 2.5
      vertex 8.49638 1.27502 2.5
      vertex 8.75 1.3 2.5
    endloop
  endfacet
  facet normal 0 0 1
    outer loop
      vertex 11.75 7 2.5
      vertex 8.25251 1.20104 2.5
      vertex 8.49638 1.27502 2.5
    endloop
  endfacet
  facet normal 0 0 1
    outer loop
      vertex 11.75 7 2.5
      vertex 8.02776 1.08091 2.5
      vertex 8.25251 1.20104 2.5
    endloop
  endfacet
  facet normal 0 0 1
    outer loop
      vertex 11.75 7 2.5
      vertex 7.83076 0.919238 2.5
      vertex 8.02776 1.08091 2.5
    endloop
  endfacet
  facet normal 0 0 1
    outer loop
      vertex -7.83076 0.919238 2.5
      vertex 7.83076 0.919238 2.5
      vertex 11.75 7 2.5
    endloop
  endfacet
  facet normal 0 0 1
    outer loop
      vertex 7.47498 0.253617 2.5
      vertex -7.45 0 2.5
      vertex 7.45 0 2.5
    endloop
  endfacet
  facet normal 0 0 1
    outer loop
      vertex -7.47498 0.253617 2.5
      vertex 7.47498 0.253617 2.5
      vertex 7.54896 0.497488 2.5
    endloop
  endfacet
  facet normal 0 0 1
    outer loop
      vertex -7.54896 0.497488 2.5
      vertex 7.54896 0.497488 2.5
      vertex 7.66909 0.72224 2.5
    endloop
  endfacet
  facet normal 0 0 1
    outer loop
      vertex 7.83076 0.919238 2.5
      vertex -7.83076 0.919238 2.5
      vertex 7.66909 0.72224 2.5
    endloop
  endfacet
  facet normal 0 0 1
    outer loop
      vertex 7.47498 0.253617 2.5
      vertex -7.47498 0.253617 2.5
      vertex -7.45 0 2.5
    endloop
  endfacet
  facet normal 0 0 1
    outer loop
      vertex 7.54896 0.497488 2.5
      vertex -7.54896 0.497488 2.5
      vertex -7.47498 0.253617 2.5
    endloop
  endfacet
  facet normal 0 0 1
    outer loop
      vertex 7.66909 0.72224 2.5
      vertex -7.66909 0.72224 2.5
      vertex -7.54896 0.497488 2.5
    endloop
  endfacet
  facet normal 0 0 1
    outer loop
      vertex 7.66909 0.72224 2.5
      vertex -7.83076 0.919238 2.5
      vertex -7.66909 0.72224 2.5
    endloop
  endfacet
  facet normal -0 0 1
    outer loop
      vertex -11.75 7 2.5
      vertex -7.83076 0.919238 2.5
      vertex 11.75 7 2.5
    endloop
  endfacet
  facet normal 0 0 1
    outer loop
      vertex -7.83076 0.919238 2.5
      vertex -11.75 7 2.5
      vertex -8.02776 1.08091 2.5
    endloop
  endfacet
  facet normal 0 0 1
    outer loop
      vertex -8.02776 1.08091 2.5
      vertex -11.75 7 2.5
      vertex -8.25251 1.20104 2.5
    endloop
  endfacet
  facet normal 0 0 1
    outer loop
      vertex -8.25251 1.20104 2.5
      vertex -11.75 7 2.5
      vertex -8.49638 1.27502 2.5
    endloop
  endfacet
  facet normal 0 0 1
    outer loop
      vertex -8.49638 1.27502 2.5
      vertex -11.75 7 2.5
      vertex -8.75 1.3 2.5
    endloop
  endfacet
  facet normal 0 0 1
    outer loop
      vertex -10.025 0.253617 2.5
      vertex -11.75 7 2.5
      vertex -10.05 0 2.5
    endloop
  endfacet
  facet normal 0 0 1
    outer loop
      vertex -9.95104 0.497488 2.5
      vertex -11.75 7 2.5
      vertex -10.025 0.253617 2.5
    endloop
  endfacet
  facet normal 0 0 1
    outer loop
      vertex -9.83091 0.72224 2.5
      vertex -11.75 7 2.5
      vertex -9.95104 0.497488 2.5
    endloop
  endfacet
  facet normal 0 0 1
    outer loop
      vertex -9.66924 0.919238 2.5
      vertex -11.75 7 2.5
      vertex -9.83091 0.72224 2.5
    endloop
  endfacet
  facet normal 0 0 1
    outer loop
      vertex -9.47224 1.08091 2.5
      vertex -11.75 7 2.5
      vertex -9.66924 0.919238 2.5
    endloop
  endfacet
  facet normal 0 0 1
    outer loop
      vertex -9.24749 1.20104 2.5
      vertex -11.75 7 2.5
      vertex -9.47224 1.08091 2.5
    endloop
  endfacet
  facet normal 0 0 1
    outer loop
      vertex -9.00362 1.27502 2.5
      vertex -11.75 7 2.5
      vertex -9.24749 1.20104 2.5
    endloop
  endfacet
  facet normal 0 0 1
    outer loop
      vertex -8.75 1.3 2.5
      vertex -11.75 7 2.5
      vertex -9.00362 1.27502 2.5
    endloop
  endfacet
  facet normal -0 0 1
    outer loop
      vertex 10.025 -0.253617 2.5
      vertex 11.75 -7 2.5
      vertex 10.05 0 2.5
    endloop
  endfacet
  facet normal -0 0 1
    outer loop
      vertex 9.95104 -0.497488 2.5
      vertex 11.75 -7 2.5
      vertex 10.025 -0.253617 2.5
    endloop
  endfacet
  facet normal -0 0 1
    outer loop
      vertex 9.83091 -0.72224 2.5
      vertex 11.75 -7 2.5
      vertex 9.95104 -0.497488 2.5
    endloop
  endfacet
  facet normal -0 0 1
    outer loop
      vertex 9.66924 -0.919238 2.5
      vertex 11.75 -7 2.5
      vertex 9.83091 -0.72224 2.5
    endloop
  endfacet
  facet normal -0 0 1
    outer loop
      vertex 9.47224 -1.08091 2.5
      vertex 11.75 -7 2.5
      vertex 9.66924 -0.919238 2.5
    endloop
  endfacet
  facet normal -0 0 1
    outer loop
      vertex 9.24749 -1.20104 2.5
      vertex 11.75 -7 2.5
      vertex 9.47224 -1.08091 2.5
    endloop
  endfacet
  facet normal -0 0 1
    outer loop
      vertex 9.00362 -1.27502 2.5
      vertex 11.75 -7 2.5
      vertex 9.24749 -1.20104 2.5
    endloop
  endfacet
  facet normal -0 0 1
    outer loop
      vertex 8.75 -1.3 2.5
      vertex 11.75 -7 2.5
      vertex 9.00362 -1.27502 2.5
    endloop
  endfacet
  facet normal 0 0 1
    outer loop
      vertex 8.49638 -1.27502 2.5
      vertex 11.75 -7 2.5
      vertex 8.75 -1.3 2.5
    endloop
  endfacet
  facet normal 0 0 1
    outer loop
      vertex 8.25251 -1.20104 2.5
      vertex 11.75 -7 2.5
      vertex 8.49638 -1.27502 2.5
    endloop
  endfacet
  facet normal 0 0 1
    outer loop
      vertex 8.02776 -1.08091 2.5
      vertex 11.75 -7 2.5
      vertex 8.25251 -1.20104 2.5
    endloop
  endfacet
  facet normal 0 0 1
    outer loop
      vertex 7.83076 -0.919238 2.5
      vertex 11.75 -7 2.5
      vertex 8.02776 -1.08091 2.5
    endloop
  endfacet
  facet normal 0 0 1
    outer loop
      vertex -7.83076 -0.919238 2.5
      vertex 7.83076 -0.919238 2.5
      vertex 7.66909 -0.72224 2.5
    endloop
  endfacet
  facet normal -0 0 1
    outer loop
      vertex -7.45 0 2.5
      vertex 7.47498 -0.253617 2.5
      vertex 7.45 0 2.5
    endloop
  endfacet
  facet normal 0 0 1
    outer loop
      vertex -7.47498 -0.253617 2.5
      vertex 7.47498 -0.253617 2.5
      vertex -7.45 0 2.5
    endloop
  endfacet
  facet normal 0 0 1
    outer loop
      vertex 7.47498 -0.253617 2.5
      vertex -7.47498 -0.253617 2.5
      vertex 7.54896 -0.497488 2.5
    endloop
  endfacet
  facet normal 0 0 1
    outer loop
      vertex -7.54896 -0.497488 2.5
      vertex 7.54896 -0.497488 2.5
      vertex -7.47498 -0.253617 2.5
    endloop
  endfacet
  facet normal 0 0 1
    outer loop
      vertex 7.54896 -0.497488 2.5
      vertex -7.54896 -0.497488 2.5
      vertex 7.66909 -0.72224 2.5
    endloop
  endfacet
  facet normal 0 0 1
    outer loop
      vertex -7.66909 -0.72224 2.5
      vertex 7.66909 -0.72224 2.5
      vertex -7.54896 -0.497488 2.5
    endloop
  endfacet
  facet normal 0 0 1
    outer loop
      vertex -7.83076 -0.919238 2.5
      vertex 7.66909 -0.72224 2.5
      vertex -7.66909 -0.72224 2.5
    endloop
  endfacet
  facet normal 0 0 1
    outer loop
      vertex 7.83076 -0.919238 2.5
      vertex -7.83076 -0.919238 2.5
      vertex 11.75 -7 2.5
    endloop
  endfacet
  facet normal 0 0 1
    outer loop
      vertex -11.75 -7 2.5
      vertex -7.83076 -0.919238 2.5
      vertex -8.02776 -1.08091 2.5
    endloop
  endfacet
  facet normal 0 0 1
    outer loop
      vertex -11.75 -7 2.5
      vertex -8.02776 -1.08091 2.5
      vertex -8.25251 -1.20104 2.5
    endloop
  endfacet
  facet normal 0 0 1
    outer loop
      vertex -11.75 -7 2.5
      vertex -8.25251 -1.20104 2.5
      vertex -8.49638 -1.27502 2.5
    endloop
  endfacet
  facet normal 0 0 1
    outer loop
      vertex -11.75 -7 2.5
      vertex -8.49638 -1.27502 2.5
      vertex -8.75 -1.3 2.5
    endloop
  endfacet
  facet normal 0 0 1
    outer loop
      vertex -11.75 -7 2.5
      vertex -8.75 -1.3 2.5
      vertex -9.00362 -1.27502 2.5
    endloop
  endfacet
  facet normal 0 0 1
    outer loop
      vertex -11.75 -7 2.5
      vertex -10.05 0 2.5
      vertex -11.75 7 2.5
    endloop
  endfacet
  facet normal 0 0 1
    outer loop
      vertex -7.83076 -0.919238 2.5
      vertex -11.75 -7 2.5
      vertex 11.75 -7 2.5
    endloop
  endfacet
  facet normal 0 0 1
    outer loop
      vertex -9.24749 -1.20104 2.5
      vertex -11.75 -7 2.5
      vertex -9.00362 -1.27502 2.5
    endloop
  endfacet
  facet normal 0 0 1
    outer loop
      vertex -9.47224 -1.08091 2.5
      vertex -11.75 -7 2.5
      vertex -9.24749 -1.20104 2.5
    endloop
  endfacet
  facet normal 0 0 1
    outer loop
      vertex -9.66924 -0.919238 2.5
      vertex -11.75 -7 2.5
      vertex -9.47224 -1.08091 2.5
    endloop
  endfacet
  facet normal 0 0 1
    outer loop
      vertex -9.83091 -0.72224 2.5
      vertex -11.75 -7 2.5
      vertex -9.66924 -0.919238 2.5
    endloop
  endfacet
  facet normal 0 0 1
    outer loop
      vertex -9.95104 -0.497488 2.5
      vertex -11.75 -7 2.5
      vertex -9.83091 -0.72224 2.5
    endloop
  endfacet
  facet normal 0 0 1
    outer loop
      vertex -10.025 -0.253617 2.5
      vertex -11.75 -7 2.5
      vertex -9.95104 -0.497488 2.5
    endloop
  endfacet
  facet normal 0 0 1
    outer loop
      vertex -10.05 0 2.5
      vertex -11.75 -7 2.5
      vertex -10.025 -0.253617 2.5
    endloop
  endfacet
  facet normal 1 0 0
    outer loop
      vertex 11.75 7 2.5
      vertex 11.75 5.3 0
      vertex 11.75 7 -2.5
    endloop
  endfacet
  facet normal 1 0 0
    outer loop
      vertex 11.75 7 2.5
      vertex 11.75 5.27502 0.253617
      vertex 11.75 5.3 0
    endloop
  endfacet
  facet normal 1 0 0
    outer loop
      vertex 11.75 7 2.5
      vertex 11.75 5.20104 0.497488
      vertex 11.75 5.27502 0.253617
    endloop
  endfacet
  facet normal 1 0 0
    outer loop
      vertex 11.75 7 2.5
      vertex 11.75 5.08091 0.72224
      vertex 11.75 5.20104 0.497488
    endloop
  endfacet
  facet normal 1 0 0
    outer loop
      vertex 11.75 7 2.5
      vertex 11.75 4.91924 0.919238
      vertex 11.75 5.08091 0.72224
    endloop
  endfacet
  facet normal 1 0 0
    outer loop
      vertex 11.75 7 2.5
      vertex 11.75 4.72224 1.08091
      vertex 11.75 4.91924 0.919238
    endloop
  endfacet
  facet normal 1 0 0
    outer loop
      vertex 11.75 7 2.5
      vertex 11.75 4.49749 1.20104
      vertex 11.75 4.72224 1.08091
    endloop
  endfacet
  facet normal 1 0 0
    outer loop
      vertex 11.75 7 2.5
      vertex 11.75 4.25362 1.27502
      vertex 11.75 4.49749 1.20104
    endloop
  endfacet
  facet normal 1 0 0
    outer loop
      vertex 11.75 7 2.5
      vertex 11.75 4 1.3
      vertex 11.75 4.25362 1.27502
    endloop
  endfacet
  facet normal 1 0 0
    outer loop
      vertex 11.75 7 2.5
      vertex 11.75 3.74638 1.27502
      vertex 11.75 4 1.3
    endloop
  endfacet
  facet normal 1 0 0
    outer loop
      vertex 11.75 -3.74638 1.27502
      vertex 11.75 3.74638 1.27502
      vertex 11.75 7 2.5
    endloop
  endfacet
  facet normal 1 0 0
    outer loop
      vertex 11.75 2.72498 0.253617
      vertex 11.75 -2.7 0
      vertex 11.75 2.7 0
    endloop
  endfacet
  facet normal 1 0 0
    outer loop
      vertex 11.75 -2.72498 0.253617
      vertex 11.75 2.72498 0.253617
      vertex 11.75 2.79896 0.497488
    endloop
  endfacet
  facet normal 1 0 0
    outer loop
      vertex 11.75 -2.79896 0.497488
      vertex 11.75 2.79896 0.497488
      vertex 11.75 2.91909 0.72224
    endloop
  endfacet
  facet normal 1 0 0
    outer loop
      vertex 11.75 -2.91909 0.72224
      vertex 11.75 2.91909 0.72224
      vertex 11.75 3.08076 0.919238
    endloop
  endfacet
  facet normal 1 0 0
    outer loop
      vertex 11.75 -3.08076 0.919238
      vertex 11.75 3.08076 0.919238
      vertex 11.75 3.27776 1.08091
    endloop
  endfacet
  facet normal 1 0 0
    outer loop
      vertex 11.75 -3.27776 1.08091
      vertex 11.75 3.27776 1.08091
      vertex 11.75 3.50251 1.20104
    endloop
  endfacet
  facet normal 1 0 0
    outer loop
      vertex 11.75 3.74638 1.27502
      vertex 11.75 -3.74638 1.27502
      vertex 11.75 3.50251 1.20104
    endloop
  endfacet
  facet normal 1 0 0
    outer loop
      vertex 11.75 2.72498 0.253617
      vertex 11.75 -2.72498 0.253617
      vertex 11.75 -2.7 0
    endloop
  endfacet
  facet normal 1 0 0
    outer loop
      vertex 11.75 2.79896 0.497488
      vertex 11.75 -2.79896 0.497488
      vertex 11.75 -2.72498 0.253617
    endloop
  endfacet
  facet normal 1 0 0
    outer loop
      vertex 11.75 2.91909 0.72224
      vertex 11.75 -2.91909 0.72224
      vertex 11.75 -2.79896 0.497488
    endloop
  endfacet
  facet normal 1 0 0
    outer loop
      vertex 11.75 3.08076 0.919238
      vertex 11.75 -3.08076 0.919238
      vertex 11.75 -2.91909 0.72224
    endloop
  endfacet
  facet normal 1 0 0
    outer loop
      vertex 11.75 3.27776 1.08091
      vertex 11.75 -3.27776 1.08091
      vertex 11.75 -3.08076 0.919238
    endloop
  endfacet
  facet normal 1 0 0
    outer loop
      vertex 11.75 3.50251 1.20104
      vertex 11.75 -3.50251 1.20104
      vertex 11.75 -3.27776 1.08091
    endloop
  endfacet
  facet normal 1 0 0
    outer loop
      vertex 11.75 3.50251 1.20104
      vertex 11.75 -3.74638 1.27502
      vertex 11.75 -3.50251 1.20104
    endloop
  endfacet
  facet normal 1 -0 0
    outer loop
      vertex 11.75 -7 2.5
      vertex 11.75 -3.74638 1.27502
      vertex 11.75 7 2.5
    endloop
  endfacet
  facet normal 1 0 0
    outer loop
      vertex 11.75 -3.74638 1.27502
      vertex 11.75 -7 2.5
      vertex 11.75 -4 1.3
    endloop
  endfacet
  facet normal 1 0 0
    outer loop
      vertex 11.75 -5.27502 0.253617
      vertex 11.75 -7 2.5
      vertex 11.75 -5.3 0
    endloop
  endfacet
  facet normal 1 0 0
    outer loop
      vertex 11.75 -5.20104 0.497488
      vertex 11.75 -7 2.5
      vertex 11.75 -5.27502 0.253617
    endloop
  endfacet
  facet normal 1 0 0
    outer loop
      vertex 11.75 -5.08091 0.72224
      vertex 11.75 -7 2.5
      vertex 11.75 -5.20104 0.497488
    endloop
  endfacet
  facet normal 1 0 0
    outer loop
      vertex 11.75 -4.91924 0.919238
      vertex 11.75 -7 2.5
      vertex 11.75 -5.08091 0.72224
    endloop
  endfacet
  facet normal 1 0 0
    outer loop
      vertex 11.75 -4.72224 1.08091
      vertex 11.75 -7 2.5
      vertex 11.75 -4.91924 0.919238
    endloop
  endfacet
  facet normal 1 0 0
    outer loop
      vertex 11.75 -4.49749 1.20104
      vertex 11.75 -7 2.5
      vertex 11.75 -4.72224 1.08091
    endloop
  endfacet
  facet normal 1 0 0
    outer loop
      vertex 11.75 -4.25362 1.27502
      vertex 11.75 -7 2.5
      vertex 11.75 -4.49749 1.20104
    endloop
  endfacet
  facet normal 1 0 0
    outer loop
      vertex 11.75 -4 1.3
      vertex 11.75 -7 2.5
      vertex 11.75 -4.25362 1.27502
    endloop
  endfacet
  facet normal 1 -0 0
    outer loop
      vertex 11.75 5.27502 -0.253617
      vertex 11.75 7 -2.5
      vertex 11.75 5.3 0
    endloop
  endfacet
  facet normal 1 -0 0
    outer loop
      vertex 11.75 5.20104 -0.497488
      vertex 11.75 7 -2.5
      vertex 11.75 5.27502 -0.253617
    endloop
  endfacet
  facet normal 1 -0 0
    outer loop
      vertex 11.75 5.08091 -0.72224
      vertex 11.75 7 -2.5
      vertex 11.75 5.20104 -0.497488
    endloop
  endfacet
  facet normal 1 -0 0
    outer loop
      vertex 11.75 4.91924 -0.919238
      vertex 11.75 7 -2.5
      vertex 11.75 5.08091 -0.72224
    endloop
  endfacet
  facet normal 1 -0 0
    outer loop
      vertex 11.75 4.72224 -1.08091
      vertex 11.75 7 -2.5
      vertex 11.75 4.91924 -0.919238
    endloop
  endfacet
  facet normal 1 -0 0
    outer loop
      vertex 11.75 4.49749 -1.20104
      vertex 11.75 7 -2.5
      vertex 11.75 4.72224 -1.08091
    endloop
  endfacet
  facet normal 1 -0 0
    outer loop
      vertex 11.75 4.25362 -1.27502
      vertex 11.75 7 -2.5
      vertex 11.75 4.49749 -1.20104
    endloop
  endfacet
  facet normal 1 -0 0
    outer loop
      vertex 11.75 4 -1.3
      vertex 11.75 7 -2.5
      vertex 11.75 4.25362 -1.27502
    endloop
  endfacet
  facet normal 1 0 0
    outer loop
      vertex 11.75 3.74638 -1.27502
      vertex 11.75 7 -2.5
      vertex 11.75 4 -1.3
    endloop
  endfacet
  facet normal 1 0 0
    outer loop
      vertex 11.75 -3.74638 -1.27502
      vertex 11.75 3.74638 -1.27502
      vertex 11.75 3.50251 -1.20104
    endloop
  endfacet
  facet normal 1 -0 0
    outer loop
      vertex 11.75 -2.7 0
      vertex 11.75 2.72498 -0.253617
      vertex 11.75 2.7 0
    endloop
  endfacet
  facet normal 1 0 0
    outer loop
      vertex 11.75 -2.72498 -0.253617
      vertex 11.75 2.72498 -0.253617
      vertex 11.75 -2.7 0
    endloop
  endfacet
  facet normal 1 0 0
    outer loop
      vertex 11.75 2.72498 -0.253617
      vertex 11.75 -2.72498 -0.253617
      vertex 11.75 2.79896 -0.497488
    endloop
  endfacet
  facet normal 1 0 0
    outer loop
      vertex 11.75 -2.79896 -0.497488
      vertex 11.75 2.79896 -0.497488
      vertex 11.75 -2.72498 -0.253617
    endloop
  endfacet
  facet normal 1 0 0
    outer loop
      vertex 11.75 2.79896 -0.497488
      vertex 11.75 -2.79896 -0.497488
      vertex 11.75 2.91909 -0.72224
    endloop
  endfacet
  facet normal 1 0 0
    outer loop
      vertex 11.75 -2.91909 -0.72224
      vertex 11.75 2.91909 -0.72224
      vertex 11.75 -2.79896 -0.497488
    endloop
  endfacet
  facet normal 1 0 0
    outer loop
      vertex 11.75 2.91909 -0.72224
      vertex 11.75 -2.91909 -0.72224
      vertex 11.75 3.08076 -0.919238
    endloop
  endfacet
  facet normal 1 0 0
    outer loop
      vertex 11.75 -3.08076 -0.919238
      vertex 11.75 3.08076 -0.919238
      vertex 11.75 -2.91909 -0.72224
    endloop
  endfacet
  facet normal 1 0 0
    outer loop
      vertex 11.75 3.08076 -0.919238
      vertex 11.75 -3.08076 -0.919238
      vertex 11.75 3.27776 -1.08091
    endloop
  endfacet
  facet normal 1 0 0
    outer loop
      vertex 11.75 -3.27776 -1.08091
      vertex 11.75 3.27776 -1.08091
      vertex 11.75 -3.08076 -0.919238
    endloop
  endfacet
  facet normal 1 0 0
    outer loop
      vertex 11.75 3.27776 -1.08091
      vertex 11.75 -3.27776 -1.08091
      vertex 11.75 3.50251 -1.20104
    endloop
  endfacet
  facet normal 1 0 0
    outer loop
      vertex 11.75 -3.50251 -1.20104
      vertex 11.75 3.50251 -1.20104
      vertex 11.75 -3.27776 -1.08091
    endloop
  endfacet
  facet normal 1 0 0
    outer loop
      vertex 11.75 -3.74638 -1.27502
      vertex 11.75 3.50251 -1.20104
      vertex 11.75 -3.50251 -1.20104
    endloop
  endfacet
  facet normal 1 0 0
    outer loop
      vertex 11.75 3.74638 -1.27502
      vertex 11.75 -3.74638 -1.27502
      vertex 11.75 7 -2.5
    endloop
  endfacet
  facet normal 1 0 0
    outer loop
      vertex 11.75 -7 -2.5
      vertex 11.75 -3.74638 -1.27502
      vertex 11.75 -4 -1.3
    endloop
  endfacet
  facet normal 1 0 0
    outer loop
      vertex 11.75 -7 -2.5
      vertex 11.75 -4 -1.3
      vertex 11.75 -4.25362 -1.27502
    endloop
  endfacet
  facet normal 1 0 0
    outer loop
      vertex 11.75 -7 -2.5
      vertex 11.75 -5.3 0
      vertex 11.75 -7 2.5
    endloop
  endfacet
  facet normal 1 0 0
    outer loop
      vertex 11.75 -5.3 0
      vertex 11.75 -7 -2.5
      vertex 11.75 -5.27502 -0.253617
    endloop
  endfacet
  facet normal 1 0 0
    outer loop
      vertex 11.75 -5.27502 -0.253617
      vertex 11.75 -7 -2.5
      vertex 11.75 -5.20104 -0.497488
    endloop
  endfacet
  facet normal 1 0 0
    outer loop
      vertex 11.75 -3.74638 -1.27502
      vertex 11.75 -7 -2.5
      vertex 11.75 7 -2.5
    endloop
  endfacet
  facet normal 1 0 0
    outer loop
      vertex 11.75 -4.49749 -1.20104
      vertex 11.75 -7 -2.5
      vertex 11.75 -4.25362 -1.27502
    endloop
  endfacet
  facet normal 1 0 0
    outer loop
      vertex 11.75 -4.72224 -1.08091
      vertex 11.75 -7 -2.5
      vertex 11.75 -4.49749 -1.20104
    endloop
  endfacet
  facet normal 1 0 0
    outer loop
      vertex 11.75 -4.91924 -0.919238
      vertex 11.75 -7 -2.5
      vertex 11.75 -4.72224 -1.08091
    endloop
  endfacet
  facet normal 1 0 0
    outer loop
      vertex 11.75 -5.08091 -0.72224
      vertex 11.75 -7 -2.5
      vertex 11.75 -4.91924 -0.919238
    endloop
  endfacet
  facet normal 1 0 0
    outer loop
      vertex 11.75 -5.20104 -0.497488
      vertex 11.75 -7 -2.5
      vertex 11.75 -5.08091 -0.72224
    endloop
  endfacet
  facet normal 0 1 -0
    outer loop
      vertex 11.75 7 -2.5
      vertex -11.75 7 2.5
      vertex 11.75 7 2.5
    endloop
  endfacet
  facet normal 0 1 0
    outer loop
      vertex -11.75 7 2.5
      vertex 11.75 7 -2.5
      vertex -11.75 7 -2.5
    endloop
  endfacet
  facet normal 0 0 -1
    outer loop
      vertex 11.75 -7 -2.5
      vertex 10.05 0 -2.5
      vertex 11.75 7 -2.5
    endloop
  endfacet
  facet normal 0 0 -1
    outer loop
      vertex 11.75 -7 -2.5
      vertex 10.025 -0.253617 -2.5
      vertex 10.05 0 -2.5
    endloop
  endfacet
  facet normal 0 0 -1
    outer loop
      vertex 11.75 -7 -2.5
      vertex 9.95104 -0.497488 -2.5
      vertex 10.025 -0.253617 -2.5
    endloop
  endfacet
  facet normal 0 0 -1
    outer loop
      vertex 11.75 -7 -2.5
      vertex 9.83091 -0.72224 -2.5
      vertex 9.95104 -0.497488 -2.5
    endloop
  endfacet
  facet normal 0 0 -1
    outer loop
      vertex 11.75 -7 -2.5
      vertex 9.66924 -0.919238 -2.5
      vertex 9.83091 -0.72224 -2.5
    endloop
  endfacet
  facet normal 0 0 -1
    outer loop
      vertex 11.75 -7 -2.5
      vertex 9.47224 -1.08091 -2.5
      vertex 9.66924 -0.919238 -2.5
    endloop
  endfacet
  facet normal 0 0 -1
    outer loop
      vertex 11.75 -7 -2.5
      vertex 9.24749 -1.20104 -2.5
      vertex 9.47224 -1.08091 -2.5
    endloop
  endfacet
  facet normal 0 0 -1
    outer loop
      vertex 11.75 -7 -2.5
      vertex 9.00362 -1.27502 -2.5
      vertex 9.24749 -1.20104 -2.5
    endloop
  endfacet
  facet normal 0 0 -1
    outer loop
      vertex 11.75 -7 -2.5
      vertex 8.75 -1.3 -2.5
      vertex 9.00362 -1.27502 -2.5
    endloop
  endfacet
  facet normal 0 0 -1
    outer loop
      vertex 11.75 -7 -2.5
      vertex 8.49638 -1.27502 -2.5
      vertex 8.75 -1.3 -2.5
    endloop
  endfacet
  facet normal 0 0 -1
    outer loop
      vertex 11.75 -7 -2.5
      vertex 8.25251 -1.20104 -2.5
      vertex 8.49638 -1.27502 -2.5
    endloop
  endfacet
  facet normal 0 0 -1
    outer loop
      vertex 11.75 -7 -2.5
      vertex 8.02776 -1.08091 -2.5
      vertex 8.25251 -1.20104 -2.5
    endloop
  endfacet
  facet normal 0 0 -1
    outer loop
      vertex 11.75 -7 -2.5
      vertex 7.83076 -0.919238 -2.5
      vertex 8.02776 -1.08091 -2.5
    endloop
  endfacet
  facet normal 0 0 -1
    outer loop
      vertex -7.83076 -0.919238 -2.5
      vertex 7.83076 -0.919238 -2.5
      vertex 11.75 -7 -2.5
    endloop
  endfacet
  facet normal 0 0 -1
    outer loop
      vertex 7.47498 -0.253617 -2.5
      vertex -7.45 0 -2.5
      vertex 7.45 0 -2.5
    endloop
  endfacet
  facet normal 0 0 -1
    outer loop
      vertex -7.47498 -0.253617 -2.5
      vertex 7.47498 -0.253617 -2.5
      vertex 7.54896 -0.497488 -2.5
    endloop
  endfacet
  facet normal 0 0 -1
    outer loop
      vertex -7.54896 -0.497488 -2.5
      vertex 7.54896 -0.497488 -2.5
      vertex 7.66909 -0.72224 -2.5
    endloop
  endfacet
  facet normal 0 0 -1
    outer loop
      vertex 7.83076 -0.919238 -2.5
      vertex -7.83076 -0.919238 -2.5
      vertex 7.66909 -0.72224 -2.5
    endloop
  endfacet
  facet normal 0 0 -1
    outer loop
      vertex 7.47498 -0.253617 -2.5
      vertex -7.47498 -0.253617 -2.5
      vertex -7.45 0 -2.5
    endloop
  endfacet
  facet normal 0 0 -1
    outer loop
      vertex 7.54896 -0.497488 -2.5
      vertex -7.54896 -0.497488 -2.5
      vertex -7.47498 -0.253617 -2.5
    endloop
  endfacet
  facet normal 0 0 -1
    outer loop
      vertex 7.66909 -0.72224 -2.5
      vertex -7.66909 -0.72224 -2.5
      vertex -7.54896 -0.497488 -2.5
    endloop
  endfacet
  facet normal -0 0 -1
    outer loop
      vertex 7.66909 -0.72224 -2.5
      vertex -7.83076 -0.919238 -2.5
      vertex -7.66909 -0.72224 -2.5
    endloop
  endfacet
  facet normal 0 0 -1
    outer loop
      vertex -11.75 -7 -2.5
      vertex -7.83076 -0.919238 -2.5
      vertex 11.75 -7 -2.5
    endloop
  endfacet
  facet normal 0 0 -1
    outer loop
      vertex -7.83076 -0.919238 -2.5
      vertex -11.75 -7 -2.5
      vertex -8.02776 -1.08091 -2.5
    endloop
  endfacet
  facet normal 0 0 -1
    outer loop
      vertex -8.02776 -1.08091 -2.5
      vertex -11.75 -7 -2.5
      vertex -8.25251 -1.20104 -2.5
    endloop
  endfacet
  facet normal 0 0 -1
    outer loop
      vertex -8.25251 -1.20104 -2.5
      vertex -11.75 -7 -2.5
      vertex -8.49638 -1.27502 -2.5
    endloop
  endfacet
  facet normal 0 0 -1
    outer loop
      vertex -8.49638 -1.27502 -2.5
      vertex -11.75 -7 -2.5
      vertex -8.75 -1.3 -2.5
    endloop
  endfacet
  facet normal -0 0 -1
    outer loop
      vertex -10.025 -0.253617 -2.5
      vertex -11.75 -7 -2.5
      vertex -10.05 0 -2.5
    endloop
  endfacet
  facet normal -0 0 -1
    outer loop
      vertex -9.95104 -0.497488 -2.5
      vertex -11.75 -7 -2.5
      vertex -10.025 -0.253617 -2.5
    endloop
  endfacet
  facet normal -0 0 -1
    outer loop
      vertex -9.83091 -0.72224 -2.5
      vertex -11.75 -7 -2.5
      vertex -9.95104 -0.497488 -2.5
    endloop
  endfacet
  facet normal -0 0 -1
    outer loop
      vertex -9.66924 -0.919238 -2.5
      vertex -11.75 -7 -2.5
      vertex -9.83091 -0.72224 -2.5
    endloop
  endfacet
  facet normal -0 0 -1
    outer loop
      vertex -9.47224 -1.08091 -2.5
      vertex -11.75 -7 -2.5
      vertex -9.66924 -0.919238 -2.5
    endloop
  endfacet
  facet normal -0 0 -1
    outer loop
      vertex -9.24749 -1.20104 -2.5
      vertex -11.75 -7 -2.5
      vertex -9.47224 -1.08091 -2.5
    endloop
  endfacet
  facet normal -0 0 -1
    outer loop
      vertex -9.00362 -1.27502 -2.5
      vertex -11.75 -7 -2.5
      vertex -9.24749 -1.20104 -2.5
    endloop
  endfacet
  facet normal -0 0 -1
    outer loop
      vertex -8.75 -1.3 -2.5
      vertex -11.75 -7 -2.5
      vertex -9.00362 -1.27502 -2.5
    endloop
  endfacet
  facet normal 0 0 -1
    outer loop
      vertex 10.025 0.253617 -2.5
      vertex 11.75 7 -2.5
      vertex 10.05 0 -2.5
    endloop
  endfacet
  facet normal 0 0 -1
    outer loop
      vertex 9.95104 0.497488 -2.5
      vertex 11.75 7 -2.5
      vertex 10.025 0.253617 -2.5
    endloop
  endfacet
  facet normal 0 0 -1
    outer loop
      vertex 9.83091 0.72224 -2.5
      vertex 11.75 7 -2.5
      vertex 9.95104 0.497488 -2.5
    endloop
  endfacet
  facet normal 0 0 -1
    outer loop
      vertex 9.66924 0.919238 -2.5
      vertex 11.75 7 -2.5
      vertex 9.83091 0.72224 -2.5
    endloop
  endfacet
  facet normal 0 0 -1
    outer loop
      vertex 9.47224 1.08091 -2.5
      vertex 11.75 7 -2.5
      vertex 9.66924 0.919238 -2.5
    endloop
  endfacet
  facet normal 0 0 -1
    outer loop
      vertex 9.24749 1.20104 -2.5
      vertex 11.75 7 -2.5
      vertex 9.47224 1.08091 -2.5
    endloop
  endfacet
  facet normal 0 0 -1
    outer loop
      vertex 9.00362 1.27502 -2.5
      vertex 11.75 7 -2.5
      vertex 9.24749 1.20104 -2.5
    endloop
  endfacet
  facet normal 0 0 -1
    outer loop
      vertex 8.75 1.3 -2.5
      vertex 11.75 7 -2.5
      vertex 9.00362 1.27502 -2.5
    endloop
  endfacet
  facet normal 0 0 -1
    outer loop
      vertex 8.49638 1.27502 -2.5
      vertex 11.75 7 -2.5
      vertex 8.75 1.3 -2.5
    endloop
  endfacet
  facet normal 0 0 -1
    outer loop
      vertex 8.25251 1.20104 -2.5
      vertex 11.75 7 -2.5
      vertex 8.49638 1.27502 -2.5
    endloop
  endfacet
  facet normal 0 0 -1
    outer loop
      vertex 8.02776 1.08091 -2.5
      vertex 11.75 7 -2.5
      vertex 8.25251 1.20104 -2.5
    endloop
  endfacet
  facet normal 0 0 -1
    outer loop
      vertex 7.83076 0.919238 -2.5
      vertex 11.75 7 -2.5
      vertex 8.02776 1.08091 -2.5
    endloop
  endfacet
  facet normal 0 0 -1
    outer loop
      vertex -7.83076 0.919238 -2.5
      vertex 7.83076 0.919238 -2.5
      vertex 7.66909 0.72224 -2.5
    endloop
  endfacet
  facet normal 0 0 -1
    outer loop
      vertex -7.45 0 -2.5
      vertex 7.47498 0.253617 -2.5
      vertex 7.45 0 -2.5
    endloop
  endfacet
  facet normal 0 0 -1
    outer loop
      vertex -7.47498 0.253617 -2.5
      vertex 7.47498 0.253617 -2.5
      vertex -7.45 0 -2.5
    endloop
  endfacet
  facet normal 0 0 -1
    outer loop
      vertex 7.47498 0.253617 -2.5
      vertex -7.47498 0.253617 -2.5
      vertex 7.54896 0.497488 -2.5
    endloop
  endfacet
  facet normal 0 0 -1
    outer loop
      vertex -7.54896 0.497488 -2.5
      vertex 7.54896 0.497488 -2.5
      vertex -7.47498 0.253617 -2.5
    endloop
  endfacet
  facet normal 0 0 -1
    outer loop
      vertex 7.54896 0.497488 -2.5
      vertex -7.54896 0.497488 -2.5
      vertex 7.66909 0.72224 -2.5
    endloop
  endfacet
  facet normal 0 0 -1
    outer loop
      vertex -7.66909 0.72224 -2.5
      vertex 7.66909 0.72224 -2.5
      vertex -7.54896 0.497488 -2.5
    endloop
  endfacet
  facet normal 0 0 -1
    outer loop
      vertex -7.83076 0.919238 -2.5
      vertex 7.66909 0.72224 -2.5
      vertex -7.66909 0.72224 -2.5
    endloop
  endfacet
  facet normal 0 0 -1
    outer loop
      vertex 7.83076 0.919238 -2.5
      vertex -7.83076 0.919238 -2.5
      vertex 11.75 7 -2.5
    endloop
  endfacet
  facet normal 0 0 -1
    outer loop
      vertex -11.75 7 -2.5
      vertex -7.83076 0.919238 -2.5
      vertex -8.02776 1.08091 -2.5
    endloop
  endfacet
  facet normal 0 0 -1
    outer loop
      vertex -11.75 7 -2.5
      vertex -8.02776 1.08091 -2.5
      vertex -8.25251 1.20104 -2.5
    endloop
  endfacet
  facet normal 0 0 -1
    outer loop
      vertex -11.75 7 -2.5
      vertex -8.25251 1.20104 -2.5
      vertex -8.49638 1.27502 -2.5
    endloop
  endfacet
  facet normal 0 0 -1
    outer loop
      vertex -11.75 7 -2.5
      vertex -8.49638 1.27502 -2.5
      vertex -8.75 1.3 -2.5
    endloop
  endfacet
  facet normal 0 0 -1
    outer loop
      vertex -11.75 7 -2.5
      vertex -8.75 1.3 -2.5
      vertex -9.00362 1.27502 -2.5
    endloop
  endfacet
  facet normal 0 0 -1
    outer loop
      vertex -11.75 7 -2.5
      vertex -10.05 0 -2.5
      vertex -11.75 -7 -2.5
    endloop
  endfacet
  facet normal 0 0 -1
    outer loop
      vertex -7.83076 0.919238 -2.5
      vertex -11.75 7 -2.5
      vertex 11.75 7 -2.5
    endloop
  endfacet
  facet normal 0 0 -1
    outer loop
      vertex -9.24749 1.20104 -2.5
      vertex -11.75 7 -2.5
      vertex -9.00362 1.27502 -2.5
    endloop
  endfacet
  facet normal 0 0 -1
    outer loop
      vertex -9.47224 1.08091 -2.5
      vertex -11.75 7 -2.5
      vertex -9.24749 1.20104 -2.5
    endloop
  endfacet
  facet normal 0 0 -1
    outer loop
      vertex -9.66924 0.919238 -2.5
      vertex -11.75 7 -2.5
      vertex -9.47224 1.08091 -2.5
    endloop
  endfacet
  facet normal 0 0 -1
    outer loop
      vertex -9.83091 0.72224 -2.5
      vertex -11.75 7 -2.5
      vertex -9.66924 0.919238 -2.5
    endloop
  endfacet
  facet normal 0 0 -1
    outer loop
      vertex -9.95104 0.497488 -2.5
      vertex -11.75 7 -2.5
      vertex -9.83091 0.72224 -2.5
    endloop
  endfacet
  facet normal 0 0 -1
    outer loop
      vertex -10.025 0.253617 -2.5
      vertex -11.75 7 -2.5
      vertex -9.95104 0.497488 -2.5
    endloop
  endfacet
  facet normal 0 0 -1
    outer loop
      vertex -10.05 0 -2.5
      vertex -11.75 7 -2.5
      vertex -10.025 0.253617 -2.5
    endloop
  endfacet
  facet normal 0 -1 0
    outer loop
      vertex -11.75 -7 -2.5
      vertex 11.75 -7 2.5
      vertex -11.75 -7 2.5
    endloop
  endfacet
  facet normal 0 -1 -0
    outer loop
      vertex 11.75 -7 2.5
      vertex -11.75 -7 -2.5
      vertex 11.75 -7 -2.5
    endloop
  endfacet
  facet normal 0 -0.0980195 0.995184
    outer loop
      vertex -11.75 4.25362 -1.27502
      vertex 11.75 4 -1.3
      vertex 11.75 4.25362 -1.27502
    endloop
  endfacet
  facet normal 0 -0.0980195 0.995184
    outer loop
      vertex 11.75 4 -1.3
      vertex -11.75 4.25362 -1.27502
      vertex -11.75 4 -1.3
    endloop
  endfacet
  facet normal 0 0.0980195 -0.995184
    outer loop
      vertex -11.75 3.74638 1.27502
      vertex 11.75 4 1.3
      vertex 11.75 3.74638 1.27502
    endloop
  endfacet
  facet normal 0 0.0980195 -0.995184
    outer loop
      vertex 11.75 4 1.3
      vertex -11.75 3.74638 1.27502
      vertex -11.75 4 1.3
    endloop
  endfacet
  facet normal 0 -0.995184 -0.0980207
    outer loop
      vertex -11.75 5.3 0
      vertex 11.75 5.27502 0.253617
      vertex -11.75 5.27502 0.253617
    endloop
  endfacet
  facet normal 0 -0.995184 -0.0980207
    outer loop
      vertex 11.75 5.27502 0.253617
      vertex -11.75 5.3 0
      vertex 11.75 5.3 0
    endloop
  endfacet
  facet normal 0 0.995184 0.0980207
    outer loop
      vertex 11.75 2.72498 -0.253617
      vertex -11.75 2.7 0
      vertex 11.75 2.7 0
    endloop
  endfacet
  facet normal 0 0.995184 0.0980207
    outer loop
      vertex -11.75 2.7 0
      vertex 11.75 2.72498 -0.253617
      vertex -11.75 2.72498 -0.253617
    endloop
  endfacet
  facet normal 0 0.773014 -0.634388
    outer loop
      vertex 11.75 2.91909 0.72224
      vertex -11.75 3.08076 0.919238
      vertex 11.75 3.08076 0.919238
    endloop
  endfacet
  facet normal 0 0.773014 -0.634388
    outer loop
      vertex -11.75 3.08076 0.919238
      vertex 11.75 2.91909 0.72224
      vertex -11.75 2.91909 0.72224
    endloop
  endfacet
  facet normal 0 -0.634389 -0.773014
    outer loop
      vertex -11.75 4.72224 1.08091
      vertex 11.75 4.91924 0.919238
      vertex 11.75 4.72224 1.08091
    endloop
  endfacet
  facet normal -0 -0.634389 -0.773014
    outer loop
      vertex 11.75 4.91924 0.919238
      vertex -11.75 4.72224 1.08091
      vertex -11.75 4.91924 0.919238
    endloop
  endfacet
  facet normal 0 -0.881925 -0.471389
    outer loop
      vertex -11.75 5.20104 0.497488
      vertex 11.75 5.08091 0.72224
      vertex -11.75 5.08091 0.72224
    endloop
  endfacet
  facet normal 0 -0.881925 -0.471389
    outer loop
      vertex 11.75 5.08091 0.72224
      vertex -11.75 5.20104 0.497488
      vertex 11.75 5.20104 0.497488
    endloop
  endfacet
  facet normal 0 0.471393 -0.881924
    outer loop
      vertex -11.75 3.27776 1.08091
      vertex 11.75 3.50251 1.20104
      vertex 11.75 3.27776 1.08091
    endloop
  endfacet
  facet normal 0 0.471393 -0.881924
    outer loop
      vertex 11.75 3.50251 1.20104
      vertex -11.75 3.27776 1.08091
      vertex -11.75 3.50251 1.20104
    endloop
  endfacet
  facet normal 0 -0.290295 0.956937
    outer loop
      vertex -11.75 4.49749 -1.20104
      vertex 11.75 4.25362 -1.27502
      vertex 11.75 4.49749 -1.20104
    endloop
  endfacet
  facet normal 0 -0.290295 0.956937
    outer loop
      vertex 11.75 4.25362 -1.27502
      vertex -11.75 4.49749 -1.20104
      vertex -11.75 4.25362 -1.27502
    endloop
  endfacet
  facet normal 0 -0.634389 0.773014
    outer loop
      vertex -11.75 4.91924 -0.919238
      vertex 11.75 4.72224 -1.08091
      vertex 11.75 4.91924 -0.919238
    endloop
  endfacet
  facet normal 0 -0.634389 0.773014
    outer loop
      vertex 11.75 4.72224 -1.08091
      vertex -11.75 4.91924 -0.919238
      vertex -11.75 4.72224 -1.08091
    endloop
  endfacet
  facet normal 0 -0.995184 0.0980207
    outer loop
      vertex -11.75 5.27502 -0.253617
      vertex 11.75 5.3 0
      vertex -11.75 5.3 0
    endloop
  endfacet
  facet normal 0 -0.995184 0.0980207
    outer loop
      vertex 11.75 5.3 0
      vertex -11.75 5.27502 -0.253617
      vertex 11.75 5.27502 -0.253617
    endloop
  endfacet
  facet normal 0 -0.881925 0.471389
    outer loop
      vertex -11.75 5.08091 -0.72224
      vertex 11.75 5.20104 -0.497488
      vertex -11.75 5.20104 -0.497488
    endloop
  endfacet
  facet normal 0 -0.881925 0.471389
    outer loop
      vertex 11.75 5.20104 -0.497488
      vertex -11.75 5.08091 -0.72224
      vertex 11.75 5.08091 -0.72224
    endloop
  endfacet
  facet normal 0 -0.290295 -0.956937
    outer loop
      vertex -11.75 4.25362 1.27502
      vertex 11.75 4.49749 1.20104
      vertex 11.75 4.25362 1.27502
    endloop
  endfacet
  facet normal -0 -0.290295 -0.956937
    outer loop
      vertex 11.75 4.49749 1.20104
      vertex -11.75 4.25362 1.27502
      vertex -11.75 4.49749 1.20104
    endloop
  endfacet
  facet normal 0 -0.471393 -0.881924
    outer loop
      vertex -11.75 4.49749 1.20104
      vertex 11.75 4.72224 1.08091
      vertex 11.75 4.49749 1.20104
    endloop
  endfacet
  facet normal -0 -0.471393 -0.881924
    outer loop
      vertex 11.75 4.72224 1.08091
      vertex -11.75 4.49749 1.20104
      vertex -11.75 4.72224 1.08091
    endloop
  endfacet
  facet normal 0 -0.0980195 -0.995184
    outer loop
      vertex -11.75 4 1.3
      vertex 11.75 4.25362 1.27502
      vertex 11.75 4 1.3
    endloop
  endfacet
  facet normal -0 -0.0980195 -0.995184
    outer loop
      vertex 11.75 4.25362 1.27502
      vertex -11.75 4 1.3
      vertex -11.75 4.25362 1.27502
    endloop
  endfacet
  facet normal 0 -0.773014 -0.634388
    outer loop
      vertex -11.75 5.08091 0.72224
      vertex 11.75 4.91924 0.919238
      vertex -11.75 4.91924 0.919238
    endloop
  endfacet
  facet normal 0 -0.773014 -0.634388
    outer loop
      vertex 11.75 4.91924 0.919238
      vertex -11.75 5.08091 0.72224
      vertex 11.75 5.08091 0.72224
    endloop
  endfacet
  facet normal 0 -0.956938 -0.290294
    outer loop
      vertex -11.75 5.27502 0.253617
      vertex 11.75 5.20104 0.497488
      vertex -11.75 5.20104 0.497488
    endloop
  endfacet
  facet normal 0 -0.956938 -0.290294
    outer loop
      vertex 11.75 5.20104 0.497488
      vertex -11.75 5.27502 0.253617
      vertex 11.75 5.27502 0.253617
    endloop
  endfacet
  facet normal -0 0.0980195 0.995184
    outer loop
      vertex -11.75 4 -1.3
      vertex 11.75 3.74638 -1.27502
      vertex 11.75 4 -1.3
    endloop
  endfacet
  facet normal 0 0.0980195 0.995184
    outer loop
      vertex 11.75 3.74638 -1.27502
      vertex -11.75 4 -1.3
      vertex -11.75 3.74638 -1.27502
    endloop
  endfacet
  facet normal 0 0.956938 0.290294
    outer loop
      vertex 11.75 2.79896 -0.497488
      vertex -11.75 2.72498 -0.253617
      vertex 11.75 2.72498 -0.253617
    endloop
  endfacet
  facet normal 0 0.956938 0.290294
    outer loop
      vertex -11.75 2.72498 -0.253617
      vertex 11.75 2.79896 -0.497488
      vertex -11.75 2.79896 -0.497488
    endloop
  endfacet
  facet normal 0 0.773014 0.634388
    outer loop
      vertex 11.75 3.08076 -0.919238
      vertex -11.75 2.91909 -0.72224
      vertex 11.75 2.91909 -0.72224
    endloop
  endfacet
  facet normal 0 0.773014 0.634388
    outer loop
      vertex -11.75 2.91909 -0.72224
      vertex 11.75 3.08076 -0.919238
      vertex -11.75 3.08076 -0.919238
    endloop
  endfacet
  facet normal -0 0.471393 0.881924
    outer loop
      vertex -11.75 3.50251 -1.20104
      vertex 11.75 3.27776 -1.08091
      vertex 11.75 3.50251 -1.20104
    endloop
  endfacet
  facet normal 0 0.471393 0.881924
    outer loop
      vertex 11.75 3.27776 -1.08091
      vertex -11.75 3.50251 -1.20104
      vertex -11.75 3.27776 -1.08091
    endloop
  endfacet
  facet normal 0 0.956938 -0.290294
    outer loop
      vertex 11.75 2.72498 0.253617
      vertex -11.75 2.79896 0.497488
      vertex 11.75 2.79896 0.497488
    endloop
  endfacet
  facet normal 0 0.956938 -0.290294
    outer loop
      vertex -11.75 2.79896 0.497488
      vertex 11.75 2.72498 0.253617
      vertex -11.75 2.72498 0.253617
    endloop
  endfacet
  facet normal 0 0.881925 -0.471389
    outer loop
      vertex 11.75 2.79896 0.497488
      vertex -11.75 2.91909 0.72224
      vertex 11.75 2.91909 0.72224
    endloop
  endfacet
  facet normal 0 0.881925 -0.471389
    outer loop
      vertex -11.75 2.91909 0.72224
      vertex 11.75 2.79896 0.497488
      vertex -11.75 2.79896 0.497488
    endloop
  endfacet
  facet normal 0 0.995184 -0.0980207
    outer loop
      vertex 11.75 2.7 0
      vertex -11.75 2.72498 0.253617
      vertex 11.75 2.72498 0.253617
    endloop
  endfacet
  facet normal 0 0.995184 -0.0980207
    outer loop
      vertex -11.75 2.72498 0.253617
      vertex 11.75 2.7 0
      vertex -11.75 2.7 0
    endloop
  endfacet
  facet normal 0 0.634389 -0.773014
    outer loop
      vertex -11.75 3.08076 0.919238
      vertex 11.75 3.27776 1.08091
      vertex 11.75 3.08076 0.919238
    endloop
  endfacet
  facet normal 0 0.634389 -0.773014
    outer loop
      vertex 11.75 3.27776 1.08091
      vertex -11.75 3.08076 0.919238
      vertex -11.75 3.27776 1.08091
    endloop
  endfacet
  facet normal 0 0.290295 -0.956937
    outer loop
      vertex -11.75 3.50251 1.20104
      vertex 11.75 3.74638 1.27502
      vertex 11.75 3.50251 1.20104
    endloop
  endfacet
  facet normal 0 0.290295 -0.956937
    outer loop
      vertex 11.75 3.74638 1.27502
      vertex -11.75 3.50251 1.20104
      vertex -11.75 3.74638 1.27502
    endloop
  endfacet
  facet normal 0 -0.471393 0.881924
    outer loop
      vertex -11.75 4.72224 -1.08091
      vertex 11.75 4.49749 -1.20104
      vertex 11.75 4.72224 -1.08091
    endloop
  endfacet
  facet normal 0 -0.471393 0.881924
    outer loop
      vertex 11.75 4.49749 -1.20104
      vertex -11.75 4.72224 -1.08091
      vertex -11.75 4.49749 -1.20104
    endloop
  endfacet
  facet normal 0 -0.773014 0.634388
    outer loop
      vertex -11.75 4.91924 -0.919238
      vertex 11.75 5.08091 -0.72224
      vertex -11.75 5.08091 -0.72224
    endloop
  endfacet
  facet normal 0 -0.773014 0.634388
    outer loop
      vertex 11.75 5.08091 -0.72224
      vertex -11.75 4.91924 -0.919238
      vertex 11.75 4.91924 -0.919238
    endloop
  endfacet
  facet normal 0 -0.956938 0.290294
    outer loop
      vertex -11.75 5.20104 -0.497488
      vertex 11.75 5.27502 -0.253617
      vertex -11.75 5.27502 -0.253617
    endloop
  endfacet
  facet normal 0 -0.956938 0.290294
    outer loop
      vertex 11.75 5.27502 -0.253617
      vertex -11.75 5.20104 -0.497488
      vertex 11.75 5.20104 -0.497488
    endloop
  endfacet
  facet normal 0 0.881925 0.471389
    outer loop
      vertex 11.75 2.91909 -0.72224
      vertex -11.75 2.79896 -0.497488
      vertex 11.75 2.79896 -0.497488
    endloop
  endfacet
  facet normal 0 0.881925 0.471389
    outer loop
      vertex -11.75 2.79896 -0.497488
      vertex 11.75 2.91909 -0.72224
      vertex -11.75 2.91909 -0.72224
    endloop
  endfacet
  facet normal -0 0.634389 0.773014
    outer loop
      vertex -11.75 3.27776 -1.08091
      vertex 11.75 3.08076 -0.919238
      vertex 11.75 3.27776 -1.08091
    endloop
  endfacet
  facet normal 0 0.634389 0.773014
    outer loop
      vertex 11.75 3.08076 -0.919238
      vertex -11.75 3.27776 -1.08091
      vertex -11.75 3.08076 -0.919238
    endloop
  endfacet
  facet normal -0 0.290295 0.956937
    outer loop
      vertex -11.75 3.74638 -1.27502
      vertex 11.75 3.50251 -1.20104
      vertex 11.75 3.74638 -1.27502
    endloop
  endfacet
  facet normal 0 0.290295 0.956937
    outer loop
      vertex 11.75 3.50251 -1.20104
      vertex -11.75 3.74638 -1.27502
      vertex -11.75 3.50251 -1.20104
    endloop
  endfacet
  facet normal 0 -0.0980195 0.995184
    outer loop
      vertex -11.75 -3.74638 -1.27502
      vertex 11.75 -4 -1.3
      vertex 11.75 -3.74638 -1.27502
    endloop
  endfacet
  facet normal 0 -0.0980195 0.995184
    outer loop
      vertex 11.75 -4 -1.3
      vertex -11.75 -3.74638 -1.27502
      vertex -11.75 -4 -1.3
    endloop
  endfacet
  facet normal 0 -0.0980195 -0.995184
    outer loop
      vertex -11.75 -4 1.3
      vertex 11.75 -3.74638 1.27502
      vertex 11.75 -4 1.3
    endloop
  endfacet
  facet normal -0 -0.0980195 -0.995184
    outer loop
      vertex 11.75 -3.74638 1.27502
      vertex -11.75 -4 1.3
      vertex -11.75 -3.74638 1.27502
    endloop
  endfacet
  facet normal 0 -0.995184 -0.0980207
    outer loop
      vertex -11.75 -2.7 0
      vertex 11.75 -2.72498 0.253617
      vertex -11.75 -2.72498 0.253617
    endloop
  endfacet
  facet normal 0 -0.995184 -0.0980207
    outer loop
      vertex 11.75 -2.72498 0.253617
      vertex -11.75 -2.7 0
      vertex 11.75 -2.7 0
    endloop
  endfacet
  facet normal 0 0.995184 0.0980207
    outer loop
      vertex 11.75 -5.27502 -0.253617
      vertex -11.75 -5.3 0
      vertex 11.75 -5.3 0
    endloop
  endfacet
  facet normal 0 0.995184 0.0980207
    outer loop
      vertex -11.75 -5.3 0
      vertex 11.75 -5.27502 -0.253617
      vertex -11.75 -5.27502 -0.253617
    endloop
  endfacet
  facet normal 0 -0.634389 -0.773014
    outer loop
      vertex -11.75 -3.27776 1.08091
      vertex 11.75 -3.08076 0.919238
      vertex 11.75 -3.27776 1.08091
    endloop
  endfacet
  facet normal -0 -0.634389 -0.773014
    outer loop
      vertex 11.75 -3.08076 0.919238
      vertex -11.75 -3.27776 1.08091
      vertex -11.75 -3.08076 0.919238
    endloop
  endfacet
  facet normal 0 -0.881925 -0.471389
    outer loop
      vertex -11.75 -2.79896 0.497488
      vertex 11.75 -2.91909 0.72224
      vertex -11.75 -2.91909 0.72224
    endloop
  endfacet
  facet normal 0 -0.881925 -0.471389
    outer loop
      vertex 11.75 -2.91909 0.72224
      vertex -11.75 -2.79896 0.497488
      vertex 11.75 -2.79896 0.497488
    endloop
  endfacet
  facet normal -0 0.471393 0.881924
    outer loop
      vertex -11.75 -4.49749 -1.20104
      vertex 11.75 -4.72224 -1.08091
      vertex 11.75 -4.49749 -1.20104
    endloop
  endfacet
  facet normal 0 0.471393 0.881924
    outer loop
      vertex 11.75 -4.72224 -1.08091
      vertex -11.75 -4.49749 -1.20104
      vertex -11.75 -4.72224 -1.08091
    endloop
  endfacet
  facet normal 0 -0.290295 0.956937
    outer loop
      vertex -11.75 -3.50251 -1.20104
      vertex 11.75 -3.74638 -1.27502
      vertex 11.75 -3.50251 -1.20104
    endloop
  endfacet
  facet normal 0 -0.290295 0.956937
    outer loop
      vertex 11.75 -3.74638 -1.27502
      vertex -11.75 -3.50251 -1.20104
      vertex -11.75 -3.74638 -1.27502
    endloop
  endfacet
  facet normal 0 -0.634389 0.773014
    outer loop
      vertex -11.75 -3.08076 -0.919238
      vertex 11.75 -3.27776 -1.08091
      vertex 11.75 -3.08076 -0.919238
    endloop
  endfacet
  facet normal 0 -0.634389 0.773014
    outer loop
      vertex 11.75 -3.27776 -1.08091
      vertex -11.75 -3.08076 -0.919238
      vertex -11.75 -3.27776 -1.08091
    endloop
  endfacet
  facet normal 0 -0.995184 0.0980207
    outer loop
      vertex -11.75 -2.72498 -0.253617
      vertex 11.75 -2.7 0
      vertex -11.75 -2.7 0
    endloop
  endfacet
  facet normal 0 -0.995184 0.0980207
    outer loop
      vertex 11.75 -2.7 0
      vertex -11.75 -2.72498 -0.253617
      vertex 11.75 -2.72498 -0.253617
    endloop
  endfacet
  facet normal 0 -0.881925 0.471389
    outer loop
      vertex -11.75 -2.91909 -0.72224
      vertex 11.75 -2.79896 -0.497488
      vertex -11.75 -2.79896 -0.497488
    endloop
  endfacet
  facet normal 0 -0.881925 0.471389
    outer loop
      vertex 11.75 -2.79896 -0.497488
      vertex -11.75 -2.91909 -0.72224
      vertex 11.75 -2.91909 -0.72224
    endloop
  endfacet
  facet normal 0 -0.471393 -0.881924
    outer loop
      vertex -11.75 -3.50251 1.20104
      vertex 11.75 -3.27776 1.08091
      vertex 11.75 -3.50251 1.20104
    endloop
  endfacet
  facet normal -0 -0.471393 -0.881924
    outer loop
      vertex 11.75 -3.27776 1.08091
      vertex -11.75 -3.50251 1.20104
      vertex -11.75 -3.27776 1.08091
    endloop
  endfacet
  facet normal 0 -0.290295 -0.956937
    outer loop
      vertex -11.75 -3.74638 1.27502
      vertex 11.75 -3.50251 1.20104
      vertex 11.75 -3.74638 1.27502
    endloop
  endfacet
  facet normal -0 -0.290295 -0.956937
    outer loop
      vertex 11.75 -3.50251 1.20104
      vertex -11.75 -3.74638 1.27502
      vertex -11.75 -3.50251 1.20104
    endloop
  endfacet
  facet normal 0 -0.773014 -0.634388
    outer loop
      vertex -11.75 -2.91909 0.72224
      vertex 11.75 -3.08076 0.919238
      vertex -11.75 -3.08076 0.919238
    endloop
  endfacet
  facet normal 0 -0.773014 -0.634388
    outer loop
      vertex 11.75 -3.08076 0.919238
      vertex -11.75 -2.91909 0.72224
      vertex 11.75 -2.91909 0.72224
    endloop
  endfacet
  facet normal 0 -0.956938 -0.290294
    outer loop
      vertex -11.75 -2.72498 0.253617
      vertex 11.75 -2.79896 0.497488
      vertex -11.75 -2.79896 0.497488
    endloop
  endfacet
  facet normal 0 -0.956938 -0.290294
    outer loop
      vertex 11.75 -2.79896 0.497488
      vertex -11.75 -2.72498 0.253617
      vertex 11.75 -2.72498 0.253617
    endloop
  endfacet
  facet normal 0 -0.471393 0.881924
    outer loop
      vertex -11.75 -3.27776 -1.08091
      vertex 11.75 -3.50251 -1.20104
      vertex 11.75 -3.27776 -1.08091
    endloop
  endfacet
  facet normal 0 -0.471393 0.881924
    outer loop
      vertex 11.75 -3.50251 -1.20104
      vertex -11.75 -3.27776 -1.08091
      vertex -11.75 -3.50251 -1.20104
    endloop
  endfacet
  facet normal 0 -0.773014 0.634388
    outer loop
      vertex -11.75 -3.08076 -0.919238
      vertex 11.75 -2.91909 -0.72224
      vertex -11.75 -2.91909 -0.72224
    endloop
  endfacet
  facet normal 0 -0.773014 0.634388
    outer loop
      vertex 11.75 -2.91909 -0.72224
      vertex -11.75 -3.08076 -0.919238
      vertex 11.75 -3.08076 -0.919238
    endloop
  endfacet
  facet normal 0 -0.956938 0.290294
    outer loop
      vertex -11.75 -2.79896 -0.497488
      vertex 11.75 -2.72498 -0.253617
      vertex -11.75 -2.72498 -0.253617
    endloop
  endfacet
  facet normal 0 -0.956938 0.290294
    outer loop
      vertex 11.75 -2.72498 -0.253617
      vertex -11.75 -2.79896 -0.497488
      vertex 11.75 -2.79896 -0.497488
    endloop
  endfacet
  facet normal 0 0.773014 0.634388
    outer loop
      vertex 11.75 -4.91924 -0.919238
      vertex -11.75 -5.08091 -0.72224
      vertex 11.75 -5.08091 -0.72224
    endloop
  endfacet
  facet normal 0 0.773014 0.634388
    outer loop
      vertex -11.75 -5.08091 -0.72224
      vertex 11.75 -4.91924 -0.919238
      vertex -11.75 -4.91924 -0.919238
    endloop
  endfacet
  facet normal -0 0.634389 0.773014
    outer loop
      vertex -11.75 -4.72224 -1.08091
      vertex 11.75 -4.91924 -0.919238
      vertex 11.75 -4.72224 -1.08091
    endloop
  endfacet
  facet normal 0 0.634389 0.773014
    outer loop
      vertex 11.75 -4.91924 -0.919238
      vertex -11.75 -4.72224 -1.08091
      vertex -11.75 -4.91924 -0.919238
    endloop
  endfacet
  facet normal -0 0.290295 0.956937
    outer loop
      vertex -11.75 -4.25362 -1.27502
      vertex 11.75 -4.49749 -1.20104
      vertex 11.75 -4.25362 -1.27502
    endloop
  endfacet
  facet normal 0 0.290295 0.956937
    outer loop
      vertex 11.75 -4.49749 -1.20104
      vertex -11.75 -4.25362 -1.27502
      vertex -11.75 -4.49749 -1.20104
    endloop
  endfacet
  facet normal -0 0.0980195 0.995184
    outer loop
      vertex -11.75 -4 -1.3
      vertex 11.75 -4.25362 -1.27502
      vertex 11.75 -4 -1.3
    endloop
  endfacet
  facet normal 0 0.0980195 0.995184
    outer loop
      vertex 11.75 -4.25362 -1.27502
      vertex -11.75 -4 -1.3
      vertex -11.75 -4.25362 -1.27502
    endloop
  endfacet
  facet normal 0 0.773014 -0.634388
    outer loop
      vertex 11.75 -5.08091 0.72224
      vertex -11.75 -4.91924 0.919238
      vertex 11.75 -4.91924 0.919238
    endloop
  endfacet
  facet normal 0 0.773014 -0.634388
    outer loop
      vertex -11.75 -4.91924 0.919238
      vertex 11.75 -5.08091 0.72224
      vertex -11.75 -5.08091 0.72224
    endloop
  endfacet
  facet normal 0 0.634389 -0.773014
    outer loop
      vertex -11.75 -4.91924 0.919238
      vertex 11.75 -4.72224 1.08091
      vertex 11.75 -4.91924 0.919238
    endloop
  endfacet
  facet normal 0 0.634389 -0.773014
    outer loop
      vertex 11.75 -4.72224 1.08091
      vertex -11.75 -4.91924 0.919238
      vertex -11.75 -4.72224 1.08091
    endloop
  endfacet
  facet normal 0 0.956938 0.290294
    outer loop
      vertex 11.75 -5.20104 -0.497488
      vertex -11.75 -5.27502 -0.253617
      vertex 11.75 -5.27502 -0.253617
    endloop
  endfacet
  facet normal 0 0.956938 0.290294
    outer loop
      vertex -11.75 -5.27502 -0.253617
      vertex 11.75 -5.20104 -0.497488
      vertex -11.75 -5.20104 -0.497488
    endloop
  endfacet
  facet normal 0 0.956938 -0.290294
    outer loop
      vertex 11.75 -5.27502 0.253617
      vertex -11.75 -5.20104 0.497488
      vertex 11.75 -5.20104 0.497488
    endloop
  endfacet
  facet normal 0 0.956938 -0.290294
    outer loop
      vertex -11.75 -5.20104 0.497488
      vertex 11.75 -5.27502 0.253617
      vertex -11.75 -5.27502 0.253617
    endloop
  endfacet
  facet normal 0 0.881925 -0.471389
    outer loop
      vertex 11.75 -5.20104 0.497488
      vertex -11.75 -5.08091 0.72224
      vertex 11.75 -5.08091 0.72224
    endloop
  endfacet
  facet normal 0 0.881925 -0.471389
    outer loop
      vertex -11.75 -5.08091 0.72224
      vertex 11.75 -5.20104 0.497488
      vertex -11.75 -5.20104 0.497488
    endloop
  endfacet
  facet normal 0 0.471393 -0.881924
    outer loop
      vertex -11.75 -4.72224 1.08091
      vertex 11.75 -4.49749 1.20104
      vertex 11.75 -4.72224 1.08091
    endloop
  endfacet
  facet normal 0 0.471393 -0.881924
    outer loop
      vertex 11.75 -4.49749 1.20104
      vertex -11.75 -4.72224 1.08091
      vertex -11.75 -4.49749 1.20104
    endloop
  endfacet
  facet normal 0 0.290295 -0.956937
    outer loop
      vertex -11.75 -4.49749 1.20104
      vertex 11.75 -4.25362 1.27502
      vertex 11.75 -4.49749 1.20104
    endloop
  endfacet
  facet normal 0 0.290295 -0.956937
    outer loop
      vertex 11.75 -4.25362 1.27502
      vertex -11.75 -4.49749 1.20104
      vertex -11.75 -4.25362 1.27502
    endloop
  endfacet
  facet normal 0 0.0980195 -0.995184
    outer loop
      vertex -11.75 -4.25362 1.27502
      vertex 11.75 -4 1.3
      vertex 11.75 -4.25362 1.27502
    endloop
  endfacet
  facet normal 0 0.0980195 -0.995184
    outer loop
      vertex 11.75 -4 1.3
      vertex -11.75 -4.25362 1.27502
      vertex -11.75 -4 1.3
    endloop
  endfacet
  facet normal 0 0.881925 0.471389
    outer loop
      vertex 11.75 -5.08091 -0.72224
      vertex -11.75 -5.20104 -0.497488
      vertex 11.75 -5.20104 -0.497488
    endloop
  endfacet
  facet normal 0 0.881925 0.471389
    outer loop
      vertex -11.75 -5.20104 -0.497488
      vertex 11.75 -5.08091 -0.72224
      vertex -11.75 -5.08091 -0.72224
    endloop
  endfacet
  facet normal 0 0.995184 -0.0980207
    outer loop
      vertex 11.75 -5.3 0
      vertex -11.75 -5.27502 0.253617
      vertex 11.75 -5.27502 0.253617
    endloop
  endfacet
  facet normal 0 0.995184 -0.0980207
    outer loop
      vertex -11.75 -5.27502 0.253617
      vertex 11.75 -5.3 0
      vertex -11.75 -5.3 0
    endloop
  endfacet
  facet normal -0.995177 -0.0980984 0
    outer loop
      vertex 10.05 0 -2.5
      vertex 10.025 0.253617 2.5
      vertex 10.025 0.253617 -2.5
    endloop
  endfacet
  facet normal -0.995177 -0.0980984 0
    outer loop
      vertex 10.025 0.253617 2.5
      vertex 10.05 0 -2.5
      vertex 10.05 0 2.5
    endloop
  endfacet
  facet normal 0.995184 -0.0980207 0
    outer loop
      vertex 7.45 0 2.5
      vertex 7.47498 0.253617 -2.5
      vertex 7.47498 0.253617 2.5
    endloop
  endfacet
  facet normal 0.995184 -0.0980207 0
    outer loop
      vertex 7.47498 0.253617 -2.5
      vertex 7.45 0 2.5
      vertex 7.45 0 -2.5
    endloop
  endfacet
  facet normal 0.0980195 -0.995184 0
    outer loop
      vertex 8.49638 1.27502 -2.5
      vertex 8.75 1.3 2.5
      vertex 8.49638 1.27502 2.5
    endloop
  endfacet
  facet normal 0.0980195 -0.995184 0
    outer loop
      vertex 8.75 1.3 2.5
      vertex 8.49638 1.27502 -2.5
      vertex 8.75 1.3 -2.5
    endloop
  endfacet
  facet normal -0.0980195 0.995184 0
    outer loop
      vertex 9.00362 -1.27502 -2.5
      vertex 8.75 -1.3 2.5
      vertex 9.00362 -1.27502 2.5
    endloop
  endfacet
  facet normal -0.0980195 0.995184 0
    outer loop
      vertex 8.75 -1.3 2.5
      vertex 9.00362 -1.27502 -2.5
      vertex 8.75 -1.3 -2.5
    endloop
  endfacet
  facet normal -0.634389 -0.773014 0
    outer loop
      vertex 9.47224 1.08091 -2.5
      vertex 9.66924 0.919238 2.5
      vertex 9.47224 1.08091 2.5
    endloop
  endfacet
  facet normal -0.634389 -0.773014 -0
    outer loop
      vertex 9.66924 0.919238 2.5
      vertex 9.47224 1.08091 -2.5
      vertex 9.66924 0.919238 -2.5
    endloop
  endfacet
  facet normal 0.634389 -0.773014 0
    outer loop
      vertex 7.83076 0.919238 -2.5
      vertex 8.02776 1.08091 2.5
      vertex 7.83076 0.919238 2.5
    endloop
  endfacet
  facet normal 0.634389 -0.773014 0
    outer loop
      vertex 8.02776 1.08091 2.5
      vertex 7.83076 0.919238 -2.5
      vertex 8.02776 1.08091 -2.5
    endloop
  endfacet
  facet normal 0.290295 -0.956937 0
    outer loop
      vertex 8.25251 1.20104 -2.5
      vertex 8.49638 1.27502 2.5
      vertex 8.25251 1.20104 2.5
    endloop
  endfacet
  facet normal 0.290295 -0.956937 0
    outer loop
      vertex 8.49638 1.27502 2.5
      vertex 8.25251 1.20104 -2.5
      vertex 8.49638 1.27502 -2.5
    endloop
  endfacet
  facet normal -0.881925 0.471389 0
    outer loop
      vertex 9.83091 -0.72224 -2.5
      vertex 9.95104 -0.497488 2.5
      vertex 9.95104 -0.497488 -2.5
    endloop
  endfacet
  facet normal -0.881925 0.471389 0
    outer loop
      vertex 9.95104 -0.497488 2.5
      vertex 9.83091 -0.72224 -2.5
      vertex 9.83091 -0.72224 2.5
    endloop
  endfacet
  facet normal -0.881925 -0.471389 0
    outer loop
      vertex 9.95104 0.497488 -2.5
      vertex 9.83091 0.72224 2.5
      vertex 9.83091 0.72224 -2.5
    endloop
  endfacet
  facet normal -0.881925 -0.471389 0
    outer loop
      vertex 9.83091 0.72224 2.5
      vertex 9.95104 0.497488 -2.5
      vertex 9.95104 0.497488 2.5
    endloop
  endfacet
  facet normal -0.956959 -0.290222 0
    outer loop
      vertex 10.025 0.253617 -2.5
      vertex 9.95104 0.497488 2.5
      vertex 9.95104 0.497488 -2.5
    endloop
  endfacet
  facet normal -0.956959 -0.290222 0
    outer loop
      vertex 9.95104 0.497488 2.5
      vertex 10.025 0.253617 -2.5
      vertex 10.025 0.253617 2.5
    endloop
  endfacet
  facet normal -0.773014 -0.634388 0
    outer loop
      vertex 9.83091 0.72224 -2.5
      vertex 9.66924 0.919238 2.5
      vertex 9.66924 0.919238 -2.5
    endloop
  endfacet
  facet normal -0.773014 -0.634388 0
    outer loop
      vertex 9.66924 0.919238 2.5
      vertex 9.83091 0.72224 -2.5
      vertex 9.83091 0.72224 2.5
    endloop
  endfacet
  facet normal -0.290295 -0.956937 0
    outer loop
      vertex 9.00362 1.27502 -2.5
      vertex 9.24749 1.20104 2.5
      vertex 9.00362 1.27502 2.5
    endloop
  endfacet
  facet normal -0.290295 -0.956937 -0
    outer loop
      vertex 9.24749 1.20104 2.5
      vertex 9.00362 1.27502 -2.5
      vertex 9.24749 1.20104 -2.5
    endloop
  endfacet
  facet normal -0.0980195 -0.995184 0
    outer loop
      vertex 8.75 1.3 -2.5
      vertex 9.00362 1.27502 2.5
      vertex 8.75 1.3 2.5
    endloop
  endfacet
  facet normal -0.0980195 -0.995184 -0
    outer loop
      vertex 9.00362 1.27502 2.5
      vertex 8.75 1.3 -2.5
      vertex 9.00362 1.27502 -2.5
    endloop
  endfacet
  facet normal -0.471393 -0.881924 0
    outer loop
      vertex 9.24749 1.20104 -2.5
      vertex 9.47224 1.08091 2.5
      vertex 9.24749 1.20104 2.5
    endloop
  endfacet
  facet normal -0.471393 -0.881924 -0
    outer loop
      vertex 9.47224 1.08091 2.5
      vertex 9.24749 1.20104 -2.5
      vertex 9.47224 1.08091 -2.5
    endloop
  endfacet
  facet normal 0.881925 -0.471389 0
    outer loop
      vertex 7.54896 0.497488 2.5
      vertex 7.66909 0.72224 -2.5
      vertex 7.66909 0.72224 2.5
    endloop
  endfacet
  facet normal 0.881925 -0.471389 0
    outer loop
      vertex 7.66909 0.72224 -2.5
      vertex 7.54896 0.497488 2.5
      vertex 7.54896 0.497488 -2.5
    endloop
  endfacet
  facet normal 0.773014 -0.634388 0
    outer loop
      vertex 7.66909 0.72224 2.5
      vertex 7.83076 0.919238 -2.5
      vertex 7.83076 0.919238 2.5
    endloop
  endfacet
  facet normal 0.773014 -0.634388 0
    outer loop
      vertex 7.83076 0.919238 -2.5
      vertex 7.66909 0.72224 2.5
      vertex 7.66909 0.72224 -2.5
    endloop
  endfacet
  facet normal 0.956938 -0.290294 0
    outer loop
      vertex 7.47498 0.253617 2.5
      vertex 7.54896 0.497488 -2.5
      vertex 7.54896 0.497488 2.5
    endloop
  endfacet
  facet normal 0.956938 -0.290294 0
    outer loop
      vertex 7.54896 0.497488 -2.5
      vertex 7.47498 0.253617 2.5
      vertex 7.47498 0.253617 -2.5
    endloop
  endfacet
  facet normal 0.471393 -0.881924 0
    outer loop
      vertex 8.02776 1.08091 -2.5
      vertex 8.25251 1.20104 2.5
      vertex 8.02776 1.08091 2.5
    endloop
  endfacet
  facet normal 0.471393 -0.881924 0
    outer loop
      vertex 8.25251 1.20104 2.5
      vertex 8.02776 1.08091 -2.5
      vertex 8.25251 1.20104 -2.5
    endloop
  endfacet
  facet normal -0.634389 0.773014 0
    outer loop
      vertex 9.66924 -0.919238 -2.5
      vertex 9.47224 -1.08091 2.5
      vertex 9.66924 -0.919238 2.5
    endloop
  endfacet
  facet normal -0.634389 0.773014 0
    outer loop
      vertex 9.47224 -1.08091 2.5
      vertex 9.66924 -0.919238 -2.5
      vertex 9.47224 -1.08091 -2.5
    endloop
  endfacet
  facet normal -0.773014 0.634388 0
    outer loop
      vertex 9.66924 -0.919238 -2.5
      vertex 9.83091 -0.72224 2.5
      vertex 9.83091 -0.72224 -2.5
    endloop
  endfacet
  facet normal -0.773014 0.634388 0
    outer loop
      vertex 9.83091 -0.72224 2.5
      vertex 9.66924 -0.919238 -2.5
      vertex 9.66924 -0.919238 2.5
    endloop
  endfacet
  facet normal -0.956959 0.290222 0
    outer loop
      vertex 9.95104 -0.497488 -2.5
      vertex 10.025 -0.253617 2.5
      vertex 10.025 -0.253617 -2.5
    endloop
  endfacet
  facet normal -0.956959 0.290222 0
    outer loop
      vertex 10.025 -0.253617 2.5
      vertex 9.95104 -0.497488 -2.5
      vertex 9.95104 -0.497488 2.5
    endloop
  endfacet
  facet normal -0.995177 0.0980984 0
    outer loop
      vertex 10.025 -0.253617 -2.5
      vertex 10.05 0 2.5
      vertex 10.05 0 -2.5
    endloop
  endfacet
  facet normal -0.995177 0.0980984 0
    outer loop
      vertex 10.05 0 2.5
      vertex 10.025 -0.253617 -2.5
      vertex 10.025 -0.253617 2.5
    endloop
  endfacet
  facet normal 0.634389 0.773014 -0
    outer loop
      vertex 8.02776 -1.08091 -2.5
      vertex 7.83076 -0.919238 2.5
      vertex 8.02776 -1.08091 2.5
    endloop
  endfacet
  facet normal 0.634389 0.773014 0
    outer loop
      vertex 7.83076 -0.919238 2.5
      vertex 8.02776 -1.08091 -2.5
      vertex 7.83076 -0.919238 -2.5
    endloop
  endfacet
  facet normal 0.881925 0.471389 0
    outer loop
      vertex 7.66909 -0.72224 2.5
      vertex 7.54896 -0.497488 -2.5
      vertex 7.54896 -0.497488 2.5
    endloop
  endfacet
  facet normal 0.881925 0.471389 0
    outer loop
      vertex 7.54896 -0.497488 -2.5
      vertex 7.66909 -0.72224 2.5
      vertex 7.66909 -0.72224 -2.5
    endloop
  endfacet
  facet normal 0.773014 0.634388 0
    outer loop
      vertex 7.83076 -0.919238 2.5
      vertex 7.66909 -0.72224 -2.5
      vertex 7.66909 -0.72224 2.5
    endloop
  endfacet
  facet normal 0.773014 0.634388 0
    outer loop
      vertex 7.66909 -0.72224 -2.5
      vertex 7.83076 -0.919238 2.5
      vertex 7.83076 -0.919238 -2.5
    endloop
  endfacet
  facet normal 0.995184 0.0980207 0
    outer loop
      vertex 7.47498 -0.253617 2.5
      vertex 7.45 0 -2.5
      vertex 7.45 0 2.5
    endloop
  endfacet
  facet normal 0.995184 0.0980207 0
    outer loop
      vertex 7.45 0 -2.5
      vertex 7.47498 -0.253617 2.5
      vertex 7.47498 -0.253617 -2.5
    endloop
  endfacet
  facet normal 0.956938 0.290294 0
    outer loop
      vertex 7.54896 -0.497488 2.5
      vertex 7.47498 -0.253617 -2.5
      vertex 7.47498 -0.253617 2.5
    endloop
  endfacet
  facet normal 0.956938 0.290294 0
    outer loop
      vertex 7.47498 -0.253617 -2.5
      vertex 7.54896 -0.497488 2.5
      vertex 7.54896 -0.497488 -2.5
    endloop
  endfacet
  facet normal -0.471393 0.881924 0
    outer loop
      vertex 9.47224 -1.08091 -2.5
      vertex 9.24749 -1.20104 2.5
      vertex 9.47224 -1.08091 2.5
    endloop
  endfacet
  facet normal -0.471393 0.881924 0
    outer loop
      vertex 9.24749 -1.20104 2.5
      vertex 9.47224 -1.08091 -2.5
      vertex 9.24749 -1.20104 -2.5
    endloop
  endfacet
  facet normal -0.290295 0.956937 0
    outer loop
      vertex 9.24749 -1.20104 -2.5
      vertex 9.00362 -1.27502 2.5
      vertex 9.24749 -1.20104 2.5
    endloop
  endfacet
  facet normal -0.290295 0.956937 0
    outer loop
      vertex 9.00362 -1.27502 2.5
      vertex 9.24749 -1.20104 -2.5
      vertex 9.00362 -1.27502 -2.5
    endloop
  endfacet
  facet normal 0.290295 0.956937 -0
    outer loop
      vertex 8.49638 -1.27502 -2.5
      vertex 8.25251 -1.20104 2.5
      vertex 8.49638 -1.27502 2.5
    endloop
  endfacet
  facet normal 0.290295 0.956937 0
    outer loop
      vertex 8.25251 -1.20104 2.5
      vertex 8.49638 -1.27502 -2.5
      vertex 8.25251 -1.20104 -2.5
    endloop
  endfacet
  facet normal 0.0980195 0.995184 -0
    outer loop
      vertex 8.75 -1.3 -2.5
      vertex 8.49638 -1.27502 2.5
      vertex 8.75 -1.3 2.5
    endloop
  endfacet
  facet normal 0.0980195 0.995184 0
    outer loop
      vertex 8.49638 -1.27502 2.5
      vertex 8.75 -1.3 -2.5
      vertex 8.49638 -1.27502 -2.5
    endloop
  endfacet
  facet normal 0.471393 0.881924 -0
    outer loop
      vertex 8.25251 -1.20104 -2.5
      vertex 8.02776 -1.08091 2.5
      vertex 8.25251 -1.20104 2.5
    endloop
  endfacet
  facet normal 0.471393 0.881924 0
    outer loop
      vertex 8.02776 -1.08091 2.5
      vertex 8.25251 -1.20104 -2.5
      vertex 8.02776 -1.08091 -2.5
    endloop
  endfacet
  facet normal -0.995184 -0.0980207 0
    outer loop
      vertex -7.45 0 -2.5
      vertex -7.47498 0.253617 2.5
      vertex -7.47498 0.253617 -2.5
    endloop
  endfacet
  facet normal -0.995184 -0.0980207 0
    outer loop
      vertex -7.47498 0.253617 2.5
      vertex -7.45 0 -2.5
      vertex -7.45 0 2.5
    endloop
  endfacet
  facet normal 0.995177 -0.0980984 0
    outer loop
      vertex -10.05 0 2.5
      vertex -10.025 0.253617 -2.5
      vertex -10.025 0.253617 2.5
    endloop
  endfacet
  facet normal 0.995177 -0.0980984 0
    outer loop
      vertex -10.025 0.253617 -2.5
      vertex -10.05 0 2.5
      vertex -10.05 0 -2.5
    endloop
  endfacet
  facet normal 0.0980195 -0.995184 0
    outer loop
      vertex -9.00362 1.27502 -2.5
      vertex -8.75 1.3 2.5
      vertex -9.00362 1.27502 2.5
    endloop
  endfacet
  facet normal 0.0980195 -0.995184 0
    outer loop
      vertex -8.75 1.3 2.5
      vertex -9.00362 1.27502 -2.5
      vertex -8.75 1.3 -2.5
    endloop
  endfacet
  facet normal -0.0980195 0.995184 0
    outer loop
      vertex -8.49638 -1.27502 -2.5
      vertex -8.75 -1.3 2.5
      vertex -8.49638 -1.27502 2.5
    endloop
  endfacet
  facet normal -0.0980195 0.995184 0
    outer loop
      vertex -8.75 -1.3 2.5
      vertex -8.49638 -1.27502 -2.5
      vertex -8.75 -1.3 -2.5
    endloop
  endfacet
  facet normal -0.634389 -0.773014 0
    outer loop
      vertex -8.02776 1.08091 -2.5
      vertex -7.83076 0.919238 2.5
      vertex -8.02776 1.08091 2.5
    endloop
  endfacet
  facet normal -0.634389 -0.773014 -0
    outer loop
      vertex -7.83076 0.919238 2.5
      vertex -8.02776 1.08091 -2.5
      vertex -7.83076 0.919238 -2.5
    endloop
  endfacet
  facet normal 0.634389 -0.773014 0
    outer loop
      vertex -9.66924 0.919238 -2.5
      vertex -9.47224 1.08091 2.5
      vertex -9.66924 0.919238 2.5
    endloop
  endfacet
  facet normal 0.634389 -0.773014 0
    outer loop
      vertex -9.47224 1.08091 2.5
      vertex -9.66924 0.919238 -2.5
      vertex -9.47224 1.08091 -2.5
    endloop
  endfacet
  facet normal 0.290295 -0.956937 0
    outer loop
      vertex -9.24749 1.20104 -2.5
      vertex -9.00362 1.27502 2.5
      vertex -9.24749 1.20104 2.5
    endloop
  endfacet
  facet normal 0.290295 -0.956937 0
    outer loop
      vertex -9.00362 1.27502 2.5
      vertex -9.24749 1.20104 -2.5
      vertex -9.00362 1.27502 -2.5
    endloop
  endfacet
  facet normal -0.881925 0.471389 0
    outer loop
      vertex -7.66909 -0.72224 -2.5
      vertex -7.54896 -0.497488 2.5
      vertex -7.54896 -0.497488 -2.5
    endloop
  endfacet
  facet normal -0.881925 0.471389 0
    outer loop
      vertex -7.54896 -0.497488 2.5
      vertex -7.66909 -0.72224 -2.5
      vertex -7.66909 -0.72224 2.5
    endloop
  endfacet
  facet normal -0.881925 -0.471389 0
    outer loop
      vertex -7.54896 0.497488 -2.5
      vertex -7.66909 0.72224 2.5
      vertex -7.66909 0.72224 -2.5
    endloop
  endfacet
  facet normal -0.881925 -0.471389 0
    outer loop
      vertex -7.66909 0.72224 2.5
      vertex -7.54896 0.497488 -2.5
      vertex -7.54896 0.497488 2.5
    endloop
  endfacet
  facet normal -0.956938 -0.290294 0
    outer loop
      vertex -7.47498 0.253617 -2.5
      vertex -7.54896 0.497488 2.5
      vertex -7.54896 0.497488 -2.5
    endloop
  endfacet
  facet normal -0.956938 -0.290294 0
    outer loop
      vertex -7.54896 0.497488 2.5
      vertex -7.47498 0.253617 -2.5
      vertex -7.47498 0.253617 2.5
    endloop
  endfacet
  facet normal -0.773014 -0.634388 0
    outer loop
      vertex -7.66909 0.72224 -2.5
      vertex -7.83076 0.919238 2.5
      vertex -7.83076 0.919238 -2.5
    endloop
  endfacet
  facet normal -0.773014 -0.634388 0
    outer loop
      vertex -7.83076 0.919238 2.5
      vertex -7.66909 0.72224 -2.5
      vertex -7.66909 0.72224 2.5
    endloop
  endfacet
  facet normal -0.290295 -0.956937 0
    outer loop
      vertex -8.49638 1.27502 -2.5
      vertex -8.25251 1.20104 2.5
      vertex -8.49638 1.27502 2.5
    endloop
  endfacet
  facet normal -0.290295 -0.956937 -0
    outer loop
      vertex -8.25251 1.20104 2.5
      vertex -8.49638 1.27502 -2.5
      vertex -8.25251 1.20104 -2.5
    endloop
  endfacet
  facet normal -0.0980195 -0.995184 0
    outer loop
      vertex -8.75 1.3 -2.5
      vertex -8.49638 1.27502 2.5
      vertex -8.75 1.3 2.5
    endloop
  endfacet
  facet normal -0.0980195 -0.995184 -0
    outer loop
      vertex -8.49638 1.27502 2.5
      vertex -8.75 1.3 -2.5
      vertex -8.49638 1.27502 -2.5
    endloop
  endfacet
  facet normal -0.471393 -0.881924 0
    outer loop
      vertex -8.25251 1.20104 -2.5
      vertex -8.02776 1.08091 2.5
      vertex -8.25251 1.20104 2.5
    endloop
  endfacet
  facet normal -0.471393 -0.881924 -0
    outer loop
      vertex -8.02776 1.08091 2.5
      vertex -8.25251 1.20104 -2.5
      vertex -8.02776 1.08091 -2.5
    endloop
  endfacet
  facet normal 0.881925 -0.471389 0
    outer loop
      vertex -9.95104 0.497488 2.5
      vertex -9.83091 0.72224 -2.5
      vertex -9.83091 0.72224 2.5
    endloop
  endfacet
  facet normal 0.881925 -0.471389 0
    outer loop
      vertex -9.83091 0.72224 -2.5
      vertex -9.95104 0.497488 2.5
      vertex -9.95104 0.497488 -2.5
    endloop
  endfacet
  facet normal 0.773014 -0.634388 0
    outer loop
      vertex -9.83091 0.72224 2.5
      vertex -9.66924 0.919238 -2.5
      vertex -9.66924 0.919238 2.5
    endloop
  endfacet
  facet normal 0.773014 -0.634388 0
    outer loop
      vertex -9.66924 0.919238 -2.5
      vertex -9.83091 0.72224 2.5
      vertex -9.83091 0.72224 -2.5
    endloop
  endfacet
  facet normal 0.956959 -0.290222 0
    outer loop
      vertex -10.025 0.253617 2.5
      vertex -9.95104 0.497488 -2.5
      vertex -9.95104 0.497488 2.5
    endloop
  endfacet
  facet normal 0.956959 -0.290222 0
    outer loop
      vertex -9.95104 0.497488 -2.5
      vertex -10.025 0.253617 2.5
      vertex -10.025 0.253617 -2.5
    endloop
  endfacet
  facet normal 0.471393 -0.881924 0
    outer loop
      vertex -9.47224 1.08091 -2.5
      vertex -9.24749 1.20104 2.5
      vertex -9.47224 1.08091 2.5
    endloop
  endfacet
  facet normal 0.471393 -0.881924 0
    outer loop
      vertex -9.24749 1.20104 2.5
      vertex -9.47224 1.08091 -2.5
      vertex -9.24749 1.20104 -2.5
    endloop
  endfacet
  facet normal -0.995184 0.0980207 0
    outer loop
      vertex -7.47498 -0.253617 -2.5
      vertex -7.45 0 2.5
      vertex -7.45 0 -2.5
    endloop
  endfacet
  facet normal -0.995184 0.0980207 0
    outer loop
      vertex -7.45 0 2.5
      vertex -7.47498 -0.253617 -2.5
      vertex -7.47498 -0.253617 2.5
    endloop
  endfacet
  facet normal -0.634389 0.773014 0
    outer loop
      vertex -7.83076 -0.919238 -2.5
      vertex -8.02776 -1.08091 2.5
      vertex -7.83076 -0.919238 2.5
    endloop
  endfacet
  facet normal -0.634389 0.773014 0
    outer loop
      vertex -8.02776 -1.08091 2.5
      vertex -7.83076 -0.919238 -2.5
      vertex -8.02776 -1.08091 -2.5
    endloop
  endfacet
  facet normal -0.773014 0.634388 0
    outer loop
      vertex -7.83076 -0.919238 -2.5
      vertex -7.66909 -0.72224 2.5
      vertex -7.66909 -0.72224 -2.5
    endloop
  endfacet
  facet normal -0.773014 0.634388 0
    outer loop
      vertex -7.66909 -0.72224 2.5
      vertex -7.83076 -0.919238 -2.5
      vertex -7.83076 -0.919238 2.5
    endloop
  endfacet
  facet normal -0.956938 0.290294 0
    outer loop
      vertex -7.54896 -0.497488 -2.5
      vertex -7.47498 -0.253617 2.5
      vertex -7.47498 -0.253617 -2.5
    endloop
  endfacet
  facet normal -0.956938 0.290294 0
    outer loop
      vertex -7.47498 -0.253617 2.5
      vertex -7.54896 -0.497488 -2.5
      vertex -7.54896 -0.497488 2.5
    endloop
  endfacet
  facet normal 0.881925 0.471389 0
    outer loop
      vertex -9.83091 -0.72224 2.5
      vertex -9.95104 -0.497488 -2.5
      vertex -9.95104 -0.497488 2.5
    endloop
  endfacet
  facet normal 0.881925 0.471389 0
    outer loop
      vertex -9.95104 -0.497488 -2.5
      vertex -9.83091 -0.72224 2.5
      vertex -9.83091 -0.72224 -2.5
    endloop
  endfacet
  facet normal 0.773014 0.634388 0
    outer loop
      vertex -9.66924 -0.919238 2.5
      vertex -9.83091 -0.72224 -2.5
      vertex -9.83091 -0.72224 2.5
    endloop
  endfacet
  facet normal 0.773014 0.634388 0
    outer loop
      vertex -9.83091 -0.72224 -2.5
      vertex -9.66924 -0.919238 2.5
      vertex -9.66924 -0.919238 -2.5
    endloop
  endfacet
  facet normal 0.0980195 0.995184 -0
    outer loop
      vertex -8.75 -1.3 -2.5
      vertex -9.00362 -1.27502 2.5
      vertex -8.75 -1.3 2.5
    endloop
  endfacet
  facet normal 0.0980195 0.995184 0
    outer loop
      vertex -9.00362 -1.27502 2.5
      vertex -8.75 -1.3 -2.5
      vertex -9.00362 -1.27502 -2.5
    endloop
  endfacet
  facet normal 0.956959 0.290222 0
    outer loop
      vertex -9.95104 -0.497488 2.5
      vertex -10.025 -0.253617 -2.5
      vertex -10.025 -0.253617 2.5
    endloop
  endfacet
  facet normal 0.956959 0.290222 0
    outer loop
      vertex -10.025 -0.253617 -2.5
      vertex -9.95104 -0.497488 2.5
      vertex -9.95104 -0.497488 -2.5
    endloop
  endfacet
  facet normal 0.995177 0.0980984 0
    outer loop
      vertex -10.025 -0.253617 2.5
      vertex -10.05 0 -2.5
      vertex -10.05 0 2.5
    endloop
  endfacet
  facet normal 0.995177 0.0980984 0
    outer loop
      vertex -10.05 0 -2.5
      vertex -10.025 -0.253617 2.5
      vertex -10.025 -0.253617 -2.5
    endloop
  endfacet
  facet normal -0.471393 0.881924 0
    outer loop
      vertex -8.02776 -1.08091 -2.5
      vertex -8.25251 -1.20104 2.5
      vertex -8.02776 -1.08091 2.5
    endloop
  endfacet
  facet normal -0.471393 0.881924 0
    outer loop
      vertex -8.25251 -1.20104 2.5
      vertex -8.02776 -1.08091 -2.5
      vertex -8.25251 -1.20104 -2.5
    endloop
  endfacet
  facet normal -0.290295 0.956937 0
    outer loop
      vertex -8.25251 -1.20104 -2.5
      vertex -8.49638 -1.27502 2.5
      vertex -8.25251 -1.20104 2.5
    endloop
  endfacet
  facet normal -0.290295 0.956937 0
    outer loop
      vertex -8.49638 -1.27502 2.5
      vertex -8.25251 -1.20104 -2.5
      vertex -8.49638 -1.27502 -2.5
    endloop
  endfacet
  facet normal 0.290295 0.956937 -0
    outer loop
      vertex -9.00362 -1.27502 -2.5
      vertex -9.24749 -1.20104 2.5
      vertex -9.00362 -1.27502 2.5
    endloop
  endfacet
  facet normal 0.290295 0.956937 0
    outer loop
      vertex -9.24749 -1.20104 2.5
      vertex -9.00362 -1.27502 -2.5
      vertex -9.24749 -1.20104 -2.5
    endloop
  endfacet
  facet normal 0.471393 0.881924 -0
    outer loop
      vertex -9.24749 -1.20104 -2.5
      vertex -9.47224 -1.08091 2.5
      vertex -9.24749 -1.20104 2.5
    endloop
  endfacet
  facet normal 0.471393 0.881924 0
    outer loop
      vertex -9.47224 -1.08091 2.5
      vertex -9.24749 -1.20104 -2.5
      vertex -9.47224 -1.08091 -2.5
    endloop
  endfacet
  facet normal 0.634389 0.773014 -0
    outer loop
      vertex -9.47224 -1.08091 -2.5
      vertex -9.66924 -0.919238 2.5
      vertex -9.47224 -1.08091 2.5
    endloop
  endfacet
  facet normal 0.634389 0.773014 0
    outer loop
      vertex -9.66924 -0.919238 2.5
      vertex -9.47224 -1.08091 -2.5
      vertex -9.66924 -0.919238 -2.5
    endloop
  endfacet
endsolid OpenSCAD_Model
